<?xml version="1.0" encoding="UTF-8" standalone="no"?>
<!-- Created with Inkscape (http://www.inkscape.org/) -->

<svg
   xmlns:dc="http://purl.org/dc/elements/1.1/"
   xmlns:cc="http://creativecommons.org/ns#"
   xmlns:rdf="http://www.w3.org/1999/02/22-rdf-syntax-ns#"
   xmlns:svg="http://www.w3.org/2000/svg"
   xmlns="http://www.w3.org/2000/svg"
   xmlns:sodipodi="http://sodipodi.sourceforge.net/DTD/sodipodi-0.dtd"
   xmlns:inkscape="http://www.inkscape.org/namespaces/inkscape"
   width="487.04425mm"
   height="290.03085mm"
   viewBox="0 0 487.04425 290.03085"
   version="1.1"
   id="svg3844"
   inkscape:version="0.92.3 (2405546, 2018-03-11)"
   sodipodi:docname="BFParameters.svg">
  <defs
     id="defs3838">
    <marker
       inkscape:stockid="Arrow1Mend"
       orient="auto"
       refY="0"
       refX="0"
       id="marker1223"
       style="overflow:visible"
       inkscape:isstock="true">
      <path
         id="path930"
         d="M 0,0 5,-5 -12.5,0 5,5 Z"
         style="fill:#f3907e;fill-opacity:1;fill-rule:evenodd;stroke:#f3907e;stroke-width:1.00000003pt;stroke-opacity:1"
         transform="matrix(-0.4,0,0,-0.4,-4,0)"
         inkscape:connector-curvature="0" />
    </marker>
    <marker
       inkscape:stockid="Arrow1Mstart"
       orient="auto"
       refY="0"
       refX="0"
       id="marker1184"
       style="overflow:visible"
       inkscape:isstock="true">
      <path
         id="path927"
         d="M 0,0 5,-5 -12.5,0 5,5 Z"
         style="fill:#f3907e;fill-opacity:1;fill-rule:evenodd;stroke:#f3907e;stroke-width:1.00000003pt;stroke-opacity:1"
         transform="matrix(0.4,0,0,0.4,4,0)"
         inkscape:connector-curvature="0" />
    </marker>
    <inkscape:perspective
       sodipodi:type="inkscape:persp3d"
       inkscape:vp_x="0 : 250.00001 : 1"
       inkscape:vp_y="0 : 1000 : 0"
       inkscape:vp_z="699.99999 : 250.00001 : 1"
       inkscape:persp3d-origin="350 : 166.66668 : 1"
       id="perspective899" />
    <marker
       inkscape:stockid="Arrow1Mend"
       orient="auto"
       refY="0"
       refX="0"
       id="marker4439"
       style="overflow:visible"
       inkscape:isstock="true">
      <path
         id="path4437"
         d="M 0,0 5,-5 -12.5,0 5,5 Z"
         style="fill:#ffffff;fill-opacity:1;fill-rule:evenodd;stroke:#eeeeec;stroke-width:1.00000003pt;stroke-opacity:1"
         transform="matrix(-0.4,0,0,-0.4,-4,0)"
         inkscape:connector-curvature="0" />
    </marker>
    <marker
       inkscape:stockid="Arrow1Mstart"
       orient="auto"
       refY="0"
       refX="0"
       id="Arrow1Mstart"
       style="overflow:visible"
       inkscape:isstock="true">
      <path
         id="path842"
         d="M 0,0 5,-5 -12.5,0 5,5 Z"
         style="fill:#ffffff;fill-opacity:1;fill-rule:evenodd;stroke:#eeeeec;stroke-width:1.00000003pt;stroke-opacity:1"
         transform="matrix(0.4,0,0,0.4,4,0)"
         inkscape:connector-curvature="0" />
    </marker>
    <marker
       inkscape:stockid="Arrow1Mend"
       orient="auto"
       refY="0"
       refX="0"
       id="Arrow1Mend"
       style="overflow:visible"
       inkscape:isstock="true">
      <path
         id="path845"
         d="M 0,0 5,-5 -12.5,0 5,5 Z"
         style="fill:#000000;fill-opacity:1;fill-rule:evenodd;stroke:#000000;stroke-width:1.00000003pt;stroke-opacity:1"
         transform="matrix(-0.4,0,0,-0.4,-4,0)"
         inkscape:connector-curvature="0" />
    </marker>
    <clipPath
       clipPathUnits="userSpaceOnUse"
       id="clipPath22">
      <path
         d="M 17.64,17.64 H 342.36 V 126.36 H 17.64 Z"
         id="path20"
         inkscape:connector-curvature="0" />
    </clipPath>
  </defs>
  <sodipodi:namedview
     id="base"
     pagecolor="#ffffff"
     bordercolor="#666666"
     borderopacity="1.0"
     inkscape:pageopacity="0.0"
     inkscape:pageshadow="2"
     inkscape:zoom="0.67748044"
     inkscape:cx="876.13419"
     inkscape:cy="657.23048"
     inkscape:document-units="mm"
     inkscape:current-layer="layer1"
     showgrid="false"
     inkscape:window-width="2560"
     inkscape:window-height="1375"
     inkscape:window-x="0"
     inkscape:window-y="0"
     inkscape:window-maximized="1"
     fit-margin-top="0"
     fit-margin-left="0"
     fit-margin-right="0"
     fit-margin-bottom="0" />
  <metadata
     id="metadata3841">
    <rdf:RDF>
      <cc:Work
         rdf:about="">
        <dc:format>image/svg+xml</dc:format>
        <dc:type
           rdf:resource="http://purl.org/dc/dcmitype/StillImage" />
        <dc:title></dc:title>
      </cc:Work>
    </rdf:RDF>
  </metadata>
  <g
     inkscape:label="Layer 1"
     inkscape:groupmode="layer"
     id="layer1"
     transform="translate(-95.803877,87.225657)">
    <path
       style="fill:none;fill-rule:evenodd;stroke:#eeeeec;stroke-width:2.16499996;stroke-linecap:butt;stroke-linejoin:miter;stroke-miterlimit:4;stroke-dasharray:none;stroke-opacity:1;marker-start:url(#Arrow1Mstart);marker-end:url(#marker4439)"
       d="M 121.5507,-82.959132 V 176.82684 h 457.0309"
       id="path4389"
       inkscape:connector-curvature="0" />
    <g
       aria-label="Parameter"
       style="font-style:normal;font-variant:normal;font-weight:normal;font-stretch:normal;font-size:4.93888855px;line-height:125%;font-family:'Liberation Sans';-inkscape-font-specification:'Liberation Sans';letter-spacing:0px;word-spacing:0px;fill:#000000;fill-opacity:1;stroke:none;stroke-width:0.26458332px;stroke-linecap:butt;stroke-linejoin:miter;stroke-opacity:1"
       id="text4591"
       transform="translate(-0.75595238,10.961309)">
      <g
         aria-label="Bres"
         style="font-style:normal;font-variant:normal;font-weight:normal;font-stretch:normal;font-size:22.87513351px;line-height:125%;font-family:'Liberation Sans';-inkscape-font-specification:'Liberation Sans';letter-spacing:0px;word-spacing:0px;fill:#f62196;fill-opacity:1;stroke:none;stroke-width:0.42890877px;stroke-linecap:butt;stroke-linejoin:miter;stroke-opacity:1"
         id="text883">
        <path
           d="m 381.4811,139.94477 q 0,2.09986 -1.53022,3.27266 -1.53022,1.16163 -4.25558,1.16163 h -6.38895 v -15.73782 h 5.71878 q 5.54007,0 5.54007,3.81996 0,1.39619 -0.78186,2.3456 -0.78187,0.94941 -2.21156,1.27332 1.87647,0.22339 2.8929,1.26215 1.01642,1.0276 1.01642,2.6025 z m -3.06044,-7.22667 q 0,-1.27332 -0.87122,-1.82063 -0.87122,-0.5473 -2.52431,-0.5473 h -3.58541 v 4.98159 h 3.58541 q 1.70893,0 2.54665,-0.63666 0.84888,-0.64783 0.84888,-1.977 z m 0.90473,7.05913 q 0,-2.78121 -3.90933,-2.78121 h -3.97634 v 5.67411 h 4.14388 q 1.95467,0 2.84823,-0.72602 0.89356,-0.72602 0.89356,-2.16688 z"
           style="fill:#f62196;fill-opacity:1;stroke-width:0.42890877px"
           id="path1718"
           inkscape:connector-curvature="0" />
        <path
           d="m 383.74069,148.95409 v -6.02595 q 0,-0.82766 -0.0436,-1.82956 h 1.23423 q 0.0581,1.33587 0.0581,1.6045 h 0.029 q 0.31219,-1.00917 0.71876,-1.37944 0.40657,-0.37027 1.14711,-0.37027 0.26136,0 0.52999,0.0726 v 1.19792 q -0.26137,-0.0726 -0.69698,-0.0726 -0.81314,0 -1.24149,0.70424 -0.42835,0.69698 -0.42835,2.00381 v 4.09474 z"
           style="font-size:14.86883545px;baseline-shift:sub;fill:#f62196;fill-opacity:1;stroke-width:0.42890877px"
           id="path1720"
           inkscape:connector-curvature="0" />
        <path
           d="m 389.67951,145.30222 q 0,1.35039 0.55904,2.08367 0.55903,0.73328 1.63354,0.73328 0.84944,0 1.35765,-0.34123 0.51547,-0.34123 0.69697,-0.86396 l 1.14711,0.3267 q -0.70424,1.85861 -3.20173,1.85861 -1.74245,0 -2.65723,-1.03821 -0.90752,-1.0382 -0.90752,-3.08557 0,-1.94573 0.90752,-2.98393 0.91478,-1.03821 2.6064,-1.03821 3.46311,0 3.46311,4.1746 v 0.17425 z m 4.25446,-1.00191 q -0.1089,-1.24149 -0.63163,-1.80778 -0.52273,-0.57355 -1.50286,-0.57355 -0.95108,0 -1.51011,0.63889 -0.55178,0.63164 -0.59534,1.74244 z"
           style="font-size:14.86883545px;baseline-shift:sub;fill:#f62196;fill-opacity:1;stroke-width:0.42890877px"
           id="path1722"
           inkscape:connector-curvature="0" />
        <path
           d="m 402.84947,146.78329 q 0,1.11081 -0.84218,1.7134 -0.83492,0.6026 -2.34504,0.6026 -1.46656,0 -2.26517,-0.47917 -0.79136,-0.48643 -1.03095,-1.51012 l 1.15437,-0.22506 q 0.16698,0.63163 0.68972,0.9293 0.52273,0.29041 1.45203,0.29041 0.99464,0 1.45203,-0.30493 0.46466,-0.30493 0.46466,-0.91478 0,-0.46466 -0.31945,-0.75506 -0.31945,-0.29041 -1.03095,-0.47917 l -0.93656,-0.24685 q -1.12533,-0.29041 -1.6045,-0.56629 -0.47191,-0.28315 -0.74054,-0.68246 -0.26862,-0.39931 -0.26862,-0.98012 0,-1.07451 0.76232,-1.63354 0.76958,-0.5663 2.23613,-0.5663 1.29957,0 2.06189,0.4574 0.76958,0.45739 0.97286,1.46655 l -1.17615,0.1452 q -0.1089,-0.52273 -0.58807,-0.79862 -0.47191,-0.28314 -1.27053,-0.28314 -0.88574,0 -1.30683,0.26862 -0.42109,0.26863 -0.42109,0.81314 0,0.33397 0.17424,0.55178 0.17425,0.2178 0.51548,0.37027 0.34122,0.15246 1.43751,0.42109 1.0382,0.26136 1.4956,0.48643 0.45739,0.2178 0.71875,0.48643 0.26863,0.26863 0.41383,0.62437 0.14521,0.34849 0.14521,0.79862 z"
           style="font-size:14.86883545px;baseline-shift:sub;fill:#f62196;fill-opacity:1;stroke-width:0.42890877px"
           id="path1724"
           inkscape:connector-curvature="0" />
      </g>
      <g
         aria-label="Γ"
         style="font-style:normal;font-variant:normal;font-weight:normal;font-stretch:normal;font-size:35.5374527px;line-height:125%;font-family:'Liberation Sans';-inkscape-font-specification:'Liberation Sans';letter-spacing:0px;word-spacing:0px;fill:#f3907e;fill-opacity:1;stroke:none;stroke-width:0.66632718px;stroke-linecap:butt;stroke-linejoin:miter;stroke-opacity:1"
         id="text889">
        <path
           d="m 347.17788,-78.596128 v 2.706954 h -12.35482 v 21.742397 h -3.31428 v -24.449351 z"
           style="fill:#f3907e;fill-opacity:1;stroke-width:0.66632718px"
           id="path1708"
           inkscape:connector-curvature="0" />
      </g>
      <g
         aria-label="δbg"
         style="font-style:normal;font-variant:normal;font-weight:normal;font-stretch:normal;font-size:20.74743271px;line-height:125%;font-family:'Liberation Sans';-inkscape-font-specification:'Liberation Sans';letter-spacing:0px;word-spacing:0px;fill:#a267f5;fill-opacity:1;stroke:none;stroke-width:0.38901433px;stroke-linecap:butt;stroke-linejoin:miter;stroke-opacity:1"
         id="text893">
        <path
           d="m 185.13184,9.0053273 q 0,-0.8813606 -0.27353,-1.6512849 -0.26339,-0.7800548 -0.68888,-1.4385427 -0.41535,-0.6686184 -1.26632,-1.5499791 -1.81338,0.6483573 -2.77578,1.8538966 -0.96241,1.2055393 -0.96241,2.7859101 0,1.7120687 0.79019,2.6744737 0.80031,0.952275 2.20847,0.952275 1.4588,0 2.20846,-0.911753 0.7598,-0.911752 0.7598,-2.7149957 z M 182.52828,0.08028425 180.96817,-7.6040626e-4 184.16943,3.2815483 q 1.2258,1.2561922 1.75259,2.0666388 0.53692,0.800316 0.83071,1.6918072 0.29379,0.8813607 0.29379,1.9248107 0,2.299642 -1.30685,3.65714 -1.30684,1.357498 -3.57609,1.357498 -2.28952,0 -3.60649,-1.327106 -1.30685,-1.327106 -1.30685,-3.6672708 0,-1.965333 1.18528,-3.373484 1.18528,-1.4182815 3.52544,-2.2287281 l -3.23165,-3.43426742 V -1.2569526 h 7.42572 v 1.33723685 z"
           style="fill:#a267f5;fill-opacity:1;stroke-width:0.38901433px"
           id="path1711"
           inkscape:connector-curvature="0" />
        <path
           d="m 194.86175,14.330975 q 0,3.727041 -2.62078,3.727041 -0.80994,0 -1.3499,-0.289735 -0.53337,-0.296319 -0.8692,-0.948222 h -0.0132 q 0,0.204131 -0.0263,0.625563 -0.0263,0.414847 -0.0395,0.480696 h -1.14577 q 0.0395,-0.355583 0.0395,-1.468428 V 8.1543598 h 1.18528 v 2.7854032 q 0,0.428017 -0.0263,1.007486 h 0.0263 q 0.32924,-0.684827 0.8692,-0.981146 0.54655,-0.29632 1.3499,-0.29632 1.3499,0 1.98205,0.908713 0.63873,0.908713 0.63873,2.752479 z m -1.24454,0.03951 q 0,-1.494767 -0.39509,-2.140085 -0.39509,-0.645318 -1.28405,-0.645318 -1.0009,0 -1.46184,0.684827 -0.45436,0.684828 -0.45436,2.17301 0,1.402579 0.44777,2.074236 0.44777,0.665073 1.45526,0.665073 0.89554,0 1.29063,-0.658488 0.40168,-0.665072 0.40168,-2.153255 z"
           style="font-size:13.48582935px;baseline-shift:sub;fill:#a267f5;fill-opacity:1;stroke-width:0.38901433px"
           id="path1713"
           inkscape:connector-curvature="0" />
        <path
           d="m 199.04315,20.724891 q -1.16552,0 -1.85693,-0.460941 -0.69142,-0.454357 -0.88896,-1.297221 l 1.19186,-0.171207 q 0.11853,0.493866 0.52021,0.757261 0.40826,0.26998 1.06675,0.26998 1.77133,0 1.77133,-2.074237 v -1.145768 h -0.0132 q -0.33583,0.684827 -0.92188,1.033826 -0.58606,0.342413 -1.36966,0.342413 -1.31039,0 -1.92937,-0.869204 -0.61239,-0.869204 -0.61239,-2.732724 0,-1.88986 0.65849,-2.785403 0.66507,-0.902128 2.01497,-0.902128 0.75726,0 1.31039,0.348998 0.55971,0.342414 0.86262,0.981147 h 0.0132 q 0,-0.197546 0.0263,-0.684827 0.0263,-0.487281 0.0527,-0.533375 h 1.12601 q -0.0395,0.355583 -0.0395,1.475012 v 5.445694 q 0,3.002704 -2.98295,3.002704 z m 1.80426,-6.360992 q 0,-0.869203 -0.23706,-1.494767 -0.23705,-0.632148 -0.67165,-0.961392 -0.42802,-0.335829 -0.97457,-0.335829 -0.90871,0 -1.32356,0.658488 -0.41484,0.658488 -0.41484,2.1335 0,1.461843 0.3885,2.100576 0.38851,0.638733 1.33015,0.638733 0.55971,0 0.99432,-0.329243 0.4346,-0.329244 0.67165,-0.941638 0.23706,-0.618978 0.23706,-1.468428 z"
           style="font-size:13.48582935px;baseline-shift:sub;fill:#a267f5;fill-opacity:1;stroke-width:0.38901433px"
           id="path1715"
           inkscape:connector-curvature="0" />
      </g>
      <path
         style="fill:none;fill-rule:evenodd;stroke:#f62196;stroke-width:2.06500006;stroke-linecap:butt;stroke-linejoin:miter;stroke-miterlimit:4;stroke-dasharray:4.13000015, 4.13000015;stroke-dashoffset:0;stroke-opacity:1"
         d="M 348.64528,-14.754765 V 164.40594"
         id="path897"
         inkscape:connector-curvature="0" />
      <path
         style="fill:none;fill-rule:evenodd;stroke:#f3907e;stroke-width:1.76499999;stroke-linecap:butt;stroke-linejoin:miter;stroke-miterlimit:4;stroke-dasharray:none;stroke-opacity:1;marker-start:url(#marker1184);marker-end:url(#marker1223)"
         d="M 288.01785,-37.130952 H 398.38688"
         id="path919"
         inkscape:connector-curvature="0" />
      <path
         style="fill:none;fill-rule:evenodd;stroke:#a267f5;stroke-width:1.16499996;stroke-linecap:butt;stroke-linejoin:miter;stroke-miterlimit:4;stroke-dasharray:none;stroke-opacity:1"
         d="M 233.96726,32.848444 H 121.38413 c 38.69246,-2.717593 78.96528,-4.219523 113.33908,-10.259156"
         id="path1609"
         inkscape:connector-curvature="0"
         sodipodi:nodetypes="ccc" />
    </g>
    <g
       id="g16"
       transform="matrix(1.5421949,0,0,-1.5421949,70.661061,129.02648)">
      <g
         id="g18"
         clip-path="url(#clipPath22)"
         style="stroke:#18c0c4;stroke-opacity:1">
        <path
           d="m 32.4,55.256779 18.930661,-0.874384 15.381163,-0.923947 13.014829,-0.999779 10.648497,-1.028552 9.465331,-1.135111 7.690579,-1.129286 7.099,-1.261775 5.91583,-1.260749 5.32425,-1.343002 4.73267,-1.401592 4.73266,-1.644619 4.14108,-1.683025 3.5495,-1.65958 3.5495,-1.892371 3.5495,-2.15349 3.5495,-2.42912 4.14108,-3.143984 5.91583,-4.550394 1.77475,-1.103652 1.18317,-0.566381 1.18316,-0.372 1.18317,-0.11638 1.18317,0.209212 1.18316,0.610879 1.18317,1.089658 1.18317,1.638596 1.18316,2.239965 1.18317,2.863596 1.18317,3.467622 1.77474,6.169485 2.95792,11.690014 2.36633,9.06356 1.77475,5.874947 1.18317,3.332167 1.18317,2.839024 1.18316,2.359015 1.18317,1.912866 1.18316,1.512541 1.18317,1.163044 1.18317,0.864465 1.18316,0.613782 1.18317,0.406298 1.77475,0.301645 1.77475,0.02373 2.36633,-0.264108 2.95792,-0.621159 4.73266,-1.299096 11.24008,-3.175347 6.50742,-1.569919 6.50741,-1.345409 7.099,-1.24422 8.28216,-1.210346 8.87375,-1.069735 10.6485,-1.047416 12.42325,-0.980017 14.19799,-0.889086 17.15591,-0.84193 14.198,-0.55862 v 0"
           style="fill:none;stroke:#18c0c4;stroke-width:1.5;stroke-linecap:butt;stroke-linejoin:round;stroke-miterlimit:10;stroke-dasharray:none;stroke-dashoffset:0;stroke-opacity:1"
           id="path24"
           inkscape:connector-curvature="0" />
      </g>
    </g>
    <g
       aria-label="Magnetic Field"
       style="font-style:normal;font-variant:normal;font-weight:normal;font-stretch:normal;font-size:4.93888855px;line-height:125%;font-family:'CMU Sans Serif';-inkscape-font-specification:'CMU Sans Serif';letter-spacing:0px;word-spacing:0px;fill:#000000;fill-opacity:1;stroke:none;stroke-width:0.26458332px;stroke-linecap:butt;stroke-linejoin:miter;stroke-opacity:1"
       id="text954">
      <path
         d="m 306.87663,199.89832 h 1.10066 v -8.80534 c 0.127,0.62089 0.46567,1.50989 1.016,3.00567 l 2.11667,5.48922 h 1.016 l 2.17311,-5.65855 0.84667,-2.31423 0.14111,-0.52211 0.0141,0.45156 v 8.35378 h 1.10067 v -9.79312 h -1.62278 l -2.17311,5.67267 c -0.69145,1.80622 -0.91723,2.51178 -0.95956,2.82222 h -0.0141 c -0.0564,-0.32455 -0.39511,-1.27 -0.97367,-2.83633 l -2.17311,-5.65856 h -1.60866 z"
         style="font-size:14.11111069px;fill:#eeeeec;stroke-width:0.26458332px"
         id="path956"
         inkscape:connector-curvature="0" />
      <path
         d="m 318.43363,198.30376 c 0,0.64911 0.42333,1.74978 1.60866,1.74978 1.55222,0 2.32834,-0.635 2.34245,-0.64911 v 0.49389 h 1.07244 v -4.30389 c -0.0705,-1.18534 -1.00189,-2.20134 -2.34244,-2.20134 -0.889,0 -1.53811,0.22578 -2.21545,0.62089 l 0.0847,0.94545 c 0.46567,-0.32456 1.05833,-0.71967 2.11667,-0.71967 0.18344,0 0.55033,0.0141 0.889,0.42333 0.35277,0.42334 0.35277,0.90311 0.36688,1.29823 v 0.47977 c -1.45344,0.0141 -3.92288,0.36689 -3.92288,1.86267 z m 1.03011,-0.0141 c 0,-0.889 1.87677,-1.10067 2.89277,-1.11478 v 0.889 c 0,0.91722 -0.97366,1.11478 -1.58044,1.11478 -0.762,0 -1.31233,-0.381 -1.31233,-0.889 z"
         style="font-size:14.11111069px;fill:#eeeeec;stroke-width:0.26458332px"
         id="path958"
         inkscape:connector-curvature="0" />
      <path
         d="m 324.97368,200.9002 c 0,1.08656 1.397,1.905 3.13267,1.905 1.72156,0 3.13267,-0.81844 3.13267,-1.91911 0,-0.16933 -0.0282,-0.35277 -0.0706,-0.52211 -0.39511,-1.41111 -2.11667,-1.43933 -3.048,-1.43933 h -1.05833 c -0.67734,0 -0.79022,-0.47978 -0.79022,-0.74789 0,-0.0988 0.0141,-0.23989 0.15522,-0.52211 0.31044,0.19755 0.66322,0.42333 1.28411,0.42333 1.31233,0 2.25778,-1.10066 2.25778,-2.30011 0,-0.60678 -0.18345,-1.016 -0.55034,-1.50989 l 0.127,0.11289 c 0.254,-0.0141 0.69145,-0.0564 1.05834,-0.0564 0.28222,0 0.55033,0.0141 0.83255,0.0423 l -0.15522,-0.889 c -0.762,0 -1.50989,0.14111 -2.21544,0.43744 l 0.0282,0.0282 c -0.46567,-0.32456 -0.86078,-0.46567 -1.38289,-0.46567 -1.15711,0 -2.24367,0.93133 -2.24367,2.30011 0,0.28222 0.0423,0.84667 0.46567,1.397 v 0.0141 c -0.254,0.33867 -0.40922,0.71967 -0.40922,1.18534 0,0.45155 0.127,0.74788 0.35277,1.07244 -0.55033,0.32456 -0.90311,0.87489 -0.90311,1.45344 z m 0.98778,0 c 0,-0.40922 0.31045,-0.889 0.889,-0.94544 l 0.40922,-0.0141 h 0.889 c 1.524,0 2.10256,0.39511 2.10256,0.97367 0,0.64911 -1.016,1.08655 -2.159,1.08655 -0.77611,0 -2.13078,-0.31044 -2.13078,-1.10067 z m 0.49389,-5.12233 c 0,-1.19944 0.74789,-1.49578 1.25589,-1.49578 0.762,0 1.27,0.56445 1.27,1.48167 0,1.19944 -0.74789,1.49578 -1.25589,1.49578 -0.762,0 -1.27,-0.56445 -1.27,-1.48167 z"
         style="font-size:14.11111069px;fill:#eeeeec;stroke-width:0.26458332px"
         id="path960"
         inkscape:connector-curvature="0" />
      <path
         d="m 332.77713,199.89832 h 1.10066 v -3.38667 c 0,-1.04422 0.35278,-2.17311 1.43934,-2.17311 1.38289,0 1.38289,1.05833 1.38289,1.59455 v 3.96523 h 1.10066 v -4.064 c 0,-0.98778 -0.127,-2.35656 -1.93322,-2.35656 -1.24178,0 -1.86267,0.80433 -2.06022,1.05833 v -0.98777 h -1.03011 z"
         style="font-size:14.11111069px;fill:#eeeeec;stroke-width:0.26458332px"
         id="path962"
         inkscape:connector-curvature="0" />
      <path
         d="m 339.43162,196.7092 c 0,1.74978 1.22767,3.34434 3.07622,3.34434 0.889,0 1.62278,-0.31045 2.22956,-0.71967 l -0.0847,-0.93133 c -0.62089,0.45155 -1.25589,0.77611 -2.14489,0.77611 -1.07244,0 -2.032,-0.93133 -2.08844,-2.38478 h 4.37444 v -0.40922 c -0.127,-2.413 -1.50989,-2.99156 -2.51177,-2.99156 -1.49578,0 -2.85045,1.42523 -2.85045,3.31611 z m 1.05833,-0.69144 c 0.15523,-0.69144 0.71967,-1.74978 1.79212,-1.74978 0.40922,0 1.46755,0.18345 1.70744,1.74978 z"
         style="font-size:14.11111069px;fill:#eeeeec;stroke-width:0.26458332px"
         id="path964"
         inkscape:connector-curvature="0" />
      <path
         d="m 345.46213,194.45143 h 1.18534 v 3.79589 c 0,1.55222 0.69144,1.80622 1.15711,1.80622 0.635,0 1.35466,-0.14111 2.08844,-0.53622 l -0.22578,-0.83256 c -0.19755,0.14111 -0.635,0.46567 -1.24177,0.46567 -0.73378,0 -0.762,-0.83256 -0.762,-1.22767 v -3.47133 h 1.98966 v -0.83256 h -1.98966 v -1.778 h -0.98778 v 1.778 h -1.21356 z"
         style="font-size:14.11111069px;fill:#eeeeec;stroke-width:0.26458332px"
         id="path966"
         inkscape:connector-curvature="0" />
      <path
         d="m 351.44988,199.89832 h 1.05833 v -6.27945 h -1.05833 z m -0.0988,-8.32556 h 1.27 v -1.25589 h -1.27 z"
         style="font-size:14.11111069px;fill:#eeeeec;stroke-width:0.26458332px"
         id="path968"
         inkscape:connector-curvature="0" />
      <path
         d="m 354.16318,196.75154 c 0,1.80622 1.32644,3.302 3.06211,3.302 0.97367,0 1.66511,-0.31045 2.30011,-0.71967 l -0.0706,-0.94544 c -0.45155,0.31044 -1.11477,0.762 -2.21544,0.762 -1.18533,0 -1.97556,-1.03011 -1.97556,-2.39889 0,-1.22767 0.62089,-2.45534 1.98967,-2.45534 1.11478,0 1.48167,0.29634 2.032,0.64912 l 0.16933,-0.93134 c -0.86077,-0.49389 -1.31233,-0.62089 -2.18722,-0.62089 -1.97555,0 -3.10444,1.72156 -3.10444,3.35845 z"
         style="font-size:14.11111069px;fill:#eeeeec;stroke-width:0.26458332px"
         id="path970"
         inkscape:connector-curvature="0" />
      <path
         d="m 365.96492,199.89832 h 1.27 v -4.445 h 4.24744 v -0.86078 h -4.24744 v -3.54189 l 0.45155,0.0141 h 3.27378 l 0.33867,0.0141 h 0.77611 v -0.93133 h -6.11011 z"
         style="font-size:14.11111069px;fill:#eeeeec;stroke-width:0.26458332px"
         id="path972"
         inkscape:connector-curvature="0" />
      <path
         d="m 373.80165,199.89832 h 1.05834 v -6.27945 h -1.05834 z m -0.0988,-8.32556 h 1.27 v -1.25589 h -1.27 z"
         style="font-size:14.11111069px;fill:#eeeeec;stroke-width:0.26458332px"
         id="path974"
         inkscape:connector-curvature="0" />
      <path
         d="m 376.50084,196.7092 c 0,1.74978 1.22767,3.34434 3.07622,3.34434 0.889,0 1.62278,-0.31045 2.22956,-0.71967 l -0.0847,-0.93133 c -0.62089,0.45155 -1.25589,0.77611 -2.14489,0.77611 -1.07244,0 -2.032,-0.93133 -2.08844,-2.38478 h 4.37444 v -0.40922 c -0.127,-2.413 -1.50988,-2.99156 -2.51177,-2.99156 -1.49578,0 -2.85045,1.42523 -2.85045,3.31611 z m 1.05834,-0.69144 c 0.15522,-0.69144 0.71966,-1.74978 1.79211,-1.74978 0.40922,0 1.46755,0.18345 1.70744,1.74978 z"
         style="font-size:14.11111069px;fill:#eeeeec;stroke-width:0.26458332px"
         id="path976"
         inkscape:connector-curvature="0" />
      <path
         d="m 383.42036,199.89832 h 1.05833 v -10.18823 h -1.05833 z"
         style="font-size:14.11111069px;fill:#eeeeec;stroke-width:0.26458332px"
         id="path978"
         inkscape:connector-curvature="0" />
      <path
         d="m 386.13367,196.77976 c 0,1.67922 0.98777,3.27378 2.42711,3.27378 0.93133,0 1.60866,-0.42334 2.08844,-0.889 v 0.73378 h 1.11478 v -10.18823 h -1.07244 v 4.52967 c -0.49389,-0.39511 -1.15712,-0.77611 -2.04612,-0.77611 -1.397,0 -2.51177,1.45344 -2.51177,3.31611 z m 1.10066,-0.0141 c 0,-1.84856 1.22767,-2.42711 2.04611,-2.42711 h 0.0282 c 0.15522,0 0.60677,0.0141 1.04422,0.42333 0.254,0.23989 0.29633,0.32456 0.29633,0.55033 v 2.69523 c 0,0.43744 -0.66322,1.17122 -1.50989,1.17122 -0.762,0 -1.905,-0.55033 -1.905,-2.413 z"
         style="font-size:14.11111069px;fill:#eeeeec;stroke-width:0.26458332px"
         id="path980"
         inkscape:connector-curvature="0" />
    </g>
    <g
       aria-label="Cross section"
       transform="rotate(-90)"
       style="font-style:normal;font-variant:normal;font-weight:normal;font-stretch:normal;font-size:4.93888855px;line-height:125%;font-family:'CMU Sans Serif';-inkscape-font-specification:'CMU Sans Serif';letter-spacing:0px;word-spacing:0px;fill:#000000;fill-opacity:1;stroke:none;stroke-width:0.26458332px;stroke-linecap:butt;stroke-linejoin:miter;stroke-opacity:1"
       id="text985">
      <path
         d="m -88.031946,101.01088 c 0,2.70933 1.848555,5.207 4.628444,5.207 1.185333,0 1.749778,-0.18345 2.737555,-0.77611 l -0.08467,-0.98778 c -0.705556,0.45155 -1.185334,0.86078 -2.638778,0.86078 -1.933222,0 -3.372555,-1.91912 -3.372555,-4.30389 0,-2.370669 1.439333,-4.303892 3.330222,-4.303892 1.114777,0 1.707444,0.324556 2.398888,0.747889 l 0.211667,-1.171222 c -1.255889,-0.465667 -1.890889,-0.479778 -2.794,-0.479778 -2.017889,0 -4.416777,2.003778 -4.416777,5.207003 z"
         style="font-size:14.11111069px;fill:#eeeeec;stroke-width:0.26458332px"
         id="path987"
         inkscape:connector-curvature="0" />
      <path
         d="m -78.807911,105.90743 h 1.058334 v -2.90689 c 0,-2.06022 1.566333,-2.54 2.398889,-2.56822 v -0.945443 c -1.495778,0.02822 -2.243667,0.987773 -2.469445,1.340553 v -1.269997 h -0.987778 z"
         style="font-size:14.11111069px;fill:#eeeeec;stroke-width:0.26458332px"
         id="path989"
         inkscape:connector-curvature="0" />
      <path
         d="m -74.704444,102.78888 c 0,1.91911 1.481667,3.27377 3.090333,3.27377 1.608667,0 3.104445,-1.34055 3.104445,-3.25966 0,-1.76389 -1.298222,-3.400779 -3.104445,-3.400779 -1.665111,0 -3.090333,1.467559 -3.090333,3.386669 z m 1.100667,-0.14111 c 0,-1.70745 1.086555,-2.37067 1.989666,-2.37067 0.903112,0 1.989667,0.64911 1.989667,2.37067 0,1.76388 -1.044222,2.51177 -1.989667,2.51177 -0.931333,0 -1.989666,-0.73377 -1.989666,-2.51177 z"
         style="font-size:14.11111069px;fill:#eeeeec;stroke-width:0.26458332px"
         id="path991"
         inkscape:connector-curvature="0" />
      <path
         d="m -67.691222,105.42765 c 1.058334,0.57856 1.919111,0.635 2.398889,0.635 1.890889,0 2.300111,-1.17122 2.300111,-1.94733 0,-0.91722 -0.649111,-1.50989 -1.227667,-1.76389 -0.874888,-0.39511 -2.384777,-0.21166 -2.384777,-1.24178 0,-0.35277 0.211666,-0.86077 1.185333,-0.86077 1.016,0 1.467556,0.254 2.032,0.52211 l 0.155222,-0.931335 c -0.776111,-0.324556 -1.27,-0.437444 -2.060222,-0.437444 -1.919111,0 -2.314222,1.114779 -2.314222,1.862669 0,0.98777 0.846667,1.53811 1.467555,1.73566 0.437445,0.14111 1.044223,0.21167 1.354667,0.31045 0.282222,0.0847 0.790222,0.36689 0.790222,0.90311 0,0.381 -0.254,0.95955 -1.312333,0.95955 -1.143,0 -1.820333,-0.47977 -2.215444,-0.70555 z"
         style="font-size:14.11111069px;fill:#eeeeec;stroke-width:0.26458332px"
         id="path993"
         inkscape:connector-curvature="0" />
      <path
         d="m -62.289313,105.42765 c 1.058333,0.57856 1.919111,0.635 2.398889,0.635 1.890889,0 2.300111,-1.17122 2.300111,-1.94733 0,-0.91722 -0.649111,-1.50989 -1.227667,-1.76389 -0.874889,-0.39511 -2.384777,-0.21166 -2.384777,-1.24178 0,-0.35277 0.211666,-0.86077 1.185333,-0.86077 1.016,0 1.467555,0.254 2.032,0.52211 l 0.155222,-0.931335 c -0.776111,-0.324556 -1.27,-0.437444 -2.060222,-0.437444 -1.919111,0 -2.314222,1.114779 -2.314222,1.862669 0,0.98777 0.846666,1.53811 1.467555,1.73566 0.437445,0.14111 1.044222,0.21167 1.354667,0.31045 0.282222,0.0847 0.790222,0.36689 0.790222,0.90311 0,0.381 -0.254,0.95955 -1.312333,0.95955 -1.143,0 -1.820333,-0.47977 -2.215445,-0.70555 z"
         style="font-size:14.11111069px;fill:#eeeeec;stroke-width:0.26458332px"
         id="path995"
         inkscape:connector-curvature="0" />
      <path
         d="m -52.174511,105.42765 c 1.058333,0.57856 1.919111,0.635 2.398888,0.635 1.890889,0 2.300111,-1.17122 2.300111,-1.94733 0,-0.91722 -0.649111,-1.50989 -1.227666,-1.76389 -0.874889,-0.39511 -2.384778,-0.21166 -2.384778,-1.24178 0,-0.35277 0.211667,-0.86077 1.185333,-0.86077 1.016,0 1.467556,0.254 2.032,0.52211 l 0.155222,-0.931335 c -0.776111,-0.324556 -1.269999,-0.437444 -2.060222,-0.437444 -1.919111,0 -2.314222,1.114779 -2.314222,1.862669 0,0.98777 0.846667,1.53811 1.467556,1.73566 0.437444,0.14111 1.044222,0.21167 1.354666,0.31045 0.282223,0.0847 0.790223,0.36689 0.790223,0.90311 0,0.381 -0.254,0.95955 -1.312334,0.95955 -1.143,0 -1.820333,-0.47977 -2.215444,-0.70555 z"
         style="font-size:14.11111069px;fill:#eeeeec;stroke-width:0.26458332px"
         id="path997"
         inkscape:connector-curvature="0" />
      <path
         d="m -46.673825,102.71832 c 0,1.74978 1.227667,3.34433 3.076222,3.34433 0.889,0 1.622778,-0.31044 2.229556,-0.71966 l -0.08467,-0.93134 c -0.620889,0.45156 -1.255889,0.77612 -2.144889,0.77612 -1.072444,0 -2.032,-0.93134 -2.088444,-2.38478 h 4.374444 v -0.40922 c -0.127,-2.413004 -1.509889,-2.991559 -2.511777,-2.991559 -1.495778,0 -2.850445,1.425219 -2.850445,3.316109 z m 1.058333,-0.69144 c 0.155223,-0.69145 0.719667,-1.74978 1.792112,-1.74978 0.409222,0 1.467555,0.18344 1.707444,1.74978 z"
         style="font-size:14.11111069px;fill:#eeeeec;stroke-width:0.26458332px"
         id="path999"
         inkscape:connector-curvature="0" />
      <path
         d="m -40.403419,102.76065 c 0,1.80623 1.326444,3.302 3.062111,3.302 0.973666,0 1.665111,-0.31044 2.300111,-0.71966 l -0.07056,-0.94545 c -0.451556,0.31045 -1.114778,0.762 -2.215444,0.762 -1.185334,0 -1.975556,-1.03011 -1.975556,-2.39889 0,-1.22766 0.620889,-2.45533 1.989667,-2.45533 1.114778,0 1.481666,0.29633 2.032,0.64911 l 0.169333,-0.93133 c -0.860778,-0.493889 -1.312333,-0.620889 -2.187222,-0.620889 -1.975556,0 -3.104444,1.721559 -3.104444,3.358439 z"
         style="font-size:14.11111069px;fill:#eeeeec;stroke-width:0.26458332px"
         id="path1001"
         inkscape:connector-curvature="0" />
      <path
         d="m -34.387018,100.46054 h 1.185333 v 3.79589 c 0,1.55222 0.691445,1.80622 1.157111,1.80622 0.635,0 1.354667,-0.14111 2.088445,-0.53622 l -0.225778,-0.83255 c -0.197555,0.14111 -0.635,0.46566 -1.241778,0.46566 -0.733777,0 -0.762,-0.83255 -0.762,-1.22766 v -3.47134 h 1.989667 v -0.832552 h -1.989667 v -1.778 h -0.987777 v 1.778 h -1.213556 z"
         style="font-size:14.11111069px;fill:#eeeeec;stroke-width:0.26458332px"
         id="path1003"
         inkscape:connector-curvature="0" />
      <path
         d="m -28.399275,105.90743 h 1.058334 v -6.279442 h -1.058334 z m -0.09878,-8.325553 h 1.27 v -1.255889 h -1.27 z"
         style="font-size:14.11111069px;fill:#eeeeec;stroke-width:0.26458332px"
         id="path1005"
         inkscape:connector-curvature="0" />
      <path
         d="m -25.75653,102.78888 c 0,1.91911 1.481667,3.27377 3.090334,3.27377 1.608666,0 3.104444,-1.34055 3.104444,-3.25966 0,-1.76389 -1.298222,-3.400779 -3.104444,-3.400779 -1.665111,0 -3.090334,1.467559 -3.090334,3.386669 z m 1.100667,-0.14111 c 0,-1.70745 1.086556,-2.37067 1.989667,-2.37067 0.903111,0 1.989666,0.64911 1.989666,2.37067 0,1.76388 -1.044222,2.51177 -1.989666,2.51177 -0.931334,0 -1.989667,-0.73377 -1.989667,-2.51177 z"
         style="font-size:14.11111069px;fill:#eeeeec;stroke-width:0.26458332px"
         id="path1007"
         inkscape:connector-curvature="0" />
      <path
         d="m -17.995417,105.90743 h 1.100667 v -3.38666 c 0,-1.04423 0.352778,-2.17312 1.439333,-2.17312 1.382889,0 1.382889,1.05834 1.382889,1.59456 v 3.96522 h 1.100667 v -4.064 c 0,-0.98778 -0.127,-2.356553 -1.933223,-2.356553 -1.241777,0 -1.862666,0.804333 -2.060222,1.058333 v -0.987777 h -1.030111 z"
         style="font-size:14.11111069px;fill:#eeeeec;stroke-width:0.26458332px"
         id="path1009"
         inkscape:connector-curvature="0" />
    </g>
  </g>
</svg>
