<?xml version="1.0" encoding="UTF-8" standalone="no"?>
<!-- Created with matplotlib (https://matplotlib.org/) -->

<svg
   xmlns:dc="http://purl.org/dc/elements/1.1/"
   xmlns:cc="http://creativecommons.org/ns#"
   xmlns:rdf="http://www.w3.org/1999/02/22-rdf-syntax-ns#"
   xmlns:svg="http://www.w3.org/2000/svg"
   xmlns="http://www.w3.org/2000/svg"
   xmlns:xlink="http://www.w3.org/1999/xlink"
   xmlns:sodipodi="http://sodipodi.sourceforge.net/DTD/sodipodi-0.dtd"
   xmlns:inkscape="http://www.inkscape.org/namespaces/inkscape"
   height="350.35025pt"
   version="1.1"
   viewBox="0 0 552.64454 350.35024"
   width="552.64453pt"
   id="svg277"
   sodipodi:docname="QDTExplained.svg"
   inkscape:version="0.92.4 (5da689c313, 2019-01-14)">
  <sodipodi:namedview
     pagecolor="#ffffff"
     bordercolor="#666666"
     borderopacity="1"
     objecttolerance="10"
     gridtolerance="10"
     guidetolerance="10"
     inkscape:pageopacity="0"
     inkscape:pageshadow="2"
     inkscape:window-width="1920"
     inkscape:window-height="1019"
     id="namedview279"
     showgrid="false"
     inkscape:zoom="2.108317"
     inkscape:cx="215.04296"
     inkscape:cy="102.52631"
     inkscape:window-x="0"
     inkscape:window-y="0"
     inkscape:window-maximized="1"
     inkscape:current-layer="figure_1"
     fit-margin-top="0"
     fit-margin-left="0"
     fit-margin-right="0"
     fit-margin-bottom="0" />
  <metadata
     id="metadata2">
    <rdf:RDF>
      <cc:Work>
        <dc:type
           rdf:resource="http://purl.org/dc/dcmitype/StillImage" />
        <dc:date>2021-05-13T10:45:22.807508</dc:date>
        <dc:format>image/svg+xml</dc:format>
        <dc:creator>
          <cc:Agent>
            <dc:title>Matplotlib v3.3.0, https://matplotlib.org/</dc:title>
          </cc:Agent>
        </dc:creator>
        <dc:title />
      </cc:Work>
    </rdf:RDF>
  </metadata>
  <defs
     id="defs6"
     style="stroke-linecap:butt;stroke-linejoin:round">
    <marker
       inkscape:stockid="Arrow2Lend"
       orient="auto"
       refY="0"
       refX="0"
       id="Arrow2Lend"
       style="overflow:visible;stroke-linecap:butt;stroke-linejoin:round"
       inkscape:isstock="true">
      <path
         id="path1647"
         style="fill:#f57900;fill-opacity:1;fill-rule:evenodd;stroke:#f57900;stroke-width:0.625;stroke-linecap:butt;stroke-linejoin:round;stroke-opacity:1"
         d="M 8.7185878,4.0337352 -2.2072895,0.01601326 8.7185884,-4.0017078 c -1.7454984,2.3720609 -1.7354408,5.6174519 -6e-7,8.035443 z"
         transform="matrix(-1.1,0,0,-1.1,-1.1,0)"
         inkscape:connector-curvature="0" />
    </marker>
    <marker
       inkscape:stockid="Arrow1Send"
       orient="auto"
       refY="0"
       refX="0"
       id="Arrow1Send"
       style="overflow:visible;stroke-linecap:butt;stroke-linejoin:round"
       inkscape:isstock="true">
      <path
         id="path1641"
         d="M 0,0 5,-5 -12.5,0 5,5 Z"
         style="fill:#f57900;fill-opacity:1;fill-rule:evenodd;stroke:#f57900;stroke-width:1.00000003pt;stroke-linecap:butt;stroke-linejoin:round;stroke-opacity:1"
         transform="matrix(-0.2,0,0,-0.2,-1.2,0)"
         inkscape:connector-curvature="0" />
    </marker>
    <linearGradient
       inkscape:collect="always"
       id="linearGradient1602">
      <stop
         style="stop-color:#fdc169;stop-opacity:0.66169155"
         offset="0"
         id="stop1598" />
      <stop
         style="stop-color:#6396cb;stop-opacity:0.65671641"
         offset="1"
         id="stop1600" />
    </linearGradient>
    <linearGradient
       inkscape:collect="always"
       id="linearGradient1556">
      <stop
         style="stop-color:#73d216;stop-opacity:0"
         offset="0"
         id="stop1552" />
      <stop
         id="stop1560"
         offset="0.05901784"
         style="stop-color:#73d216;stop-opacity:1" />
      <stop
         style="stop-color:#73d216;stop-opacity:1"
         offset="0.3467786"
         id="stop1562" />
      <stop
         style="stop-color:#73d216;stop-opacity:0;"
         offset="1"
         id="stop1554" />
    </linearGradient>
    <style
       type="text/css"
       id="style4">*{stroke-linecap:butt;stroke-linejoin:round;}</style>
    <clipPath
       id="p4c5998e88b"
       style="stroke-linecap:butt;stroke-linejoin:round">
      <rect
         height="266.112"
         width="357.12"
         x="57.599998"
         y="41.472"
         id="rect243"
         style="stroke-linecap:butt;stroke-linejoin:round" />
    </clipPath>
    <clipPath
       id="p4c5998e88b-4"
       style="stroke-linecap:butt;stroke-linejoin:round">
      <rect
         height="266.112"
         width="357.12"
         x="57.599998"
         y="41.472"
         id="rect243-9"
         style="stroke-linecap:butt;stroke-linejoin:round" />
    </clipPath>
    <path
       inkscape:connector-curvature="0"
       transform="translate(16.500607,22.160827)"
       clip-path="url(#pb7a6780e4a-0)"
       d="m 108.28056,242.7112 1.94987,-9.05096 1.94988,-8.05864 1.94988,-7.18873 1.94988,-6.42449 1.94987,-5.75172 1.94988,-5.15825 2.27486,-5.3594 2.27485,-4.73954 2.27486,-4.20027 2.27486,-3.72999 2.27485,-3.31895 2.27486,-2.95885 2.59984,-2.99674 2.59983,-2.63986 2.59984,-2.33072 2.92481,-2.30299 2.92482,-2.01213 3.24979,-1.9445 3.2498,-1.68345 3.57477,-1.597 3.89976,-1.48662 4.22473,-1.36083 4.54972,-1.22717 5.19967,-1.15764 5.52465,-1.0016 6.49959,-0.94295"
       style="fill:none;stroke:none;stroke-width:1.5;stroke-linecap:butt;stroke-linejoin:round;stroke-dasharray:5.55, 2.4;stroke-dashoffset:0"
       id="path249-0"
       sodipodi:nodetypes="ccccccccccccccccccccccccccc" />
    <linearGradient
       inkscape:collect="always"
       xlink:href="#linearGradient1556"
       id="linearGradient1558"
       x1="86.596855"
       y1="147.96996"
       x2="147.60483"
       y2="147.96996"
       gradientUnits="userSpaceOnUse"
       gradientTransform="matrix(1.5968168,0,0,0.97349449,-142.946,5.2652822)" />
    <linearGradient
       inkscape:collect="always"
       xlink:href="#linearGradient1602"
       id="linearGradient1604"
       x1="85.977615"
       y1="322.78671"
       x2="98.530594"
       y2="322.78671"
       gradientUnits="userSpaceOnUse"
       gradientTransform="matrix(4.0640855,0,0,1.3887464,-276.545,-119.03959)" />
    <marker
       inkscape:stockid="Arrow2Lend"
       orient="auto"
       refY="0"
       refX="0"
       id="Arrow2Lend-6"
       style="overflow:visible;stroke-linecap:butt;stroke-linejoin:round"
       inkscape:isstock="true">
      <path
         inkscape:connector-curvature="0"
         id="path1647-0"
         style="fill:#ef2929;fill-opacity:1;fill-rule:evenodd;stroke:#ef2929;stroke-width:0.625;stroke-linecap:butt;stroke-linejoin:round;stroke-opacity:1"
         d="M 8.7185878,4.0337352 -2.2072895,0.01601326 8.7185884,-4.0017078 c -1.7454984,2.3720609 -1.7354408,5.6174519 -6e-7,8.035443 z"
         transform="matrix(-1.1,0,0,-1.1,-1.1,0)" />
    </marker>
  </defs>
  <g
     id="figure_1"
     style="stroke-linecap:butt;stroke-linejoin:round"
     transform="translate(101.15947,-15.697299)">
    <rect
       style="opacity:1;fill:#191919;fill-opacity:1;fill-rule:nonzero;stroke:none;stroke-width:5.90996122;stroke-linecap:round;stroke-linejoin:miter;stroke-miterlimit:4;stroke-dasharray:none;stroke-dashoffset:0;stroke-opacity:1;paint-order:markers fill stroke"
       id="rect990"
       width="552.64453"
       height="350.35025"
       x="-101.15947"
       y="15.697299" />
    <rect
       style="opacity:0.445;fill:url(#linearGradient1604);fill-opacity:1;fill-rule:nonzero;stroke:#ef2929;stroke-width:2.30443573;stroke-linecap:round;stroke-linejoin:miter;stroke-miterlimit:4;stroke-dasharray:none;stroke-dashoffset:0;stroke-opacity:0;paint-order:markers fill stroke"
       id="rect1596"
       width="457.61145"
       height="44.716888"
       x="-43.136497"
       y="307.58401" />
    <g
       style="stroke:#eeeeec;stroke-linecap:butt;stroke-linejoin:round"
       id="matplotlib.axis_1"
       transform="matrix(1.2820802,0,0,1,-116.98432,0)">
      <g
         style="stroke:#eeeeec;stroke-linecap:butt;stroke-linejoin:round"
         id="xtick_1">
        <g
           style="stroke:#eeeeec;stroke-linecap:butt;stroke-linejoin:round"
           id="line2d_1">
          <defs
             id="defs15">
            <path
               inkscape:connector-curvature="0"
               style="stroke:#eeeeee;stroke-width:0.80000001;stroke-linecap:butt;stroke-linejoin:round"
               id="mbedba9802a"
               d="M 0,0 V 3.5" />
          </defs>
          <g
             style="stroke:#eeeeec;stroke-linecap:butt;stroke-linejoin:round"
             id="g19">
            <use
               height="100%"
               width="100%"
               id="use17"
               y="307.58401"
               xlink:href="#mbedba9802a"
               x="94.123634"
               style="stroke:#eeeeec;stroke-width:0.80000001;stroke-linecap:butt;stroke-linejoin:round" />
          </g>
        </g>
      </g>
      <g
         style="stroke:#eeeeec;stroke-linecap:butt;stroke-linejoin:round"
         id="xtick_2">
        <g
           style="stroke:#eeeeec;stroke-linecap:butt;stroke-linejoin:round"
           id="line2d_2">
          <g
             style="stroke:#eeeeec;stroke-linecap:butt;stroke-linejoin:round"
             id="g39">
            <use
               height="100%"
               width="100%"
               id="use37"
               y="307.58401"
               xlink:href="#mbedba9802a"
               x="144.85091"
               style="stroke:#eeeeec;stroke-width:0.80000001;stroke-linecap:butt;stroke-linejoin:round" />
          </g>
        </g>
      </g>
      <g
         style="stroke:#eeeeec;stroke-linecap:butt;stroke-linejoin:round"
         id="xtick_3">
        <g
           style="stroke:#eeeeec;stroke-linecap:butt;stroke-linejoin:round"
           id="line2d_3">
          <g
             style="stroke:#eeeeec;stroke-linecap:butt;stroke-linejoin:round"
             id="g57">
            <use
               height="100%"
               width="100%"
               id="use55"
               y="307.58401"
               xlink:href="#mbedba9802a"
               x="195.57819"
               style="stroke:#eeeeec;stroke-width:0.80000001;stroke-linecap:butt;stroke-linejoin:round" />
          </g>
        </g>
      </g>
      <g
         style="stroke:#eeeeec;stroke-linecap:butt;stroke-linejoin:round"
         id="xtick_4">
        <g
           style="stroke:#eeeeec;stroke-linecap:butt;stroke-linejoin:round"
           id="line2d_4">
          <g
             style="stroke:#eeeeec;stroke-linecap:butt;stroke-linejoin:round"
             id="g75">
            <use
               height="100%"
               width="100%"
               id="use73"
               y="307.58401"
               xlink:href="#mbedba9802a"
               x="246.30545"
               style="stroke:#eeeeec;stroke-width:0.80000001;stroke-linecap:butt;stroke-linejoin:round" />
          </g>
        </g>
      </g>
      <g
         style="stroke:#eeeeec;stroke-linecap:butt;stroke-linejoin:round"
         id="xtick_5">
        <g
           style="stroke:#eeeeec;stroke-linecap:butt;stroke-linejoin:round"
           id="line2d_5">
          <g
             style="stroke:#eeeeec;stroke-linecap:butt;stroke-linejoin:round"
             id="g90">
            <use
               height="100%"
               width="100%"
               id="use88"
               y="307.58401"
               xlink:href="#mbedba9802a"
               x="297.03271"
               style="stroke:#eeeeec;stroke-width:0.80000001;stroke-linecap:butt;stroke-linejoin:round" />
          </g>
        </g>
      </g>
      <g
         style="stroke:#eeeeec;stroke-linecap:butt;stroke-linejoin:round"
         id="xtick_6">
        <g
           style="stroke:#eeeeec;stroke-linecap:butt;stroke-linejoin:round"
           id="line2d_6">
          <g
             style="stroke:#eeeeec;stroke-linecap:butt;stroke-linejoin:round"
             id="g108">
            <use
               height="100%"
               width="100%"
               id="use106"
               y="307.58401"
               xlink:href="#mbedba9802a"
               x="347.76001"
               style="stroke:#eeeeec;stroke-width:0.80000001;stroke-linecap:butt;stroke-linejoin:round" />
          </g>
        </g>
      </g>
      <g
         style="stroke:#eeeeec;stroke-linecap:butt;stroke-linejoin:round"
         id="xtick_7">
        <g
           style="stroke:#eeeeec;stroke-linecap:butt;stroke-linejoin:round"
           id="line2d_7">
          <g
             style="stroke:#eeeeec;stroke-linecap:butt;stroke-linejoin:round"
             id="g123">
            <use
               height="100%"
               width="100%"
               id="use121"
               y="307.58401"
               xlink:href="#mbedba9802a"
               x="398.48727"
               style="stroke:#eeeeec;stroke-width:0.80000001;stroke-linecap:butt;stroke-linejoin:round" />
          </g>
        </g>
      </g>
    </g>
    <g
       style="stroke-linecap:butt;stroke-linejoin:round"
       id="matplotlib.axis_2"
       transform="matrix(1.2820802,0,0,1,-116.98432,0)">
      <g
         style="stroke-linecap:butt;stroke-linejoin:round"
         id="ytick_1">
        <g
           style="stroke-linecap:butt;stroke-linejoin:round"
           id="line2d_8">
          <defs
             id="defs141">
            <path
               inkscape:connector-curvature="0"
               style="stroke:#eeeeee;stroke-width:0.80000001;stroke-linecap:butt;stroke-linejoin:round"
               id="m122afe9fca"
               d="M 0,0 H -3.5" />
          </defs>
          <g
             style="stroke:#eeeeec;stroke-linecap:butt;stroke-linejoin:round"
             id="g145">
            <use
               height="100%"
               width="100%"
               id="use143"
               y="307.58401"
               xlink:href="#m122afe9fca"
               x="57.599998"
               style="fill:#eeeeec;stroke:#eeeeec;stroke-width:0.80000001;stroke-linecap:butt;stroke-linejoin:round" />
          </g>
        </g>
      </g>
      <g
         style="stroke-linecap:butt;stroke-linejoin:round"
         id="ytick_2">
        <g
           style="stroke-linecap:butt;stroke-linejoin:round"
           id="line2d_9">
          <g
             style="stroke-linecap:butt;stroke-linejoin:round"
             id="g165">
            <use
               height="100%"
               width="100%"
               id="use163"
               y="254.3616"
               xlink:href="#m122afe9fca"
               x="57.599998"
               style="stroke:#000000;stroke-width:0.80000001;stroke-linecap:butt;stroke-linejoin:round" />
          </g>
        </g>
      </g>
      <g
         style="stroke-linecap:butt;stroke-linejoin:round"
         id="ytick_3">
        <g
           style="stroke-linecap:butt;stroke-linejoin:round"
           id="line2d_10">
          <g
             style="stroke-linecap:butt;stroke-linejoin:round"
             id="g182">
            <use
               height="100%"
               width="100%"
               id="use180"
               y="201.13921"
               xlink:href="#m122afe9fca"
               x="57.599998"
               style="stroke:#000000;stroke-width:0.80000001;stroke-linecap:butt;stroke-linejoin:round" />
          </g>
        </g>
      </g>
      <g
         style="stroke-linecap:butt;stroke-linejoin:round"
         id="ytick_4">
        <g
           style="fill:#eeeeec;stroke:#eeeeec;stroke-linecap:butt;stroke-linejoin:round"
           id="line2d_11">
          <g
             style="fill:#eeeeec;stroke:#eeeeec;stroke-linecap:butt;stroke-linejoin:round"
             id="g199">
            <use
               height="100%"
               width="100%"
               id="use197"
               y="147.91679"
               xlink:href="#m122afe9fca"
               x="57.599998"
               style="fill:#eeeeec;stroke:#eeeeec;stroke-width:0.80000001;stroke-linecap:butt;stroke-linejoin:round" />
          </g>
        </g>
        <g
           style="fill:#eeeeec;stroke-linecap:butt;stroke-linejoin:round"
           id="text_11">
          <!-- 0.0 -->
          <g
             style="fill:#eeeeec;stroke-linecap:butt;stroke-linejoin:round"
             id="g208"
             transform="matrix(0.1,0,0,-0.1,34.696875,151.71602)">
            <path
               style="fill:#eeeeec;stroke-linecap:butt;stroke-linejoin:round"
               inkscape:connector-curvature="0"
               d="m 127.19141,66.40625 q -7.60938,0 -11.45313,-7.5 -3.82812,-7.484375 -3.82812,-22.53125 0,-14.984375 3.82812,-22.484375 3.84375,-7.5 11.45313,-7.5 7.67187,0 11.5,7.5 3.84375,7.5 3.84375,22.484375 0,15.046875 -3.84375,22.53125 -3.82813,7.5 -11.5,7.5 z m 0,7.8125 q 12.26562,0 18.73437,-9.703125 6.46875,-9.6875 6.46875,-28.140625 0,-18.40625 -6.46875,-28.109375 -6.46875,-9.6875 -18.73437,-9.6875 -12.25,0 -18.71875,9.6875 -6.46875,9.703125 -6.46875,28.109375 0,18.453125 6.46875,28.140625 6.46875,9.703125 18.71875,9.703125 z"
               id="use206" />
          </g>
        </g>
      </g>
      <g
         style="stroke:#eeeeec;stroke-linecap:butt;stroke-linejoin:round"
         id="ytick_5">
        <g
           style="stroke:#eeeeec;stroke-linecap:butt;stroke-linejoin:round"
           id="line2d_12">
          <g
             style="stroke:#eeeeec;stroke-linecap:butt;stroke-linejoin:round"
             id="g214">
            <use
               height="100%"
               width="100%"
               id="use212"
               y="94.694397"
               xlink:href="#m122afe9fca"
               x="57.599998"
               style="stroke:#eeeeec;stroke-width:0.80000001;stroke-linecap:butt;stroke-linejoin:round" />
          </g>
        </g>
      </g>
      <g
         style="stroke:#eeeeec;stroke-linecap:butt;stroke-linejoin:round"
         id="ytick_6">
        <g
           style="stroke:#eeeeec;stroke-linecap:butt;stroke-linejoin:round"
           id="line2d_13">
          <g
             style="stroke:#eeeeec;stroke-linecap:butt;stroke-linejoin:round"
             id="g229">
            <use
               height="100%"
               width="100%"
               id="use227"
               y="41.472"
               xlink:href="#m122afe9fca"
               x="57.599998"
               style="stroke:#eeeeec;stroke-width:0.80000001;stroke-linecap:butt;stroke-linejoin:round" />
          </g>
        </g>
      </g>
    </g>
    <g
       style="stroke-linecap:butt;stroke-linejoin:round"
       id="line2d_14">
      <path
         inkscape:connector-curvature="0"
         id="path243"
         style="fill:none;stroke:#1f77b4;stroke-width:1.5;stroke-linecap:square;stroke-linejoin:round"
         d="m 79.710354,-1 0.946943,48.83587 0.974939,41.608129 0.974938,34.242741 0.974939,28.05375 0.974939,22.85354 0.974938,18.48522 0.974939,14.81748 0.974938,11.74017 0.974939,9.16084 0.974938,7.00176 0.974939,5.19752 0.974939,3.69301 0.649959,1.75292 0.649959,1.26268 0.649959,0.83061 0.649959,0.45055 0.649959,0.11693 0.649959,-0.17515 0.649959,-0.43016 0.974939,-1.05186 0.974938,-1.45467 1.299918,-2.42641 1.6249,-3.59773 2.27485,-5.67804 9.74939,-25.14598 2.92482,-6.60199 2.59983,-5.35005 2.59984,-4.86332 2.59984,-4.39633 2.59983,-3.95886 2.59984,-3.55556 2.59983,-3.18786 2.59984,-2.85523 2.59984,-2.556 2.92481,-2.55646 2.92482,-2.25742 2.92481,-1.99454 3.2498,-1.94675 3.24979,-1.70031 3.57478,-1.62541 3.89975,-1.52356 4.22474,-1.40316 4.54971,-1.27198 4.87469,-1.13674 5.52465,-1.05948 6.17461,-0.95546 7.14955,-0.87263 8.12449,-0.76203 9.74939,-0.67985 11.69926,-0.58036 14.62408,-0.488 18.84881,-0.3918 25.99837,-0.30094 39.32252,-0.21147 70.84553,-0.12672 7.47453,-0.006 v 0"
         clip-path="url(#pb7a6780e4a)"
         transform="matrix(1.2820802,0,0,1,-116.98432,0)" />
    </g>
    <g
       style="stroke-linecap:butt;stroke-linejoin:round"
       id="line2d_16"
       transform="matrix(1.2820802,0,0,1,-116.98432,0)">
      <path
         inkscape:connector-curvature="0"
         id="path249"
         style="fill:none;stroke:#1f77b4;stroke-width:1.5;stroke-linecap:butt;stroke-linejoin:round;stroke-dasharray:5.55, 2.4;stroke-dashoffset:0"
         d="m 94.866741,346.6 1.714553,-18.88357 1.949877,-18.97759 1.949879,-16.68137 1.94988,-14.69725 1.94987,-12.9783 1.94988,-11.48531 1.94988,-10.18541 1.94987,-9.05096 1.94988,-8.05864 1.94988,-7.18873 1.94988,-6.42449 1.94987,-5.75172 1.94988,-5.15825 2.27486,-5.3594 2.27485,-4.73954 2.27486,-4.20027 2.27486,-3.72999 2.27485,-3.31895 2.27486,-2.95885 2.59984,-2.99674 2.59983,-2.63986 2.59984,-2.33072 2.92481,-2.30299 2.92482,-2.01213 3.24979,-1.9445 3.2498,-1.68345 3.57477,-1.597 3.89976,-1.48662 4.22473,-1.36083 4.54972,-1.22717 5.19967,-1.15764 5.52465,-1.0016 6.49959,-0.94295 7.47453,-0.84414 8.44947,-0.72487 10.07436,-0.63626 12.34922,-0.54789 15.59902,-0.45667 20.47371,-0.36319 28.92318,-0.27369 45.82211,-0.1865 62.07109,-0.0865 v 0"
         clip-path="url(#pb7a6780e4a)" />
    </g>
    <g
       style="fill:#eeeeec;stroke:#eeeeec;stroke-linecap:butt;stroke-linejoin:round"
       id="line2d_18"
       transform="matrix(1.2820802,0,0,1,-116.98432,0)">
      <path
         inkscape:connector-curvature="0"
         id="path255"
         style="fill-opacity:1;stroke:#eeeeec;stroke-width:1.5;stroke-linecap:square;stroke-linejoin:round;stroke-opacity:0.7"
         d="M 57.6,147.9168 H 414.72"
         clip-path="url(#pb7a6780e4a)" />
    </g>
    <g
       style="stroke:#eeeeec;stroke-linecap:butt;stroke-linejoin:round"
       id="patch_3"
       transform="matrix(1.2820802,0,0,1,-116.98432,0)">
      <path
         inkscape:connector-curvature="0"
         id="path258"
         style="fill:none;stroke:#eeeeec;stroke-width:0.80000001;stroke-linecap:square;stroke-linejoin:miter"
         d="M 57.6,307.584 V 41.472" />
    </g>
    <g
       style="stroke-linecap:butt;stroke-linejoin:round"
       id="patch_4" />
    <g
       style="stroke:#eeeeec;stroke-linecap:butt;stroke-linejoin:round"
       id="patch_5">
      <path
         inkscape:connector-curvature="0"
         id="path264"
         style="fill:none;stroke:#eeeeec;stroke-width:0.80000001;stroke-linecap:square;stroke-linejoin:miter"
         d="M 57.6,307.584 H 414.72" />
    </g>
    <text
       id="text1088"
       y="98.974289"
       x="134.33524"
       style="font-style:normal;font-variant:normal;font-weight:normal;font-stretch:normal;font-size:14px;line-height:125%;font-family:'CMU Sans Serif';-inkscape-font-specification:'CMU Sans Serif';letter-spacing:0px;word-spacing:0px;fill:#000000;fill-opacity:1;stroke:none;stroke-width:0.75px;stroke-linecap:butt;stroke-linejoin:miter;stroke-opacity:1"
       xml:space="preserve"><tspan
         y="111.92429"
         x="134.33524"
         style="stroke-width:0.75px;stroke-linecap:butt;stroke-linejoin:round"
         id="tspan1086"
         sodipodi:role="line" /></text>
    <text
       id="text1092"
       y="324.49646"
       x="28.441814"
       style="font-style:normal;font-variant:normal;font-weight:normal;font-stretch:normal;font-size:14px;line-height:125%;font-family:'CMU Sans Serif';-inkscape-font-specification:'CMU Sans Serif';text-align:center;letter-spacing:0px;word-spacing:0px;text-anchor:middle;fill:#ffd5b3;fill-opacity:1;stroke:none;stroke-width:0.75px;stroke-linecap:butt;stroke-linejoin:miter;stroke-opacity:1;"
       xml:space="preserve"><tspan
         y="324.49646"
         x="28.441814"
         style="text-align:center;text-anchor:middle;fill:#ffd5b3;stroke-width:0.75px;stroke-linecap:butt;stroke-linejoin:round;fill-opacity:1;"
         id="tspan1090"
         sodipodi:role="line">Short Range</tspan><tspan
         y="341.99646"
         x="28.441814"
         style="text-align:center;text-anchor:middle;fill:#ffd5b3;stroke-width:0.75px;stroke-linecap:butt;stroke-linejoin:round;fill-opacity:1;"
         sodipodi:role="line"
         id="tspan3223">(&gt;30 parameter model)</tspan></text>
    <text
       id="text1119"
       y="324.30045"
       x="247.86728"
       style="font-style:normal;font-variant:normal;font-weight:normal;font-stretch:normal;font-size:14px;line-height:125%;font-family:'CMU Sans Serif';-inkscape-font-specification:'CMU Sans Serif';text-align:center;letter-spacing:0px;word-spacing:0px;text-anchor:middle;fill:#d2e0f4;fill-opacity:1;stroke:none;stroke-width:0.75px;stroke-linecap:butt;stroke-linejoin:miter;stroke-opacity:1;"
       xml:space="preserve"><tspan
         y="324.30045"
         x="247.86728"
         style="text-align:center;text-anchor:middle;fill:#d2e0f4;stroke-width:0.75px;stroke-linecap:butt;stroke-linejoin:round;fill-opacity:1;"
         id="tspan1117"
         sodipodi:role="line">Long Range</tspan><tspan
         y="341.80045"
         x="247.86728"
         style="text-align:center;text-anchor:middle;fill:#d2e0f4;stroke-width:0.75px;stroke-linecap:butt;stroke-linejoin:round;fill-opacity:1;"
         sodipodi:role="line"
         id="tspan3225">(van der Waals)</tspan></text>
    <text
       y="-204.22401"
       x="-219.28781"
       id="text1308"
       style="font-style:normal;font-variant:normal;font-weight:normal;font-stretch:normal;font-size:14px;line-height:125%;font-family:'CMU Sans Serif';-inkscape-font-specification:'CMU Sans Serif';letter-spacing:0px;word-spacing:0px;fill:#1f77b4;fill-opacity:1;stroke:none;stroke-width:0.75px;stroke-linecap:butt;stroke-linejoin:miter;stroke-opacity:1"
       xml:space="preserve"
       transform="translate(-90,-1.5)"><textPath
         style="stroke-width:0.75px;stroke-linecap:butt;stroke-linejoin:round"
         id="textPath1352"
         xlink:href="#path249-0"><tspan
   id="tspan1306"
   style="fill:#1f77b4;fill-opacity:1;stroke-width:0.75px;stroke-linecap:butt;stroke-linejoin:round">van der Waals</tspan></textPath></text>
    <path
       inkscape:connector-curvature="0"
       id="path1321"
       style="fill:none;stroke:#f57900;stroke-width:1.0983212;stroke-linecap:square;stroke-linejoin:round;stroke-miterlimit:4;stroke-dasharray:none"
       d="m 52.717542,38.032218 0.07039,-0.13472 0.21103,-1.09488 0.187569,-0.60674 0.02346,0.003 0.07039,0.12028 0.187568,0.8842 0.257916,0.92574 0.02346,2e-5 0.07039,-0.0962 0.164132,-0.66161 0.328263,-1.27217 0.02346,-0.011 0.04692,0.0195 0.117182,0.273 0.515845,1.87239 0.07039,-0.0427 0.14067,-0.36371 0.562743,-1.90002 0.02346,0.004 0.09372,0.10693 0.187569,0.57839 0.539281,1.76931 0.04692,0.0127 0.04692,-0.0179 0.117183,-0.17187 0.234466,-0.75562 0.515833,-1.65309 0.117182,-0.0668 0.02346,0.005 0.09385,0.0782 0.187581,0.40556 0.914431,2.41127 0.07039,-0.0258 0.140683,-0.16921 0.257916,-0.63784 0.82066,-2.26142 0.187568,-0.0951 0.09372,0.0346 0.164132,0.18347 0.281365,0.61045 1.078563,2.63971 0.211031,0.0893 0.09372,-0.0231 0.164119,-0.12872 0.281365,-0.44746 0.492396,-1.21166 0.750299,-1.75433 0.3517,-0.40656 0.21103,-0.072 0.09372,0.01 0.164145,0.0763 0.257916,0.25999 0.398599,0.67169 1.828875,3.49107 0.328251,0.19027 0.187581,0.0227 0.140683,-0.0228 0.21103,-0.0956 0.304802,-0.2568 0.44551,-0.58404 0.726849,-1.28301 1.336492,-2.3568 0.609617,-0.71249 0.445484,-0.30997 0.328264,-0.10948 0.234479,-0.0174 0.187569,0.0212 0.257929,0.078 0.3517,0.19089 0.468934,0.38779 0.656527,0.74399 1.055127,1.48198 1.852311,2.59072 0.890994,0.9492 0.72685,0.56319 0.58618,0.30672 0.492396,0.15612 0.398598,0.0605 0.304815,0.008 0.304802,-0.0237 0.351713,-0.0647 0.445497,-0.13594 0.562731,-0.25001 0.703413,-0.4192 0.914431,-0.68769 1.242695,-1.11489 2.438491,-2.43396 2.204037,-2.10143 1.547509,-1.2804 1.359928,-0.9536 1.219245,-0.70873 1.102013,-0.52083 1.031677,-0.38704 0.937893,-0.27092 0.867532,-0.18538 0.79721,-0.11807 0.72685,-0.0664 0.679963,-0.0287 0.67997,0.002 0.70341,0.0324 0.75031,0.0662 0.8441,0.1109 0.96132,0.16929 1.10202,0.24478 1.26614,0.34029 1.45372,0.45761 1.71164,0.61487 2.06335,0.8275 2.55574,1.12024 3.4936,1.63713 14.16205,6.73962 3.77499,1.63806 3.42328,1.39071 3.18879,1.20571 2.97778,1.04235 2.81364,0.90713 2.67299,0.7893 2.55572,0.68688 2.43849,0.59227 2.32127,0.50566 2.22748,0.43125 2.11024,0.35938 2.03989,0.30163 1.94611,0.24561 1.87577,0.19776 1.80543,0.15414 1.75852,0.11605 1.71164,0.0808 1.68818,0.0486 1.66475,0.0179 1.66475,-0.0117 1.66474,-0.0411 1.6882,-0.0714 1.73507,-0.10428 1.78199,-0.13928 1.85231,-0.17884 1.92268,-0.22174 2.01644,-0.27131 2.11024,-0.32542 2.22747,-0.38832 2.34472,-0.45688 2.48539,-0.53622 2.62606,-0.62208 2.7902,-0.72021 3.00124,-0.83856 3.21225,-0.96527 3.49362,-1.12193 3.84533,-1.31138 4.31426,-1.55179 5.08802,-1.91535 6.8231,-2.66107 14.4434,-5.65378 5.22871,-1.94353 4.3846,-1.54804 3.89221,-1.29593 3.54053,-1.10423 3.28259,-0.95263 3.04812,-0.81759 2.86054,-0.70435 2.69642,-0.60489 2.53229,-0.51342 2.41505,-0.43846 2.29782,-0.36932 2.18056,-0.30621 2.0868,-0.25182 1.99299,-0.20227 1.92267,-0.15924 1.85232,-0.11975 1.80544,-0.0847 1.75852,-0.0519 1.7351,-0.0216 1.73508,0.008 1.73508,0.0374 1.75854,0.0679 1.78197,0.0995 1.82886,0.13402 1.89923,0.17308 1.96955,0.21559 2.03991,0.26147 2.13367,0.31434 2.22748,0.37177 2.3447,0.43825 2.46196,0.51032 2.60262,0.59329 2.76676,0.6886 2.93087,0.79101 3.14192,0.91359 3.39983,1.05881 3.70463,1.22821 4.10324,1.4388 4.71287,1.73554 5.81488,2.22977 11.11393,4.37263 7.29205,2.8174 2.29781,0.86116 v 0"
       clip-path="none" />
    <path
       inkscape:connector-curvature="0"
       id="path1324"
       style="fill:none;stroke:#ef2929;stroke-width:1.0983212;stroke-linecap:square;stroke-linejoin:round;stroke-miterlimit:4;stroke-dasharray:none"
       d="m 52.732016,87.630979 0.211031,-0.8991 0.02346,0.006 0.09372,0.24912 0.398599,1.93434 0.07039,-0.0774 0.140683,-0.61515 0.3517,-1.611 0.02346,-0.002 0.07039,0.0982 0.164132,0.71462 0.37515,1.62026 0.02346,0.005 0.02346,-0.01 0.09372,-0.17945 0.21103,-0.99335 0.351713,-1.39344 0.04692,-0.0148 0.02346,0.011 0.09372,0.16117 0.21103,0.88143 0.422048,1.67755 0.07039,0.035 0.02346,-0.008 0.09372,-0.12976 0.187594,-0.64168 0.586167,-2.17548 0.04692,-0.0184 0.0468,0.0135 0.117183,0.16723 0.234479,0.78872 0.609617,2.18464 0.117182,0.0667 0.02346,-0.005 0.09385,-0.0818 0.187568,-0.42306 0.422048,-1.63683 0.398599,-1.20907 0.187568,-0.16523 0.02346,5.3e-4 0.09372,0.048 0.164144,0.25013 0.304789,0.89338 0.797223,2.5031 0.234467,0.20132 0.07039,-0.006 0.117183,-0.0757 0.21103,-0.32659 0.3517,-0.95014 0.961342,-2.73199 0.281353,-0.27547 0.09372,-0.0171 0.04692,0.005 0.117182,0.053 0.211031,0.22923 0.328263,0.6422 0.656515,1.82614 0.679964,1.66224 0.37515,0.49725 0.257916,0.12366 0.117182,-0.003 0.140696,-0.0512 0.234466,-0.19337 0.351701,-0.51022 0.562743,-1.19858 1.430263,-3.17744 0.492383,-0.6107 0.351713,-0.21032 0.211018,-0.0345 0.140682,0.0142 0.187582,0.0635 0.281365,0.18513 0.398612,0.42585 0.562717,0.85687 1.008241,1.92804 1.266131,2.30625 0.726863,0.95543 0.562718,0.48637 0.445497,0.21956 0.328264,0.0692 0.234479,0.003 0.234454,-0.0343 0.304828,-0.0976 0.398599,-0.21148 0.539268,-0.42022 0.703426,-0.73721 1.008215,-1.31259 3.774996,-5.14828 1.008215,-0.99264 0.867532,-0.65689 0.750312,-0.41719 0.656541,-0.25206 0.562717,-0.13513 0.468947,-0.058 0.398599,-0.0121 0.375162,0.0184 0.422035,0.0535 0.515845,0.10995 0.609629,0.18835 0.750312,0.31005 0.914418,0.47932 1.125449,0.71587 1.406839,1.04259 1.969545,1.63512 7.667192,6.52596 2.20404,1.61231 2.01644,1.31999 1.87578,1.09001 1.78197,0.91296 1.71164,0.76734 1.6413,0.63869 1.57096,0.52621 1.50061,0.42864 1.45371,0.349731 1.38339,0.27596 1.33648,0.21661 1.28959,0.16474 1.24271,0.11961 1.21925,0.0819 1.19579,0.0477 1.1958,0.0168 1.19581,-0.0124 1.24269,-0.0426 1.28958,-0.0745 1.38339,-0.11271 1.47718,-0.15571 1.57096,-0.20337 1.71161,-0.26322 1.85232,-0.330541 1.99301,-0.4049 2.18058,-0.49692 2.36817,-0.59802 2.57917,-0.7138 2.83709,-0.85231 3.1419,-1.01571 3.54053,-1.22155 4.05634,-1.48108 4.90044,-1.87616 6.84654,-2.71614 12.54421,-4.98404 5.25214,-1.98797 4.38461,-1.57662 3.89222,-1.31996 3.54051,-1.12479 3.25914,-0.96381 3.04812,-0.8336 2.86055,-0.71842 2.69641,-0.61732 2.53229,-0.52436 2.41505,-0.44823 2.29782,-0.37804 2.18057,-0.31398 2.08679,-0.25881 1.993,-0.20854 1.92268,-0.16494 1.85232,-0.12492 1.80543,-0.0894 1.75852,-0.0563 1.73509,-0.0256 1.71163,0.004 1.73509,0.0335 1.73507,0.0631 1.782,0.0955 1.82887,0.13013 1.87575,0.16699 1.94612,0.20872 2.01644,0.25383 2.11024,0.30587 2.20403,0.36248 2.32126,0.42808 2.43851,0.49931 2.57918,0.58141 2.7433,0.67586 2.90745,0.77749 3.11846,0.89935 3.35293,1.03642 3.65775,1.20445 4.05635,1.41397 4.61908,1.69264 5.6273,2.14959 9.09747,3.57648 8.88644,3.46244 5.39284,2.01431 4.4784,1.59092 3.96255,1.32888 3.5874,1.12804 3.30603,0.96846 3.07159,0.83278 2.88399,0.718761 2.71985,0.61844 2.55575,0.52598 2.43847,0.45008 2.29783,0.37632 2.20402,0.31625 2.08681,0.25822 2.01644,0.21075 1.92265,0.165 1.87578,0.12678 1.80543,0.0899 1.75851,0.057 1.73511,0.0267 1.73507,-0.003 1.73509,-0.0323 1.75853,-0.0626 1.78198,-0.0942 1.82887,-0.12853 1.87576,-0.16513 1.94612,-0.20658 2.01645,-0.25142 0.0704,-0.009 v 0"
       clip-path="none" />
    <text
       xml:space="preserve"
       style="font-style:normal;font-variant:normal;font-weight:normal;font-stretch:normal;font-size:14px;line-height:125%;font-family:'CMU Sans Serif';-inkscape-font-specification:'CMU Sans Serif';letter-spacing:0px;word-spacing:0px;fill:#eeeeec;fill-opacity:1;stroke:none;stroke-width:0.75px;stroke-linecap:butt;stroke-linejoin:miter;stroke-opacity:1"
       x="-169.28241"
       y="-69.862091"
       id="text1413"
       transform="rotate(-90)"><tspan
         sodipodi:role="line"
         id="tspan1411"
         style="fill:#eeeeec;stroke-width:0.75px;stroke-linecap:butt;stroke-linejoin:round"
         x="-169.28241"
         y="-69.862091">Energy</tspan></text>
    <text
       xml:space="preserve"
       style="font-style:normal;font-variant:normal;font-weight:normal;font-stretch:normal;font-size:14px;line-height:125%;font-family:'CMU Sans Serif';-inkscape-font-specification:'CMU Sans Serif';letter-spacing:0px;word-spacing:0px;fill:#eeeeec;fill-opacity:1;stroke:none;stroke-width:0.75px;stroke-linecap:butt;stroke-linejoin:miter;stroke-opacity:1"
       x="210.58656"
       y="299.95123"
       id="text1417"><tspan
         sodipodi:role="line"
         id="tspan1415"
         style="fill:#eeeeec;stroke-width:0.75px;stroke-linecap:butt;stroke-linejoin:round"
         x="210.58656"
         y="299.95123">Separation</tspan></text>
    <rect
       style="opacity:0.822;fill:url(#linearGradient1558);fill-opacity:1;fill-rule:nonzero;stroke:#ef2929;stroke-width:1.20938897;stroke-linecap:round;stroke-linejoin:miter;stroke-miterlimit:4;stroke-dasharray:none;stroke-dashoffset:0;stroke-opacity:0;paint-order:markers fill stroke"
       id="rect1550"
       width="113.20431"
       height="7.592339"
       x="-8.9361744"
       y="144.09195" />
    <text
       xml:space="preserve"
       style="font-style:normal;font-variant:normal;font-weight:normal;font-stretch:normal;font-size:14px;line-height:125%;font-family:'CMU Sans Serif';-inkscape-font-specification:'CMU Sans Serif';letter-spacing:0px;word-spacing:0px;fill:#73d216;fill-opacity:1;stroke:none;stroke-width:0.75px;stroke-linecap:butt;stroke-linejoin:miter;stroke-opacity:1"
       x="14.031639"
       y="135.16985"
       id="text1566"><tspan
         sodipodi:role="line"
         id="tspan1564"
         style="fill:#73d216;stroke-width:0.75px;stroke-linecap:butt;stroke-linejoin:round"
         x="14.031639"
         y="135.16985">JWKB Valid</tspan></text>
    <text
       xml:space="preserve"
       style="font-style:normal;font-variant:normal;font-weight:normal;font-stretch:normal;font-size:14px;line-height:125%;font-family:'CMU Sans Serif';-inkscape-font-specification:'CMU Sans Serif';letter-spacing:0px;word-spacing:0px;fill:#f57900;fill-opacity:1;stroke:none;stroke-width:0.75px;stroke-linecap:butt;stroke-linejoin:miter;stroke-opacity:1"
       x="39.030777"
       y="43.525539"
       id="text1570"><tspan
         sodipodi:role="line"
         id="tspan1568"
         style="fill:#f57900;stroke-width:0.75px;stroke-linecap:butt;stroke-linejoin:round"
         x="39.030777"
         y="43.525539">f</tspan></text>
    <text
       xml:space="preserve"
       style="font-style:normal;font-variant:normal;font-weight:normal;font-stretch:normal;font-size:14px;line-height:125%;font-family:'CMU Sans Serif';-inkscape-font-specification:'CMU Sans Serif';letter-spacing:0px;word-spacing:0px;fill:#000000;fill-opacity:1;stroke:none;stroke-width:0.75px;stroke-linecap:butt;stroke-linejoin:miter;stroke-opacity:1"
       x="395.05594"
       y="89.55864"
       id="text1574"><tspan
         sodipodi:role="line"
         id="tspan1572"
         style="fill:#ef2929;stroke-width:0.75px;stroke-linecap:butt;stroke-linejoin:round"
         x="395.05594"
         y="89.55864">g</tspan></text>
    <text
       xml:space="preserve"
       style="font-style:normal;font-variant:normal;font-weight:normal;font-stretch:normal;font-size:14px;line-height:125%;font-family:'CMU Sans Serif';-inkscape-font-specification:'CMU Sans Serif';letter-spacing:0px;word-spacing:0px;fill:#f57900;fill-opacity:1;stroke:none;stroke-width:0.75px;stroke-linecap:butt;stroke-linejoin:miter;stroke-opacity:1"
       x="396.02194"
       y="42.143475"
       id="text1570-9"><tspan
         sodipodi:role="line"
         id="tspan1568-7"
         style="fill:#f57900;stroke-width:0.75px;stroke-linecap:butt;stroke-linejoin:round"
         x="396.02194"
         y="42.143475">f</tspan></text>
    <text
       xml:space="preserve"
       style="font-style:normal;font-variant:normal;font-weight:normal;font-stretch:normal;font-size:14px;line-height:125%;font-family:'CMU Sans Serif';-inkscape-font-specification:'CMU Sans Serif';letter-spacing:0px;word-spacing:0px;fill:#000000;fill-opacity:1;stroke:none;stroke-width:0.75px;stroke-linecap:butt;stroke-linejoin:miter;stroke-opacity:1"
       x="37.02824"
       y="91.631737"
       id="text1574-7"><tspan
         sodipodi:role="line"
         id="tspan1572-0"
         style="fill:#ef2929;stroke-width:0.75px;stroke-linecap:butt;stroke-linejoin:round"
         x="37.02824"
         y="91.631737">g</tspan></text>
    <path
       style="opacity:0.54900004;fill:none;fill-rule:evenodd;stroke:#f57900;stroke-width:0.93413907;stroke-linecap:butt;stroke-linejoin:miter;stroke-miterlimit:4;stroke-dasharray:none;stroke-dashoffset:0;stroke-opacity:1;marker-end:url(#Arrow2Lend)"
       d="M 66.25886,60.619245 H 364.34673"
       id="path1624"
       inkscape:connector-curvature="0" />
    <path
       style="opacity:0.54900004;fill:none;fill-rule:evenodd;stroke:#ef2929;stroke-width:0.93413907;stroke-linecap:butt;stroke-linejoin:miter;stroke-miterlimit:4;stroke-dasharray:none;stroke-dashoffset:0;stroke-opacity:1;marker-end:url(#Arrow2Lend-6)"
       d="M 365.95418,111.27972 H 67.866307"
       id="path1624-8"
       inkscape:connector-curvature="0" />
    <path
       style="fill:none;fill-rule:evenodd;stroke:#f57900;stroke-width:0.75px;stroke-linecap:butt;stroke-linejoin:miter;stroke-opacity:1"
       d="m 38.778066,31.325127 3.16631,-3.166312 2.9532,2.953195"
       id="path3215"
       inkscape:connector-curvature="0" />
    <path
       inkscape:connector-curvature="0"
       id="path3217"
       d="m 37.741517,81.51616 3.16631,-3.166312 2.9532,2.953195"
       style="fill:none;fill-rule:evenodd;stroke:#ef2929;stroke-width:0.75px;stroke-linecap:butt;stroke-linejoin:miter;stroke-opacity:1" />
  </g>
  <defs
     id="defs275">
    <clipPath
       id="pb7a6780e4a"
       style="stroke-linecap:butt;stroke-linejoin:round">
      <rect
         height="266.112"
         width="357.12"
         x="57.599998"
         y="41.472"
         id="rect272"
         style="stroke-linecap:butt;stroke-linejoin:round" />
    </clipPath>
  </defs>
</svg>
