<?xml version="1.0" encoding="utf-8" standalone="no"?>
<!DOCTYPE svg PUBLIC "-//W3C//DTD SVG 1.1//EN"
  "http://www.w3.org/Graphics/SVG/1.1/DTD/svg11.dtd">
<!-- Created with matplotlib (https://matplotlib.org/) -->
<svg height="345.6pt" version="1.1" viewBox="0 0 460.8 345.6" width="460.8pt" xmlns="http://www.w3.org/2000/svg" xmlns:xlink="http://www.w3.org/1999/xlink">
 <metadata>
  <rdf:RDF xmlns:cc="http://creativecommons.org/ns#" xmlns:dc="http://purl.org/dc/elements/1.1/" xmlns:rdf="http://www.w3.org/1999/02/22-rdf-syntax-ns#">
   <cc:Work>
    <dc:type rdf:resource="http://purl.org/dc/dcmitype/StillImage"/>
    <dc:date>2021-06-23T16:41:05.516951</dc:date>
    <dc:format>image/svg+xml</dc:format>
    <dc:creator>
     <cc:Agent>
      <dc:title>Matplotlib v3.3.0, https://matplotlib.org/</dc:title>
     </cc:Agent>
    </dc:creator>
   </cc:Work>
  </rdf:RDF>
 </metadata>
 <defs>
  <style type="text/css">*{stroke-linecap:butt;stroke-linejoin:round;}</style>
 </defs>
 <g id="figure_1">
  <g id="patch_1">
   <path d="M 0 345.6 
L 460.8 345.6 
L 460.8 0 
L 0 0 
z
" style="fill:#191919;"/>
  </g>
  <g id="axes_1">
   <g id="patch_2">
    <path d="M 54.633053 293.409706 
L 388.282095 293.409706 
L 388.282095 16.93511 
L 54.633053 16.93511 
z
" style="fill:#191919;"/>
   </g>
   <g id="matplotlib.axis_1">
    <g id="xtick_1">
     <g id="line2d_1">
      <path clip-path="url(#pac6a3ea6f3)" d="M 66.735108 293.409706 
L 66.735108 16.93511 
" style="fill:none;stroke:#343434;stroke-linecap:round;stroke-width:0.8;"/>
     </g>
     <g id="line2d_2"/>
     <g id="text_1">
      <!-- $\mathdefault{0}$ -->
      <g style="fill:#e6e6e6;" transform="translate(63.248184 306.595582)scale(0.14 -0.14)">
       <defs>
        <path d="M 26.296875 69 
C 10.796875 69 2.90625 56.6875 2.90625 32.453125 
C 2.90625 20.71875 5 10.625 8.5 5.71875 
C 12 0.796875 17.59375 -2 23.796875 -2 
C 38.90625 -2 46.5 11.015625 46.5 36.65625 
C 46.5 58.578125 40 69 26.296875 69 
z
M 24.5 65.5 
C 34.203125 65.5 38.09375 55.6875 38.09375 31.640625 
C 38.09375 10.328125 34.296875 1.5 25.09375 1.5 
C 15.40625 1.5 11.296875 11.625 11.296875 36.0625 
C 11.296875 57.1875 15 65.5 24.5 65.5 
z
" id="URW_Palladio_L_Roman-48"/>
       </defs>
       <use transform="scale(0.996264)" xlink:href="#URW_Palladio_L_Roman-48"/>
      </g>
     </g>
    </g>
    <g id="xtick_2">
     <g id="line2d_3">
      <path clip-path="url(#pac6a3ea6f3)" d="M 128.011332 293.409706 
L 128.011332 16.93511 
" style="fill:none;stroke:#343434;stroke-linecap:round;stroke-width:0.8;"/>
     </g>
     <g id="line2d_4"/>
     <g id="text_2">
      <!-- $\mathdefault{200}$ -->
      <g style="fill:#e6e6e6;" transform="translate(117.55056 306.595582)scale(0.14 -0.14)">
       <defs>
        <path d="M 1.59375 2.5 
L 1.59375 0 
C 20.296875 0 20.296875 0 23.90625 0 
C 27.5 0 27.5 0 46.796875 0 
C 46.59375 1.953125 46.59375 2.90625 46.59375 4.203125 
C 46.59375 5.4375 46.59375 6.359375 46.796875 8.421875 
C 35.296875 8.421875 30.703125 8.421875 12.203125 8.421875 
L 30.40625 27.515625 
C 40.09375 37.71875 43.09375 43.171875 43.09375 50.59375 
C 43.09375 61.96875 35.296875 69 22.59375 69 
C 15.40625 69 10.5 67 5.59375 62.015625 
L 3.90625 48.421875 
L 6.796875 48.421875 
L 8.09375 53.015625 
C 9.703125 58.796875 13.296875 61.296875 20 61.296875 
C 28.59375 61.296875 34.09375 55.890625 34.09375 47.421875 
C 34.09375 39.921875 29.90625 32.546875 18.59375 20.5625 
z
" id="URW_Palladio_L_Roman-50"/>
       </defs>
       <use transform="scale(0.996264)" xlink:href="#URW_Palladio_L_Roman-50"/>
       <use transform="translate(49.8132 0)scale(0.996264)" xlink:href="#URW_Palladio_L_Roman-48"/>
       <use transform="translate(99.626401 0)scale(0.996264)" xlink:href="#URW_Palladio_L_Roman-48"/>
      </g>
     </g>
    </g>
    <g id="xtick_3">
     <g id="line2d_5">
      <path clip-path="url(#pac6a3ea6f3)" d="M 189.287557 293.409706 
L 189.287557 16.93511 
" style="fill:none;stroke:#343434;stroke-linecap:round;stroke-width:0.8;"/>
     </g>
     <g id="line2d_6"/>
     <g id="text_3">
      <!-- $\mathdefault{400}$ -->
      <g style="fill:#e6e6e6;" transform="translate(178.826784 306.595582)scale(0.14 -0.14)">
       <defs>
        <path d="M 28 18 
L 28 10.515625 
C 28 4.515625 26.90625 3.109375 22 3.109375 
L 15.796875 3.109375 
L 15.796875 0 
C 29.09375 0 29.09375 0 31.5 0 
C 33.90625 0 33.90625 0 47.203125 0 
L 47.203125 3.109375 
L 42.40625 3.109375 
C 37.5 3.109375 36.40625 4.40625 36.40625 10.453125 
L 36.40625 18 
C 42.296875 18 44.40625 18 47.203125 17.703125 
L 47.203125 24.8125 
C 42.5 24.421875 40.59375 24.421875 39.09375 24.421875 
L 38.796875 24.421875 
L 36.40625 24.421875 
L 36.40625 38.390625 
C 36.40625 56.25 36.59375 64.875 37.09375 69 
L 35.90625 69.5 
L 28.5 66.796875 
L 0.203125 20.296875 
L 1.296875 18 
z
M 28 24.421875 
L 6.5 24.421875 
L 28 59.78125 
z
" id="URW_Palladio_L_Roman-52"/>
       </defs>
       <use transform="scale(0.996264)" xlink:href="#URW_Palladio_L_Roman-52"/>
       <use transform="translate(49.8132 0)scale(0.996264)" xlink:href="#URW_Palladio_L_Roman-48"/>
       <use transform="translate(99.626401 0)scale(0.996264)" xlink:href="#URW_Palladio_L_Roman-48"/>
      </g>
     </g>
    </g>
    <g id="xtick_4">
     <g id="line2d_7">
      <path clip-path="url(#pac6a3ea6f3)" d="M 250.563781 293.409706 
L 250.563781 16.93511 
" style="fill:none;stroke:#343434;stroke-linecap:round;stroke-width:0.8;"/>
     </g>
     <g id="line2d_8"/>
     <g id="text_4">
      <!-- $\mathdefault{600}$ -->
      <g style="fill:#e6e6e6;" transform="translate(240.103009 306.595582)scale(0.14 -0.14)">
       <defs>
        <path d="M 41.59375 67.34375 
L 37.90625 69.046875 
C 28.296875 65.84375 24.203125 63.84375 19.09375 59.4375 
C 8.796875 50.71875 3.203125 38.5 3.203125 24.765625 
C 3.203125 8.21875 11.203125 -2 24.09375 -2 
C 37.09375 -2 46.796875 8.3125 46.796875 21.953125 
C 46.796875 33.484375 39.90625 41 29.296875 41 
C 24.296875 41 21.296875 39.6875 15.40625 34.984375 
C 14.296875 34.078125 14.203125 33.984375 13.09375 33.1875 
C 15.203125 51.3125 23.59375 61.140625 41.59375 66.546875 
z
M 25.5 34.984375 
C 33.09375 34.984375 38.203125 28.375 38.203125 18.453125 
C 38.203125 8.015625 33.09375 1.296875 25.40625 1.296875 
C 16.90625 1.296875 12.296875 8.609375 12.296875 22.0625 
C 12.296875 25.5625 12.703125 27.46875 13.796875 29.171875 
C 16 32.578125 20.703125 34.984375 25.5 34.984375 
z
" id="URW_Palladio_L_Roman-54"/>
       </defs>
       <use transform="scale(0.996264)" xlink:href="#URW_Palladio_L_Roman-54"/>
       <use transform="translate(49.8132 0)scale(0.996264)" xlink:href="#URW_Palladio_L_Roman-48"/>
       <use transform="translate(99.626401 0)scale(0.996264)" xlink:href="#URW_Palladio_L_Roman-48"/>
      </g>
     </g>
    </g>
    <g id="xtick_5">
     <g id="line2d_9">
      <path clip-path="url(#pac6a3ea6f3)" d="M 311.840005 293.409706 
L 311.840005 16.93511 
" style="fill:none;stroke:#343434;stroke-linecap:round;stroke-width:0.8;"/>
     </g>
     <g id="line2d_10"/>
     <g id="text_5">
      <!-- $\mathdefault{800}$ -->
      <g style="fill:#e6e6e6;" transform="translate(301.379233 306.595582)scale(0.14 -0.14)">
       <defs>
        <path d="M 16.796875 34.546875 
C 12.703125 32.65625 11 31.546875 8.796875 29.4375 
C 5 25.640625 3 21.125 3 15.921875 
C 3 5.609375 11.296875 -2 22.59375 -2 
C 35.59375 -2 46.40625 8.21875 46.40625 20.625 
C 46.40625 28.640625 42.703125 32.953125 31.296875 38.15625 
C 40.40625 44.375 43.59375 48.578125 43.59375 54.578125 
C 43.59375 63.1875 36.5 69 25.90625 69 
C 14 69 5.296875 61.390625 5.296875 50.890625 
C 5.296875 44.078125 8 40.265625 16.796875 34.546875 
z
M 28.40625 29.546875 
C 34.703125 26.734375 38.5 21.828125 38.5 16.4375 
C 38.5 8.015625 32.203125 1.40625 24.09375 1.40625 
C 15.59375 1.40625 10.09375 7.421875 10.09375 16.734375 
C 10.09375 24.03125 13 28.640625 20.40625 33.15625 
z
M 22.296875 42.375 
C 16 45.46875 12.796875 49.484375 12.796875 54.484375 
C 12.796875 61.09375 17.59375 65.59375 24.703125 65.59375 
C 32 65.59375 36.796875 60.796875 36.796875 53.46875 
C 36.796875 47.78125 34.296875 43.875 27.796875 39.65625 
z
" id="URW_Palladio_L_Roman-56"/>
       </defs>
       <use transform="scale(0.996264)" xlink:href="#URW_Palladio_L_Roman-56"/>
       <use transform="translate(49.8132 0)scale(0.996264)" xlink:href="#URW_Palladio_L_Roman-48"/>
       <use transform="translate(99.626401 0)scale(0.996264)" xlink:href="#URW_Palladio_L_Roman-48"/>
      </g>
     </g>
    </g>
    <g id="xtick_6">
     <g id="line2d_11">
      <path clip-path="url(#pac6a3ea6f3)" d="M 373.11623 293.409706 
L 373.11623 16.93511 
" style="fill:none;stroke:#343434;stroke-linecap:round;stroke-width:0.8;"/>
     </g>
     <g id="line2d_12"/>
     <g id="text_6">
      <!-- $\mathdefault{1000}$ -->
      <g style="fill:#e6e6e6;" transform="translate(359.168533 306.595582)scale(0.14 -0.14)">
       <defs>
        <path d="M 6.703125 56 
L 7.703125 56 
L 20.59375 61.8125 
C 20.703125 61.90625 20.796875 61.90625 20.90625 61.90625 
C 21.5 61.90625 21.703125 61.015625 21.703125 58.609375 
L 21.703125 9.578125 
C 21.703125 4.3125 20.59375 3.203125 15.203125 3.203125 
L 9.59375 3.203125 
L 9.59375 0 
C 25 0 25 0 26.09375 0 
C 27.40625 0 29.59375 0 33 0 
C 34.203125 0 37.703125 0 41.796875 0 
L 41.796875 3.203125 
L 36.59375 3.203125 
C 31.09375 3.203125 30.09375 4.3125 30.09375 9.5625 
L 30.09375 69.421875 
L 28.703125 69.921875 
C 22.203125 66.515625 15.09375 63.515625 6 60.3125 
z
" id="URW_Palladio_L_Roman-49"/>
       </defs>
       <use transform="scale(0.996264)" xlink:href="#URW_Palladio_L_Roman-49"/>
       <use transform="translate(49.8132 0)scale(0.996264)" xlink:href="#URW_Palladio_L_Roman-48"/>
       <use transform="translate(99.626401 0)scale(0.996264)" xlink:href="#URW_Palladio_L_Roman-48"/>
       <use transform="translate(149.439601 0)scale(0.996264)" xlink:href="#URW_Palladio_L_Roman-48"/>
      </g>
     </g>
    </g>
    <g id="text_7">
     <!-- Energy [{$\mu$}K] -->
     <g style="fill:#e6e6e6;" transform="translate(179.902537 325.860528)scale(0.168 -0.168)">
      <defs>
       <path d="M 30.59375 6.765625 
C 22.59375 6.765625 19 6.765625 17.203125 6.765625 
L 17.203125 32.921875 
L 48.203125 32.921875 
L 48.203125 39 
L 17.203125 39 
L 17.203125 62.640625 
L 30.09375 62.640625 
C 31.296875 62.640625 32.5 62.640625 33.703125 62.640625 
L 50.796875 62.640625 
L 50.796875 69 
L 8.796875 69 
L 8.796875 0 
L 52.09375 0 
L 52.09375 6.765625 
z
" id="CMSS17-69"/>
       <path d="M 40.90625 29.328125 
C 40.90625 35.671875 39.40625 44 28.09375 44 
C 21.703125 44 17.5 40.71875 14.703125 37.328125 
L 14.703125 43.09375 
L 7.40625 43.09375 
L 7.40625 0 
L 15 0 
L 15 24.359375 
C 15 30.6875 17.40625 37.9375 24.203125 37.9375 
C 33 37.9375 33.296875 32 33.296875 28.578125 
L 33.296875 0 
L 40.90625 0 
z
" id="CMSS17-110"/>
       <path d="M 39.09375 21.515625 
C 39.09375 24.84375 38.90625 31.296875 35.703125 36.640625 
C 32.203125 42.390625 26.5 44 22.203125 44 
C 11.796875 44 3 34.1875 3 21.484375 
C 3 9.09375 12.09375 -1 23.59375 -1 
C 28.09375 -1 33.59375 0.296875 38.59375 3.875 
C 38.59375 4.28125 38.40625 6.46875 38.296875 6.5625 
C 38.296875 6.765625 38 9.84375 38 10.25 
C 33.203125 6.359375 27.703125 5.078125 23.703125 5.078125 
C 17.296875 5.078125 10.40625 10.421875 10.09375 21.515625 
z
M 10.90625 27 
C 12.203125 32.5625 16.59375 37.828125 22.203125 37.828125 
C 23.703125 37.828125 30.703125 37.828125 32.5 27 
z
" id="CMSS17-101"/>
       <path d="M 14.90625 21.296875 
C 14.90625 30.703125 21.796875 37 30.59375 37 
L 30.59375 43.578125 
C 24.203125 43.578125 18.203125 40.390625 14.59375 35.203125 
L 14.59375 43.09375 
L 7.5 43.09375 
L 7.5 0 
L 14.90625 0 
z
" id="CMSS17-114"/>
       <path d="M 44.5 43.875 
C 38.796875 43.875 33.90625 42.78125 29.90625 40.890625 
C 26.59375 43.390625 23.203125 43.875 20.90625 43.875 
C 12.203125 43.875 5.59375 36.703125 5.59375 28.34375 
C 5.59375 22.9375 8.59375 18.859375 8.796875 18.671875 
C 7 16.171875 6 13.484375 6 10.5 
C 6 7 7.40625 4.515625 8.5 3.125 
C 3.296875 -0.046875 2.59375 -4.90625 2.59375 -6.796875 
C 2.59375 -14.03125 11.703125 -20 23.40625 -20 
C 35.203125 -20 44.296875 -14.03125 44.296875 -6.6875 
C 44.296875 7 29 7 24.796875 7 
L 16.703125 7 
C 15.203125 7 11.203125 7 11.203125 12.359375 
C 11.203125 14.390625 12.09375 15.6875 12.203125 15.78125 
C 13.703125 14.6875 16.796875 13 20.90625 13 
C 29.203125 13 36.09375 19.96875 36.09375 28.546875 
C 36.09375 33.3125 33.90625 36.796875 33 38 
L 33.296875 38 
C 33.59375 38 37.796875 38 39.296875 38 
C 42.5 38 42.796875 37.953125 45.59375 37.796875 
z
M 20.90625 18.46875 
C 17.5 18.46875 12.703125 20.546875 12.703125 28.484375 
C 12.703125 37.109375 18.203125 38.5 20.796875 38.5 
C 24.203125 38.5 29 36.421875 29 28.484375 
C 29 19.859375 23.5 18.46875 20.90625 18.46875 
z
M 24.703125 -0.15625 
C 27.09375 -0.15625 37.203125 -0.15625 37.203125 -6.90625 
C 37.203125 -11.15625 31 -14.515625 23.5 -14.515625 
C 15.90625 -14.515625 9.703125 -11.25 9.703125 -6.796875 
C 9.703125 -6.296875 9.703125 -0.15625 16.59375 -0.15625 
z
" id="CMSS17-103"/>
       <path d="M 41.796875 43 
L 34 43 
C 25.5 20.21875 22.59375 10.96875 22.40625 5.984375 
L 22.296875 5.984375 
C 22 10.875 17.59375 22.8125 14.09375 31.359375 
L 9.40625 43 
L 1.296875 43 
L 19 0.203125 
C 17.90625 -2.78125 16.296875 -7.265625 15.796875 -8.265625 
C 13.59375 -13.828125 12.09375 -13.828125 10.5 -13.828125 
C 10.09375 -13.828125 6.90625 -13.828125 3.296875 -12.640625 
L 3.90625 -19.203125 
C 6.40625 -19.703125 8.90625 -20 10.703125 -20 
C 13.203125 -20 18.203125 -20 22.796875 -7.765625 
z
" id="CMSS17-121"/>
       <path d="M 25.203125 -25 
L 25.203125 -18.9375 
L 16.59375 -18.9375 
L 16.59375 68 
L 25.203125 68 
L 25.203125 74.078125 
L 9.296875 74.078125 
L 9.296875 -25 
z
" id="CMSS17-91"/>
       <path d="M 5.90625 39.09375 
L 6.59375 37.078125 
L 9.796875 39.1875 
C 12.703125 41 13.703125 41.5 14.59375 41.5 
C 15.59375 41.5 16.296875 40.59375 16.296875 39.484375 
C 16.296875 38.984375 16.203125 38.28125 3.203125 -26.796875 
L 4.59375 -27.609375 
L 7.59375 -26.40625 
C 9.90625 -25.5 10.796875 -24.5 10.90625 -23.1875 
L 12.09375 -0.796875 
C 13.296875 -0.9375 14 -1 14.296875 -1 
C 17.296875 -1 23.796875 4.125 30.40625 11.5625 
C 34.5 16.171875 36.59375 18.984375 39.703125 24.109375 
L 36.203125 10.75 
C 35.203125 6.890625 34.90625 4.671875 34.90625 3.046875 
C 34.90625 0.53125 36 -1 37.90625 -1 
C 40.5 -1 44.203125 1.265625 53.90625 8.609375 
L 52.90625 10.421875 
L 50.296875 8.71875 
C 47.796875 7.109375 45.40625 6 44.203125 6 
C 43.40625 6 42.90625 6.703125 42.90625 7.703125 
C 42.90625 8.515625 43.09375 10.125 43.5 11.71875 
C 45.796875 22.671875 48.90625 36.046875 51.90625 47.59375 
L 51.203125 48.5 
L 44.40625 46.78125 
L 43.40625 41.671875 
C 41.90625 34.03125 39.5 27.296875 36.59375 22.671875 
C 30.703125 13.4375 22.703125 6 18.59375 6 
C 17.703125 6 17.296875 6.90625 17.296875 8.609375 
C 17.296875 10.125 17.40625 11.21875 18 13.828125 
L 23.703125 41.0625 
C 24 42.671875 24.203125 44.078125 24.203125 45.28125 
C 24.203125 47.390625 23.40625 48.5 22 48.5 
C 19.90625 48.5 16.203125 46.484375 8.703125 41.078125 
z
" id="Pazo_Math_Italic-109"/>
       <path d="M 34.90625 41.65625 
L 59.796875 69 
L 50.203125 69 
L 17.203125 32.90625 
L 17.203125 69 
L 8.796875 69 
L 8.796875 0 
L 17.203125 0 
L 17.203125 22.375 
L 29.296875 35.59375 
L 51.796875 0 
L 61.09375 0 
z
" id="CMSS17-75"/>
       <path d="M 17.90625 74.078125 
L 2 74.078125 
L 2 68 
L 10.59375 68 
L 10.59375 -18.9375 
L 2 -18.9375 
L 2 -25 
L 17.90625 -25 
z
" id="CMSS17-93"/>
      </defs>
      <use transform="scale(0.996264)" xlink:href="#CMSS17-69"/>
      <use transform="translate(55.892013 0)scale(0.996264)" xlink:href="#CMSS17-110"/>
      <use transform="translate(104.096956 0)scale(0.996264)" xlink:href="#CMSS17-101"/>
      <use transform="translate(145.735778 0)scale(0.996264)" xlink:href="#CMSS17-114"/>
      <use transform="translate(177.645551 0)scale(0.996264)" xlink:href="#CMSS17-103"/>
      <use transform="translate(224.489175 0)scale(0.996264)" xlink:href="#CMSS17-121"/>
      <use transform="translate(298.718429 0)scale(0.996264)" xlink:href="#CMSS17-91"/>
      <use transform="translate(327.149167 0)scale(0.996264)" xlink:href="#Pazo_Math_Italic-109"/>
      <use transform="translate(386.47575 0)scale(0.996264)" xlink:href="#CMSS17-75"/>
      <use transform="translate(451.296043 0)scale(0.996264)" xlink:href="#CMSS17-93"/>
     </g>
    </g>
   </g>
   <g id="matplotlib.axis_2">
    <g id="ytick_1">
     <g id="line2d_13">
      <path clip-path="url(#pac6a3ea6f3)" d="M 54.633053 280.867927 
L 388.282095 280.867927 
" style="fill:none;stroke:#343434;stroke-linecap:round;stroke-width:0.8;"/>
     </g>
     <g id="line2d_14"/>
     <g id="text_8">
      <!-- 0 -->
      <g style="fill:#e6e6e6;" transform="translate(44.304565 285.710865)scale(0.14 -0.14)">
       <defs>
        <path d="M 43.09375 31.9375 
C 43.09375 37.578125 43 48.078125 38.90625 56.1875 
C 34.796875 64 28.203125 66.078125 23.5 66.078125 
C 16.703125 66.078125 10.90625 62.109375 7.90625 55.78125 
C 4.703125 49.15625 3.796875 42.328125 3.796875 31.9375 
C 3.796875 24.828125 4.09375 16.109375 7.703125 8.484375 
C 11.796875 0.078125 18.703125 -2 23.40625 -2 
C 29.59375 -2 35.59375 1.265625 39 8.09375 
C 42.5 15.21875 43.09375 23.03125 43.09375 31.9375 
z
M 23.40625 4.078125 
C 15.796875 4.078125 13.5 12.671875 12.796875 15.546875 
C 11.59375 20.46875 11.40625 25.21875 11.40625 33.03125 
C 11.40625 39.15625 11.40625 46.0625 13.296875 51.515625 
C 15.59375 57.828125 19.59375 60 23.40625 60 
C 30.796875 60 33.203125 52.6875 34 50.125 
C 35.5 44.890625 35.5 38.765625 35.5 33.03125 
C 35.5 23.84375 35.5 4.078125 23.40625 4.078125 
z
" id="CMSS17-48"/>
       </defs>
       <use transform="scale(0.996264)" xlink:href="#CMSS17-48"/>
      </g>
     </g>
    </g>
    <g id="ytick_2">
     <g id="line2d_15">
      <path clip-path="url(#pac6a3ea6f3)" d="M 54.633053 194.462325 
L 388.282095 194.462325 
" style="fill:none;stroke:#343434;stroke-linecap:round;stroke-width:0.8;"/>
     </g>
     <g id="line2d_16"/>
     <g id="text_9">
      <!-- $\frac{\pi}{4}$ -->
      <g style="fill:#e6e6e6;" transform="translate(43.416249 199.822953)scale(0.14 -0.14)">
       <defs>
        <path d="M 9.59375 35.578125 
L 10.5 36.28125 
C 12.59375 42.203125 16.59375 42.5 22.296875 42.5 
C 23.5 42.5 25.296875 42.5 27.40625 42.5 
C 19 19.59375 15.203125 12.65625 7.09375 -0.09375 
L 8 -1 
L 15.40625 1.578125 
C 19 9.359375 25.09375 24.484375 30.59375 42 
L 49.203125 42 
C 47.5 35.71875 41.703125 17.421875 41.703125 10.953125 
C 41.703125 0.328125 45.5 -1 48.59375 -1 
C 53.703125 -1 56.59375 0.3125 62.90625 5.625 
L 62.09375 7.53125 
L 59.703125 5.8125 
C 60 6.015625 57.09375 3.71875 55.40625 3.71875 
C 50.703125 3.71875 49.296875 6.640625 49.296875 12.859375 
C 49.296875 15.375 49.5 18.078125 50.09375 21 
C 51.796875 29.34375 53.5 37.578125 54.40625 41.703125 
C 56.703125 41.703125 59 41.703125 61.296875 42 
C 63.09375 42 65.296875 43.03125 66.90625 43.640625 
C 68 45.78125 68.40625 45.984375 70.296875 48.421875 
L 69.59375 49.625 
C 66.90625 48.71875 62.40625 47.71875 59.09375 47.71875 
C 57.90625 47.921875 55.40625 47.921875 52.90625 47.921875 
C 42.203125 47.921875 25.703125 47.921875 21.296875 47.921875 
C 13.796875 47.921875 11.09375 44.75 8.203125 36.375 
z
" id="Pazo_Math_Italic-112"/>
       </defs>
       <use transform="translate(0.946417 39.252796)scale(0.757155)" xlink:href="#Pazo_Math_Italic-112"/>
       <use transform="translate(8.631162 -34.371108)scale(0.757155)" xlink:href="#URW_Palladio_L_Roman-52"/>
       <path d="M 0 22.914087 
L 55.120067 22.914087 
L 55.120067 26.899128 
L 0 26.899128 
L 0 22.914087 
z
"/>
      </g>
     </g>
    </g>
    <g id="ytick_3">
     <g id="line2d_17">
      <path clip-path="url(#pac6a3ea6f3)" d="M 54.633053 108.056724 
L 388.282095 108.056724 
" style="fill:none;stroke:#343434;stroke-linecap:round;stroke-width:0.8;"/>
     </g>
     <g id="line2d_18"/>
     <g id="text_10">
      <!-- $\frac{\pi}{2}$ -->
      <g style="fill:#e6e6e6;" transform="translate(43.416249 113.417351)scale(0.14 -0.14)">
       <use transform="translate(0.946417 39.252796)scale(0.757155)" xlink:href="#Pazo_Math_Italic-112"/>
       <use transform="translate(8.631162 -34.371108)scale(0.757155)" xlink:href="#URW_Palladio_L_Roman-50"/>
       <path d="M 0 22.914087 
L 55.120067 22.914087 
L 55.120067 26.899128 
L 0 26.899128 
L 0 22.914087 
z
"/>
      </g>
     </g>
    </g>
    <g id="ytick_4">
     <g id="line2d_19">
      <path clip-path="url(#pac6a3ea6f3)" d="M 54.633053 21.651122 
L 388.282095 21.651122 
" style="fill:none;stroke:#343434;stroke-linecap:round;stroke-width:0.8;"/>
     </g>
     <g id="line2d_20"/>
     <g id="text_11">
      <!-- $\frac{3\pi}{4}$ -->
      <g style="fill:#e6e6e6;" transform="translate(38.116162 28.005482)scale(0.14 -0.14)">
       <defs>
        <path d="M 4.296875 49.953125 
L 7.40625 49.953125 
L 9.203125 55.53125 
C 10.296875 58.90625 16.59375 62.296875 21.796875 62.296875 
C 28.296875 62.296875 33.59375 57.015625 33.59375 50.75 
C 33.59375 43.28125 27.703125 37 20.59375 37 
C 19.796875 37 18.703125 37 17.40625 37.203125 
L 15.90625 37.203125 
L 14.703125 31.984375 
L 15.40625 31.375 
C 19.203125 33.09375 21.09375 33.59375 23.796875 33.59375 
C 32.09375 33.59375 36.90625 28.265625 36.90625 19.09375 
C 36.90625 8.84375 30.796875 2.109375 21.5 2.109375 
C 16.90625 2.109375 12.796875 3.609375 9.796875 6.421875 
C 7.40625 8.640625 6.09375 10.953125 4.203125 16.390625 
L 1.5 15.390625 
C 3.59375 9.265625 4.40625 5.640625 5 0.609375 
C 10.296875 -1.203125 14.703125 -2 18.40625 -2 
C 26.40625 -2 35.59375 2.515625 41.09375 9.265625 
C 44.5 13.390625 46.203125 17.8125 46.203125 22.53125 
C 46.203125 27.359375 44.203125 31.59375 40.59375 34.09375 
C 38.09375 35.90625 35.796875 36.71875 30.796875 37.609375 
C 38.796875 43.796875 41.796875 48.375 41.796875 54.25 
C 41.796875 63.125 34.40625 69 23.296875 69 
C 16.5 69 12 67.109375 7.203125 62.328125 
z
" id="URW_Palladio_L_Roman-51"/>
       </defs>
       <use transform="translate(0 39.252796)scale(0.757155)" xlink:href="#URW_Palladio_L_Roman-51"/>
       <use transform="translate(38.804176 39.252796)scale(0.757155)" xlink:href="#Pazo_Math_Italic-112"/>
       <use transform="translate(27.560041 -34.371108)scale(0.757155)" xlink:href="#URW_Palladio_L_Roman-52"/>
       <path d="M 0 22.914087 
L 92.977825 22.914087 
L 92.977825 26.899128 
L 0 26.899128 
L 0 22.914087 
z
"/>
      </g>
     </g>
    </g>
    <g id="text_12">
     <!-- $\delta_\mathrm{bg}$ -->
     <g style="fill:#e6e6e6;" transform="translate(27.020183 165.870183)rotate(-90)scale(0.168 -0.168)">
      <defs>
       <path d="M 44 68.1875 
C 42.296875 69.5 34.5 71 32 71 
C 24.09375 71 20.59375 66.625 20.59375 60.640625 
C 20.59375 55.265625 22.09375 52.0625 25.203125 45.984375 
C 24.296875 45.390625 23.40625 44.703125 22.703125 44.203125 
C 17.5 39.703125 12.40625 34.8125 8.40625 29.328125 
C 5.5 25.4375 1.703125 19.546875 1.703125 14.078125 
C 1.703125 1.59375 6.296875 -1 12.796875 -1 
C 17.203125 -1 21.09375 1.09375 26.09375 5.390625 
C 27 6.09375 27.796875 6.875 28.59375 7.78125 
C 33.5 12.765625 39.796875 20.53125 39.796875 28.40625 
C 39.796875 37.484375 36.203125 42.578125 32.796875 46.859375 
C 29.203125 51.453125 23.40625 58.71875 23.40625 63.109375 
C 23.40625 65.296875 25.296875 67.796875 28.796875 67.796875 
C 31.796875 67.796875 33.90625 66.609375 36.203125 65.5 
C 37 65.109375 40 63.21875 41.296875 60.71875 
L 42.296875 61.234375 
C 42.796875 62.8125 43.203125 65.390625 44.203125 67.296875 
z
M 32.203125 19.859375 
C 29 12.296875 22.5 4.03125 17 4.03125 
C 12.09375 4.03125 9.296875 8.609375 9.296875 15.1875 
C 9.296875 16.78125 10 19.46875 10.5 21.265625 
C 12.796875 29.4375 18.296875 36.203125 25.09375 41.703125 
C 25.59375 42.09375 26.203125 42.484375 27.09375 42.984375 
C 30 38 33.296875 32.21875 33.296875 25.0625 
C 33.296875 23.46875 32.59375 20.875 32.203125 19.859375 
z
" id="Pazo_Math_Italic-100"/>
       <path d="M 15 72.1875 
L 14.09375 73 
C 9.703125 71.296875 6.40625 70.484375 -1.5 69.28125 
L -1.5 66.484375 
L 4.09375 66.484375 
C 5.90625 66.484375 6.59375 65.375 6.59375 62.359375 
L 6.59375 15.453125 
C 6.59375 9.234375 6.5 6.5 5.796875 -0.515625 
L 7.40625 -1.109375 
L 11.40625 2.5 
C 15.40625 -0.109375 19 -1.109375 24.296875 -1.109375 
C 28.203125 -1.109375 30.796875 -0.40625 32.90625 1.09375 
L 42.90625 8.296875 
C 47.296875 11.484375 50.796875 19.78125 50.796875 27.078125 
C 50.796875 38.6875 43.296875 47 32.703125 47 
C 28 47 23.09375 45.1875 20.5 42.578125 
L 15 36.984375 
z
M 15 30.890625 
C 15 32.28125 16 34.078125 17.59375 35.890625 
C 20.40625 38.78125 24.296875 40.484375 28.40625 40.484375 
C 36.796875 40.484375 42.09375 33.6875 42.09375 23 
C 42.09375 11.796875 36.09375 4 27.59375 4 
C 22.40625 4 15 7.1875 15 9.390625 
z
" id="URW_Palladio_L_Roman-98"/>
       <path d="M 51.90625 38 
L 54.40625 42.109375 
L 54 43.109375 
L 39.796875 43.109375 
C 36.09375 45.890625 32.5 47 27.59375 47 
C 23.203125 47 18.09375 45.625 14 43.25 
C 8.40625 40.109375 5.5 35.28125 5.5 29.28125 
C 5.5 22 10.09375 16.984375 17.5 16.1875 
L 9.59375 10 
C 8.59375 8.484375 8.09375 7.171875 8.09375 5.640625 
C 8.09375 2.8125 9.90625 1.1875 14.703125 -0.21875 
L 6 -4.9375 
C 4.59375 -5.734375 3.203125 -9.4375 3.203125 -12.546875 
C 3.203125 -21.6875 12.09375 -28 24.796875 -28 
C 39.90625 -28 51.796875 -18.46875 51.796875 -6.234375 
C 51.796875 0.984375 47 6 40 6 
L 24 6 
C 18.796875 6 16.40625 7.21875 16.40625 9.984375 
C 16.40625 11.3125 17.203125 12.421875 19.796875 14.671875 
C 20.40625 15.1875 20.59375 15.390625 21 15.796875 
C 22 15.6875 22.59375 15.59375 23.40625 15.59375 
C 27.703125 15.59375 33 17.46875 37.09375 20.3125 
C 41.59375 23.546875 43.796875 27.484375 43.796875 32.703125 
C 43.796875 34.65625 43.5 35.9375 42.703125 38 
z
M 24 43.59375 
C 30.796875 43.59375 35.40625 38.09375 35.40625 29.765625 
C 35.40625 23.421875 31.203125 19 25.09375 19 
C 18.40625 19 13.90625 24.09375 13.90625 31.640625 
C 13.90625 39.171875 17.59375 43.59375 24 43.59375 
z
M 28.703125 -1.015625 
C 40 -1.015625 43.90625 -3.3125 43.90625 -9.84375 
C 43.90625 -18.46875 36 -24.890625 25.5 -24.890625 
C 16.796875 -24.890625 10.796875 -19.78125 10.796875 -12.34375 
C 10.796875 -7.84375 13.40625 -3.71875 17.40625 -2.015625 
C 19 -1.21875 21.796875 -1.015625 28.703125 -1.015625 
z
" id="URW_Palladio_L_Roman-103"/>
      </defs>
      <use transform="scale(0.996264)" xlink:href="#Pazo_Math_Italic-100"/>
      <use transform="translate(43.387316 -20.886626)scale(0.757155)" xlink:href="#URW_Palladio_L_Roman-98"/>
      <use transform="translate(85.257235 -20.886626)scale(0.757155)" xlink:href="#URW_Palladio_L_Roman-103"/>
     </g>
    </g>
   </g>
   <g id="LineCollection_1">
    <path clip-path="url(#pac6a3ea6f3)" d="M 114.530563 277.372847 
L 114.530563 247.733256 
" style="fill:none;stroke:#18c0c4;stroke-opacity:0.7;stroke-width:1.5;"/>
    <path clip-path="url(#pac6a3ea6f3)" d="M 128.685371 236.193099 
L 128.685371 228.85079 
" style="fill:none;stroke:#18c0c4;stroke-opacity:0.7;stroke-width:1.5;"/>
    <path clip-path="url(#pac6a3ea6f3)" d="M 135.058098 219.816265 
L 135.058098 211.352068 
" style="fill:none;stroke:#18c0c4;stroke-opacity:0.7;stroke-width:1.5;"/>
    <path clip-path="url(#pac6a3ea6f3)" d="M 139.990834 209.916456 
L 139.990834 202.358595 
" style="fill:none;stroke:#18c0c4;stroke-opacity:0.7;stroke-width:1.5;"/>
    <path clip-path="url(#pac6a3ea6f3)" d="M 143.575493 201.553071 
L 143.575493 192.088507 
" style="fill:none;stroke:#18c0c4;stroke-opacity:0.7;stroke-width:1.5;"/>
    <path clip-path="url(#pac6a3ea6f3)" d="M 149.243544 171.458975 
L 149.243544 159.744487 
" style="fill:none;stroke:#18c0c4;stroke-opacity:0.7;stroke-width:1.5;"/>
    <path clip-path="url(#pac6a3ea6f3)" d="M 153.440965 146.253537 
L 153.440965 139.938399 
" style="fill:none;stroke:#18c0c4;stroke-opacity:0.7;stroke-width:1.5;"/>
    <path clip-path="url(#pac6a3ea6f3)" d="M 159.599226 123.764315 
L 159.599226 115.942611 
" style="fill:none;stroke:#18c0c4;stroke-opacity:0.7;stroke-width:1.5;"/>
    <path clip-path="url(#pac6a3ea6f3)" d="M 166.799182 110.001042 
L 166.799182 101.04536 
" style="fill:none;stroke:#18c0c4;stroke-opacity:0.7;stroke-width:1.5;"/>
    <path clip-path="url(#pac6a3ea6f3)" d="M 173.508929 79.0937 
L 173.508929 71.004285 
" style="fill:none;stroke:#18c0c4;stroke-opacity:0.7;stroke-width:1.5;"/>
    <path clip-path="url(#pac6a3ea6f3)" d="M 187.663737 49.911838 
L 187.663737 40.106074 
" style="fill:none;stroke:#18c0c4;stroke-opacity:0.7;stroke-width:1.5;"/>
    <path clip-path="url(#pac6a3ea6f3)" d="M 199.45941 46.973964 
L 199.45941 38.950522 
" style="fill:none;stroke:#18c0c4;stroke-opacity:0.7;stroke-width:1.5;"/>
    <path clip-path="url(#pac6a3ea6f3)" d="M 219.619288 42.101707 
L 219.619288 29.502137 
" style="fill:none;stroke:#18c0c4;stroke-opacity:0.7;stroke-width:1.5;"/>
    <path clip-path="url(#pac6a3ea6f3)" d="M 238.921298 45.280664 
L 238.921298 38.176205 
" style="fill:none;stroke:#18c0c4;stroke-opacity:0.7;stroke-width:1.5;"/>
    <path clip-path="url(#pac6a3ea6f3)" d="M 255.006307 61.635322 
L 255.006307 41.298542 
" style="fill:none;stroke:#18c0c4;stroke-opacity:0.7;stroke-width:1.5;"/>
    <path clip-path="url(#pac6a3ea6f3)" d="M 280.28275 58.924111 
L 280.28275 40.088767 
" style="fill:none;stroke:#18c0c4;stroke-opacity:0.7;stroke-width:1.5;"/>
    <path clip-path="url(#pac6a3ea6f3)" d="M 327.067147 50.104498 
L 327.067147 40.512914 
" style="fill:none;stroke:#18c0c4;stroke-opacity:0.7;stroke-width:1.5;"/>
   </g>
   <g id="line2d_21">
    <path clip-path="url(#pac6a3ea6f3)" d="M 69.798919 280.842679 
L 75.409958 280.634846 
L 80.35777 280.235419 
L 84.859439 279.655331 
L 89.032907 278.895957 
L 92.81237 277.990005 
L 96.401313 276.903467 
L 99.71597 275.670718 
L 102.897904 274.24549 
L 105.842783 272.680946 
L 108.639737 270.941564 
L 111.225066 269.080374 
L 113.752875 266.989657 
L 116.196006 264.676599 
L 118.527027 262.162362 
L 120.718728 259.485511 
L 123.003176 256.326744 
L 125.114827 253.025859 
L 127.305725 249.160474 
L 129.290104 245.221596 
L 131.339494 240.661855 
L 133.456024 235.366163 
L 135.641895 229.201311 
L 137.572408 223.113211 
L 139.557007 216.180371 
L 141.597207 208.311161 
L 144.049795 197.854451 
L 146.582733 185.99297 
L 149.579287 170.85585 
L 158.835611 123.151887 
L 161.415926 111.433242 
L 163.621325 102.334391 
L 165.878095 93.935723 
L 168.187432 86.274676 
L 170.55056 79.350188 
L 172.480634 74.322571 
L 174.44659 69.725963 
L 176.449096 65.533681 
L 178.488831 61.717118 
L 180.566488 58.247297 
L 182.682771 55.095923 
L 184.838399 52.236061 
L 187.034104 49.642521 
L 189.270629 47.292042 
L 191.548734 45.163346 
L 194.456017 42.785073 
L 197.431019 40.689495 
L 200.475318 38.846963 
L 203.590528 37.231509 
L 206.7783 35.820417 
L 210.040325 34.593819 
L 214.055207 33.341115 
L 218.182571 32.303169 
L 222.425568 31.457755 
L 227.526206 30.689518 
L 232.793949 30.131814 
L 239.025874 29.724649 
L 245.491673 29.537346 
L 253.056192 29.561736 
L 260.940821 29.809931 
L 270.093454 30.322176 
L 280.660335 31.14568 
L 292.815034 32.325766 
L 306.763161 33.906509 
L 323.9298 36.088418 
L 344.87418 38.98894 
L 371.708536 42.942068 
L 373.11623 43.154422 
L 373.11623 43.154422 
" style="fill:none;stroke:#2ca02c;stroke-linecap:round;stroke-width:1.5;"/>
   </g>
   <g id="line2d_22">
    <defs>
     <path d="M 0 3 
C 0.795609 3 1.55874 2.683901 2.12132 2.12132 
C 2.683901 1.55874 3 0.795609 3 0 
C 3 -0.795609 2.683901 -1.55874 2.12132 -2.12132 
C 1.55874 -2.683901 0.795609 -3 0 -3 
C -0.795609 -3 -1.55874 -2.683901 -2.12132 -2.12132 
C -2.683901 -1.55874 -3 -0.795609 -3 0 
C -3 0.795609 -2.683901 1.55874 -2.12132 2.12132 
C -1.55874 2.683901 -0.795609 3 0 3 
z
" id="m95708202c7" style="stroke:#18c0c4;stroke-opacity:0.7;"/>
    </defs>
    <g clip-path="url(#pac6a3ea6f3)">
     <use style="fill:#18c0c4;fill-opacity:0.7;stroke:#18c0c4;stroke-opacity:0.7;" x="114.530563" xlink:href="#m95708202c7" y="262.553052"/>
     <use style="fill:#18c0c4;fill-opacity:0.7;stroke:#18c0c4;stroke-opacity:0.7;" x="128.685371" xlink:href="#m95708202c7" y="232.521944"/>
     <use style="fill:#18c0c4;fill-opacity:0.7;stroke:#18c0c4;stroke-opacity:0.7;" x="135.058098" xlink:href="#m95708202c7" y="215.584167"/>
     <use style="fill:#18c0c4;fill-opacity:0.7;stroke:#18c0c4;stroke-opacity:0.7;" x="139.990834" xlink:href="#m95708202c7" y="206.137526"/>
     <use style="fill:#18c0c4;fill-opacity:0.7;stroke:#18c0c4;stroke-opacity:0.7;" x="143.575493" xlink:href="#m95708202c7" y="196.820789"/>
     <use style="fill:#18c0c4;fill-opacity:0.7;stroke:#18c0c4;stroke-opacity:0.7;" x="149.243544" xlink:href="#m95708202c7" y="165.601731"/>
     <use style="fill:#18c0c4;fill-opacity:0.7;stroke:#18c0c4;stroke-opacity:0.7;" x="153.440965" xlink:href="#m95708202c7" y="143.095968"/>
     <use style="fill:#18c0c4;fill-opacity:0.7;stroke:#18c0c4;stroke-opacity:0.7;" x="159.599226" xlink:href="#m95708202c7" y="119.853463"/>
     <use style="fill:#18c0c4;fill-opacity:0.7;stroke:#18c0c4;stroke-opacity:0.7;" x="166.799182" xlink:href="#m95708202c7" y="105.523201"/>
     <use style="fill:#18c0c4;fill-opacity:0.7;stroke:#18c0c4;stroke-opacity:0.7;" x="173.508929" xlink:href="#m95708202c7" y="75.048993"/>
     <use style="fill:#18c0c4;fill-opacity:0.7;stroke:#18c0c4;stroke-opacity:0.7;" x="187.663737" xlink:href="#m95708202c7" y="45.008956"/>
     <use style="fill:#18c0c4;fill-opacity:0.7;stroke:#18c0c4;stroke-opacity:0.7;" x="199.45941" xlink:href="#m95708202c7" y="42.962243"/>
     <use style="fill:#18c0c4;fill-opacity:0.7;stroke:#18c0c4;stroke-opacity:0.7;" x="219.619288" xlink:href="#m95708202c7" y="35.801922"/>
     <use style="fill:#18c0c4;fill-opacity:0.7;stroke:#18c0c4;stroke-opacity:0.7;" x="238.921298" xlink:href="#m95708202c7" y="41.728435"/>
     <use style="fill:#18c0c4;fill-opacity:0.7;stroke:#18c0c4;stroke-opacity:0.7;" x="255.006307" xlink:href="#m95708202c7" y="51.466932"/>
     <use style="fill:#18c0c4;fill-opacity:0.7;stroke:#18c0c4;stroke-opacity:0.7;" x="280.28275" xlink:href="#m95708202c7" y="49.506439"/>
     <use style="fill:#18c0c4;fill-opacity:0.7;stroke:#18c0c4;stroke-opacity:0.7;" x="327.067147" xlink:href="#m95708202c7" y="45.308706"/>
    </g>
   </g>
   <g id="patch_3">
    <path d="M 54.633053 293.409706 
L 54.633053 16.93511 
" style="fill:none;"/>
   </g>
   <g id="patch_4">
    <path d="M 388.282095 293.409706 
L 388.282095 16.93511 
" style="fill:none;"/>
   </g>
   <g id="patch_5">
    <path d="M 54.633053 293.409706 
L 388.282095 293.409706 
" style="fill:none;"/>
   </g>
   <g id="patch_6">
    <path d="M 54.633053 16.93511 
L 388.282095 16.93511 
" style="fill:none;"/>
   </g>
   <g id="patch_7">
    <path d="M 399.281314 259.151449 
Q 394.782 259.151449 390.282685 259.151449 
" style="fill:none;stroke:#ffffff;stroke-linecap:round;"/>
   </g>
   <g id="text_13">
    <!-- $5.0$ -->
    <g style="fill:#e6e6e6;" transform="translate(403.282095 262.638373)scale(0.14 -0.14)">
     <defs>
      <path d="M 12.703125 60.578125 
C 25.59375 60.578125 31.203125 60.578125 43.203125 60.578125 
L 43.703125 61.046875 
C 43.5 62.75 43.5 63.5 43.5 64.75 
C 43.5 66.078125 43.5 66.828125 43.703125 68.53125 
L 43.203125 69 
C 35.703125 69 31.203125 69 25.796875 69 
C 20.296875 69 15.90625 69 8.40625 69 
L 7.90625 68.796875 
C 8 62.671875 8.09375 58.265625 8.09375 55.046875 
C 8.09375 46.515625 7.796875 36.875 7.5 32.453125 
L 9.5 31.84375 
C 14.203125 36.578125 16.90625 38 21.796875 38 
C 31.40625 38 37.40625 31.140625 37.40625 20.25 
C 37.40625 9.0625 31 2.5 20.09375 2.5 
C 14.703125 2.5 9.703125 4.328125 8.296875 6.9375 
L 3.703125 15.203125 
L 1.296875 13.796875 
C 3.59375 8.0625 4.796875 4.84375 6.203125 0.421875 
C 9 -1.109375 13 -2 17.296875 -2 
C 24 -2 31.09375 0.921875 36.59375 5.75 
C 42.703125 11.1875 45.90625 18.03125 45.90625 25.46875 
C 45.90625 36.859375 37.796875 44.90625 26.40625 44.90625 
C 21.59375 44.90625 18 43.609375 11.796875 39.90625 
z
" id="URW_Palladio_L_Roman-53"/>
      <path d="M 12.40625 11.625 
C 9.40625 11.625 6.703125 8.8125 6.703125 5.8125 
C 6.703125 2.796875 9.40625 0 12.296875 0 
C 15.5 0 18.296875 2.703125 18.296875 5.8125 
C 18.296875 8.8125 15.5 11.625 12.40625 11.625 
z
" id="URW_Palladio_L_Roman-46"/>
     </defs>
     <use transform="scale(0.996264)" xlink:href="#URW_Palladio_L_Roman-53"/>
     <use transform="translate(49.8132 0)scale(0.996264)" xlink:href="#URW_Palladio_L_Roman-46"/>
     <use transform="translate(74.719801 0)scale(0.996264)" xlink:href="#URW_Palladio_L_Roman-48"/>
    </g>
   </g>
   <g id="patch_8">
    <path d="M 399.281314 194.462325 
Q 394.782 194.462325 390.282685 194.462325 
" style="fill:none;stroke:#ffffff;stroke-linecap:round;"/>
   </g>
   <g id="text_14">
    <!-- $1.0$ -->
    <g style="fill:#e6e6e6;" transform="translate(403.282095 197.949249)scale(0.14 -0.14)">
     <use transform="scale(0.996264)" xlink:href="#URW_Palladio_L_Roman-49"/>
     <use transform="translate(49.8132 0)scale(0.996264)" xlink:href="#URW_Palladio_L_Roman-46"/>
     <use transform="translate(74.719801 0)scale(0.996264)" xlink:href="#URW_Palladio_L_Roman-48"/>
    </g>
   </g>
   <g id="patch_9">
    <path d="M 399.281314 159.064929 
Q 394.782 159.064929 390.282685 159.064929 
" style="fill:none;stroke:#ffffff;stroke-linecap:round;"/>
   </g>
   <g id="text_15">
    <!-- $0.5$ -->
    <g style="fill:#e6e6e6;" transform="translate(403.282095 162.551853)scale(0.14 -0.14)">
     <use transform="scale(0.996264)" xlink:href="#URW_Palladio_L_Roman-48"/>
     <use transform="translate(49.8132 0)scale(0.996264)" xlink:href="#URW_Palladio_L_Roman-46"/>
     <use transform="translate(74.719801 0)scale(0.996264)" xlink:href="#URW_Palladio_L_Roman-53"/>
    </g>
   </g>
   <g id="patch_10">
    <path d="M 399.281314 108.056724 
Q 394.782 108.056724 390.282685 108.056724 
" style="fill:none;stroke:#ffffff;stroke-linecap:round;"/>
   </g>
   <g id="text_16">
    <!-- $0.0$ -->
    <g style="fill:#e6e6e6;" transform="translate(403.282095 111.543648)scale(0.14 -0.14)">
     <use transform="scale(0.996264)" xlink:href="#URW_Palladio_L_Roman-48"/>
     <use transform="translate(49.8132 0)scale(0.996264)" xlink:href="#URW_Palladio_L_Roman-46"/>
     <use transform="translate(74.719801 0)scale(0.996264)" xlink:href="#URW_Palladio_L_Roman-48"/>
    </g>
   </g>
   <g id="patch_11">
    <path d="M 399.277079 57.048519 
Q 394.779497 57.048519 390.281915 57.048519 
" style="fill:none;stroke:#ffffff;stroke-linecap:round;"/>
   </g>
   <g id="text_17">
    <!-- $-0.5$ -->
    <g style="fill:#e6e6e6;" transform="translate(403.282095 60.535443)scale(0.14 -0.14)">
     <defs>
      <path d="M 65.90625 23 
C 67.59375 23 69.40625 23 69.40625 25 
C 69.40625 27 67.59375 27 65.90625 27 
L 11.796875 27 
C 10.09375 27 8.296875 27 8.296875 25 
C 8.296875 23 10.09375 23 11.796875 23 
z
" id="CMSY10-0"/>
     </defs>
     <use transform="scale(1.038107)" xlink:href="#CMSY10-0"/>
     <use transform="translate(81.941696 0)scale(0.996264)" xlink:href="#URW_Palladio_L_Roman-48"/>
     <use transform="translate(131.754897 0)scale(0.996264)" xlink:href="#URW_Palladio_L_Roman-46"/>
     <use transform="translate(156.661497 0)scale(0.996264)" xlink:href="#URW_Palladio_L_Roman-53"/>
    </g>
   </g>
   <g id="patch_12">
    <path d="M 396.78002 57.048519 
Q 393.533132 57.048519 390.286244 57.048519 
" style="fill:none;stroke:#ffffff;stroke-linecap:round;stroke-width:0.3;"/>
   </g>
   <g id="patch_13">
    <path d="M 396.78002 66.195304 
Q 393.533132 66.195304 390.286244 66.195304 
" style="fill:none;stroke:#ffffff;stroke-linecap:round;stroke-width:0.3;"/>
   </g>
   <g id="patch_14">
    <path d="M 396.78002 75.992096 
Q 393.533132 75.992096 390.286244 75.992096 
" style="fill:none;stroke:#ffffff;stroke-linecap:round;stroke-width:0.3;"/>
   </g>
   <g id="patch_15">
    <path d="M 396.78002 86.340245 
Q 393.533132 86.340245 390.286244 86.340245 
" style="fill:none;stroke:#ffffff;stroke-linecap:round;stroke-width:0.3;"/>
   </g>
   <g id="patch_16">
    <path d="M 396.78002 97.091674 
Q 393.533132 97.091674 390.286244 97.091674 
" style="fill:none;stroke:#ffffff;stroke-linecap:round;stroke-width:0.3;"/>
   </g>
   <g id="patch_17">
    <path d="M 396.78002 108.056724 
Q 393.533132 108.056724 390.286244 108.056724 
" style="fill:none;stroke:#ffffff;stroke-linecap:round;stroke-width:0.3;"/>
   </g>
   <g id="patch_18">
    <path d="M 396.78002 119.021773 
Q 393.533132 119.021773 390.286244 119.021773 
" style="fill:none;stroke:#ffffff;stroke-linecap:round;stroke-width:0.3;"/>
   </g>
   <g id="patch_19">
    <path d="M 396.78002 129.773202 
Q 393.533132 129.773202 390.286244 129.773202 
" style="fill:none;stroke:#ffffff;stroke-linecap:round;stroke-width:0.3;"/>
   </g>
   <g id="patch_20">
    <path d="M 396.78002 140.121351 
Q 393.533132 140.121351 390.286244 140.121351 
" style="fill:none;stroke:#ffffff;stroke-linecap:round;stroke-width:0.3;"/>
   </g>
   <g id="patch_21">
    <path d="M 396.78002 149.918144 
Q 393.533132 149.918144 390.286244 149.918144 
" style="fill:none;stroke:#ffffff;stroke-linecap:round;stroke-width:0.3;"/>
   </g>
   <g id="patch_22">
    <path d="M 396.78002 159.064929 
Q 393.533132 159.064929 390.286244 159.064929 
" style="fill:none;stroke:#ffffff;stroke-linecap:round;stroke-width:0.3;"/>
   </g>
   <g id="patch_23">
    <path d="M 396.78002 167.510991 
Q 393.533132 167.510991 390.286244 167.510991 
" style="fill:none;stroke:#ffffff;stroke-linecap:round;stroke-width:0.3;"/>
   </g>
   <g id="patch_24">
    <path d="M 396.78002 175.245758 
Q 393.533132 175.245758 390.286244 175.245758 
" style="fill:none;stroke:#ffffff;stroke-linecap:round;stroke-width:0.3;"/>
   </g>
   <g id="patch_25">
    <path d="M 396.78002 182.288368 
Q 393.533132 182.288368 390.286244 182.288368 
" style="fill:none;stroke:#ffffff;stroke-linecap:round;stroke-width:0.3;"/>
   </g>
   <g id="patch_26">
    <path d="M 396.78002 188.677398 
Q 393.533132 188.677398 390.286244 188.677398 
" style="fill:none;stroke:#ffffff;stroke-linecap:round;stroke-width:0.3;"/>
   </g>
   <g id="patch_27">
    <path d="M 396.78002 194.462325 
Q 393.533132 194.462325 390.286244 194.462325 
" style="fill:none;stroke:#ffffff;stroke-linecap:round;stroke-width:0.3;"/>
   </g>
   <g id="patch_28">
    <path d="M 396.78002 199.697182 
Q 393.533132 199.697182 390.286244 199.697182 
" style="fill:none;stroke:#ffffff;stroke-linecap:round;stroke-width:0.3;"/>
   </g>
   <g id="patch_29">
    <path d="M 396.78002 204.436276 
Q 393.533132 204.436276 390.286244 204.436276 
" style="fill:none;stroke:#ffffff;stroke-linecap:round;stroke-width:0.3;"/>
   </g>
   <g id="patch_30">
    <path d="M 396.78002 208.731554 
Q 393.533132 208.731554 390.286244 208.731554 
" style="fill:none;stroke:#ffffff;stroke-linecap:round;stroke-width:0.3;"/>
   </g>
   <g id="patch_31">
    <path d="M 396.78002 212.631162 
Q 393.533132 212.631162 390.286244 212.631162 
" style="fill:none;stroke:#ffffff;stroke-linecap:round;stroke-width:0.3;"/>
   </g>
   <g id="patch_32">
    <path d="M 396.78002 216.178804 
Q 393.533132 216.178804 390.286244 216.178804 
" style="fill:none;stroke:#ffffff;stroke-linecap:round;stroke-width:0.3;"/>
   </g>
   <g id="patch_33">
    <path d="M 396.78002 219.413607 
Q 393.533132 219.413607 390.286244 219.413607 
" style="fill:none;stroke:#ffffff;stroke-linecap:round;stroke-width:0.3;"/>
   </g>
   <g id="patch_34">
    <path d="M 396.78002 222.370288 
Q 393.533132 222.370288 390.286244 222.370288 
" style="fill:none;stroke:#ffffff;stroke-linecap:round;stroke-width:0.3;"/>
   </g>
   <g id="patch_35">
    <path d="M 396.78002 225.07947 
Q 393.533132 225.07947 390.286244 225.07947 
" style="fill:none;stroke:#ffffff;stroke-linecap:round;stroke-width:0.3;"/>
   </g>
   <g id="patch_36">
    <path d="M 396.78002 227.568074 
Q 393.533132 227.568074 390.286244 227.568074 
" style="fill:none;stroke:#ffffff;stroke-linecap:round;stroke-width:0.3;"/>
   </g>
   <g id="patch_37">
    <path d="M 396.78002 229.859722 
Q 393.533132 229.859722 390.286244 229.859722 
" style="fill:none;stroke:#ffffff;stroke-linecap:round;stroke-width:0.3;"/>
   </g>
   <g id="patch_38">
    <path d="M 396.78002 231.975135 
Q 393.533132 231.975135 390.286244 231.975135 
" style="fill:none;stroke:#ffffff;stroke-linecap:round;stroke-width:0.3;"/>
   </g>
   <g id="patch_39">
    <path d="M 396.78002 233.932491 
Q 393.533132 233.932491 390.286244 233.932491 
" style="fill:none;stroke:#ffffff;stroke-linecap:round;stroke-width:0.3;"/>
   </g>
   <g id="patch_40">
    <path d="M 396.78002 235.747756 
Q 393.533132 235.747756 390.286244 235.747756 
" style="fill:none;stroke:#ffffff;stroke-linecap:round;stroke-width:0.3;"/>
   </g>
   <g id="patch_41">
    <path d="M 396.78002 237.434971 
Q 393.533132 237.434971 390.286244 237.434971 
" style="fill:none;stroke:#ffffff;stroke-linecap:round;stroke-width:0.3;"/>
   </g>
   <g id="patch_42">
    <path d="M 396.78002 239.006507 
Q 393.533132 239.006507 390.286244 239.006507 
" style="fill:none;stroke:#ffffff;stroke-linecap:round;stroke-width:0.3;"/>
   </g>
   <g id="patch_43">
    <path d="M 396.78002 240.473287 
Q 393.533132 240.473287 390.286244 240.473287 
" style="fill:none;stroke:#ffffff;stroke-linecap:round;stroke-width:0.3;"/>
   </g>
   <g id="patch_44">
    <path d="M 396.78002 241.844975 
Q 393.533132 241.844975 390.286244 241.844975 
" style="fill:none;stroke:#ffffff;stroke-linecap:round;stroke-width:0.3;"/>
   </g>
   <g id="patch_45">
    <path d="M 396.78002 243.130138 
Q 393.533132 243.130138 390.286244 243.130138 
" style="fill:none;stroke:#ffffff;stroke-linecap:round;stroke-width:0.3;"/>
   </g>
   <g id="patch_46">
    <path d="M 396.78002 244.336395 
Q 393.533132 244.336395 390.286244 244.336395 
" style="fill:none;stroke:#ffffff;stroke-linecap:round;stroke-width:0.3;"/>
   </g>
   <g id="patch_47">
    <path d="M 396.78002 245.470531 
Q 393.533132 245.470531 390.286244 245.470531 
" style="fill:none;stroke:#ffffff;stroke-linecap:round;stroke-width:0.3;"/>
   </g>
   <g id="patch_48">
    <path d="M 396.78002 246.538604 
Q 393.533132 246.538604 390.286244 246.538604 
" style="fill:none;stroke:#ffffff;stroke-linecap:round;stroke-width:0.3;"/>
   </g>
   <g id="patch_49">
    <path d="M 396.78002 247.54604 
Q 393.533132 247.54604 390.286244 247.54604 
" style="fill:none;stroke:#ffffff;stroke-linecap:round;stroke-width:0.3;"/>
   </g>
   <g id="patch_50">
    <path d="M 396.78002 248.497703 
Q 393.533132 248.497703 390.286244 248.497703 
" style="fill:none;stroke:#ffffff;stroke-linecap:round;stroke-width:0.3;"/>
   </g>
   <g id="patch_51">
    <path d="M 396.78002 249.397969 
Q 393.533132 249.397969 390.286244 249.397969 
" style="fill:none;stroke:#ffffff;stroke-linecap:round;stroke-width:0.3;"/>
   </g>
   <g id="patch_52">
    <path d="M 396.78002 250.250782 
Q 393.533132 250.250782 390.286244 250.250782 
" style="fill:none;stroke:#ffffff;stroke-linecap:round;stroke-width:0.3;"/>
   </g>
   <g id="patch_53">
    <path d="M 396.78002 251.059702 
Q 393.533132 251.059702 390.286244 251.059702 
" style="fill:none;stroke:#ffffff;stroke-linecap:round;stroke-width:0.3;"/>
   </g>
   <g id="patch_54">
    <path d="M 396.78002 251.82795 
Q 393.533132 251.82795 390.286244 251.82795 
" style="fill:none;stroke:#ffffff;stroke-linecap:round;stroke-width:0.3;"/>
   </g>
   <g id="patch_55">
    <path d="M 396.78002 252.558451 
Q 393.533132 252.558451 390.286244 252.558451 
" style="fill:none;stroke:#ffffff;stroke-linecap:round;stroke-width:0.3;"/>
   </g>
   <g id="patch_56">
    <path d="M 396.78002 253.253859 
Q 393.533132 253.253859 390.286244 253.253859 
" style="fill:none;stroke:#ffffff;stroke-linecap:round;stroke-width:0.3;"/>
   </g>
   <g id="patch_57">
    <path d="M 396.78002 253.916592 
Q 393.533132 253.916592 390.286244 253.916592 
" style="fill:none;stroke:#ffffff;stroke-linecap:round;stroke-width:0.3;"/>
   </g>
   <g id="patch_58">
    <path d="M 396.78002 254.548856 
Q 393.533132 254.548856 390.286244 254.548856 
" style="fill:none;stroke:#ffffff;stroke-linecap:round;stroke-width:0.3;"/>
   </g>
   <g id="patch_59">
    <path d="M 396.78002 255.152664 
Q 393.533132 255.152664 390.286244 255.152664 
" style="fill:none;stroke:#ffffff;stroke-linecap:round;stroke-width:0.3;"/>
   </g>
   <g id="patch_60">
    <path d="M 396.78002 255.729863 
Q 393.533132 255.729863 390.286244 255.729863 
" style="fill:none;stroke:#ffffff;stroke-linecap:round;stroke-width:0.3;"/>
   </g>
   <g id="patch_61">
    <path d="M 396.78002 256.282142 
Q 393.533132 256.282142 390.286244 256.282142 
" style="fill:none;stroke:#ffffff;stroke-linecap:round;stroke-width:0.3;"/>
   </g>
   <g id="patch_62">
    <path d="M 396.78002 256.811057 
Q 393.533132 256.811057 390.286244 256.811057 
" style="fill:none;stroke:#ffffff;stroke-linecap:round;stroke-width:0.3;"/>
   </g>
   <g id="patch_63">
    <path d="M 396.78002 257.318035 
Q 393.533132 257.318035 390.286244 257.318035 
" style="fill:none;stroke:#ffffff;stroke-linecap:round;stroke-width:0.3;"/>
   </g>
   <g id="patch_64">
    <path d="M 396.78002 257.804393 
Q 393.533132 257.804393 390.286244 257.804393 
" style="fill:none;stroke:#ffffff;stroke-linecap:round;stroke-width:0.3;"/>
   </g>
   <g id="patch_65">
    <path d="M 396.78002 258.271347 
Q 393.533132 258.271347 390.286244 258.271347 
" style="fill:none;stroke:#ffffff;stroke-linecap:round;stroke-width:0.3;"/>
   </g>
   <g id="patch_66">
    <path d="M 396.78002 258.72002 
Q 393.533132 258.72002 390.286244 258.72002 
" style="fill:none;stroke:#ffffff;stroke-linecap:round;stroke-width:0.3;"/>
   </g>
   <g id="text_18">
    <!-- $q$ parameter -->
    <g style="fill:#e6e6e6;" transform="translate(442.039766 189.192362)rotate(-90)scale(0.14 -0.14)">
     <defs>
      <path d="M 38.5 45.609375 
C 34.203125 47.296875 31.296875 48 28.40625 48 
C 25.703125 48 23.296875 47.203125 20.5 45.5 
C 16.90625 43.328125 12.5 39.75 10.296875 37.265625 
C 6.296875 32.59375 2.40625 18.09375 2.40625 7.84375 
C 2.40625 1.984375 3.59375 -1 6 -1 
C 8.203125 -1 10.09375 -0.203125 13.296875 1.984375 
L 14.09375 2.578125 
C 20.59375 7.140625 27.09375 14.296875 30.796875 20.859375 
L 23.203125 -20.3125 
C 22.703125 -22.703125 21.703125 -24.703125 20.5 -26 
L 21.40625 -27.390625 
C 24.5 -26.59375 27.59375 -26 30 -25.703125 
C 30.40625 -20.328125 31 -14.859375 31.90625 -9.875 
L 40.5 35.46875 
C 41.59375 41.53125 42.203125 44.109375 43.203125 47.203125 
L 41.796875 47.796875 
z
M 33 31 
C 31.90625 25.9375 29.703125 21.5625 26 16.984375 
C 20.796875 10.625 14.703125 5.953125 11.796875 5.953125 
C 10.40625 5.953125 9.59375 8.046875 9.59375 11.3125 
C 9.59375 20.859375 13.90625 35.765625 18.09375 40.734375 
C 19.296875 42.21875 22.203125 43.125 25.40625 43.125 
C 28.203125 43.125 30.296875 42.515625 35.09375 40.4375 
z
" id="URW_Palladio_L_Italic-113"/>
      <path d="M 15.09375 5.203125 
C 18.40625 2.015625 22.90625 -0.078125 27.703125 -0.078125 
C 37 -0.078125 45 9.421875 45 22.0625 
C 45 33.734375 39 44 30.40625 44 
C 25.40625 44 19.40625 42.21875 14.90625 38.625 
L 14.90625 43.203125 
L 7.5 43.203125 
L 7.5 -19 
L 15.09375 -19 
z
M 15.09375 32.8125 
C 15.90625 34 19.296875 37.734375 24.796875 37.734375 
C 31.796875 37.734375 37.40625 30.625 37.40625 22.0625 
C 37.40625 12.296875 30.59375 6 23.90625 6 
C 21.90625 6 19.796875 6.484375 17.796875 8.171875 
C 15.09375 10.53125 15.09375 12 15.09375 13.390625 
z
" id="CMSS17-112"/>
      <path d="M 37.59375 27.984375 
C 37.59375 37.375 30.90625 43.875 21.90625 43.875 
C 17.5 43.875 12.703125 43.078125 7.203125 39.890625 
L 7.796875 33.359375 
C 10.296875 35.125 14.59375 38 21.796875 38 
C 26.90625 38 30 34.0625 30 27.84375 
L 30 24 
C 14 24 4 19.34375 4 11.34375 
C 4 7.203125 6.5 -1 14.796875 -1 
C 16.296875 -1 24.40625 -1 30.203125 3.390625 
L 30.203125 -0.296875 
L 37.59375 -0.296875 
z
M 30 12.75 
C 30 10.953125 30 8.5625 27 6.78125 
C 24.40625 5.078125 21.09375 5.078125 19.703125 5.078125 
C 14.703125 5.078125 11.296875 7.984375 11.296875 11.625 
C 11.296875 18.921875 26.90625 18.921875 30 18.921875 
z
" id="CMSS17-97"/>
      <path d="M 67 29.328125 
C 67 36.0625 65.296875 44 54.09375 44 
C 46.59375 44 42.09375 39.3125 40.09375 36.421875 
C 38.296875 41.71875 34.09375 44 28.09375 44 
C 21.296875 44 17 40.125 14.703125 37.328125 
L 14.703125 43.09375 
L 7.40625 43.09375 
L 7.40625 0 
L 15 0 
L 15 24.359375 
C 15 30.296875 17.203125 37.9375 24.296875 37.9375 
C 33.40625 37.9375 33.40625 31.5 33.40625 28.578125 
L 33.40625 0 
L 41 0 
L 41 24.359375 
C 41 30.296875 43.203125 37.9375 50.296875 37.9375 
C 59.40625 37.9375 59.40625 31.5 59.40625 28.578125 
L 59.40625 0 
L 67 0 
z
" id="CMSS17-109"/>
      <path d="M 16.703125 37 
L 29.703125 37 
L 29.703125 42.765625 
L 16.703125 42.765625 
L 16.703125 55 
L 9.59375 55 
L 9.59375 42.765625 
L 1.703125 42.765625 
L 1.703125 37 
L 9.40625 37 
L 9.40625 11.703125 
C 9.40625 6 10.703125 -1 17.296875 -1 
C 22.296875 -1 26.90625 0.390625 31.296875 2.6875 
L 29.703125 8.5625 
C 27.296875 6.46875 24.40625 5.265625 21.296875 5.265625 
C 16.90625 5.265625 16.703125 10.875 16.703125 13.375 
z
" id="CMSS17-116"/>
     </defs>
     <use transform="scale(0.996264)" xlink:href="#URW_Palladio_L_Italic-113"/>
     <use transform="translate(78.600527 0)scale(0.996264)" xlink:href="#CMSS17-112"/>
     <use transform="translate(126.80547 0)scale(0.996264)" xlink:href="#CMSS17-97"/>
     <use transform="translate(169.124937 0)scale(0.996264)" xlink:href="#CMSS17-114"/>
     <use transform="translate(201.034709 0)scale(0.996264)" xlink:href="#CMSS17-97"/>
     <use transform="translate(245.95663 0)scale(0.996264)" xlink:href="#CMSS17-109"/>
     <use transform="translate(320.185884 0)scale(0.996264)" xlink:href="#CMSS17-101"/>
     <use transform="translate(361.824706 0)scale(0.996264)" xlink:href="#CMSS17-116"/>
     <use transform="translate(395.656273 0)scale(0.996264)" xlink:href="#CMSS17-101"/>
     <use transform="translate(437.295095 0)scale(0.996264)" xlink:href="#CMSS17-114"/>
    </g>
   </g>
  </g>
 </g>
 <defs>
  <clipPath id="pac6a3ea6f3">
   <rect height="276.474596" width="333.649042" x="54.633053" y="16.93511"/>
  </clipPath>
 </defs>
</svg>
