<?xml version="1.0" encoding="utf-8" standalone="no"?>
<!DOCTYPE svg PUBLIC "-//W3C//DTD SVG 1.1//EN"
  "http://www.w3.org/Graphics/SVG/1.1/DTD/svg11.dtd">
<!-- Created with matplotlib (https://matplotlib.org/) -->
<svg height="345.6pt" version="1.1" viewBox="0 0 460.8 345.6" width="460.8pt" xmlns="http://www.w3.org/2000/svg" xmlns:xlink="http://www.w3.org/1999/xlink">
 <metadata>
  <rdf:RDF xmlns:cc="http://creativecommons.org/ns#" xmlns:dc="http://purl.org/dc/elements/1.1/" xmlns:rdf="http://www.w3.org/1999/02/22-rdf-syntax-ns#">
   <cc:Work>
    <dc:type rdf:resource="http://purl.org/dc/dcmitype/StillImage"/>
    <dc:date>2021-06-23T16:41:05.818551</dc:date>
    <dc:format>image/svg+xml</dc:format>
    <dc:creator>
     <cc:Agent>
      <dc:title>Matplotlib v3.3.0, https://matplotlib.org/</dc:title>
     </cc:Agent>
    </dc:creator>
   </cc:Work>
  </rdf:RDF>
 </metadata>
 <defs>
  <style type="text/css">*{stroke-linecap:butt;stroke-linejoin:round;}</style>
 </defs>
 <g id="figure_1">
  <g id="patch_1">
   <path d="M 0 345.6 
L 460.8 345.6 
L 460.8 0 
L 0 0 
z
" style="fill:#191919;"/>
  </g>
  <g id="axes_1">
   <g id="patch_2">
    <path d="M 60.278767 314.582095 
L 445.68 314.582095 
L 445.68 15.12 
L 60.278767 15.12 
z
" style="fill:#191919;"/>
   </g>
   <g id="matplotlib.axis_1">
    <g id="xtick_1">
     <g id="line2d_1">
      <path clip-path="url(#pce068063e1)" d="M 74.257967 314.582095 
L 74.257967 15.12 
" style="fill:none;stroke:#343434;stroke-linecap:round;stroke-width:0.8;"/>
     </g>
     <g id="line2d_2"/>
     <g id="text_1">
      <!-- $\mathdefault{0}$ -->
      <g style="fill:#e6e6e6;" transform="translate(70.771043 327.767972)scale(0.14 -0.14)">
       <defs>
        <path d="M 26.296875 69 
C 10.796875 69 2.90625 56.6875 2.90625 32.453125 
C 2.90625 20.71875 5 10.625 8.5 5.71875 
C 12 0.796875 17.59375 -2 23.796875 -2 
C 38.90625 -2 46.5 11.015625 46.5 36.65625 
C 46.5 58.578125 40 69 26.296875 69 
z
M 24.5 65.5 
C 34.203125 65.5 38.09375 55.6875 38.09375 31.640625 
C 38.09375 10.328125 34.296875 1.5 25.09375 1.5 
C 15.40625 1.5 11.296875 11.625 11.296875 36.0625 
C 11.296875 57.1875 15 65.5 24.5 65.5 
z
" id="URW_Palladio_L_Roman-48"/>
       </defs>
       <use transform="scale(0.996264)" xlink:href="#URW_Palladio_L_Roman-48"/>
      </g>
     </g>
    </g>
    <g id="xtick_2">
     <g id="line2d_3">
      <path clip-path="url(#pce068063e1)" d="M 145.038726 314.582095 
L 145.038726 15.12 
" style="fill:none;stroke:#343434;stroke-linecap:round;stroke-width:0.8;"/>
     </g>
     <g id="line2d_4"/>
     <g id="text_2">
      <!-- $\mathdefault{200}$ -->
      <g style="fill:#e6e6e6;" transform="translate(134.577954 327.767972)scale(0.14 -0.14)">
       <defs>
        <path d="M 1.59375 2.5 
L 1.59375 0 
C 20.296875 0 20.296875 0 23.90625 0 
C 27.5 0 27.5 0 46.796875 0 
C 46.59375 1.953125 46.59375 2.90625 46.59375 4.203125 
C 46.59375 5.4375 46.59375 6.359375 46.796875 8.421875 
C 35.296875 8.421875 30.703125 8.421875 12.203125 8.421875 
L 30.40625 27.515625 
C 40.09375 37.71875 43.09375 43.171875 43.09375 50.59375 
C 43.09375 61.96875 35.296875 69 22.59375 69 
C 15.40625 69 10.5 67 5.59375 62.015625 
L 3.90625 48.421875 
L 6.796875 48.421875 
L 8.09375 53.015625 
C 9.703125 58.796875 13.296875 61.296875 20 61.296875 
C 28.59375 61.296875 34.09375 55.890625 34.09375 47.421875 
C 34.09375 39.921875 29.90625 32.546875 18.59375 20.5625 
z
" id="URW_Palladio_L_Roman-50"/>
       </defs>
       <use transform="scale(0.996264)" xlink:href="#URW_Palladio_L_Roman-50"/>
       <use transform="translate(49.8132 0)scale(0.996264)" xlink:href="#URW_Palladio_L_Roman-48"/>
       <use transform="translate(99.626401 0)scale(0.996264)" xlink:href="#URW_Palladio_L_Roman-48"/>
      </g>
     </g>
    </g>
    <g id="xtick_3">
     <g id="line2d_5">
      <path clip-path="url(#pce068063e1)" d="M 215.819485 314.582095 
L 215.819485 15.12 
" style="fill:none;stroke:#343434;stroke-linecap:round;stroke-width:0.8;"/>
     </g>
     <g id="line2d_6"/>
     <g id="text_3">
      <!-- $\mathdefault{400}$ -->
      <g style="fill:#e6e6e6;" transform="translate(205.358713 327.767972)scale(0.14 -0.14)">
       <defs>
        <path d="M 28 18 
L 28 10.515625 
C 28 4.515625 26.90625 3.109375 22 3.109375 
L 15.796875 3.109375 
L 15.796875 0 
C 29.09375 0 29.09375 0 31.5 0 
C 33.90625 0 33.90625 0 47.203125 0 
L 47.203125 3.109375 
L 42.40625 3.109375 
C 37.5 3.109375 36.40625 4.40625 36.40625 10.453125 
L 36.40625 18 
C 42.296875 18 44.40625 18 47.203125 17.703125 
L 47.203125 24.8125 
C 42.5 24.421875 40.59375 24.421875 39.09375 24.421875 
L 38.796875 24.421875 
L 36.40625 24.421875 
L 36.40625 38.390625 
C 36.40625 56.25 36.59375 64.875 37.09375 69 
L 35.90625 69.5 
L 28.5 66.796875 
L 0.203125 20.296875 
L 1.296875 18 
z
M 28 24.421875 
L 6.5 24.421875 
L 28 59.78125 
z
" id="URW_Palladio_L_Roman-52"/>
       </defs>
       <use transform="scale(0.996264)" xlink:href="#URW_Palladio_L_Roman-52"/>
       <use transform="translate(49.8132 0)scale(0.996264)" xlink:href="#URW_Palladio_L_Roman-48"/>
       <use transform="translate(99.626401 0)scale(0.996264)" xlink:href="#URW_Palladio_L_Roman-48"/>
      </g>
     </g>
    </g>
    <g id="xtick_4">
     <g id="line2d_7">
      <path clip-path="url(#pce068063e1)" d="M 286.600244 314.582095 
L 286.600244 15.12 
" style="fill:none;stroke:#343434;stroke-linecap:round;stroke-width:0.8;"/>
     </g>
     <g id="line2d_8"/>
     <g id="text_4">
      <!-- $\mathdefault{600}$ -->
      <g style="fill:#e6e6e6;" transform="translate(276.139472 327.767972)scale(0.14 -0.14)">
       <defs>
        <path d="M 41.59375 67.34375 
L 37.90625 69.046875 
C 28.296875 65.84375 24.203125 63.84375 19.09375 59.4375 
C 8.796875 50.71875 3.203125 38.5 3.203125 24.765625 
C 3.203125 8.21875 11.203125 -2 24.09375 -2 
C 37.09375 -2 46.796875 8.3125 46.796875 21.953125 
C 46.796875 33.484375 39.90625 41 29.296875 41 
C 24.296875 41 21.296875 39.6875 15.40625 34.984375 
C 14.296875 34.078125 14.203125 33.984375 13.09375 33.1875 
C 15.203125 51.3125 23.59375 61.140625 41.59375 66.546875 
z
M 25.5 34.984375 
C 33.09375 34.984375 38.203125 28.375 38.203125 18.453125 
C 38.203125 8.015625 33.09375 1.296875 25.40625 1.296875 
C 16.90625 1.296875 12.296875 8.609375 12.296875 22.0625 
C 12.296875 25.5625 12.703125 27.46875 13.796875 29.171875 
C 16 32.578125 20.703125 34.984375 25.5 34.984375 
z
" id="URW_Palladio_L_Roman-54"/>
       </defs>
       <use transform="scale(0.996264)" xlink:href="#URW_Palladio_L_Roman-54"/>
       <use transform="translate(49.8132 0)scale(0.996264)" xlink:href="#URW_Palladio_L_Roman-48"/>
       <use transform="translate(99.626401 0)scale(0.996264)" xlink:href="#URW_Palladio_L_Roman-48"/>
      </g>
     </g>
    </g>
    <g id="xtick_5">
     <g id="line2d_9">
      <path clip-path="url(#pce068063e1)" d="M 357.381003 314.582095 
L 357.381003 15.12 
" style="fill:none;stroke:#343434;stroke-linecap:round;stroke-width:0.8;"/>
     </g>
     <g id="line2d_10"/>
     <g id="text_5">
      <!-- $\mathdefault{800}$ -->
      <g style="fill:#e6e6e6;" transform="translate(346.920231 327.767972)scale(0.14 -0.14)">
       <defs>
        <path d="M 16.796875 34.546875 
C 12.703125 32.65625 11 31.546875 8.796875 29.4375 
C 5 25.640625 3 21.125 3 15.921875 
C 3 5.609375 11.296875 -2 22.59375 -2 
C 35.59375 -2 46.40625 8.21875 46.40625 20.625 
C 46.40625 28.640625 42.703125 32.953125 31.296875 38.15625 
C 40.40625 44.375 43.59375 48.578125 43.59375 54.578125 
C 43.59375 63.1875 36.5 69 25.90625 69 
C 14 69 5.296875 61.390625 5.296875 50.890625 
C 5.296875 44.078125 8 40.265625 16.796875 34.546875 
z
M 28.40625 29.546875 
C 34.703125 26.734375 38.5 21.828125 38.5 16.4375 
C 38.5 8.015625 32.203125 1.40625 24.09375 1.40625 
C 15.59375 1.40625 10.09375 7.421875 10.09375 16.734375 
C 10.09375 24.03125 13 28.640625 20.40625 33.15625 
z
M 22.296875 42.375 
C 16 45.46875 12.796875 49.484375 12.796875 54.484375 
C 12.796875 61.09375 17.59375 65.59375 24.703125 65.59375 
C 32 65.59375 36.796875 60.796875 36.796875 53.46875 
C 36.796875 47.78125 34.296875 43.875 27.796875 39.65625 
z
" id="URW_Palladio_L_Roman-56"/>
       </defs>
       <use transform="scale(0.996264)" xlink:href="#URW_Palladio_L_Roman-56"/>
       <use transform="translate(49.8132 0)scale(0.996264)" xlink:href="#URW_Palladio_L_Roman-48"/>
       <use transform="translate(99.626401 0)scale(0.996264)" xlink:href="#URW_Palladio_L_Roman-48"/>
      </g>
     </g>
    </g>
    <g id="xtick_6">
     <g id="line2d_11">
      <path clip-path="url(#pce068063e1)" d="M 428.161762 314.582095 
L 428.161762 15.12 
" style="fill:none;stroke:#343434;stroke-linecap:round;stroke-width:0.8;"/>
     </g>
     <g id="line2d_12"/>
     <g id="text_6">
      <!-- $\mathdefault{1000}$ -->
      <g style="fill:#e6e6e6;" transform="translate(414.214066 327.767972)scale(0.14 -0.14)">
       <defs>
        <path d="M 6.703125 56 
L 7.703125 56 
L 20.59375 61.8125 
C 20.703125 61.90625 20.796875 61.90625 20.90625 61.90625 
C 21.5 61.90625 21.703125 61.015625 21.703125 58.609375 
L 21.703125 9.578125 
C 21.703125 4.3125 20.59375 3.203125 15.203125 3.203125 
L 9.59375 3.203125 
L 9.59375 0 
C 25 0 25 0 26.09375 0 
C 27.40625 0 29.59375 0 33 0 
C 34.203125 0 37.703125 0 41.796875 0 
L 41.796875 3.203125 
L 36.59375 3.203125 
C 31.09375 3.203125 30.09375 4.3125 30.09375 9.5625 
L 30.09375 69.421875 
L 28.703125 69.921875 
C 22.203125 66.515625 15.09375 63.515625 6 60.3125 
z
" id="URW_Palladio_L_Roman-49"/>
       </defs>
       <use transform="scale(0.996264)" xlink:href="#URW_Palladio_L_Roman-49"/>
       <use transform="translate(49.8132 0)scale(0.996264)" xlink:href="#URW_Palladio_L_Roman-48"/>
       <use transform="translate(99.626401 0)scale(0.996264)" xlink:href="#URW_Palladio_L_Roman-48"/>
       <use transform="translate(149.439601 0)scale(0.996264)" xlink:href="#URW_Palladio_L_Roman-48"/>
      </g>
     </g>
    </g>
   </g>
   <g id="matplotlib.axis_2">
    <g id="ytick_1">
     <g id="line2d_13">
      <path clip-path="url(#pce068063e1)" d="M 60.278767 279.237324 
L 445.68 279.237324 
" style="fill:none;stroke:#343434;stroke-linecap:round;stroke-width:0.8;"/>
     </g>
     <g id="line2d_14"/>
     <g id="text_7">
      <!-- $\mathdefault{930}$ -->
      <g style="fill:#e6e6e6;" transform="translate(35.857223 284.080263)scale(0.14 -0.14)">
       <defs>
        <path d="M 9.59375 -1.65625 
C 20.703125 1.953125 25.5 4.25 30.90625 8.84375 
C 40.59375 17.15625 45.703125 28.671875 45.703125 42.078125 
C 45.703125 59 37.59375 69.296875 24.40625 69.296875 
C 11.59375 69.296875 2 59.296875 2 45.90625 
C 2 34.390625 9.5 26 19.90625 26 
C 23.296875 26 27.203125 27.09375 29 28.59375 
L 36 34.40625 
C 35.203125 17.578125 24.296875 5.25 6.203125 0.84375 
L 6.203125 0.046875 
z
M 24 66 
C 28.5 66 31.796875 64.09375 34 60.09375 
C 35.796875 56.890625 37 52 37 47.5 
C 37 38.296875 31.703125 32.109375 24 32.109375 
C 16 32.109375 10.59375 39.203125 10.59375 49.59375 
C 10.59375 59.703125 15.796875 66 24 66 
z
" id="URW_Palladio_L_Roman-57"/>
        <path d="M 4.296875 49.953125 
L 7.40625 49.953125 
L 9.203125 55.53125 
C 10.296875 58.90625 16.59375 62.296875 21.796875 62.296875 
C 28.296875 62.296875 33.59375 57.015625 33.59375 50.75 
C 33.59375 43.28125 27.703125 37 20.59375 37 
C 19.796875 37 18.703125 37 17.40625 37.203125 
L 15.90625 37.203125 
L 14.703125 31.984375 
L 15.40625 31.375 
C 19.203125 33.09375 21.09375 33.59375 23.796875 33.59375 
C 32.09375 33.59375 36.90625 28.265625 36.90625 19.09375 
C 36.90625 8.84375 30.796875 2.109375 21.5 2.109375 
C 16.90625 2.109375 12.796875 3.609375 9.796875 6.421875 
C 7.40625 8.640625 6.09375 10.953125 4.203125 16.390625 
L 1.5 15.390625 
C 3.59375 9.265625 4.40625 5.640625 5 0.609375 
C 10.296875 -1.203125 14.703125 -2 18.40625 -2 
C 26.40625 -2 35.59375 2.515625 41.09375 9.265625 
C 44.5 13.390625 46.203125 17.8125 46.203125 22.53125 
C 46.203125 27.359375 44.203125 31.59375 40.59375 34.09375 
C 38.09375 35.90625 35.796875 36.71875 30.796875 37.609375 
C 38.796875 43.796875 41.796875 48.375 41.796875 54.25 
C 41.796875 63.125 34.40625 69 23.296875 69 
C 16.5 69 12 67.109375 7.203125 62.328125 
z
" id="URW_Palladio_L_Roman-51"/>
       </defs>
       <use transform="scale(0.996264)" xlink:href="#URW_Palladio_L_Roman-57"/>
       <use transform="translate(49.8132 0)scale(0.996264)" xlink:href="#URW_Palladio_L_Roman-51"/>
       <use transform="translate(99.626401 0)scale(0.996264)" xlink:href="#URW_Palladio_L_Roman-48"/>
      </g>
     </g>
    </g>
    <g id="ytick_2">
     <g id="line2d_15">
      <path clip-path="url(#pce068063e1)" d="M 60.278767 215.384708 
L 445.68 215.384708 
" style="fill:none;stroke:#343434;stroke-linecap:round;stroke-width:0.8;"/>
     </g>
     <g id="line2d_16"/>
     <g id="text_8">
      <!-- $\mathdefault{931}$ -->
      <g style="fill:#e6e6e6;" transform="translate(35.857223 220.227646)scale(0.14 -0.14)">
       <use transform="scale(0.996264)" xlink:href="#URW_Palladio_L_Roman-57"/>
       <use transform="translate(49.8132 0)scale(0.996264)" xlink:href="#URW_Palladio_L_Roman-51"/>
       <use transform="translate(99.626401 0)scale(0.996264)" xlink:href="#URW_Palladio_L_Roman-49"/>
      </g>
     </g>
    </g>
    <g id="ytick_3">
     <g id="line2d_17">
      <path clip-path="url(#pce068063e1)" d="M 60.278767 151.532091 
L 445.68 151.532091 
" style="fill:none;stroke:#343434;stroke-linecap:round;stroke-width:0.8;"/>
     </g>
     <g id="line2d_18"/>
     <g id="text_9">
      <!-- $\mathdefault{932}$ -->
      <g style="fill:#e6e6e6;" transform="translate(35.857223 156.375029)scale(0.14 -0.14)">
       <use transform="scale(0.996264)" xlink:href="#URW_Palladio_L_Roman-57"/>
       <use transform="translate(49.8132 0)scale(0.996264)" xlink:href="#URW_Palladio_L_Roman-51"/>
       <use transform="translate(99.626401 0)scale(0.996264)" xlink:href="#URW_Palladio_L_Roman-50"/>
      </g>
     </g>
    </g>
    <g id="ytick_4">
     <g id="line2d_19">
      <path clip-path="url(#pce068063e1)" d="M 60.278767 87.679474 
L 445.68 87.679474 
" style="fill:none;stroke:#343434;stroke-linecap:round;stroke-width:0.8;"/>
     </g>
     <g id="line2d_20"/>
     <g id="text_10">
      <!-- $\mathdefault{933}$ -->
      <g style="fill:#e6e6e6;" transform="translate(35.857223 92.522413)scale(0.14 -0.14)">
       <use transform="scale(0.996264)" xlink:href="#URW_Palladio_L_Roman-57"/>
       <use transform="translate(49.8132 0)scale(0.996264)" xlink:href="#URW_Palladio_L_Roman-51"/>
       <use transform="translate(99.626401 0)scale(0.996264)" xlink:href="#URW_Palladio_L_Roman-51"/>
      </g>
     </g>
    </g>
    <g id="ytick_5">
     <g id="line2d_21">
      <path clip-path="url(#pce068063e1)" d="M 60.278767 23.826858 
L 445.68 23.826858 
" style="fill:none;stroke:#343434;stroke-linecap:round;stroke-width:0.8;"/>
     </g>
     <g id="line2d_22"/>
     <g id="text_11">
      <!-- $\mathdefault{934}$ -->
      <g style="fill:#e6e6e6;" transform="translate(35.857223 28.669796)scale(0.14 -0.14)">
       <use transform="scale(0.996264)" xlink:href="#URW_Palladio_L_Roman-57"/>
       <use transform="translate(49.8132 0)scale(0.996264)" xlink:href="#URW_Palladio_L_Roman-51"/>
       <use transform="translate(99.626401 0)scale(0.996264)" xlink:href="#URW_Palladio_L_Roman-52"/>
      </g>
     </g>
    </g>
    <g id="text_12">
     <!-- $B_\mathrm{res}$ [G] -->
     <g style="fill:#e6e6e6;" transform="translate(27.672917 191.180155)rotate(-90)scale(0.168 -0.168)">
      <defs>
       <path d="M 9.703125 65.703125 
L 15 65.703125 
C 17.40625 65.703125 18.5 64.90625 18.5 63.09375 
C 18.5 61.703125 18.09375 58.5 17.59375 55.5 
L 8.90625 5.109375 
C 8.5 3.296875 7.296875 2.59375 3.09375 1.90625 
L 2.59375 -0.703125 
L 6.296875 -0.703125 
C 9 -0.703125 10.5 -0.703125 11.703125 -0.703125 
C 12.796875 -0.703125 15.40625 -0.703125 18 -0.703125 
L 21.703125 -0.703125 
L 23.703125 -0.703125 
C 25.59375 -0.703125 26.90625 -1 27.703125 -1 
C 32.5 -1 37.296875 0.390625 42 3.171875 
C 49.90625 7.859375 54.296875 14.609375 54.296875 22.1875 
C 54.296875 26.46875 52.90625 29.734375 50.203125 31.921875 
C 47.59375 34.015625 44.59375 34.90625 37.703125 35.90625 
C 43.40625 37.90625 45.90625 39.109375 49 41.90625 
C 53.59375 45.796875 55.90625 50.515625 55.90625 55.609375 
C 55.90625 63.796875 50.09375 68.59375 40.09375 68.59375 
C 39.90625 68.59375 38.90625 68.59375 37.40625 68.59375 
L 31.09375 68.59375 
C 29.90625 68.59375 26.296875 68.59375 25.09375 68.59375 
C 23.203125 68.59375 20.09375 68.59375 15.203125 68.59375 
L 10 68.59375 
z
M 21.703125 33.421875 
L 30.203125 33.421875 
C 40.5 33.421875 45.5 29.234375 45.5 20.59375 
C 45.5 10.34375 38.203125 2.984375 28.203125 2.984375 
C 26.203125 2.984375 23.296875 2.984375 20 3.34375 
C 19.40625 3.46875 18.203125 3.578125 16.59375 3.578125 
z
M 27.203125 64.5 
C 28.296875 64.5 28.5 64.609375 30.59375 64.703125 
C 32.703125 64.90625 34 65 35.203125 65 
C 43.296875 65 47.296875 61.390625 47.296875 53.859375 
C 47.296875 43.328125 39.90625 37 27.5 37 
L 22.296875 37 
z
" id="URW_Palladio_L_Italic-66"/>
       <path d="M 2.296875 40.078125 
L 6 40.078125 
C 10 40.078125 10.40625 39.375 10.40625 32.71875 
L 10.40625 10.046875 
C 10.40625 3.703125 10.09375 3 6.703125 3 
L 2.09375 3 
L 2.09375 -0.109375 
C 9.296875 -0.109375 11.90625 -0.109375 14.40625 -0.109375 
C 16.40625 -0.109375 16.40625 -0.109375 28.703125 -0.109375 
L 28.703125 3 
L 23.5 3 
C 19 3 18.796875 3.296875 18.796875 9.96875 
L 18.796875 27.359375 
C 18.796875 33.421875 22.796875 38.484375 27.703125 38.484375 
C 30.703125 38.484375 32.796875 37.078125 34.40625 33.890625 
L 36.5 33.890625 
L 37.40625 45.890625 
C 36.296875 46.59375 34.5 47 32.703125 47 
C 29.703125 47 26.5 45.390625 24.40625 42.890625 
L 18.796875 36.28125 
L 18.796875 46.59375 
L 17.90625 47 
C 12.796875 44.890625 7.59375 43.484375 2.296875 42.890625 
z
" id="URW_Palladio_L_Roman-114"/>
       <path d="M 43.703125 6.984375 
L 42.40625 7.984375 
C 36 4.203125 33.703125 3.3125 29.40625 3.3125 
C 22.90625 3.3125 17.5 6.21875 14.703125 11.109375 
C 12.796875 14.390625 12.09375 17.203125 11.90625 23 
L 26.5 23 
C 33.40625 23 37.703125 23 44.59375 24.125 
C 44.703125 25.53125 44.796875 26.453125 44.796875 27.671875 
C 44.796875 39.375 37.40625 47 26.203125 47 
C 22.5 47 18.203125 45.6875 14.09375 43.28125 
C 5.90625 38.578125 2.59375 32.359375 2.59375 21.9375 
C 2.59375 15.625 4.09375 10.21875 6.796875 6.40625 
C 10.796875 1.109375 17.5 -2 25 -2 
C 28.703125 -2 32.40625 -1.203125 36.5 0.578125 
C 39.203125 1.6875 41.296875 2.984375 41.703125 3.59375 
z
M 35.90625 26.40625 
C 30.703125 26.40625 28.296875 26.40625 24.703125 26.40625 
C 20.09375 26.40625 17.5 26.40625 12.09375 26.90625 
C 12.09375 31.671875 12.5 33.890625 13.796875 36.515625 
C 15.90625 40.96875 20.203125 43.6875 25 43.6875 
C 28.296875 43.6875 30.90625 42.359375 32.703125 39.59375 
C 34.90625 36.234375 35.59375 33.265625 35.90625 26.40625 
z
" id="URW_Palladio_L_Roman-101"/>
       <path d="M 4.09375 14.328125 
C 4.09375 7.421875 3.796875 4.40625 3 0.40625 
C 8.203125 -1.296875 12.09375 -2 16.703125 -2 
C 29.796875 -2 39.09375 5.015625 39.09375 14.828125 
C 39.09375 17.9375 38.203125 20.234375 36.296875 22.25 
C 33.703125 24.75 30.40625 25.953125 21.59375 27.65625 
C 13.40625 29.265625 10.703125 31.265625 10.703125 35.875 
C 10.703125 40.875 14.203125 43.6875 20.296875 43.6875 
C 27 43.6875 32.09375 40.1875 32.09375 35.46875 
L 32.09375 33.171875 
L 34.90625 33.171875 
C 35 38.984375 35.09375 41.375 35.40625 44.484375 
C 30.09375 46.296875 26.5 47 22.40625 47 
C 10.796875 47 3.703125 41.484375 3.703125 32.46875 
C 3.703125 27.65625 5.90625 24.25 10.5 22.140625 
C 13.203125 20.9375 18.5 19.34375 25.296875 17.828125 
C 29.796875 16.828125 31.703125 14.734375 31.703125 10.921875 
C 31.703125 5.515625 26.703125 1.703125 19.59375 1.703125 
C 12.296875 1.703125 7.09375 5.203125 7.09375 10.21875 
L 7.09375 14.328125 
z
" id="URW_Palladio_L_Roman-115"/>
       <path d="M 25.203125 -25 
L 25.203125 -18.9375 
L 16.59375 -18.9375 
L 16.59375 68 
L 25.203125 68 
L 25.203125 74.078125 
L 9.296875 74.078125 
L 9.296875 -25 
z
" id="CMSS17-91"/>
       <path d="M 56.40625 29 
L 36.5 29 
L 36.5 22.828125 
L 48.796875 22.828125 
L 48.796875 7.359375 
C 44.90625 6.265625 40.90625 5.46875 36.90625 5.46875 
C 22.90625 5.46875 14.59375 20.328125 14.59375 34.375 
C 14.59375 48.359375 23.296875 63 36.90625 63 
C 44.59375 63 48.90625 60.640625 54.203125 56.671875 
L 55.5 64.59375 
C 48.90625 67.984375 44.796875 69.375 37.296875 69.375 
C 17.90625 69.375 6.203125 51.9375 6.203125 34.09375 
C 6.203125 17.03125 18 -1 36.703125 -1 
C 43.703125 -1 50.203125 0.796875 56.40625 3.875 
z
" id="CMSS17-71"/>
       <path d="M 17.90625 74.078125 
L 2 74.078125 
L 2 68 
L 10.59375 68 
L 10.59375 -18.9375 
L 2 -18.9375 
L 2 -25 
L 17.90625 -25 
z
" id="CMSS17-93"/>
      </defs>
      <use transform="scale(0.996264)" xlink:href="#URW_Palladio_L_Italic-66"/>
      <use transform="translate(59.626331 -14.943915)scale(0.757155)" xlink:href="#URW_Palladio_L_Roman-114"/>
      <use transform="translate(88.171204 -14.943915)scale(0.757155)" xlink:href="#URW_Palladio_L_Roman-101"/>
      <use transform="translate(124.438355 -14.943915)scale(0.757155)" xlink:href="#URW_Palladio_L_Roman-115"/>
      <use transform="translate(188.268876 0)scale(0.996264)" xlink:href="#CMSS17-91"/>
      <use transform="translate(215.454314 0)scale(0.996264)" xlink:href="#CMSS17-71"/>
      <use transform="translate(277.91254 0)scale(0.996264)" xlink:href="#CMSS17-93"/>
     </g>
    </g>
   </g>
   <g id="LineCollection_1">
    <path clip-path="url(#pce068063e1)" d="M 129.466959 200.217738 
L 129.466959 162.39699 
" style="fill:none;stroke:#18c0c4;stroke-opacity:0.7;stroke-width:1.5;"/>
    <path clip-path="url(#pce068063e1)" d="M 145.817315 141.958591 
L 145.817315 133.088439 
" style="fill:none;stroke:#18c0c4;stroke-opacity:0.7;stroke-width:1.5;"/>
    <path clip-path="url(#pce068063e1)" d="M 153.178514 116.887541 
L 153.178514 103.513031 
" style="fill:none;stroke:#18c0c4;stroke-opacity:0.7;stroke-width:1.5;"/>
    <path clip-path="url(#pce068063e1)" d="M 158.876365 107.773815 
L 158.876365 92.836548 
" style="fill:none;stroke:#18c0c4;stroke-opacity:0.7;stroke-width:1.5;"/>
    <path clip-path="url(#pce068063e1)" d="M 163.017039 115.353396 
L 163.017039 91.854681 
" style="fill:none;stroke:#18c0c4;stroke-opacity:0.7;stroke-width:1.5;"/>
    <path clip-path="url(#pce068063e1)" d="M 169.564259 140.451664 
L 169.564259 107.903469 
" style="fill:none;stroke:#18c0c4;stroke-opacity:0.7;stroke-width:1.5;"/>
    <path clip-path="url(#pce068063e1)" d="M 174.412741 178.586586 
L 174.412741 159.263931 
" style="fill:none;stroke:#18c0c4;stroke-opacity:0.7;stroke-width:1.5;"/>
    <path clip-path="url(#pce068063e1)" d="M 181.526208 221.298729 
L 181.526208 192.014635 
" style="fill:none;stroke:#18c0c4;stroke-opacity:0.7;stroke-width:1.5;"/>
    <path clip-path="url(#pce068063e1)" d="M 189.842947 252.624413 
L 189.842947 223.383764 
" style="fill:none;stroke:#18c0c4;stroke-opacity:0.7;stroke-width:1.5;"/>
    <path clip-path="url(#pce068063e1)" d="M 197.59344 289.582756 
L 197.59344 266.785595 
" style="fill:none;stroke:#18c0c4;stroke-opacity:0.7;stroke-width:1.5;"/>
    <path clip-path="url(#pce068063e1)" d="M 213.943795 300.970182 
L 213.943795 278.363682 
" style="fill:none;stroke:#18c0c4;stroke-opacity:0.7;stroke-width:1.5;"/>
    <path clip-path="url(#pce068063e1)" d="M 227.569091 278.004387 
L 227.569091 261.287784 
" style="fill:none;stroke:#18c0c4;stroke-opacity:0.7;stroke-width:1.5;"/>
    <path clip-path="url(#pce068063e1)" d="M 250.855961 267.73924 
L 250.855961 232.907976 
" style="fill:none;stroke:#18c0c4;stroke-opacity:0.7;stroke-width:1.5;"/>
    <path clip-path="url(#pce068063e1)" d="M 273.1519 204.457326 
L 273.1519 195.810867 
" style="fill:none;stroke:#18c0c4;stroke-opacity:0.7;stroke-width:1.5;"/>
    <path clip-path="url(#pce068063e1)" d="M 291.731849 190.914013 
L 291.731849 149.929929 
" style="fill:none;stroke:#18c0c4;stroke-opacity:0.7;stroke-width:1.5;"/>
    <path clip-path="url(#pce068063e1)" d="M 320.928912 143.727987 
L 320.928912 128.955259 
" style="fill:none;stroke:#18c0c4;stroke-opacity:0.7;stroke-width:1.5;"/>
    <path clip-path="url(#pce068063e1)" d="M 374.970022 88.765677 
L 374.970022 81.01298 
" style="fill:none;stroke:#18c0c4;stroke-opacity:0.7;stroke-width:1.5;"/>
   </g>
   <g id="line2d_23">
    <path clip-path="url(#pce068063e1)" d="M 77.797005 296.608768 
L 83.523816 287.841402 
L 88.875875 279.246823 
L 93.976982 270.634069 
L 98.742128 262.156014 
L 103.29052 253.610974 
L 107.591798 245.059974 
L 111.65914 236.490459 
L 115.646995 227.566412 
L 119.431621 218.554355 
L 123.11029 209.224355 
L 126.604174 199.785053 
L 130.090229 189.754481 
L 133.534831 179.204306 
L 137.19195 167.295171 
L 141.074698 153.908494 
L 147.184442 131.881561 
L 151.327943 117.328433 
L 153.487158 110.43272 
L 155.332643 105.23245 
L 156.839934 101.651688 
L 157.988763 99.434688 
L 159.153575 97.729565 
L 159.939104 96.932029 
L 160.731902 96.447266 
L 161.532035 96.31261 
L 162.339572 96.566445 
L 163.154581 97.247482 
L 163.977132 98.39383 
L 164.807293 100.041886 
L 165.645135 102.225014 
L 166.49073 104.972076 
L 167.773816 110.19777 
L 169.074751 116.784198 
L 170.393784 124.722987 
L 172.181082 137.284178 
L 174.001609 151.780267 
L 177.269351 180.13394 
L 180.644148 209.103892 
L 182.622015 224.53818 
L 184.636653 238.503421 
L 186.172174 247.811116 
L 187.729055 256.032081 
L 189.307596 263.140332 
L 190.908095 269.149413 
L 192.53086 274.103045 
L 193.625226 276.850507 
L 194.729717 279.180171 
L 195.844429 281.116439 
L 196.969454 282.684612 
L 198.10489 283.910263 
L 199.250831 284.818729 
L 200.407376 285.434721 
L 201.574622 285.782029 
L 202.752669 285.883318 
L 203.941616 285.759985 
L 205.141564 285.432081 
L 206.352615 284.918278 
L 208.190234 283.836457 
L 210.053418 282.427625 
L 211.94252 280.737999 
L 214.502267 278.117144 
L 217.768977 274.360354 
L 221.789624 269.309248 
L 227.326253 261.911609 
L 238.273591 246.773689 
L 250.003874 230.696488 
L 259.989319 217.412185 
L 269.640268 204.96006 
L 279.792699 192.243315 
L 290.472668 179.237736 
L 301.707589 165.907222 
L 314.63071 150.94421 
L 328.288091 135.484171 
L 343.960621 118.102844 
L 360.600076 99.984628 
L 379.66935 79.554697 
L 401.51216 56.493839 
L 426.535722 30.416053 
L 428.161762 28.731913 
L 428.161762 28.731913 
" style="fill:none;stroke:#2ca02c;stroke-linecap:round;stroke-width:1.5;"/>
   </g>
   <g id="line2d_24">
    <defs>
     <path d="M 0 3 
C 0.795609 3 1.55874 2.683901 2.12132 2.12132 
C 2.683901 1.55874 3 0.795609 3 0 
C 3 -0.795609 2.683901 -1.55874 2.12132 -2.12132 
C 1.55874 -2.683901 0.795609 -3 0 -3 
C -0.795609 -3 -1.55874 -2.683901 -2.12132 -2.12132 
C -2.683901 -1.55874 -3 -0.795609 -3 0 
C -3 0.795609 -2.683901 1.55874 -2.12132 2.12132 
C -1.55874 2.683901 -0.795609 3 0 3 
z
" id="mc47a3aa25c" style="stroke:#18c0c4;stroke-opacity:0.7;"/>
    </defs>
    <g clip-path="url(#pce068063e1)">
     <use style="fill:#18c0c4;fill-opacity:0.7;stroke:#18c0c4;stroke-opacity:0.7;" x="129.466959" xlink:href="#mc47a3aa25c" y="181.307364"/>
     <use style="fill:#18c0c4;fill-opacity:0.7;stroke:#18c0c4;stroke-opacity:0.7;" x="145.817315" xlink:href="#mc47a3aa25c" y="137.523515"/>
     <use style="fill:#18c0c4;fill-opacity:0.7;stroke:#18c0c4;stroke-opacity:0.7;" x="153.178514" xlink:href="#mc47a3aa25c" y="110.200286"/>
     <use style="fill:#18c0c4;fill-opacity:0.7;stroke:#18c0c4;stroke-opacity:0.7;" x="158.876365" xlink:href="#mc47a3aa25c" y="100.305182"/>
     <use style="fill:#18c0c4;fill-opacity:0.7;stroke:#18c0c4;stroke-opacity:0.7;" x="163.017039" xlink:href="#mc47a3aa25c" y="103.604038"/>
     <use style="fill:#18c0c4;fill-opacity:0.7;stroke:#18c0c4;stroke-opacity:0.7;" x="169.564259" xlink:href="#mc47a3aa25c" y="124.177566"/>
     <use style="fill:#18c0c4;fill-opacity:0.7;stroke:#18c0c4;stroke-opacity:0.7;" x="174.412741" xlink:href="#mc47a3aa25c" y="168.925258"/>
     <use style="fill:#18c0c4;fill-opacity:0.7;stroke:#18c0c4;stroke-opacity:0.7;" x="181.526208" xlink:href="#mc47a3aa25c" y="206.656682"/>
     <use style="fill:#18c0c4;fill-opacity:0.7;stroke:#18c0c4;stroke-opacity:0.7;" x="189.842947" xlink:href="#mc47a3aa25c" y="238.004088"/>
     <use style="fill:#18c0c4;fill-opacity:0.7;stroke:#18c0c4;stroke-opacity:0.7;" x="197.59344" xlink:href="#mc47a3aa25c" y="278.184176"/>
     <use style="fill:#18c0c4;fill-opacity:0.7;stroke:#18c0c4;stroke-opacity:0.7;" x="213.943795" xlink:href="#mc47a3aa25c" y="289.666932"/>
     <use style="fill:#18c0c4;fill-opacity:0.7;stroke:#18c0c4;stroke-opacity:0.7;" x="227.569091" xlink:href="#mc47a3aa25c" y="269.646085"/>
     <use style="fill:#18c0c4;fill-opacity:0.7;stroke:#18c0c4;stroke-opacity:0.7;" x="250.855961" xlink:href="#mc47a3aa25c" y="250.323608"/>
     <use style="fill:#18c0c4;fill-opacity:0.7;stroke:#18c0c4;stroke-opacity:0.7;" x="273.1519" xlink:href="#mc47a3aa25c" y="200.134096"/>
     <use style="fill:#18c0c4;fill-opacity:0.7;stroke:#18c0c4;stroke-opacity:0.7;" x="291.731849" xlink:href="#mc47a3aa25c" y="170.421971"/>
     <use style="fill:#18c0c4;fill-opacity:0.7;stroke:#18c0c4;stroke-opacity:0.7;" x="320.928912" xlink:href="#mc47a3aa25c" y="136.341623"/>
     <use style="fill:#18c0c4;fill-opacity:0.7;stroke:#18c0c4;stroke-opacity:0.7;" x="374.970022" xlink:href="#mc47a3aa25c" y="84.889328"/>
    </g>
   </g>
   <g id="patch_3">
    <path d="M 60.278767 314.582095 
L 60.278767 15.12 
" style="fill:none;"/>
   </g>
   <g id="patch_4">
    <path d="M 445.68 314.582095 
L 445.68 15.12 
" style="fill:none;"/>
   </g>
   <g id="patch_5">
    <path d="M 60.278767 314.582095 
L 445.68 314.582095 
" style="fill:none;"/>
   </g>
   <g id="patch_6">
    <path d="M 60.278767 15.12 
L 445.68 15.12 
" style="fill:none;"/>
   </g>
  </g>
 </g>
 <defs>
  <clipPath id="pce068063e1">
   <rect height="299.462095" width="385.401233" x="60.278767" y="15.12"/>
  </clipPath>
 </defs>
</svg>
