<?xml version="1.0" encoding="utf-8" standalone="no"?>
<!DOCTYPE svg PUBLIC "-//W3C//DTD SVG 1.1//EN"
  "http://www.w3.org/Graphics/SVG/1.1/DTD/svg11.dtd">
<!-- Created with matplotlib (https://matplotlib.org/) -->
<svg height="345.6pt" version="1.1" viewBox="0 0 460.8 345.6" width="460.8pt" xmlns="http://www.w3.org/2000/svg" xmlns:xlink="http://www.w3.org/1999/xlink">
 <metadata>
  <rdf:RDF xmlns:cc="http://creativecommons.org/ns#" xmlns:dc="http://purl.org/dc/elements/1.1/" xmlns:rdf="http://www.w3.org/1999/02/22-rdf-syntax-ns#">
   <cc:Work>
    <dc:type rdf:resource="http://purl.org/dc/dcmitype/StillImage"/>
    <dc:date>2021-06-23T16:41:05.739199</dc:date>
    <dc:format>image/svg+xml</dc:format>
    <dc:creator>
     <cc:Agent>
      <dc:title>Matplotlib v3.3.0, https://matplotlib.org/</dc:title>
     </cc:Agent>
    </dc:creator>
   </cc:Work>
  </rdf:RDF>
 </metadata>
 <defs>
  <style type="text/css">*{stroke-linecap:butt;stroke-linejoin:round;}</style>
 </defs>
 <g id="figure_1">
  <g id="patch_1">
   <path d="M 0 345.6 
L 460.8 345.6 
L 460.8 0 
L 0 0 
z
" style="fill:#191919;"/>
  </g>
  <g id="axes_1">
   <g id="patch_2">
    <path d="M 46.331071 293.409706 
L 445.68 293.409706 
L 445.68 15.12 
L 46.331071 15.12 
z
" style="fill:#191919;"/>
   </g>
   <g id="matplotlib.axis_1">
    <g id="xtick_1">
     <g id="line2d_1">
      <path clip-path="url(#ped33f298c8)" d="M 60.816179 293.409706 
L 60.816179 15.12 
" style="fill:none;stroke:#343434;stroke-linecap:round;stroke-width:0.8;"/>
     </g>
     <g id="line2d_2"/>
     <g id="text_1">
      <!-- $\mathdefault{0}$ -->
      <g style="fill:#e6e6e6;" transform="translate(57.329255 306.595582)scale(0.14 -0.14)">
       <defs>
        <path d="M 26.296875 69 
C 10.796875 69 2.90625 56.6875 2.90625 32.453125 
C 2.90625 20.71875 5 10.625 8.5 5.71875 
C 12 0.796875 17.59375 -2 23.796875 -2 
C 38.90625 -2 46.5 11.015625 46.5 36.65625 
C 46.5 58.578125 40 69 26.296875 69 
z
M 24.5 65.5 
C 34.203125 65.5 38.09375 55.6875 38.09375 31.640625 
C 38.09375 10.328125 34.296875 1.5 25.09375 1.5 
C 15.40625 1.5 11.296875 11.625 11.296875 36.0625 
C 11.296875 57.1875 15 65.5 24.5 65.5 
z
" id="URW_Palladio_L_Roman-48"/>
       </defs>
       <use transform="scale(0.996264)" xlink:href="#URW_Palladio_L_Roman-48"/>
      </g>
     </g>
    </g>
    <g id="xtick_2">
     <g id="line2d_3">
      <path clip-path="url(#ped33f298c8)" d="M 134.158499 293.409706 
L 134.158499 15.12 
" style="fill:none;stroke:#343434;stroke-linecap:round;stroke-width:0.8;"/>
     </g>
     <g id="line2d_4"/>
     <g id="text_2">
      <!-- $\mathdefault{200}$ -->
      <g style="fill:#e6e6e6;" transform="translate(123.697727 306.595582)scale(0.14 -0.14)">
       <defs>
        <path d="M 1.59375 2.5 
L 1.59375 0 
C 20.296875 0 20.296875 0 23.90625 0 
C 27.5 0 27.5 0 46.796875 0 
C 46.59375 1.953125 46.59375 2.90625 46.59375 4.203125 
C 46.59375 5.4375 46.59375 6.359375 46.796875 8.421875 
C 35.296875 8.421875 30.703125 8.421875 12.203125 8.421875 
L 30.40625 27.515625 
C 40.09375 37.71875 43.09375 43.171875 43.09375 50.59375 
C 43.09375 61.96875 35.296875 69 22.59375 69 
C 15.40625 69 10.5 67 5.59375 62.015625 
L 3.90625 48.421875 
L 6.796875 48.421875 
L 8.09375 53.015625 
C 9.703125 58.796875 13.296875 61.296875 20 61.296875 
C 28.59375 61.296875 34.09375 55.890625 34.09375 47.421875 
C 34.09375 39.921875 29.90625 32.546875 18.59375 20.5625 
z
" id="URW_Palladio_L_Roman-50"/>
       </defs>
       <use transform="scale(0.996264)" xlink:href="#URW_Palladio_L_Roman-50"/>
       <use transform="translate(49.8132 0)scale(0.996264)" xlink:href="#URW_Palladio_L_Roman-48"/>
       <use transform="translate(99.626401 0)scale(0.996264)" xlink:href="#URW_Palladio_L_Roman-48"/>
      </g>
     </g>
    </g>
    <g id="xtick_3">
     <g id="line2d_5">
      <path clip-path="url(#ped33f298c8)" d="M 207.500818 293.409706 
L 207.500818 15.12 
" style="fill:none;stroke:#343434;stroke-linecap:round;stroke-width:0.8;"/>
     </g>
     <g id="line2d_6"/>
     <g id="text_3">
      <!-- $\mathdefault{400}$ -->
      <g style="fill:#e6e6e6;" transform="translate(197.040046 306.595582)scale(0.14 -0.14)">
       <defs>
        <path d="M 28 18 
L 28 10.515625 
C 28 4.515625 26.90625 3.109375 22 3.109375 
L 15.796875 3.109375 
L 15.796875 0 
C 29.09375 0 29.09375 0 31.5 0 
C 33.90625 0 33.90625 0 47.203125 0 
L 47.203125 3.109375 
L 42.40625 3.109375 
C 37.5 3.109375 36.40625 4.40625 36.40625 10.453125 
L 36.40625 18 
C 42.296875 18 44.40625 18 47.203125 17.703125 
L 47.203125 24.8125 
C 42.5 24.421875 40.59375 24.421875 39.09375 24.421875 
L 38.796875 24.421875 
L 36.40625 24.421875 
L 36.40625 38.390625 
C 36.40625 56.25 36.59375 64.875 37.09375 69 
L 35.90625 69.5 
L 28.5 66.796875 
L 0.203125 20.296875 
L 1.296875 18 
z
M 28 24.421875 
L 6.5 24.421875 
L 28 59.78125 
z
" id="URW_Palladio_L_Roman-52"/>
       </defs>
       <use transform="scale(0.996264)" xlink:href="#URW_Palladio_L_Roman-52"/>
       <use transform="translate(49.8132 0)scale(0.996264)" xlink:href="#URW_Palladio_L_Roman-48"/>
       <use transform="translate(99.626401 0)scale(0.996264)" xlink:href="#URW_Palladio_L_Roman-48"/>
      </g>
     </g>
    </g>
    <g id="xtick_4">
     <g id="line2d_7">
      <path clip-path="url(#ped33f298c8)" d="M 280.843137 293.409706 
L 280.843137 15.12 
" style="fill:none;stroke:#343434;stroke-linecap:round;stroke-width:0.8;"/>
     </g>
     <g id="line2d_8"/>
     <g id="text_4">
      <!-- $\mathdefault{600}$ -->
      <g style="fill:#e6e6e6;" transform="translate(270.382365 306.595582)scale(0.14 -0.14)">
       <defs>
        <path d="M 41.59375 67.34375 
L 37.90625 69.046875 
C 28.296875 65.84375 24.203125 63.84375 19.09375 59.4375 
C 8.796875 50.71875 3.203125 38.5 3.203125 24.765625 
C 3.203125 8.21875 11.203125 -2 24.09375 -2 
C 37.09375 -2 46.796875 8.3125 46.796875 21.953125 
C 46.796875 33.484375 39.90625 41 29.296875 41 
C 24.296875 41 21.296875 39.6875 15.40625 34.984375 
C 14.296875 34.078125 14.203125 33.984375 13.09375 33.1875 
C 15.203125 51.3125 23.59375 61.140625 41.59375 66.546875 
z
M 25.5 34.984375 
C 33.09375 34.984375 38.203125 28.375 38.203125 18.453125 
C 38.203125 8.015625 33.09375 1.296875 25.40625 1.296875 
C 16.90625 1.296875 12.296875 8.609375 12.296875 22.0625 
C 12.296875 25.5625 12.703125 27.46875 13.796875 29.171875 
C 16 32.578125 20.703125 34.984375 25.5 34.984375 
z
" id="URW_Palladio_L_Roman-54"/>
       </defs>
       <use transform="scale(0.996264)" xlink:href="#URW_Palladio_L_Roman-54"/>
       <use transform="translate(49.8132 0)scale(0.996264)" xlink:href="#URW_Palladio_L_Roman-48"/>
       <use transform="translate(99.626401 0)scale(0.996264)" xlink:href="#URW_Palladio_L_Roman-48"/>
      </g>
     </g>
    </g>
    <g id="xtick_5">
     <g id="line2d_9">
      <path clip-path="url(#ped33f298c8)" d="M 354.185457 293.409706 
L 354.185457 15.12 
" style="fill:none;stroke:#343434;stroke-linecap:round;stroke-width:0.8;"/>
     </g>
     <g id="line2d_10"/>
     <g id="text_5">
      <!-- $\mathdefault{800}$ -->
      <g style="fill:#e6e6e6;" transform="translate(343.724685 306.595582)scale(0.14 -0.14)">
       <defs>
        <path d="M 16.796875 34.546875 
C 12.703125 32.65625 11 31.546875 8.796875 29.4375 
C 5 25.640625 3 21.125 3 15.921875 
C 3 5.609375 11.296875 -2 22.59375 -2 
C 35.59375 -2 46.40625 8.21875 46.40625 20.625 
C 46.40625 28.640625 42.703125 32.953125 31.296875 38.15625 
C 40.40625 44.375 43.59375 48.578125 43.59375 54.578125 
C 43.59375 63.1875 36.5 69 25.90625 69 
C 14 69 5.296875 61.390625 5.296875 50.890625 
C 5.296875 44.078125 8 40.265625 16.796875 34.546875 
z
M 28.40625 29.546875 
C 34.703125 26.734375 38.5 21.828125 38.5 16.4375 
C 38.5 8.015625 32.203125 1.40625 24.09375 1.40625 
C 15.59375 1.40625 10.09375 7.421875 10.09375 16.734375 
C 10.09375 24.03125 13 28.640625 20.40625 33.15625 
z
M 22.296875 42.375 
C 16 45.46875 12.796875 49.484375 12.796875 54.484375 
C 12.796875 61.09375 17.59375 65.59375 24.703125 65.59375 
C 32 65.59375 36.796875 60.796875 36.796875 53.46875 
C 36.796875 47.78125 34.296875 43.875 27.796875 39.65625 
z
" id="URW_Palladio_L_Roman-56"/>
       </defs>
       <use transform="scale(0.996264)" xlink:href="#URW_Palladio_L_Roman-56"/>
       <use transform="translate(49.8132 0)scale(0.996264)" xlink:href="#URW_Palladio_L_Roman-48"/>
       <use transform="translate(99.626401 0)scale(0.996264)" xlink:href="#URW_Palladio_L_Roman-48"/>
      </g>
     </g>
    </g>
    <g id="xtick_6">
     <g id="line2d_11">
      <path clip-path="url(#ped33f298c8)" d="M 427.527776 293.409706 
L 427.527776 15.12 
" style="fill:none;stroke:#343434;stroke-linecap:round;stroke-width:0.8;"/>
     </g>
     <g id="line2d_12"/>
     <g id="text_6">
      <!-- $\mathdefault{1000}$ -->
      <g style="fill:#e6e6e6;" transform="translate(413.58008 306.595582)scale(0.14 -0.14)">
       <defs>
        <path d="M 6.703125 56 
L 7.703125 56 
L 20.59375 61.8125 
C 20.703125 61.90625 20.796875 61.90625 20.90625 61.90625 
C 21.5 61.90625 21.703125 61.015625 21.703125 58.609375 
L 21.703125 9.578125 
C 21.703125 4.3125 20.59375 3.203125 15.203125 3.203125 
L 9.59375 3.203125 
L 9.59375 0 
C 25 0 25 0 26.09375 0 
C 27.40625 0 29.59375 0 33 0 
C 34.203125 0 37.703125 0 41.796875 0 
L 41.796875 3.203125 
L 36.59375 3.203125 
C 31.09375 3.203125 30.09375 4.3125 30.09375 9.5625 
L 30.09375 69.421875 
L 28.703125 69.921875 
C 22.203125 66.515625 15.09375 63.515625 6 60.3125 
z
" id="URW_Palladio_L_Roman-49"/>
       </defs>
       <use transform="scale(0.996264)" xlink:href="#URW_Palladio_L_Roman-49"/>
       <use transform="translate(49.8132 0)scale(0.996264)" xlink:href="#URW_Palladio_L_Roman-48"/>
       <use transform="translate(99.626401 0)scale(0.996264)" xlink:href="#URW_Palladio_L_Roman-48"/>
       <use transform="translate(149.439601 0)scale(0.996264)" xlink:href="#URW_Palladio_L_Roman-48"/>
      </g>
     </g>
    </g>
    <g id="text_7">
     <!-- Energy [{$\mu$}K] -->
     <g style="fill:#e6e6e6;" transform="translate(204.450498 325.860528)scale(0.168 -0.168)">
      <defs>
       <path d="M 30.59375 6.765625 
C 22.59375 6.765625 19 6.765625 17.203125 6.765625 
L 17.203125 32.921875 
L 48.203125 32.921875 
L 48.203125 39 
L 17.203125 39 
L 17.203125 62.640625 
L 30.09375 62.640625 
C 31.296875 62.640625 32.5 62.640625 33.703125 62.640625 
L 50.796875 62.640625 
L 50.796875 69 
L 8.796875 69 
L 8.796875 0 
L 52.09375 0 
L 52.09375 6.765625 
z
" id="CMSS17-69"/>
       <path d="M 40.90625 29.328125 
C 40.90625 35.671875 39.40625 44 28.09375 44 
C 21.703125 44 17.5 40.71875 14.703125 37.328125 
L 14.703125 43.09375 
L 7.40625 43.09375 
L 7.40625 0 
L 15 0 
L 15 24.359375 
C 15 30.6875 17.40625 37.9375 24.203125 37.9375 
C 33 37.9375 33.296875 32 33.296875 28.578125 
L 33.296875 0 
L 40.90625 0 
z
" id="CMSS17-110"/>
       <path d="M 39.09375 21.515625 
C 39.09375 24.84375 38.90625 31.296875 35.703125 36.640625 
C 32.203125 42.390625 26.5 44 22.203125 44 
C 11.796875 44 3 34.1875 3 21.484375 
C 3 9.09375 12.09375 -1 23.59375 -1 
C 28.09375 -1 33.59375 0.296875 38.59375 3.875 
C 38.59375 4.28125 38.40625 6.46875 38.296875 6.5625 
C 38.296875 6.765625 38 9.84375 38 10.25 
C 33.203125 6.359375 27.703125 5.078125 23.703125 5.078125 
C 17.296875 5.078125 10.40625 10.421875 10.09375 21.515625 
z
M 10.90625 27 
C 12.203125 32.5625 16.59375 37.828125 22.203125 37.828125 
C 23.703125 37.828125 30.703125 37.828125 32.5 27 
z
" id="CMSS17-101"/>
       <path d="M 14.90625 21.296875 
C 14.90625 30.703125 21.796875 37 30.59375 37 
L 30.59375 43.578125 
C 24.203125 43.578125 18.203125 40.390625 14.59375 35.203125 
L 14.59375 43.09375 
L 7.5 43.09375 
L 7.5 0 
L 14.90625 0 
z
" id="CMSS17-114"/>
       <path d="M 44.5 43.875 
C 38.796875 43.875 33.90625 42.78125 29.90625 40.890625 
C 26.59375 43.390625 23.203125 43.875 20.90625 43.875 
C 12.203125 43.875 5.59375 36.703125 5.59375 28.34375 
C 5.59375 22.9375 8.59375 18.859375 8.796875 18.671875 
C 7 16.171875 6 13.484375 6 10.5 
C 6 7 7.40625 4.515625 8.5 3.125 
C 3.296875 -0.046875 2.59375 -4.90625 2.59375 -6.796875 
C 2.59375 -14.03125 11.703125 -20 23.40625 -20 
C 35.203125 -20 44.296875 -14.03125 44.296875 -6.6875 
C 44.296875 7 29 7 24.796875 7 
L 16.703125 7 
C 15.203125 7 11.203125 7 11.203125 12.359375 
C 11.203125 14.390625 12.09375 15.6875 12.203125 15.78125 
C 13.703125 14.6875 16.796875 13 20.90625 13 
C 29.203125 13 36.09375 19.96875 36.09375 28.546875 
C 36.09375 33.3125 33.90625 36.796875 33 38 
L 33.296875 38 
C 33.59375 38 37.796875 38 39.296875 38 
C 42.5 38 42.796875 37.953125 45.59375 37.796875 
z
M 20.90625 18.46875 
C 17.5 18.46875 12.703125 20.546875 12.703125 28.484375 
C 12.703125 37.109375 18.203125 38.5 20.796875 38.5 
C 24.203125 38.5 29 36.421875 29 28.484375 
C 29 19.859375 23.5 18.46875 20.90625 18.46875 
z
M 24.703125 -0.15625 
C 27.09375 -0.15625 37.203125 -0.15625 37.203125 -6.90625 
C 37.203125 -11.15625 31 -14.515625 23.5 -14.515625 
C 15.90625 -14.515625 9.703125 -11.25 9.703125 -6.796875 
C 9.703125 -6.296875 9.703125 -0.15625 16.59375 -0.15625 
z
" id="CMSS17-103"/>
       <path d="M 41.796875 43 
L 34 43 
C 25.5 20.21875 22.59375 10.96875 22.40625 5.984375 
L 22.296875 5.984375 
C 22 10.875 17.59375 22.8125 14.09375 31.359375 
L 9.40625 43 
L 1.296875 43 
L 19 0.203125 
C 17.90625 -2.78125 16.296875 -7.265625 15.796875 -8.265625 
C 13.59375 -13.828125 12.09375 -13.828125 10.5 -13.828125 
C 10.09375 -13.828125 6.90625 -13.828125 3.296875 -12.640625 
L 3.90625 -19.203125 
C 6.40625 -19.703125 8.90625 -20 10.703125 -20 
C 13.203125 -20 18.203125 -20 22.796875 -7.765625 
z
" id="CMSS17-121"/>
       <path d="M 25.203125 -25 
L 25.203125 -18.9375 
L 16.59375 -18.9375 
L 16.59375 68 
L 25.203125 68 
L 25.203125 74.078125 
L 9.296875 74.078125 
L 9.296875 -25 
z
" id="CMSS17-91"/>
       <path d="M 5.90625 39.09375 
L 6.59375 37.078125 
L 9.796875 39.1875 
C 12.703125 41 13.703125 41.5 14.59375 41.5 
C 15.59375 41.5 16.296875 40.59375 16.296875 39.484375 
C 16.296875 38.984375 16.203125 38.28125 3.203125 -26.796875 
L 4.59375 -27.609375 
L 7.59375 -26.40625 
C 9.90625 -25.5 10.796875 -24.5 10.90625 -23.1875 
L 12.09375 -0.796875 
C 13.296875 -0.9375 14 -1 14.296875 -1 
C 17.296875 -1 23.796875 4.125 30.40625 11.5625 
C 34.5 16.171875 36.59375 18.984375 39.703125 24.109375 
L 36.203125 10.75 
C 35.203125 6.890625 34.90625 4.671875 34.90625 3.046875 
C 34.90625 0.53125 36 -1 37.90625 -1 
C 40.5 -1 44.203125 1.265625 53.90625 8.609375 
L 52.90625 10.421875 
L 50.296875 8.71875 
C 47.796875 7.109375 45.40625 6 44.203125 6 
C 43.40625 6 42.90625 6.703125 42.90625 7.703125 
C 42.90625 8.515625 43.09375 10.125 43.5 11.71875 
C 45.796875 22.671875 48.90625 36.046875 51.90625 47.59375 
L 51.203125 48.5 
L 44.40625 46.78125 
L 43.40625 41.671875 
C 41.90625 34.03125 39.5 27.296875 36.59375 22.671875 
C 30.703125 13.4375 22.703125 6 18.59375 6 
C 17.703125 6 17.296875 6.90625 17.296875 8.609375 
C 17.296875 10.125 17.40625 11.21875 18 13.828125 
L 23.703125 41.0625 
C 24 42.671875 24.203125 44.078125 24.203125 45.28125 
C 24.203125 47.390625 23.40625 48.5 22 48.5 
C 19.90625 48.5 16.203125 46.484375 8.703125 41.078125 
z
" id="Pazo_Math_Italic-109"/>
       <path d="M 34.90625 41.65625 
L 59.796875 69 
L 50.203125 69 
L 17.203125 32.90625 
L 17.203125 69 
L 8.796875 69 
L 8.796875 0 
L 17.203125 0 
L 17.203125 22.375 
L 29.296875 35.59375 
L 51.796875 0 
L 61.09375 0 
z
" id="CMSS17-75"/>
       <path d="M 17.90625 74.078125 
L 2 74.078125 
L 2 68 
L 10.59375 68 
L 10.59375 -18.9375 
L 2 -18.9375 
L 2 -25 
L 17.90625 -25 
z
" id="CMSS17-93"/>
      </defs>
      <use transform="scale(0.996264)" xlink:href="#CMSS17-69"/>
      <use transform="translate(55.892013 0)scale(0.996264)" xlink:href="#CMSS17-110"/>
      <use transform="translate(104.096956 0)scale(0.996264)" xlink:href="#CMSS17-101"/>
      <use transform="translate(145.735778 0)scale(0.996264)" xlink:href="#CMSS17-114"/>
      <use transform="translate(177.645551 0)scale(0.996264)" xlink:href="#CMSS17-103"/>
      <use transform="translate(224.489175 0)scale(0.996264)" xlink:href="#CMSS17-121"/>
      <use transform="translate(298.718429 0)scale(0.996264)" xlink:href="#CMSS17-91"/>
      <use transform="translate(327.149167 0)scale(0.996264)" xlink:href="#Pazo_Math_Italic-109"/>
      <use transform="translate(386.47575 0)scale(0.996264)" xlink:href="#CMSS17-75"/>
      <use transform="translate(451.296043 0)scale(0.996264)" xlink:href="#CMSS17-93"/>
     </g>
    </g>
   </g>
   <g id="matplotlib.axis_2">
    <g id="ytick_1">
     <g id="line2d_13">
      <path clip-path="url(#ped33f298c8)" d="M 46.331071 280.763999 
L 445.68 280.763999 
" style="fill:none;stroke:#343434;stroke-linecap:round;stroke-width:0.8;"/>
     </g>
     <g id="line2d_14"/>
     <g id="text_8">
      <!-- $\mathdefault{0}$ -->
      <g style="fill:#e6e6e6;" transform="translate(35.857223 285.606937)scale(0.14 -0.14)">
       <use transform="scale(0.996264)" xlink:href="#URW_Palladio_L_Roman-48"/>
      </g>
     </g>
    </g>
    <g id="ytick_2">
     <g id="line2d_15">
      <path clip-path="url(#ped33f298c8)" d="M 46.331071 219.806683 
L 445.68 219.806683 
" style="fill:none;stroke:#343434;stroke-linecap:round;stroke-width:0.8;"/>
     </g>
     <g id="line2d_16"/>
     <g id="text_9">
      <!-- $\mathdefault{2}$ -->
      <g style="fill:#e6e6e6;" transform="translate(35.857223 224.649621)scale(0.14 -0.14)">
       <use transform="scale(0.996264)" xlink:href="#URW_Palladio_L_Roman-50"/>
      </g>
     </g>
    </g>
    <g id="ytick_3">
     <g id="line2d_17">
      <path clip-path="url(#ped33f298c8)" d="M 46.331071 158.849367 
L 445.68 158.849367 
" style="fill:none;stroke:#343434;stroke-linecap:round;stroke-width:0.8;"/>
     </g>
     <g id="line2d_18"/>
     <g id="text_10">
      <!-- $\mathdefault{4}$ -->
      <g style="fill:#e6e6e6;" transform="translate(35.857223 163.692305)scale(0.14 -0.14)">
       <use transform="scale(0.996264)" xlink:href="#URW_Palladio_L_Roman-52"/>
      </g>
     </g>
    </g>
    <g id="ytick_4">
     <g id="line2d_19">
      <path clip-path="url(#ped33f298c8)" d="M 46.331071 97.892051 
L 445.68 97.892051 
" style="fill:none;stroke:#343434;stroke-linecap:round;stroke-width:0.8;"/>
     </g>
     <g id="line2d_20"/>
     <g id="text_11">
      <!-- $\mathdefault{6}$ -->
      <g style="fill:#e6e6e6;" transform="translate(35.857223 102.734989)scale(0.14 -0.14)">
       <use transform="scale(0.996264)" xlink:href="#URW_Palladio_L_Roman-54"/>
      </g>
     </g>
    </g>
    <g id="ytick_5">
     <g id="line2d_21">
      <path clip-path="url(#ped33f298c8)" d="M 46.331071 36.934735 
L 445.68 36.934735 
" style="fill:none;stroke:#343434;stroke-linecap:round;stroke-width:0.8;"/>
     </g>
     <g id="line2d_22"/>
     <g id="text_12">
      <!-- $\mathdefault{8}$ -->
      <g style="fill:#e6e6e6;" transform="translate(35.857223 41.777673)scale(0.14 -0.14)">
       <use transform="scale(0.996264)" xlink:href="#URW_Palladio_L_Roman-56"/>
      </g>
     </g>
    </g>
    <g id="text_13">
     <!-- $\Gamma$ [G] -->
     <g style="fill:#e6e6e6;" transform="translate(27.672917 171.952978)rotate(-90)scale(0.168 -0.168)">
      <defs>
       <path d="M 21.59375 64.296875 
C 24.796875 65 26.296875 65 33 65 
C 36.90625 65 42.59375 64.421875 45.59375 63.625 
C 48.09375 63.046875 48.5 62.65625 48.5 60.3125 
L 48.5 53.8125 
L 52 53.8125 
C 52 59.84375 52.5 64.671875 53.59375 69.09375 
C 48.703125 69.09375 45.703125 69.09375 41.40625 69.09375 
C 39 69.09375 35.40625 69.09375 30.703125 69.09375 
C 25.90625 69.09375 22.203125 69.09375 19.90625 69.09375 
C 16.703125 69.09375 12.703125 69.09375 4.59375 69.09375 
L 2.203125 69.09375 
L 2.203125 66 
L 7 66 
C 11.59375 66 12.09375 65.203125 12.09375 57.25 
L 12.09375 11.96875 
C 12.09375 4 11.59375 3.203125 7 3.203125 
L 2.203125 3.203125 
L 2.203125 0 
C 8.09375 0 11.59375 0 16.796875 0 
C 22 0 25.59375 0 31.5 0 
L 31.5 3.203125 
L 26.703125 3.203125 
C 22.09375 3.203125 21.59375 4 21.59375 11.9375 
z
" id="Pazo_Math-71"/>
       <path d="M 56.40625 29 
L 36.5 29 
L 36.5 22.828125 
L 48.796875 22.828125 
L 48.796875 7.359375 
C 44.90625 6.265625 40.90625 5.46875 36.90625 5.46875 
C 22.90625 5.46875 14.59375 20.328125 14.59375 34.375 
C 14.59375 48.359375 23.296875 63 36.90625 63 
C 44.59375 63 48.90625 60.640625 54.203125 56.671875 
L 55.5 64.59375 
C 48.90625 67.984375 44.796875 69.375 37.296875 69.375 
C 17.90625 69.375 6.203125 51.9375 6.203125 34.09375 
C 6.203125 17.03125 18 -1 36.703125 -1 
C 43.703125 -1 50.203125 0.796875 56.40625 3.875 
z
" id="CMSS17-71"/>
      </defs>
      <use transform="scale(0.996264)" xlink:href="#Pazo_Math-71"/>
      <use transform="translate(87.866773 0)scale(0.996264)" xlink:href="#CMSS17-91"/>
      <use transform="translate(115.052212 0)scale(0.996264)" xlink:href="#CMSS17-71"/>
      <use transform="translate(177.510438 0)scale(0.996264)" xlink:href="#CMSS17-93"/>
     </g>
    </g>
   </g>
   <g id="LineCollection_1">
    <path clip-path="url(#ped33f298c8)" d="M 118.023188 280.539491 
L 118.023188 248.583859 
" style="fill:none;stroke:#18c0c4;stroke-opacity:0.7;stroke-width:1.5;"/>
    <path clip-path="url(#ped33f298c8)" d="M 134.965264 231.482152 
L 134.965264 222.202451 
" style="fill:none;stroke:#18c0c4;stroke-opacity:0.7;stroke-width:1.5;"/>
    <path clip-path="url(#ped33f298c8)" d="M 142.592865 211.051854 
L 142.592865 195.326596 
" style="fill:none;stroke:#18c0c4;stroke-opacity:0.7;stroke-width:1.5;"/>
    <path clip-path="url(#ped33f298c8)" d="M 148.496922 177.271716 
L 148.496922 160.226636 
" style="fill:none;stroke:#18c0c4;stroke-opacity:0.7;stroke-width:1.5;"/>
    <path clip-path="url(#ped33f298c8)" d="M 152.787448 166.695558 
L 152.787448 144.781525 
" style="fill:none;stroke:#18c0c4;stroke-opacity:0.7;stroke-width:1.5;"/>
    <path clip-path="url(#ped33f298c8)" d="M 159.571612 97.446381 
L 159.571612 73.290721 
" style="fill:none;stroke:#18c0c4;stroke-opacity:0.7;stroke-width:1.5;"/>
    <path clip-path="url(#ped33f298c8)" d="M 164.595561 63.153889 
L 164.595561 33.168564 
" style="fill:none;stroke:#18c0c4;stroke-opacity:0.7;stroke-width:1.5;"/>
    <path clip-path="url(#ped33f298c8)" d="M 171.966464 59.608311 
L 171.966464 27.769532 
" style="fill:none;stroke:#18c0c4;stroke-opacity:0.7;stroke-width:1.5;"/>
    <path clip-path="url(#ped33f298c8)" d="M 180.584187 81.927864 
L 180.584187 55.225898 
" style="fill:none;stroke:#18c0c4;stroke-opacity:0.7;stroke-width:1.5;"/>
    <path clip-path="url(#ped33f298c8)" d="M 188.615171 114.545229 
L 188.615171 90.594162 
" style="fill:none;stroke:#18c0c4;stroke-opacity:0.7;stroke-width:1.5;"/>
    <path clip-path="url(#ped33f298c8)" d="M 205.557247 167.835721 
L 205.557247 145.906391 
" style="fill:none;stroke:#18c0c4;stroke-opacity:0.7;stroke-width:1.5;"/>
    <path clip-path="url(#ped33f298c8)" d="M 219.675643 177.25288 
L 219.675643 161.677259 
" style="fill:none;stroke:#18c0c4;stroke-opacity:0.7;stroke-width:1.5;"/>
    <path clip-path="url(#ped33f298c8)" d="M 243.805266 210.065613 
L 243.805266 184.229057 
" style="fill:none;stroke:#18c0c4;stroke-opacity:0.7;stroke-width:1.5;"/>
    <path clip-path="url(#ped33f298c8)" d="M 266.908097 229.068123 
L 266.908097 219.326034 
" style="fill:none;stroke:#18c0c4;stroke-opacity:0.7;stroke-width:1.5;"/>
    <path clip-path="url(#ped33f298c8)" d="M 286.160455 230.6188 
L 286.160455 173.316018 
" style="fill:none;stroke:#18c0c4;stroke-opacity:0.7;stroke-width:1.5;"/>
    <path clip-path="url(#ped33f298c8)" d="M 316.414162 252.351146 
L 316.414162 242.145088 
" style="fill:none;stroke:#18c0c4;stroke-opacity:0.7;stroke-width:1.5;"/>
    <path clip-path="url(#ped33f298c8)" d="M 372.411023 238.295588 
L 372.411023 232.199123 
" style="fill:none;stroke:#18c0c4;stroke-opacity:0.7;stroke-width:1.5;"/>
   </g>
   <g id="line2d_23">
    <path clip-path="url(#ped33f298c8)" d="M 64.483295 280.760174 
L 75.415231 280.620293 
L 82.710156 280.312611 
L 88.506287 279.853348 
L 93.349219 279.253038 
L 97.487339 278.524355 
L 101.210903 277.643941 
L 104.500405 276.639145 
L 107.409605 275.52855 
L 110.056928 274.296262 
L 112.615569 272.862939 
L 115.056799 271.229643 
L 117.352123 269.412522 
L 119.473827 267.446986 
L 121.395534 265.390646 
L 123.380199 262.948231 
L 125.429884 260.033051 
L 127.240121 257.076292 
L 129.101074 253.608204 
L 131.014164 249.526152 
L 132.980852 244.705964 
L 134.661783 240.018533 
L 136.381868 234.614605 
L 138.142019 228.379644 
L 139.943169 221.186492 
L 141.786273 212.898905 
L 143.672309 203.379203 
L 145.602276 192.502294 
L 147.577198 180.178843 
L 150.007921 163.462942 
L 152.929968 141.596583 
L 158.612979 98.344771 
L 160.431157 86.147356 
L 161.81694 77.952545 
L 163.222 70.843452 
L 164.646607 65.03326 
L 165.607338 61.966427 
L 166.576959 59.587647 
L 167.555552 57.918689 
L 168.048238 57.35337 
L 168.543199 56.967315 
L 169.040444 56.75931 
L 169.539985 56.727304 
L 170.041831 56.868446 
L 170.545994 57.179132 
L 171.052483 57.655053 
L 172.072487 59.082195 
L 173.101929 61.103646 
L 174.140897 63.666032 
L 175.7174 68.395554 
L 177.315836 74.004152 
L 179.481726 82.495445 
L 183.369376 98.915887 
L 187.968603 118.112727 
L 190.930364 129.588874 
L 193.961113 140.376521 
L 196.436462 148.434912 
L 198.957831 155.961369 
L 201.526076 162.957122 
L 204.142068 169.437659 
L 206.806695 175.427424 
L 209.520862 180.955969 
L 212.285488 186.055254 
L 215.101513 190.757803 
L 217.969891 195.095499 
L 220.891597 199.098834 
L 223.867621 202.796473 
L 226.898974 206.21504 
L 229.986684 209.379054 
L 233.131798 212.310948 
L 236.335385 215.031161 
L 239.59853 217.558254 
L 243.762906 220.471015 
L 248.024283 223.137567 
L 252.38492 225.583813 
L 256.847129 227.832585 
L 261.413276 229.904015 
L 267.033265 232.180509 
L 272.810704 234.253926 
L 278.750006 236.147429 
L 284.855705 237.881076 
L 292.195555 239.724717 
L 299.775868 241.398187 
L 308.743647 243.128289 
L 318.047972 244.688324 
L 328.93336 246.266948 
L 340.27939 247.683581 
L 353.450085 249.093773 
L 368.655891 250.473969 
L 384.65182 251.700991 
L 403.051354 252.890678 
L 424.165744 254.030425 
L 427.527776 254.193554 
L 427.527776 254.193554 
" style="fill:none;stroke:#2ca02c;stroke-linecap:round;stroke-width:1.5;"/>
   </g>
   <g id="line2d_24">
    <defs>
     <path d="M 0 3 
C 0.795609 3 1.55874 2.683901 2.12132 2.12132 
C 2.683901 1.55874 3 0.795609 3 0 
C 3 -0.795609 2.683901 -1.55874 2.12132 -2.12132 
C 1.55874 -2.683901 0.795609 -3 0 -3 
C -0.795609 -3 -1.55874 -2.683901 -2.12132 -2.12132 
C -2.683901 -1.55874 -3 -0.795609 -3 0 
C -3 0.795609 -2.683901 1.55874 -2.12132 2.12132 
C -1.55874 2.683901 -0.795609 3 0 3 
z
" id="m77ba5735df" style="stroke:#18c0c4;stroke-opacity:0.7;"/>
    </defs>
    <g clip-path="url(#ped33f298c8)">
     <use style="fill:#18c0c4;fill-opacity:0.7;stroke:#18c0c4;stroke-opacity:0.7;" x="118.023188" xlink:href="#m77ba5735df" y="264.561675"/>
     <use style="fill:#18c0c4;fill-opacity:0.7;stroke:#18c0c4;stroke-opacity:0.7;" x="134.965264" xlink:href="#m77ba5735df" y="226.842302"/>
     <use style="fill:#18c0c4;fill-opacity:0.7;stroke:#18c0c4;stroke-opacity:0.7;" x="142.592865" xlink:href="#m77ba5735df" y="203.189225"/>
     <use style="fill:#18c0c4;fill-opacity:0.7;stroke:#18c0c4;stroke-opacity:0.7;" x="148.496922" xlink:href="#m77ba5735df" y="168.749176"/>
     <use style="fill:#18c0c4;fill-opacity:0.7;stroke:#18c0c4;stroke-opacity:0.7;" x="152.787448" xlink:href="#m77ba5735df" y="155.738541"/>
     <use style="fill:#18c0c4;fill-opacity:0.7;stroke:#18c0c4;stroke-opacity:0.7;" x="159.571612" xlink:href="#m77ba5735df" y="85.368551"/>
     <use style="fill:#18c0c4;fill-opacity:0.7;stroke:#18c0c4;stroke-opacity:0.7;" x="164.595561" xlink:href="#m77ba5735df" y="48.161227"/>
     <use style="fill:#18c0c4;fill-opacity:0.7;stroke:#18c0c4;stroke-opacity:0.7;" x="171.966464" xlink:href="#m77ba5735df" y="43.688922"/>
     <use style="fill:#18c0c4;fill-opacity:0.7;stroke:#18c0c4;stroke-opacity:0.7;" x="180.584187" xlink:href="#m77ba5735df" y="68.576881"/>
     <use style="fill:#18c0c4;fill-opacity:0.7;stroke:#18c0c4;stroke-opacity:0.7;" x="188.615171" xlink:href="#m77ba5735df" y="102.569695"/>
     <use style="fill:#18c0c4;fill-opacity:0.7;stroke:#18c0c4;stroke-opacity:0.7;" x="205.557247" xlink:href="#m77ba5735df" y="156.871056"/>
     <use style="fill:#18c0c4;fill-opacity:0.7;stroke:#18c0c4;stroke-opacity:0.7;" x="219.675643" xlink:href="#m77ba5735df" y="169.46507"/>
     <use style="fill:#18c0c4;fill-opacity:0.7;stroke:#18c0c4;stroke-opacity:0.7;" x="243.805266" xlink:href="#m77ba5735df" y="197.147335"/>
     <use style="fill:#18c0c4;fill-opacity:0.7;stroke:#18c0c4;stroke-opacity:0.7;" x="266.908097" xlink:href="#m77ba5735df" y="224.197078"/>
     <use style="fill:#18c0c4;fill-opacity:0.7;stroke:#18c0c4;stroke-opacity:0.7;" x="286.160455" xlink:href="#m77ba5735df" y="201.967409"/>
     <use style="fill:#18c0c4;fill-opacity:0.7;stroke:#18c0c4;stroke-opacity:0.7;" x="316.414162" xlink:href="#m77ba5735df" y="247.248117"/>
     <use style="fill:#18c0c4;fill-opacity:0.7;stroke:#18c0c4;stroke-opacity:0.7;" x="372.411023" xlink:href="#m77ba5735df" y="235.247355"/>
    </g>
   </g>
   <g id="patch_3">
    <path d="M 46.331071 293.409706 
L 46.331071 15.12 
" style="fill:none;"/>
   </g>
   <g id="patch_4">
    <path d="M 445.68 293.409706 
L 445.68 15.12 
" style="fill:none;"/>
   </g>
   <g id="patch_5">
    <path d="M 46.331071 293.409706 
L 445.68 293.409706 
" style="fill:none;"/>
   </g>
   <g id="patch_6">
    <path d="M 46.331071 15.12 
L 445.68 15.12 
" style="fill:none;"/>
   </g>
  </g>
 </g>
 <defs>
  <clipPath id="ped33f298c8">
   <rect height="278.289706" width="399.348929" x="46.331071" y="15.12"/>
  </clipPath>
 </defs>
</svg>
