<?xml version="1.0" encoding="utf-8" standalone="no"?>
<!DOCTYPE svg PUBLIC "-//W3C//DTD SVG 1.1//EN"
  "http://www.w3.org/Graphics/SVG/1.1/DTD/svg11.dtd">
<!-- Created with matplotlib (https://matplotlib.org/) -->
<svg height="345.6pt" version="1.1" viewBox="0 0 460.8 345.6" width="460.8pt" xmlns="http://www.w3.org/2000/svg" xmlns:xlink="http://www.w3.org/1999/xlink">
 <metadata>
  <rdf:RDF xmlns:cc="http://creativecommons.org/ns#" xmlns:dc="http://purl.org/dc/elements/1.1/" xmlns:rdf="http://www.w3.org/1999/02/22-rdf-syntax-ns#">
   <cc:Work>
    <dc:type rdf:resource="http://purl.org/dc/dcmitype/StillImage"/>
    <dc:date>2021-06-24T16:57:53.069539</dc:date>
    <dc:format>image/svg+xml</dc:format>
    <dc:creator>
     <cc:Agent>
      <dc:title>Matplotlib v3.3.0, https://matplotlib.org/</dc:title>
     </cc:Agent>
    </dc:creator>
   </cc:Work>
  </rdf:RDF>
 </metadata>
 <defs>
  <style type="text/css">*{stroke-linecap:butt;stroke-linejoin:round;}</style>
 </defs>
 <g id="figure_1">
  <g id="patch_1">
   <path d="M 0 345.6 
L 460.8 345.6 
L 460.8 0 
L 0 0 
z
" style="fill:#191919;"/>
  </g>
  <g id="axes_1">
   <g id="patch_2">
    <path d="M 55.943189 293.844872 
L 409.283206 293.844872 
L 409.283206 15.12 
L 55.943189 15.12 
z
" style="fill:#191919;"/>
   </g>
   <g id="matplotlib.axis_1">
    <g id="xtick_1">
     <g id="line2d_1">
      <path clip-path="url(#p8550400cd7)" d="M 71.682559 293.844872 
L 71.682559 15.12 
" style="fill:none;stroke:#343434;stroke-linecap:round;stroke-width:0.8;"/>
     </g>
     <g id="line2d_2"/>
     <g id="text_1">
      <!-- $\mathdefault{0}$ -->
      <g style="fill:#e6e6e6;" transform="translate(68.195635 307.030748)scale(0.14 -0.14)">
       <defs>
        <path d="M 26.296875 69 
C 10.796875 69 2.90625 56.6875 2.90625 32.453125 
C 2.90625 20.71875 5 10.625 8.5 5.71875 
C 12 0.796875 17.59375 -2 23.796875 -2 
C 38.90625 -2 46.5 11.015625 46.5 36.65625 
C 46.5 58.578125 40 69 26.296875 69 
z
M 24.5 65.5 
C 34.203125 65.5 38.09375 55.6875 38.09375 31.640625 
C 38.09375 10.328125 34.296875 1.5 25.09375 1.5 
C 15.40625 1.5 11.296875 11.625 11.296875 36.0625 
C 11.296875 57.1875 15 65.5 24.5 65.5 
z
" id="URW_Palladio_L_Roman-48"/>
       </defs>
       <use transform="scale(0.996264)" xlink:href="#URW_Palladio_L_Roman-48"/>
      </g>
     </g>
    </g>
    <g id="xtick_2">
     <g id="line2d_3">
      <path clip-path="url(#p8550400cd7)" d="M 135.990506 293.844872 
L 135.990506 15.12 
" style="fill:none;stroke:#343434;stroke-linecap:round;stroke-width:0.8;"/>
     </g>
     <g id="line2d_4"/>
     <g id="text_2">
      <!-- $\mathdefault{200}$ -->
      <g style="fill:#e6e6e6;" transform="translate(125.529734 307.030748)scale(0.14 -0.14)">
       <defs>
        <path d="M 1.59375 2.5 
L 1.59375 0 
C 20.296875 0 20.296875 0 23.90625 0 
C 27.5 0 27.5 0 46.796875 0 
C 46.59375 1.953125 46.59375 2.90625 46.59375 4.203125 
C 46.59375 5.4375 46.59375 6.359375 46.796875 8.421875 
C 35.296875 8.421875 30.703125 8.421875 12.203125 8.421875 
L 30.40625 27.515625 
C 40.09375 37.71875 43.09375 43.171875 43.09375 50.59375 
C 43.09375 61.96875 35.296875 69 22.59375 69 
C 15.40625 69 10.5 67 5.59375 62.015625 
L 3.90625 48.421875 
L 6.796875 48.421875 
L 8.09375 53.015625 
C 9.703125 58.796875 13.296875 61.296875 20 61.296875 
C 28.59375 61.296875 34.09375 55.890625 34.09375 47.421875 
C 34.09375 39.921875 29.90625 32.546875 18.59375 20.5625 
z
" id="URW_Palladio_L_Roman-50"/>
       </defs>
       <use transform="scale(0.996264)" xlink:href="#URW_Palladio_L_Roman-50"/>
       <use transform="translate(49.8132 0)scale(0.996264)" xlink:href="#URW_Palladio_L_Roman-48"/>
       <use transform="translate(99.626401 0)scale(0.996264)" xlink:href="#URW_Palladio_L_Roman-48"/>
      </g>
     </g>
    </g>
    <g id="xtick_3">
     <g id="line2d_5">
      <path clip-path="url(#p8550400cd7)" d="M 200.298454 293.844872 
L 200.298454 15.12 
" style="fill:none;stroke:#343434;stroke-linecap:round;stroke-width:0.8;"/>
     </g>
     <g id="line2d_6"/>
     <g id="text_3">
      <!-- $\mathdefault{400}$ -->
      <g style="fill:#e6e6e6;" transform="translate(189.837681 307.030748)scale(0.14 -0.14)">
       <defs>
        <path d="M 28 18 
L 28 10.515625 
C 28 4.515625 26.90625 3.109375 22 3.109375 
L 15.796875 3.109375 
L 15.796875 0 
C 29.09375 0 29.09375 0 31.5 0 
C 33.90625 0 33.90625 0 47.203125 0 
L 47.203125 3.109375 
L 42.40625 3.109375 
C 37.5 3.109375 36.40625 4.40625 36.40625 10.453125 
L 36.40625 18 
C 42.296875 18 44.40625 18 47.203125 17.703125 
L 47.203125 24.8125 
C 42.5 24.421875 40.59375 24.421875 39.09375 24.421875 
L 38.796875 24.421875 
L 36.40625 24.421875 
L 36.40625 38.390625 
C 36.40625 56.25 36.59375 64.875 37.09375 69 
L 35.90625 69.5 
L 28.5 66.796875 
L 0.203125 20.296875 
L 1.296875 18 
z
M 28 24.421875 
L 6.5 24.421875 
L 28 59.78125 
z
" id="URW_Palladio_L_Roman-52"/>
       </defs>
       <use transform="scale(0.996264)" xlink:href="#URW_Palladio_L_Roman-52"/>
       <use transform="translate(49.8132 0)scale(0.996264)" xlink:href="#URW_Palladio_L_Roman-48"/>
       <use transform="translate(99.626401 0)scale(0.996264)" xlink:href="#URW_Palladio_L_Roman-48"/>
      </g>
     </g>
    </g>
    <g id="xtick_4">
     <g id="line2d_7">
      <path clip-path="url(#p8550400cd7)" d="M 264.606401 293.844872 
L 264.606401 15.12 
" style="fill:none;stroke:#343434;stroke-linecap:round;stroke-width:0.8;"/>
     </g>
     <g id="line2d_8"/>
     <g id="text_4">
      <!-- $\mathdefault{600}$ -->
      <g style="fill:#e6e6e6;" transform="translate(254.145629 307.030748)scale(0.14 -0.14)">
       <defs>
        <path d="M 41.59375 67.34375 
L 37.90625 69.046875 
C 28.296875 65.84375 24.203125 63.84375 19.09375 59.4375 
C 8.796875 50.71875 3.203125 38.5 3.203125 24.765625 
C 3.203125 8.21875 11.203125 -2 24.09375 -2 
C 37.09375 -2 46.796875 8.3125 46.796875 21.953125 
C 46.796875 33.484375 39.90625 41 29.296875 41 
C 24.296875 41 21.296875 39.6875 15.40625 34.984375 
C 14.296875 34.078125 14.203125 33.984375 13.09375 33.1875 
C 15.203125 51.3125 23.59375 61.140625 41.59375 66.546875 
z
M 25.5 34.984375 
C 33.09375 34.984375 38.203125 28.375 38.203125 18.453125 
C 38.203125 8.015625 33.09375 1.296875 25.40625 1.296875 
C 16.90625 1.296875 12.296875 8.609375 12.296875 22.0625 
C 12.296875 25.5625 12.703125 27.46875 13.796875 29.171875 
C 16 32.578125 20.703125 34.984375 25.5 34.984375 
z
" id="URW_Palladio_L_Roman-54"/>
       </defs>
       <use transform="scale(0.996264)" xlink:href="#URW_Palladio_L_Roman-54"/>
       <use transform="translate(49.8132 0)scale(0.996264)" xlink:href="#URW_Palladio_L_Roman-48"/>
       <use transform="translate(99.626401 0)scale(0.996264)" xlink:href="#URW_Palladio_L_Roman-48"/>
      </g>
     </g>
    </g>
    <g id="xtick_5">
     <g id="line2d_9">
      <path clip-path="url(#p8550400cd7)" d="M 328.914348 293.844872 
L 328.914348 15.12 
" style="fill:none;stroke:#343434;stroke-linecap:round;stroke-width:0.8;"/>
     </g>
     <g id="line2d_10"/>
     <g id="text_5">
      <!-- $\mathdefault{800}$ -->
      <g style="fill:#e6e6e6;" transform="translate(318.453576 307.030748)scale(0.14 -0.14)">
       <defs>
        <path d="M 16.796875 34.546875 
C 12.703125 32.65625 11 31.546875 8.796875 29.4375 
C 5 25.640625 3 21.125 3 15.921875 
C 3 5.609375 11.296875 -2 22.59375 -2 
C 35.59375 -2 46.40625 8.21875 46.40625 20.625 
C 46.40625 28.640625 42.703125 32.953125 31.296875 38.15625 
C 40.40625 44.375 43.59375 48.578125 43.59375 54.578125 
C 43.59375 63.1875 36.5 69 25.90625 69 
C 14 69 5.296875 61.390625 5.296875 50.890625 
C 5.296875 44.078125 8 40.265625 16.796875 34.546875 
z
M 28.40625 29.546875 
C 34.703125 26.734375 38.5 21.828125 38.5 16.4375 
C 38.5 8.015625 32.203125 1.40625 24.09375 1.40625 
C 15.59375 1.40625 10.09375 7.421875 10.09375 16.734375 
C 10.09375 24.03125 13 28.640625 20.40625 33.15625 
z
M 22.296875 42.375 
C 16 45.46875 12.796875 49.484375 12.796875 54.484375 
C 12.796875 61.09375 17.59375 65.59375 24.703125 65.59375 
C 32 65.59375 36.796875 60.796875 36.796875 53.46875 
C 36.796875 47.78125 34.296875 43.875 27.796875 39.65625 
z
" id="URW_Palladio_L_Roman-56"/>
       </defs>
       <use transform="scale(0.996264)" xlink:href="#URW_Palladio_L_Roman-56"/>
       <use transform="translate(49.8132 0)scale(0.996264)" xlink:href="#URW_Palladio_L_Roman-48"/>
       <use transform="translate(99.626401 0)scale(0.996264)" xlink:href="#URW_Palladio_L_Roman-48"/>
      </g>
     </g>
    </g>
    <g id="xtick_6">
     <g id="line2d_11">
      <path clip-path="url(#p8550400cd7)" d="M 393.222296 293.844872 
L 393.222296 15.12 
" style="fill:none;stroke:#343434;stroke-linecap:round;stroke-width:0.8;"/>
     </g>
     <g id="line2d_12"/>
     <g id="text_6">
      <!-- $\mathdefault{1000}$ -->
      <g style="fill:#e6e6e6;" transform="translate(379.2746 307.030748)scale(0.14 -0.14)">
       <defs>
        <path d="M 6.703125 56 
L 7.703125 56 
L 20.59375 61.8125 
C 20.703125 61.90625 20.796875 61.90625 20.90625 61.90625 
C 21.5 61.90625 21.703125 61.015625 21.703125 58.609375 
L 21.703125 9.578125 
C 21.703125 4.3125 20.59375 3.203125 15.203125 3.203125 
L 9.59375 3.203125 
L 9.59375 0 
C 25 0 25 0 26.09375 0 
C 27.40625 0 29.59375 0 33 0 
C 34.203125 0 37.703125 0 41.796875 0 
L 41.796875 3.203125 
L 36.59375 3.203125 
C 31.09375 3.203125 30.09375 4.3125 30.09375 9.5625 
L 30.09375 69.421875 
L 28.703125 69.921875 
C 22.203125 66.515625 15.09375 63.515625 6 60.3125 
z
" id="URW_Palladio_L_Roman-49"/>
       </defs>
       <use transform="scale(0.996264)" xlink:href="#URW_Palladio_L_Roman-49"/>
       <use transform="translate(49.8132 0)scale(0.996264)" xlink:href="#URW_Palladio_L_Roman-48"/>
       <use transform="translate(99.626401 0)scale(0.996264)" xlink:href="#URW_Palladio_L_Roman-48"/>
       <use transform="translate(149.439601 0)scale(0.996264)" xlink:href="#URW_Palladio_L_Roman-48"/>
      </g>
     </g>
    </g>
    <g id="text_7">
     <!-- Energy [\si{\micro\kelvin}] -->
     <g style="fill:#e6e6e6;" transform="translate(190.666448 326.295694)scale(0.168 -0.168)">
      <defs>
       <path d="M 30.59375 6.765625 
C 22.59375 6.765625 19 6.765625 17.203125 6.765625 
L 17.203125 32.921875 
L 48.203125 32.921875 
L 48.203125 39 
L 17.203125 39 
L 17.203125 62.640625 
L 30.09375 62.640625 
C 31.296875 62.640625 32.5 62.640625 33.703125 62.640625 
L 50.796875 62.640625 
L 50.796875 69 
L 8.796875 69 
L 8.796875 0 
L 52.09375 0 
L 52.09375 6.765625 
z
" id="CMSS17-69"/>
       <path d="M 40.90625 29.328125 
C 40.90625 35.671875 39.40625 44 28.09375 44 
C 21.703125 44 17.5 40.71875 14.703125 37.328125 
L 14.703125 43.09375 
L 7.40625 43.09375 
L 7.40625 0 
L 15 0 
L 15 24.359375 
C 15 30.6875 17.40625 37.9375 24.203125 37.9375 
C 33 37.9375 33.296875 32 33.296875 28.578125 
L 33.296875 0 
L 40.90625 0 
z
" id="CMSS17-110"/>
       <path d="M 39.09375 21.515625 
C 39.09375 24.84375 38.90625 31.296875 35.703125 36.640625 
C 32.203125 42.390625 26.5 44 22.203125 44 
C 11.796875 44 3 34.1875 3 21.484375 
C 3 9.09375 12.09375 -1 23.59375 -1 
C 28.09375 -1 33.59375 0.296875 38.59375 3.875 
C 38.59375 4.28125 38.40625 6.46875 38.296875 6.5625 
C 38.296875 6.765625 38 9.84375 38 10.25 
C 33.203125 6.359375 27.703125 5.078125 23.703125 5.078125 
C 17.296875 5.078125 10.40625 10.421875 10.09375 21.515625 
z
M 10.90625 27 
C 12.203125 32.5625 16.59375 37.828125 22.203125 37.828125 
C 23.703125 37.828125 30.703125 37.828125 32.5 27 
z
" id="CMSS17-101"/>
       <path d="M 14.90625 21.296875 
C 14.90625 30.703125 21.796875 37 30.59375 37 
L 30.59375 43.578125 
C 24.203125 43.578125 18.203125 40.390625 14.59375 35.203125 
L 14.59375 43.09375 
L 7.5 43.09375 
L 7.5 0 
L 14.90625 0 
z
" id="CMSS17-114"/>
       <path d="M 44.5 43.875 
C 38.796875 43.875 33.90625 42.78125 29.90625 40.890625 
C 26.59375 43.390625 23.203125 43.875 20.90625 43.875 
C 12.203125 43.875 5.59375 36.703125 5.59375 28.34375 
C 5.59375 22.9375 8.59375 18.859375 8.796875 18.671875 
C 7 16.171875 6 13.484375 6 10.5 
C 6 7 7.40625 4.515625 8.5 3.125 
C 3.296875 -0.046875 2.59375 -4.90625 2.59375 -6.796875 
C 2.59375 -14.03125 11.703125 -20 23.40625 -20 
C 35.203125 -20 44.296875 -14.03125 44.296875 -6.6875 
C 44.296875 7 29 7 24.796875 7 
L 16.703125 7 
C 15.203125 7 11.203125 7 11.203125 12.359375 
C 11.203125 14.390625 12.09375 15.6875 12.203125 15.78125 
C 13.703125 14.6875 16.796875 13 20.90625 13 
C 29.203125 13 36.09375 19.96875 36.09375 28.546875 
C 36.09375 33.3125 33.90625 36.796875 33 38 
L 33.296875 38 
C 33.59375 38 37.796875 38 39.296875 38 
C 42.5 38 42.796875 37.953125 45.59375 37.796875 
z
M 20.90625 18.46875 
C 17.5 18.46875 12.703125 20.546875 12.703125 28.484375 
C 12.703125 37.109375 18.203125 38.5 20.796875 38.5 
C 24.203125 38.5 29 36.421875 29 28.484375 
C 29 19.859375 23.5 18.46875 20.90625 18.46875 
z
M 24.703125 -0.15625 
C 27.09375 -0.15625 37.203125 -0.15625 37.203125 -6.90625 
C 37.203125 -11.15625 31 -14.515625 23.5 -14.515625 
C 15.90625 -14.515625 9.703125 -11.25 9.703125 -6.796875 
C 9.703125 -6.296875 9.703125 -0.15625 16.59375 -0.15625 
z
" id="CMSS17-103"/>
       <path d="M 41.796875 43 
L 34 43 
C 25.5 20.21875 22.59375 10.96875 22.40625 5.984375 
L 22.296875 5.984375 
C 22 10.875 17.59375 22.8125 14.09375 31.359375 
L 9.40625 43 
L 1.296875 43 
L 19 0.203125 
C 17.90625 -2.78125 16.296875 -7.265625 15.796875 -8.265625 
C 13.59375 -13.828125 12.09375 -13.828125 10.5 -13.828125 
C 10.09375 -13.828125 6.90625 -13.828125 3.296875 -12.640625 
L 3.90625 -19.203125 
C 6.40625 -19.703125 8.90625 -20 10.703125 -20 
C 13.203125 -20 18.203125 -20 22.796875 -7.765625 
z
" id="CMSS17-121"/>
       <path d="M 25.203125 -25 
L 25.203125 -18.9375 
L 16.59375 -18.9375 
L 16.59375 68 
L 25.203125 68 
L 25.203125 74.078125 
L 9.296875 74.078125 
L 9.296875 -25 
z
" id="CMSS17-91"/>
       <path d="M 9.90625 -23.390625 
C 12.703125 -23 17 -20.390625 17 -19 
L 17 -18.703125 
L 15 1 
C 18.203125 -0.5 20.5 -1 23.90625 -1 
C 28.5 -1 32.40625 0.40625 35.203125 2.890625 
L 41.90625 9.078125 
C 41.90625 6.21875 41.796875 4.640625 41.5 0 
C 48.203125 0 48.203125 0 49.703125 0 
C 51.203125 0 51.203125 0 58.09375 0 
L 58.09375 2.890625 
L 54 3.296875 
C 50.59375 3.296875 50.296875 3.890625 50.296875 10.28125 
L 50.296875 46.5 
L 49.40625 46.90625 
C 44.296875 44.796875 39.09375 43.40625 33.796875 42.796875 
L 33.796875 40 
L 37.5 40 
C 41.5 40 41.90625 39.296875 41.90625 32.75 
L 41.90625 16.546875 
C 41.90625 14.359375 40.5 11.578125 38.203125 9.265625 
C 35.40625 6.484375 32.203125 5.109375 28.296875 5.109375 
C 24.796875 5.109375 22 6.203125 20.40625 8.09375 
C 19 9.6875 18.296875 12.765625 18.296875 17.140625 
L 18.296875 46.5 
L 17.40625 46.90625 
C 12.296875 44.796875 7.09375 43.40625 1.796875 42.796875 
L 1.796875 40 
L 5.5 40 
C 9.5 40 9.90625 39.296875 9.90625 32.734375 
z
" id="URW_Palladio_L_Roman-181"/>
       <path d="M 21.59375 32.609375 
L 22.59375 33.3125 
L 57.40625 0 
C 64.40625 0 64.40625 0 65.40625 0 
C 66.703125 0 66.90625 0 71.90625 0 
L 71.90625 2.90625 
L 69.796875 3.109375 
C 68.296875 3.109375 66.703125 4.21875 63.59375 7.109375 
L 30.59375 38.296875 
L 57.203125 62.296875 
C 59.90625 64.703125 62.40625 66 65 66 
L 69.203125 66 
L 69.203125 69.015625 
C 62.90625 69.015625 62.90625 69.015625 61.203125 69.015625 
C 59.796875 69.015625 58.09375 69.015625 52.296875 69.015625 
L 52.296875 66.5 
C 52.296875 65.90625 51 64.21875 49.40625 62.609375 
L 21.59375 35.59375 
L 21.59375 57.203125 
C 21.59375 65.1875 22.09375 66 26.703125 66 
L 31.5 66 
L 31.5 69.015625 
C 24.203125 69.015625 22 69.015625 16.796875 69.015625 
C 11.796875 69.015625 9.40625 69.015625 2.203125 69.015625 
L 2.203125 66 
L 7 66 
C 11.59375 66 12.09375 65.1875 12.09375 57.21875 
L 12.09375 11.890625 
C 12.09375 3.90625 11.59375 3.109375 7 3.109375 
L 2.203125 3.109375 
L 2.203125 0 
C 8.09375 0 11.59375 0 16.796875 0 
C 22 0 25.59375 0 31.5 0 
L 31.5 3.109375 
L 26.703125 3.109375 
C 22.09375 3.109375 21.59375 3.90625 21.59375 11.90625 
z
" id="URW_Palladio_L_Roman-75"/>
       <path d="M 17.90625 74.078125 
L 2 74.078125 
L 2 68 
L 10.59375 68 
L 10.59375 -18.9375 
L 2 -18.9375 
L 2 -25 
L 17.90625 -25 
z
" id="CMSS17-93"/>
      </defs>
      <use transform="scale(0.996264)" xlink:href="#CMSS17-69"/>
      <use transform="translate(55.892013 0)scale(0.996264)" xlink:href="#CMSS17-110"/>
      <use transform="translate(104.096956 0)scale(0.996264)" xlink:href="#CMSS17-101"/>
      <use transform="translate(145.735778 0)scale(0.996264)" xlink:href="#CMSS17-114"/>
      <use transform="translate(177.645551 0)scale(0.996264)" xlink:href="#CMSS17-103"/>
      <use transform="translate(224.489175 0)scale(0.996264)" xlink:href="#CMSS17-121"/>
      <use transform="translate(298.718429 0)scale(0.996264)" xlink:href="#CMSS17-91"/>
      <use transform="translate(325.903868 0)scale(0.996264)" xlink:href="#URW_Palladio_L_Roman-181"/>
      <use transform="translate(385.977602 0)scale(0.996264)" xlink:href="#URW_Palladio_L_Roman-75"/>
      <use transform="translate(458.305296 0)scale(0.996264)" xlink:href="#CMSS17-93"/>
     </g>
    </g>
   </g>
   <g id="matplotlib.axis_2">
    <g id="ytick_1">
     <g id="line2d_13">
      <path clip-path="url(#p8550400cd7)" d="M 55.943189 262.455748 
L 409.283206 262.455748 
" style="fill:none;stroke:#343434;stroke-linecap:round;stroke-width:0.8;"/>
     </g>
     <g id="line2d_14"/>
     <g id="text_8">
      <!-- $\mathdefault{−2}$ -->
      <g style="fill:#18c0c4;" transform="translate(33.997498 267.298687)scale(0.14 -0.14)">
       <defs>
        <path d="M 65.90625 23 
C 67.59375 23 69.40625 23 69.40625 25 
C 69.40625 27 67.59375 27 65.90625 27 
L 11.796875 27 
C 10.09375 27 8.296875 27 8.296875 25 
C 8.296875 23 10.09375 23 11.796875 23 
z
" id="CMSY10-0"/>
       </defs>
       <use transform="scale(1.038107)" xlink:href="#CMSY10-0"/>
       <use transform="translate(81.941696 0)scale(0.996264)" xlink:href="#URW_Palladio_L_Roman-50"/>
      </g>
     </g>
    </g>
    <g id="ytick_2">
     <g id="line2d_15">
      <path clip-path="url(#p8550400cd7)" d="M 55.943189 226.493297 
L 409.283206 226.493297 
" style="fill:none;stroke:#343434;stroke-linecap:round;stroke-width:0.8;"/>
     </g>
     <g id="line2d_16"/>
     <g id="text_9">
      <!-- $\mathdefault{0}$ -->
      <g style="fill:#18c0c4;" transform="translate(45.469341 231.336235)scale(0.14 -0.14)">
       <use transform="scale(0.996264)" xlink:href="#URW_Palladio_L_Roman-48"/>
      </g>
     </g>
    </g>
    <g id="ytick_3">
     <g id="line2d_17">
      <path clip-path="url(#p8550400cd7)" d="M 55.943189 190.530845 
L 409.283206 190.530845 
" style="fill:none;stroke:#343434;stroke-linecap:round;stroke-width:0.8;"/>
     </g>
     <g id="line2d_18"/>
     <g id="text_10">
      <!-- $\mathdefault{2}$ -->
      <g style="fill:#18c0c4;" transform="translate(45.469341 195.373783)scale(0.14 -0.14)">
       <use transform="scale(0.996264)" xlink:href="#URW_Palladio_L_Roman-50"/>
      </g>
     </g>
    </g>
    <g id="ytick_4">
     <g id="line2d_19">
      <path clip-path="url(#p8550400cd7)" d="M 55.943189 154.568394 
L 409.283206 154.568394 
" style="fill:none;stroke:#343434;stroke-linecap:round;stroke-width:0.8;"/>
     </g>
     <g id="line2d_20"/>
     <g id="text_11">
      <!-- $\mathdefault{4}$ -->
      <g style="fill:#18c0c4;" transform="translate(45.469341 159.411332)scale(0.14 -0.14)">
       <use transform="scale(0.996264)" xlink:href="#URW_Palladio_L_Roman-52"/>
      </g>
     </g>
    </g>
    <g id="ytick_5">
     <g id="line2d_21">
      <path clip-path="url(#p8550400cd7)" d="M 55.943189 118.605942 
L 409.283206 118.605942 
" style="fill:none;stroke:#343434;stroke-linecap:round;stroke-width:0.8;"/>
     </g>
     <g id="line2d_22"/>
     <g id="text_12">
      <!-- $\mathdefault{6}$ -->
      <g style="fill:#18c0c4;" transform="translate(45.469341 123.44888)scale(0.14 -0.14)">
       <use transform="scale(0.996264)" xlink:href="#URW_Palladio_L_Roman-54"/>
      </g>
     </g>
    </g>
    <g id="ytick_6">
     <g id="line2d_23">
      <path clip-path="url(#p8550400cd7)" d="M 55.943189 82.64349 
L 409.283206 82.64349 
" style="fill:none;stroke:#343434;stroke-linecap:round;stroke-width:0.8;"/>
     </g>
     <g id="line2d_24"/>
     <g id="text_13">
      <!-- $\mathdefault{8}$ -->
      <g style="fill:#18c0c4;" transform="translate(45.469341 87.486429)scale(0.14 -0.14)">
       <use transform="scale(0.996264)" xlink:href="#URW_Palladio_L_Roman-56"/>
      </g>
     </g>
    </g>
    <g id="ytick_7">
     <g id="line2d_25">
      <path clip-path="url(#p8550400cd7)" d="M 55.943189 46.681039 
L 409.283206 46.681039 
" style="fill:none;stroke:#343434;stroke-linecap:round;stroke-width:0.8;"/>
     </g>
     <g id="line2d_26"/>
     <g id="text_14">
      <!-- $\mathdefault{10}$ -->
      <g style="fill:#18c0c4;" transform="translate(38.495493 51.523977)scale(0.14 -0.14)">
       <use transform="scale(0.996264)" xlink:href="#URW_Palladio_L_Roman-49"/>
       <use transform="translate(49.8132 0)scale(0.996264)" xlink:href="#URW_Palladio_L_Roman-48"/>
      </g>
     </g>
    </g>
    <g id="text_15">
     <!-- $\tan\lambda$ -->
     <g style="fill:#18c0c4;" transform="translate(26.743055 172.827666)rotate(-90)scale(0.168 -0.168)">
      <defs>
       <path d="M 9.796875 38.6875 
L 9.796875 9.671875 
C 9.796875 2.21875 13.09375 -1 20.796875 -1 
C 23.09375 -1 25.5 -0.5 26.09375 0.203125 
L 30.90625 5.515625 
L 29.59375 7.234375 
C 27.09375 5.8125 25.59375 5.3125 23.703125 5.3125 
C 19.796875 5.3125 18.203125 7.34375 18.203125 12.3125 
L 18.203125 38.890625 
L 31 38.890625 
L 31.90625 44 
L 18.203125 44 
L 18.203125 47.75 
C 18.203125 51.890625 18.5 55.421875 19.296875 61.734375 
L 18.09375 62.828125 
C 15.703125 61.328125 12.703125 60.03125 9.59375 59.03125 
C 9.90625 56.015625 10 54.109375 10 51.109375 
L 10 44.09375 
L 2.203125 40.59375 
L 2.203125 38.6875 
z
" id="URW_Palladio_L_Roman-116"/>
       <path d="M 32.40625 8.40625 
L 31.90625 -0.015625 
C 38.40625 -0.015625 38.40625 -0.015625 39.703125 -0.015625 
C 40.203125 -0.015625 42.703125 -0.015625 47.09375 -0.015625 
L 47.09375 3 
L 43.203125 3 
C 40.796875 3 40.40625 3.8125 40.40625 8.71875 
L 40.40625 27.046875 
C 40.40625 41.6875 36.203125 47 24.59375 47 
C 20.296875 47 16.296875 45.890625 12.5 43.609375 
L 7.203125 40.390625 
L 7.203125 33.921875 
L 9.796875 33.21875 
L 11.09375 36.296875 
C 13.203125 40.984375 14.203125 41.6875 18.796875 41.6875 
C 28.203125 41.6875 32.09375 37.984375 32.40625 28.9375 
L 22.5 27.125 
C 8.90625 24.640625 3.203125 19.953125 3.203125 11.28125 
C 3.203125 3.5 7.90625 -1 15.796875 -1 
C 17.59375 -1 19.296875 -0.703125 20 -0.203125 
z
M 32.40625 12.59375 
C 29.5 8.5 23.203125 4.71875 19.296875 4.71875 
C 15.296875 4.71875 11.796875 8.40625 11.796875 12.6875 
C 11.796875 16.375 13.796875 19.859375 16.796875 21.75 
C 19.296875 23.25 24.796875 24.640625 32.40625 25.75 
z
" id="URW_Palladio_L_Roman-97"/>
       <path d="M 41 -0.109375 
C 47.09375 -0.109375 47.203125 -0.109375 48.90625 -0.109375 
C 50.296875 -0.109375 50.296875 -0.109375 57.203125 -0.109375 
L 57.203125 2.796875 
L 53.09375 3.203125 
C 49.703125 3.203125 49.40625 3.8125 49.40625 10.21875 
L 49.40625 29.5625 
C 49.40625 41.28125 43.90625 47 32.703125 47 
C 29 47 26.90625 46.296875 24.796875 44.484375 
L 17.203125 37.875 
L 17.203125 46.59375 
L 16.296875 47 
C 11.203125 44.890625 6 43.484375 0.703125 42.890625 
L 0.703125 40.078125 
L 4.40625 40.078125 
C 8.40625 40.078125 8.796875 39.375 8.796875 32.71875 
L 8.796875 10.046875 
C 8.796875 3.703125 8.5 3 5.09375 3 
L 0.59375 3 
L 0.59375 -0.109375 
C 7.40625 -0.109375 10.09375 -0.109375 13 -0.109375 
C 15.90625 -0.109375 18.59375 -0.109375 25.40625 -0.109375 
L 25.40625 3 
L 20.90625 3 
C 17.5 3 17.203125 3.703125 17.203125 10.046875 
L 17.203125 31.421875 
C 17.203125 35.9375 23.796875 40.875 29.90625 40.875 
C 36.59375 40.875 41 35.890625 41 28.21875 
z
" id="URW_Palladio_L_Roman-110"/>
       <path d="M 3.59375 -1.40625 
C 5.40625 -0.5 6.796875 0 9.296875 0.796875 
C 16.796875 15.96875 21.296875 25.203125 32.796875 41.5625 
L 40.09375 1.8125 
C 40.40625 0.109375 41.5 -1 43.09375 -1 
C 45.59375 -1 49.203125 1.21875 58.703125 8.40625 
L 57.796875 10.203125 
L 55.203125 8.5 
C 52.296875 6.5 49.90625 5.5 49.09375 5.5 
C 48.703125 5.5 48.296875 5.5 47.203125 7.40625 
C 46.40625 8.609375 45.90625 11 44.90625 14.421875 
L 38.40625 49.390625 
C 35.796875 63.40625 32.296875 70.53125 27.59375 71.125 
C 24.90625 68.921875 21 66.40625 18.796875 65 
L 18.5 62.59375 
C 20.40625 63.296875 23.40625 64.5 24.296875 64.5 
C 26.90625 64.5 29.5 60 30.5 54.1875 
L 32.203125 44.875 
C 23.703125 34.03125 6.796875 8.828125 1.59375 0.796875 
z
" id="Pazo_Math_Italic-108"/>
      </defs>
      <use transform="scale(0.996264)" xlink:href="#URW_Palladio_L_Roman-116"/>
      <use transform="translate(32.477088 0)scale(0.996264)" xlink:href="#URW_Palladio_L_Roman-97"/>
      <use transform="translate(82.290288 0)scale(0.996264)" xlink:href="#URW_Palladio_L_Roman-110"/>
      <use transform="translate(158.122008 0)scale(0.996264)" xlink:href="#Pazo_Math_Italic-108"/>
     </g>
    </g>
   </g>
   <g id="line2d_27">
    <path clip-path="url(#p8550400cd7)" d="M 72.004099 158.0771 
L 76.179935 155.569279 
L 80.034553 153.011657 
L 83.889172 150.191283 
L 87.422572 147.346135 
L 90.955972 144.221091 
L 94.489372 140.780756 
L 97.701554 137.345225 
L 100.913736 133.580034 
L 104.125918 129.445068 
L 107.016882 125.370124 
L 109.907846 120.922365 
L 112.79881 116.061814 
L 115.689773 110.745867 
L 118.580737 104.930769 
L 121.471701 98.574454 
L 124.362665 91.641653 
L 127.253628 84.112674 
L 130.46581 75.062354 
L 133.999211 64.391142 
L 141.708447 40.697721 
L 143.635756 35.626193 
L 144.920629 32.733956 
L 146.205502 30.376474 
L 147.169157 29.044407 
L 148.132811 28.158788 
L 148.775248 27.850698 
L 149.417684 27.793292 
L 150.06012 28.00817 
L 150.702557 28.516908 
L 151.344993 29.340717 
L 151.98743 30.500062 
L 152.629866 32.014226 
L 153.593521 34.988765 
L 154.557175 38.850767 
L 155.52083 43.635444 
L 156.805703 51.476178 
L 158.090575 60.963111 
L 159.375448 71.997637 
L 160.981539 87.689754 
L 163.230067 112.270083 
L 169.65443 184.638006 
L 171.58174 203.257154 
L 173.187831 216.984634 
L 174.793922 229.011022 
L 176.400013 239.367007 
L 178.006104 248.149069 
L 179.612195 255.493298 
L 180.897067 260.437361 
L 182.18194 264.642003 
L 183.466813 268.187054 
L 184.751686 271.148286 
L 186.036559 273.596077 
L 187.321431 275.594723 
L 188.606304 277.202228 
L 189.891177 278.470401 
L 191.17605 279.445163 
L 192.460922 280.166968 
L 193.745795 280.671283 
L 195.351886 281.042632 
L 196.957977 281.174096 
L 198.885286 281.075872 
L 200.812596 280.756174 
L 203.061123 280.169003 
L 205.952087 279.168548 
L 209.485487 277.700452 
L 214.946196 275.159229 
L 230.043452 268.023012 
L 236.789034 265.130886 
L 243.534616 262.482831 
L 250.280198 260.074778 
L 257.346998 257.791972 
L 264.735017 255.6429 
L 272.444254 253.630105 
L 280.795927 251.681157 
L 289.790036 249.815092 
L 299.426582 248.044817 
L 310.026783 246.329256 
L 321.590638 244.689993 
L 334.118147 243.141506 
L 347.93053 241.660223 
L 363.349003 240.235497 
L 380.373568 238.889281 
L 393.222296 238.002713 
L 393.222296 238.002713 
" style="fill:none;stroke:#18c0c4;stroke-linecap:round;stroke-width:1.5;"/>
   </g>
   <g id="patch_3">
    <path d="M 55.943189 293.844872 
L 55.943189 15.12 
" style="fill:none;"/>
   </g>
   <g id="patch_4">
    <path d="M 409.283206 293.844872 
L 409.283206 15.12 
" style="fill:none;"/>
   </g>
   <g id="patch_5">
    <path d="M 55.943189 293.844872 
L 409.283206 293.844872 
" style="fill:none;"/>
   </g>
   <g id="patch_6">
    <path d="M 55.943189 15.12 
L 409.283206 15.12 
" style="fill:none;"/>
   </g>
  </g>
  <g id="axes_2">
   <g id="matplotlib.axis_3">
    <g id="ytick_8">
     <g id="line2d_28">
      <path clip-path="url(#p8550400cd7)" d="M 55.943189 281.175573 
L 409.283206 281.175573 
" style="fill:none;stroke:#343434;stroke-linecap:round;stroke-width:0.8;"/>
     </g>
     <g id="line2d_29"/>
     <g id="text_16">
      <!-- $\mathdefault{0}$ -->
      <g style="fill:#f62196;" transform="translate(412.783206 286.018511)scale(0.14 -0.14)">
       <use transform="scale(0.996264)" xlink:href="#URW_Palladio_L_Roman-48"/>
      </g>
     </g>
    </g>
    <g id="ytick_9">
     <g id="line2d_30">
      <path clip-path="url(#p8550400cd7)" d="M 55.943189 245.19186 
L 409.283206 245.19186 
" style="fill:none;stroke:#343434;stroke-linecap:round;stroke-width:0.8;"/>
     </g>
     <g id="line2d_31"/>
     <g id="text_17">
      <!-- $\mathdefault{2}$ -->
      <g style="fill:#f62196;" transform="translate(412.783206 250.034798)scale(0.14 -0.14)">
       <use transform="scale(0.996264)" xlink:href="#URW_Palladio_L_Roman-50"/>
      </g>
     </g>
    </g>
    <g id="ytick_10">
     <g id="line2d_32">
      <path clip-path="url(#p8550400cd7)" d="M 55.943189 209.208148 
L 409.283206 209.208148 
" style="fill:none;stroke:#343434;stroke-linecap:round;stroke-width:0.8;"/>
     </g>
     <g id="line2d_33"/>
     <g id="text_18">
      <!-- $\mathdefault{4}$ -->
      <g style="fill:#f62196;" transform="translate(412.783206 214.051086)scale(0.14 -0.14)">
       <use transform="scale(0.996264)" xlink:href="#URW_Palladio_L_Roman-52"/>
      </g>
     </g>
    </g>
    <g id="ytick_11">
     <g id="line2d_34">
      <path clip-path="url(#p8550400cd7)" d="M 55.943189 173.224435 
L 409.283206 173.224435 
" style="fill:none;stroke:#343434;stroke-linecap:round;stroke-width:0.8;"/>
     </g>
     <g id="line2d_35"/>
     <g id="text_19">
      <!-- $\mathdefault{6}$ -->
      <g style="fill:#f62196;" transform="translate(412.783206 178.067373)scale(0.14 -0.14)">
       <use transform="scale(0.996264)" xlink:href="#URW_Palladio_L_Roman-54"/>
      </g>
     </g>
    </g>
    <g id="ytick_12">
     <g id="line2d_36">
      <path clip-path="url(#p8550400cd7)" d="M 55.943189 137.240723 
L 409.283206 137.240723 
" style="fill:none;stroke:#343434;stroke-linecap:round;stroke-width:0.8;"/>
     </g>
     <g id="line2d_37"/>
     <g id="text_20">
      <!-- $\mathdefault{8}$ -->
      <g style="fill:#f62196;" transform="translate(412.783206 142.083661)scale(0.14 -0.14)">
       <use transform="scale(0.996264)" xlink:href="#URW_Palladio_L_Roman-56"/>
      </g>
     </g>
    </g>
    <g id="ytick_13">
     <g id="line2d_38">
      <path clip-path="url(#p8550400cd7)" d="M 55.943189 101.25701 
L 409.283206 101.25701 
" style="fill:none;stroke:#343434;stroke-linecap:round;stroke-width:0.8;"/>
     </g>
     <g id="line2d_39"/>
     <g id="text_21">
      <!-- $\mathdefault{10}$ -->
      <g style="fill:#f62196;" transform="translate(412.783206 106.099949)scale(0.14 -0.14)">
       <use transform="scale(0.996264)" xlink:href="#URW_Palladio_L_Roman-49"/>
       <use transform="translate(49.8132 0)scale(0.996264)" xlink:href="#URW_Palladio_L_Roman-48"/>
      </g>
     </g>
    </g>
    <g id="ytick_14">
     <g id="line2d_40">
      <path clip-path="url(#p8550400cd7)" d="M 55.943189 65.273298 
L 409.283206 65.273298 
" style="fill:none;stroke:#343434;stroke-linecap:round;stroke-width:0.8;"/>
     </g>
     <g id="line2d_41"/>
     <g id="text_22">
      <!-- $\mathdefault{12}$ -->
      <g style="fill:#f62196;" transform="translate(412.783206 70.116236)scale(0.14 -0.14)">
       <use transform="scale(0.996264)" xlink:href="#URW_Palladio_L_Roman-49"/>
       <use transform="translate(49.8132 0)scale(0.996264)" xlink:href="#URW_Palladio_L_Roman-50"/>
      </g>
     </g>
    </g>
    <g id="ytick_15">
     <g id="line2d_42">
      <path clip-path="url(#p8550400cd7)" d="M 55.943189 29.289585 
L 409.283206 29.289585 
" style="fill:none;stroke:#343434;stroke-linecap:round;stroke-width:0.8;"/>
     </g>
     <g id="line2d_43"/>
     <g id="text_23">
      <!-- $\mathdefault{14}$ -->
      <g style="fill:#f62196;" transform="translate(412.783206 34.132524)scale(0.14 -0.14)">
       <use transform="scale(0.996264)" xlink:href="#URW_Palladio_L_Roman-49"/>
       <use transform="translate(49.8132 0)scale(0.996264)" xlink:href="#URW_Palladio_L_Roman-52"/>
      </g>
     </g>
    </g>
    <g id="text_24">
     <!-- $C^{-2}$ -->
     <g style="fill:#f62196;" transform="translate(442.425557 168.743258)rotate(-90)scale(0.168 -0.168)">
      <defs>
       <path d="M 59.703125 51.40625 
L 62.40625 51.40625 
C 62.90625 57.078125 63.703125 61.34375 65.09375 65.921875 
C 57.5 68.8125 51.796875 70 45.59375 70 
C 37.40625 70 29.203125 67.515625 22.203125 62.859375 
C 10.5 54.984375 4.5 43.25 4.5 28.046875 
C 4.5 8.75 15.203125 -2 34.296875 -2 
C 43.90625 -2 51 0.296875 60 6.46875 
L 61 10.046875 
L 60 10.75 
C 50.59375 5.078125 45.40625 3.28125 37.59375 3.28125 
C 21.90625 3.28125 13.296875 12.828125 13.296875 30.515625 
C 13.296875 41.5625 16.703125 51.40625 22.796875 57.578125 
C 27.5 62.34375 33.90625 64.734375 41.796875 64.734375 
C 48.90625 64.734375 54.09375 63.328125 59.703125 59.765625 
z
" id="URW_Palladio_L_Italic-67"/>
      </defs>
      <use transform="scale(0.996264)" xlink:href="#URW_Palladio_L_Italic-67"/>
      <use transform="translate(69.638803 36.164371)scale(0.788955)" xlink:href="#CMSY10-0"/>
      <use transform="translate(131.914044 36.164371)scale(0.757155)" xlink:href="#URW_Palladio_L_Roman-50"/>
     </g>
    </g>
   </g>
   <g id="line2d_44">
    <path clip-path="url(#p8550400cd7)" d="M 72.004099 281.17556 
L 82.604299 281.070153 
L 89.028663 280.794692 
L 94.168154 280.360053 
L 98.343991 279.797613 
L 101.877391 279.119776 
L 105.089573 278.292492 
L 107.980537 277.328741 
L 110.550282 276.254567 
L 113.120028 274.928381 
L 115.368555 273.517068 
L 117.617083 271.823281 
L 119.544392 270.104342 
L 121.471701 268.09449 
L 123.39901 265.743842 
L 125.326319 262.993587 
L 126.93241 260.346873 
L 128.538501 257.328487 
L 130.144592 253.885724 
L 131.750683 249.958927 
L 133.356774 245.481073 
L 134.962865 240.37764 
L 136.568956 234.566952 
L 138.175047 227.961291 
L 139.781138 220.469148 
L 141.387229 211.999135 
L 142.99332 202.466143 
L 144.920629 189.527015 
L 146.847938 174.893856 
L 148.775248 158.602217 
L 151.023775 137.757279 
L 154.878393 99.457445 
L 157.769357 71.818168 
L 159.375448 58.284268 
L 160.660321 48.904534 
L 161.945194 41.083831 
L 162.908848 36.353821 
L 163.872503 32.652222 
L 164.836158 29.999382 
L 165.478594 28.81134 
L 166.12103 28.078889 
L 166.763467 27.789312 
L 167.405903 27.925854 
L 168.048339 28.468278 
L 168.690776 29.393478 
L 169.333212 30.676097 
L 170.296867 33.210833 
L 171.260521 36.393816 
L 172.545394 41.479942 
L 174.151485 48.881734 
L 176.400013 60.500917 
L 185.072904 106.816121 
L 187.642649 118.918805 
L 190.212395 129.95347 
L 192.782141 139.930891 
L 195.030668 147.840159 
L 197.279195 155.040529 
L 199.527723 161.592303 
L 202.097468 168.363395 
L 204.667214 174.452377 
L 207.23696 179.938244 
L 209.806705 184.891906 
L 212.376451 189.376155 
L 214.946196 193.446121 
L 217.83716 197.589369 
L 220.728124 201.328377 
L 223.619088 204.713878 
L 226.83127 208.113539 
L 230.043452 211.180894 
L 233.255633 213.958734 
L 236.789034 216.723082 
L 240.643652 219.436816 
L 244.49827 221.878257 
L 248.674107 224.258325 
L 253.171162 226.556552 
L 257.989435 228.758091 
L 263.128926 230.853015 
L 268.589635 232.835535 
L 274.371563 234.703237 
L 280.795927 236.543097 
L 287.862727 238.327249 
L 295.571964 240.035592 
L 303.923637 241.654804 
L 313.238965 243.227831 
L 323.517947 244.731321 
L 334.760584 246.150205 
L 347.609312 247.540619 
L 361.742912 248.843812 
L 377.803822 250.098582 
L 393.222296 251.124732 
L 393.222296 251.124732 
" style="fill:none;stroke:#f62196;stroke-linecap:round;stroke-width:1.5;"/>
   </g>
   <g id="patch_7">
    <path d="M 55.943189 293.844872 
L 55.943189 15.12 
" style="fill:none;"/>
   </g>
   <g id="patch_8">
    <path d="M 409.283206 293.844872 
L 409.283206 15.12 
" style="fill:none;"/>
   </g>
   <g id="patch_9">
    <path d="M 55.943189 293.844872 
L 409.283206 293.844872 
" style="fill:none;"/>
   </g>
   <g id="patch_10">
    <path d="M 55.943189 15.12 
L 409.283206 15.12 
" style="fill:none;"/>
   </g>
  </g>
 </g>
 <defs>
  <clipPath id="p8550400cd7">
   <rect height="278.724872" width="353.340017" x="55.943189" y="15.12"/>
  </clipPath>
 </defs>
</svg>
