<?xml version="1.0" encoding="utf-8" standalone="no"?>
<!DOCTYPE svg PUBLIC "-//W3C//DTD SVG 1.1//EN"
  "http://www.w3.org/Graphics/SVG/1.1/DTD/svg11.dtd">
<svg height="345.6pt" version="1.1" viewBox="0 0 460.8 345.6" width="460.8pt" xmlns="http://www.w3.org/2000/svg" xmlns:xlink="http://www.w3.org/1999/xlink">
 <metadata>
  <rdf:RDF xmlns:cc="http://creativecommons.org/ns#" xmlns:dc="http://purl.org/dc/elements/1.1/" xmlns:rdf="http://www.w3.org/1999/02/22-rdf-syntax-ns#">
   <cc:Work>
    <dc:type rdf:resource="http://purl.org/dc/dcmitype/StillImage"/>
    <dc:date>2022-03-10T10:16:13.687439</dc:date>
    <dc:format>image/svg+xml</dc:format>
    <dc:creator>
     <cc:Agent>
      <dc:title>Matplotlib v3.4.3, https://matplotlib.org/</dc:title>
     </cc:Agent>
    </dc:creator>
   </cc:Work>
  </rdf:RDF>
 </metadata>
 <defs>
  <style type="text/css">*{stroke-linecap:butt;stroke-linejoin:round;}</style>
 </defs>
 <g id="figure_1">
  <g id="patch_1">
   <path d="M 0 345.6 
L 460.8 345.6 
L 460.8 0 
L 0 0 
z
" style="fill:#ffffff;"/>
  </g>
  <g id="axes_1">
   <g id="patch_2">
    <path d="M 54.11 98.88 
L 162.366391 98.88 
L 162.366391 10.8 
L 54.11 10.8 
z
" style="fill:#ffffff;"/>
   </g>
   <g id="patch_3">
    <path clip-path="url(#p712284480a)" d="M 141.954412 98.88 
L 141.954412 10.8 
L 157.445646 10.8 
L 157.445646 98.88 
z
" style="fill:#d62728;opacity:0.5;"/>
   </g>
   <g id="matplotlib.axis_1">
    <g id="xtick_1">
     <g id="line2d_1">
      <defs>
       <path d="M 0 0 
L 0 3.5 
" id="m6f3567912f" style="stroke:#000000;stroke-width:0.8;"/>
      </defs>
      <g>
       <use style="stroke:#000000;stroke-width:0.8;" x="59.030745" xlink:href="#m6f3567912f" y="98.88"/>
      </g>
     </g>
    </g>
    <g id="xtick_2">
     <g id="line2d_2">
      <g>
       <use style="stroke:#000000;stroke-width:0.8;" x="104.593199" xlink:href="#m6f3567912f" y="98.88"/>
      </g>
     </g>
    </g>
    <g id="xtick_3">
     <g id="line2d_3">
      <g>
       <use style="stroke:#000000;stroke-width:0.8;" x="150.155653" xlink:href="#m6f3567912f" y="98.88"/>
      </g>
     </g>
    </g>
   </g>
   <g id="matplotlib.axis_2">
    <g id="ytick_1">
     <g id="line2d_4">
      <defs>
       <path d="M 0 0 
L -3.5 0 
" id="mba7a169d25" style="stroke:#000000;stroke-width:0.8;"/>
      </defs>
      <g>
       <use style="stroke:#000000;stroke-width:0.8;" x="54.11" xlink:href="#mba7a169d25" y="74.226684"/>
      </g>
     </g>
     <g id="text_1">
      <!-- −60 -->
      <g transform="translate(26.005313 78.025903)scale(0.1 -0.1)">
       <defs>
        <path d="M 678 2272 
L 4684 2272 
L 4684 1741 
L 678 1741 
L 678 2272 
z
" id="DejaVuSans-2212" transform="scale(0.015625)"/>
        <path d="M 2113 2584 
Q 1688 2584 1439 2293 
Q 1191 2003 1191 1497 
Q 1191 994 1439 701 
Q 1688 409 2113 409 
Q 2538 409 2786 701 
Q 3034 994 3034 1497 
Q 3034 2003 2786 2293 
Q 2538 2584 2113 2584 
z
M 3366 4563 
L 3366 3988 
Q 3128 4100 2886 4159 
Q 2644 4219 2406 4219 
Q 1781 4219 1451 3797 
Q 1122 3375 1075 2522 
Q 1259 2794 1537 2939 
Q 1816 3084 2150 3084 
Q 2853 3084 3261 2657 
Q 3669 2231 3669 1497 
Q 3669 778 3244 343 
Q 2819 -91 2113 -91 
Q 1303 -91 875 529 
Q 447 1150 447 2328 
Q 447 3434 972 4092 
Q 1497 4750 2381 4750 
Q 2619 4750 2861 4703 
Q 3103 4656 3366 4563 
z
" id="DejaVuSans-36" transform="scale(0.015625)"/>
        <path d="M 2034 4250 
Q 1547 4250 1301 3770 
Q 1056 3291 1056 2328 
Q 1056 1369 1301 889 
Q 1547 409 2034 409 
Q 2525 409 2770 889 
Q 3016 1369 3016 2328 
Q 3016 3291 2770 3770 
Q 2525 4250 2034 4250 
z
M 2034 4750 
Q 2819 4750 3233 4129 
Q 3647 3509 3647 2328 
Q 3647 1150 3233 529 
Q 2819 -91 2034 -91 
Q 1250 -91 836 529 
Q 422 1150 422 2328 
Q 422 3509 836 4129 
Q 1250 4750 2034 4750 
z
" id="DejaVuSans-30" transform="scale(0.015625)"/>
       </defs>
       <use xlink:href="#DejaVuSans-2212"/>
       <use x="83.789062" xlink:href="#DejaVuSans-36"/>
       <use x="147.412109" xlink:href="#DejaVuSans-30"/>
      </g>
     </g>
    </g>
    <g id="ytick_2">
     <g id="line2d_5">
      <g>
       <use style="stroke:#000000;stroke-width:0.8;" x="54.11" xlink:href="#mba7a169d25" y="41.011823"/>
      </g>
     </g>
     <g id="text_2">
      <!-- −40 -->
      <g transform="translate(26.005313 44.811042)scale(0.1 -0.1)">
       <defs>
        <path d="M 2419 4116 
L 825 1625 
L 2419 1625 
L 2419 4116 
z
M 2253 4666 
L 3047 4666 
L 3047 1625 
L 3713 1625 
L 3713 1100 
L 3047 1100 
L 3047 0 
L 2419 0 
L 2419 1100 
L 313 1100 
L 313 1709 
L 2253 4666 
z
" id="DejaVuSans-34" transform="scale(0.015625)"/>
       </defs>
       <use xlink:href="#DejaVuSans-2212"/>
       <use x="83.789062" xlink:href="#DejaVuSans-34"/>
       <use x="147.412109" xlink:href="#DejaVuSans-30"/>
      </g>
     </g>
    </g>
    <g id="text_3">
     <!-- Amplitude [dBm] -->
     <g transform="translate(19.925625 97.428281)rotate(-90)scale(0.1 -0.1)">
      <defs>
       <path d="M 2188 4044 
L 1331 1722 
L 3047 1722 
L 2188 4044 
z
M 1831 4666 
L 2547 4666 
L 4325 0 
L 3669 0 
L 3244 1197 
L 1141 1197 
L 716 0 
L 50 0 
L 1831 4666 
z
" id="DejaVuSans-41" transform="scale(0.015625)"/>
       <path d="M 3328 2828 
Q 3544 3216 3844 3400 
Q 4144 3584 4550 3584 
Q 5097 3584 5394 3201 
Q 5691 2819 5691 2113 
L 5691 0 
L 5113 0 
L 5113 2094 
Q 5113 2597 4934 2840 
Q 4756 3084 4391 3084 
Q 3944 3084 3684 2787 
Q 3425 2491 3425 1978 
L 3425 0 
L 2847 0 
L 2847 2094 
Q 2847 2600 2669 2842 
Q 2491 3084 2119 3084 
Q 1678 3084 1418 2786 
Q 1159 2488 1159 1978 
L 1159 0 
L 581 0 
L 581 3500 
L 1159 3500 
L 1159 2956 
Q 1356 3278 1631 3431 
Q 1906 3584 2284 3584 
Q 2666 3584 2933 3390 
Q 3200 3197 3328 2828 
z
" id="DejaVuSans-6d" transform="scale(0.015625)"/>
       <path d="M 1159 525 
L 1159 -1331 
L 581 -1331 
L 581 3500 
L 1159 3500 
L 1159 2969 
Q 1341 3281 1617 3432 
Q 1894 3584 2278 3584 
Q 2916 3584 3314 3078 
Q 3713 2572 3713 1747 
Q 3713 922 3314 415 
Q 2916 -91 2278 -91 
Q 1894 -91 1617 61 
Q 1341 213 1159 525 
z
M 3116 1747 
Q 3116 2381 2855 2742 
Q 2594 3103 2138 3103 
Q 1681 3103 1420 2742 
Q 1159 2381 1159 1747 
Q 1159 1113 1420 752 
Q 1681 391 2138 391 
Q 2594 391 2855 752 
Q 3116 1113 3116 1747 
z
" id="DejaVuSans-70" transform="scale(0.015625)"/>
       <path d="M 603 4863 
L 1178 4863 
L 1178 0 
L 603 0 
L 603 4863 
z
" id="DejaVuSans-6c" transform="scale(0.015625)"/>
       <path d="M 603 3500 
L 1178 3500 
L 1178 0 
L 603 0 
L 603 3500 
z
M 603 4863 
L 1178 4863 
L 1178 4134 
L 603 4134 
L 603 4863 
z
" id="DejaVuSans-69" transform="scale(0.015625)"/>
       <path d="M 1172 4494 
L 1172 3500 
L 2356 3500 
L 2356 3053 
L 1172 3053 
L 1172 1153 
Q 1172 725 1289 603 
Q 1406 481 1766 481 
L 2356 481 
L 2356 0 
L 1766 0 
Q 1100 0 847 248 
Q 594 497 594 1153 
L 594 3053 
L 172 3053 
L 172 3500 
L 594 3500 
L 594 4494 
L 1172 4494 
z
" id="DejaVuSans-74" transform="scale(0.015625)"/>
       <path d="M 544 1381 
L 544 3500 
L 1119 3500 
L 1119 1403 
Q 1119 906 1312 657 
Q 1506 409 1894 409 
Q 2359 409 2629 706 
Q 2900 1003 2900 1516 
L 2900 3500 
L 3475 3500 
L 3475 0 
L 2900 0 
L 2900 538 
Q 2691 219 2414 64 
Q 2138 -91 1772 -91 
Q 1169 -91 856 284 
Q 544 659 544 1381 
z
M 1991 3584 
L 1991 3584 
z
" id="DejaVuSans-75" transform="scale(0.015625)"/>
       <path d="M 2906 2969 
L 2906 4863 
L 3481 4863 
L 3481 0 
L 2906 0 
L 2906 525 
Q 2725 213 2448 61 
Q 2172 -91 1784 -91 
Q 1150 -91 751 415 
Q 353 922 353 1747 
Q 353 2572 751 3078 
Q 1150 3584 1784 3584 
Q 2172 3584 2448 3432 
Q 2725 3281 2906 2969 
z
M 947 1747 
Q 947 1113 1208 752 
Q 1469 391 1925 391 
Q 2381 391 2643 752 
Q 2906 1113 2906 1747 
Q 2906 2381 2643 2742 
Q 2381 3103 1925 3103 
Q 1469 3103 1208 2742 
Q 947 2381 947 1747 
z
" id="DejaVuSans-64" transform="scale(0.015625)"/>
       <path d="M 3597 1894 
L 3597 1613 
L 953 1613 
Q 991 1019 1311 708 
Q 1631 397 2203 397 
Q 2534 397 2845 478 
Q 3156 559 3463 722 
L 3463 178 
Q 3153 47 2828 -22 
Q 2503 -91 2169 -91 
Q 1331 -91 842 396 
Q 353 884 353 1716 
Q 353 2575 817 3079 
Q 1281 3584 2069 3584 
Q 2775 3584 3186 3129 
Q 3597 2675 3597 1894 
z
M 3022 2063 
Q 3016 2534 2758 2815 
Q 2500 3097 2075 3097 
Q 1594 3097 1305 2825 
Q 1016 2553 972 2059 
L 3022 2063 
z
" id="DejaVuSans-65" transform="scale(0.015625)"/>
       <path id="DejaVuSans-20" transform="scale(0.015625)"/>
       <path d="M 550 4863 
L 1875 4863 
L 1875 4416 
L 1125 4416 
L 1125 -397 
L 1875 -397 
L 1875 -844 
L 550 -844 
L 550 4863 
z
" id="DejaVuSans-5b" transform="scale(0.015625)"/>
       <path d="M 1259 2228 
L 1259 519 
L 2272 519 
Q 2781 519 3026 730 
Q 3272 941 3272 1375 
Q 3272 1813 3026 2020 
Q 2781 2228 2272 2228 
L 1259 2228 
z
M 1259 4147 
L 1259 2741 
L 2194 2741 
Q 2656 2741 2882 2914 
Q 3109 3088 3109 3444 
Q 3109 3797 2882 3972 
Q 2656 4147 2194 4147 
L 1259 4147 
z
M 628 4666 
L 2241 4666 
Q 2963 4666 3353 4366 
Q 3744 4066 3744 3513 
Q 3744 3084 3544 2831 
Q 3344 2578 2956 2516 
Q 3422 2416 3680 2098 
Q 3938 1781 3938 1306 
Q 3938 681 3513 340 
Q 3088 0 2303 0 
L 628 0 
L 628 4666 
z
" id="DejaVuSans-42" transform="scale(0.015625)"/>
       <path d="M 1947 4863 
L 1947 -844 
L 622 -844 
L 622 -397 
L 1369 -397 
L 1369 4416 
L 622 4416 
L 622 4863 
L 1947 4863 
z
" id="DejaVuSans-5d" transform="scale(0.015625)"/>
      </defs>
      <use xlink:href="#DejaVuSans-41"/>
      <use x="68.408203" xlink:href="#DejaVuSans-6d"/>
      <use x="165.820312" xlink:href="#DejaVuSans-70"/>
      <use x="229.296875" xlink:href="#DejaVuSans-6c"/>
      <use x="257.080078" xlink:href="#DejaVuSans-69"/>
      <use x="284.863281" xlink:href="#DejaVuSans-74"/>
      <use x="324.072266" xlink:href="#DejaVuSans-75"/>
      <use x="387.451172" xlink:href="#DejaVuSans-64"/>
      <use x="450.927734" xlink:href="#DejaVuSans-65"/>
      <use x="512.451172" xlink:href="#DejaVuSans-20"/>
      <use x="544.238281" xlink:href="#DejaVuSans-5b"/>
      <use x="583.251953" xlink:href="#DejaVuSans-64"/>
      <use x="646.728516" xlink:href="#DejaVuSans-42"/>
      <use x="715.332031" xlink:href="#DejaVuSans-6d"/>
      <use x="812.744141" xlink:href="#DejaVuSans-5d"/>
     </g>
    </g>
   </g>
   <g id="line2d_6">
    <path clip-path="url(#p712284480a)" d="M 59.030745 18.718008 
L 59.941994 19.443753 
L 60.853243 17.857743 
L 61.764492 18.115158 
L 62.675741 19.812437 
L 63.58699 19.402234 
L 64.49824 21.099513 
L 65.409489 19.395591 
L 66.320738 19.335804 
L 67.231987 18.6549 
L 68.143236 20.196069 
L 69.054485 18.337698 
L 69.965734 17.188463 
L 70.876983 18.442324 
L 71.788232 20.529878 
L 72.699481 20.395358 
L 73.61073 18.256321 
L 74.521979 19.305911 
L 75.433229 17.997245 
L 76.344478 17.361181 
L 77.255727 17.420967 
L 78.166976 18.29784 
L 79.078225 21.170925 
L 79.989474 18.779455 
L 80.900723 20.423591 
L 81.811972 21.177568 
L 82.723221 20.305678 
L 83.63447 20.144586 
L 84.545719 17.726544 
L 85.456968 18.852528 
L 86.368218 18.145051 
L 87.279467 19.39393 
L 88.190716 18.462253 
L 89.101965 15.783475 
L 90.013214 18.216463 
L 90.924463 18.703061 
L 91.835712 18.000567 
L 92.746961 18.962137 
L 93.65821 16.303287 
L 94.569459 15.120838 
L 95.480708 17.902583 
L 96.391957 18.792741 
L 97.303207 18.257982 
L 98.214456 18.502111 
L 99.125705 20.586344 
L 100.036954 19.251106 
L 100.948203 19.010299 
L 101.859452 20.576379 
L 102.770701 18.874118 
L 103.68195 19.701168 
L 104.593199 19.274357 
L 105.504448 20.392037 
L 106.415697 17.067229 
L 107.326946 19.669614 
L 108.238196 19.810777 
L 109.149445 18.603417 
L 110.060694 19.568308 
L 110.971943 18.626667 
L 111.883192 19.14814 
L 112.794441 19.033549 
L 113.70569 19.493575 
L 114.616939 17.997245 
L 115.528188 17.150266 
L 116.439437 19.202945 
L 117.350686 16.246822 
L 118.261935 16.422861 
L 119.173185 18.894047 
L 120.084434 19.166408 
L 120.995683 14.803636 
L 121.906932 18.140069 
L 122.818181 19.28266 
L 123.72943 18.27625 
L 124.640679 19.736043 
L 125.551928 20.033316 
L 126.463177 17.691669 
L 127.374426 19.422163 
L 128.285675 18.67815 
L 129.196924 18.532005 
L 130.108174 16.655365 
L 131.019423 19.991798 
L 131.930672 19.452056 
L 132.841921 16.779921 
L 133.75317 19.369019 
L 134.664419 18.36593 
L 135.575668 19.912082 
L 136.486917 20.938421 
L 137.398166 18.203177 
L 138.309415 17.030693 
L 139.220664 19.915404 
L 140.131913 19.882189 
L 141.043163 19.981833 
L 141.954412 17.334609 
L 142.865661 93.501268 
L 143.77691 93.029617 
L 144.688159 94.090832 
L 145.599408 93.022974 
L 146.510657 93.72879 
L 147.421906 92.58786 
L 148.333155 94.383123 
L 149.244404 91.752506 
L 150.155653 92.96817 
L 151.066902 94.034367 
L 151.978152 93.228907 
L 152.889401 93.215621 
L 153.80065 94.172209 
L 154.711899 94.016099 
L 155.623148 94.261889 
L 156.534397 92.670897 
L 157.445646 94.876364 
" style="fill:none;stroke:#1f77b4;stroke-linecap:square;stroke-width:1.5;"/>
   </g>
   <g id="patch_4">
    <path d="M 54.11 98.88 
L 54.11 10.8 
" style="fill:none;stroke:#000000;stroke-linecap:square;stroke-linejoin:miter;stroke-width:0.8;"/>
   </g>
   <g id="patch_5">
    <path d="M 162.366391 98.88 
L 162.366391 10.8 
" style="fill:none;stroke:#000000;stroke-linecap:square;stroke-linejoin:miter;stroke-width:0.8;"/>
   </g>
   <g id="patch_6">
    <path d="M 54.11 98.88 
L 162.366391 98.88 
" style="fill:none;stroke:#000000;stroke-linecap:square;stroke-linejoin:miter;stroke-width:0.8;"/>
   </g>
   <g id="patch_7">
    <path d="M 54.11 10.8 
L 162.366391 10.8 
" style="fill:none;stroke:#000000;stroke-linecap:square;stroke-linejoin:miter;stroke-width:0.8;"/>
   </g>
   <g id="text_4">
    <!-- Mode Hop -->
    <g transform="translate(152.459404 80.047031)rotate(-90)scale(0.1 -0.1)">
     <defs>
      <path d="M 628 4666 
L 1569 4666 
L 2759 1491 
L 3956 4666 
L 4897 4666 
L 4897 0 
L 4281 0 
L 4281 4097 
L 3078 897 
L 2444 897 
L 1241 4097 
L 1241 0 
L 628 0 
L 628 4666 
z
" id="DejaVuSans-4d" transform="scale(0.015625)"/>
      <path d="M 1959 3097 
Q 1497 3097 1228 2736 
Q 959 2375 959 1747 
Q 959 1119 1226 758 
Q 1494 397 1959 397 
Q 2419 397 2687 759 
Q 2956 1122 2956 1747 
Q 2956 2369 2687 2733 
Q 2419 3097 1959 3097 
z
M 1959 3584 
Q 2709 3584 3137 3096 
Q 3566 2609 3566 1747 
Q 3566 888 3137 398 
Q 2709 -91 1959 -91 
Q 1206 -91 779 398 
Q 353 888 353 1747 
Q 353 2609 779 3096 
Q 1206 3584 1959 3584 
z
" id="DejaVuSans-6f" transform="scale(0.015625)"/>
      <path d="M 628 4666 
L 1259 4666 
L 1259 2753 
L 3553 2753 
L 3553 4666 
L 4184 4666 
L 4184 0 
L 3553 0 
L 3553 2222 
L 1259 2222 
L 1259 0 
L 628 0 
L 628 4666 
z
" id="DejaVuSans-48" transform="scale(0.015625)"/>
     </defs>
     <use xlink:href="#DejaVuSans-4d"/>
     <use x="86.279297" xlink:href="#DejaVuSans-6f"/>
     <use x="147.460938" xlink:href="#DejaVuSans-64"/>
     <use x="210.9375" xlink:href="#DejaVuSans-65"/>
     <use x="272.460938" xlink:href="#DejaVuSans-20"/>
     <use x="304.248047" xlink:href="#DejaVuSans-48"/>
     <use x="379.443359" xlink:href="#DejaVuSans-6f"/>
     <use x="440.625" xlink:href="#DejaVuSans-70"/>
    </g>
   </g>
  </g>
  <g id="axes_2">
   <g id="patch_8">
    <path d="M 178.862433 98.88 
L 450 98.88 
L 450 10.8 
L 178.862433 10.8 
z
" style="fill:#ffffff;"/>
   </g>
   <g id="patch_9">
    <path clip-path="url(#p14cdb2c226)" d="M 325.305718 98.88 
L 325.305718 10.8 
L 437.675565 10.8 
L 437.675565 98.88 
z
" style="fill:#ff7f0e;opacity:0.5;"/>
   </g>
   <g id="matplotlib.axis_3">
    <g id="xtick_4">
     <g id="line2d_7">
      <g>
       <use style="stroke:#000000;stroke-width:0.8;" x="191.186868" xlink:href="#m6f3567912f" y="98.88"/>
      </g>
     </g>
    </g>
    <g id="xtick_5">
     <g id="line2d_8">
      <g>
       <use style="stroke:#000000;stroke-width:0.8;" x="236.49729" xlink:href="#m6f3567912f" y="98.88"/>
      </g>
     </g>
    </g>
    <g id="xtick_6">
     <g id="line2d_9">
      <g>
       <use style="stroke:#000000;stroke-width:0.8;" x="281.807713" xlink:href="#m6f3567912f" y="98.88"/>
      </g>
     </g>
    </g>
    <g id="xtick_7">
     <g id="line2d_10">
      <g>
       <use style="stroke:#000000;stroke-width:0.8;" x="327.118135" xlink:href="#m6f3567912f" y="98.88"/>
      </g>
     </g>
    </g>
    <g id="xtick_8">
     <g id="line2d_11">
      <g>
       <use style="stroke:#000000;stroke-width:0.8;" x="372.428557" xlink:href="#m6f3567912f" y="98.88"/>
      </g>
     </g>
    </g>
    <g id="xtick_9">
     <g id="line2d_12">
      <g>
       <use style="stroke:#000000;stroke-width:0.8;" x="417.738979" xlink:href="#m6f3567912f" y="98.88"/>
      </g>
     </g>
    </g>
   </g>
   <g id="matplotlib.axis_4">
    <g id="ytick_3">
     <g id="line2d_13">
      <g>
       <use style="stroke:#000000;stroke-width:0.8;" x="178.862433" xlink:href="#mba7a169d25" y="74.226684"/>
      </g>
     </g>
    </g>
    <g id="ytick_4">
     <g id="line2d_14">
      <g>
       <use style="stroke:#000000;stroke-width:0.8;" x="178.862433" xlink:href="#mba7a169d25" y="41.011823"/>
      </g>
     </g>
    </g>
   </g>
   <g id="line2d_15">
    <path clip-path="url(#p14cdb2c226)" d="M 191.186868 17.6734 
L 192.093077 19.450395 
L 192.999285 17.600328 
L 193.905493 18.61172 
L 194.811702 18.334376 
L 195.71791 18.442324 
L 196.624119 19.173051 
L 197.530327 18.002228 
L 198.436536 17.278144 
L 199.342744 17.050622 
L 200.248953 18.759526 
L 201.155161 19.276017 
L 202.061369 19.362376 
L 202.967578 20.006744 
L 203.873786 18.38752 
L 204.779995 19.46036 
L 205.686203 17.183481 
L 206.592412 21.375197 
L 207.49862 19.847313 
L 208.404829 17.648489 
L 209.311037 16.6454 
L 210.217245 18.688114 
L 211.123454 19.03521 
L 212.029662 17.643507 
L 212.935871 18.038764 
L 213.842079 20.963332 
L 214.748288 17.288108 
L 215.654496 19.063442 
L 216.560705 17.352877 
L 217.466913 20.26416 
L 218.373121 18.862492 
L 219.27933 18.872457 
L 220.185538 17.859404 
L 221.091747 19.789187 
L 221.997955 18.412431 
L 222.904164 18.405788 
L 223.810372 19.420502 
L 224.716581 19.676257 
L 225.622789 19.23782 
L 226.528997 19.603184 
L 227.435206 18.621685 
L 228.341414 19.852295 
L 229.247623 18.49879 
L 230.153831 19.330822 
L 231.06004 18.18657 
L 231.966248 17.733187 
L 232.872457 16.293323 
L 233.778665 17.318001 
L 234.684873 17.934137 
L 235.591082 18.865814 
L 236.49729 18.048728 
L 237.403499 19.789187 
L 238.309707 19.031888 
L 239.215916 17.980638 
L 240.122124 18.193213 
L 241.028333 19.855617 
L 241.934541 17.678383 
L 242.840749 21.312088 
L 243.746958 18.541969 
L 244.653166 17.704955 
L 247.371792 18.799384 
L 248.278 17.987281 
L 249.184209 16.980871 
L 250.090417 20.410305 
L 250.996625 17.266518 
L 251.902834 15.944567 
L 252.809042 19.060121 
L 253.715251 19.138176 
L 254.621459 21.966421 
L 255.527668 20.3555 
L 256.433876 20.843759 
L 257.340085 18.379216 
L 258.246293 18.427378 
L 259.152501 18.865814 
L 260.05871 19.584916 
L 260.964918 17.783009 
L 261.871127 19.251106 
L 262.777335 16.764974 
L 263.683544 20.415287 
L 264.589752 18.671507 
L 265.495961 18.616702 
L 266.402169 19.767597 
L 267.308377 19.156444 
L 268.214586 18.777795 
L 269.120794 19.903778 
L 270.027003 18.92394 
L 270.933211 19.051817 
L 271.83942 19.626434 
L 272.745628 19.43711 
L 273.651837 19.403895 
L 274.558045 17.128677 
L 275.464253 18.16332 
L 276.370462 18.032121 
L 277.27667 18.068657 
L 278.182879 17.24825 
L 279.089087 18.852528 
L 279.995296 20.003423 
L 280.901504 18.473879 
L 281.807713 19.423824 
L 282.713921 19.734383 
L 283.620129 18.017174 
L 284.526338 17.057265 
L 285.432546 19.408877 
L 286.338755 20.245891 
L 287.244963 20.149568 
L 288.151172 18.271268 
L 289.05738 18.379216 
L 289.963589 17.205071 
L 291.776005 19.867242 
L 293.588422 18.908993 
L 294.494631 17.894279 
L 295.400839 18.870796 
L 296.307048 18.634971 
L 297.213256 18.586809 
L 298.119465 17.821207 
L 299.025673 19.59488 
L 299.931881 16.857976 
L 300.83809 18.130105 
L 301.744298 20.222641 
L 302.650507 17.450861 
L 303.556715 17.29309 
L 304.462924 17.713258 
L 305.369132 19.081711 
L 307.181549 19.782544 
L 308.087757 20.458467 
L 308.993966 20.029995 
L 309.900174 19.119908 
L 310.806383 18.774473 
L 312.6188 18.694757 
L 313.525008 20.938421 
L 314.431217 18.169963 
L 315.337425 19.274357 
L 316.243633 17.508987 
L 317.149842 17.854421 
L 318.05605 18.977084 
L 318.962259 17.176838 
L 319.868467 19.075068 
L 320.774676 17.537219 
L 321.680884 17.94078 
L 322.587093 18.003888 
L 323.493301 19.093336 
L 324.39951 17.939119 
L 325.305718 17.259875 
L 326.211926 18.327733 
L 327.118135 17.482415 
L 328.024343 17.611953 
L 328.930552 19.609827 
L 329.83676 19.764276 
L 330.742969 19.496896 
L 331.649177 17.846118 
L 332.555386 18.495468 
L 333.461594 19.455378 
L 334.367802 17.601988 
L 335.274011 18.507093 
L 336.180219 19.707811 
L 337.086428 19.865581 
L 337.992636 18.352644 
L 338.898845 18.782777 
L 340.711262 19.903778 
L 341.61747 15.021194 
L 342.523678 16.86794 
L 343.429887 18.375895 
L 344.336095 19.352412 
L 345.242304 19.043513 
L 346.148512 15.838279 
L 347.054721 18.515397 
L 347.960929 19.546719 
L 348.867138 18.470557 
L 349.773346 20.682667 
L 350.679554 18.475539 
L 351.585763 15.497827 
L 352.491971 17.982299 
L 353.39818 18.468896 
L 354.304388 19.77258 
L 355.210597 18.060354 
L 356.116805 18.688114 
L 357.023014 18.457271 
L 357.929222 18.724651 
L 358.83543 19.159765 
L 359.741639 19.310893 
L 360.647847 19.227856 
L 361.554056 18.14173 
L 362.460264 18.470557 
L 363.366473 16.909459 
L 364.272681 20.870331 
L 365.17889 17.719901 
L 366.085098 17.787992 
L 366.991306 17.648489 
L 367.897515 20.998208 
L 368.803723 18.043746 
L 369.709932 18.855849 
L 370.61614 16.904476 
L 371.522349 19.662971 
L 372.428557 16.718473 
L 373.334766 17.982299 
L 374.240974 16.836386 
L 375.147182 18.932244 
L 376.053391 16.759992 
L 376.959599 18.653239 
L 377.865808 18.972101 
L 378.772016 18.439003 
L 379.678225 17.655132 
L 380.584433 16.291662 
L 381.490642 17.914208 
L 382.39685 17.945762 
L 383.303058 19.123229 
L 384.209267 19.053478 
L 385.115475 18.379216 
L 386.021684 18.548612 
L 386.927892 18.038764 
L 387.834101 18.669846 
L 388.740309 16.550738 
L 389.646518 18.151694 
L 390.552726 18.331055 
L 391.458934 18.36593 
L 392.365143 18.25466 
L 393.271351 18.930583 
L 394.17756 17.977316 
L 395.083768 18.581827 
L 395.989977 18.899029 
L 396.896185 16.494273 
L 397.802394 18.287875 
L 398.708602 18.473879 
L 399.61481 20.368786 
L 400.521019 19.643042 
L 401.427227 17.495701 
L 402.333436 17.676722 
L 403.239644 18.291197 
L 404.145853 18.644935 
L 405.052061 18.344341 
L 405.95827 19.397252 
L 406.864478 20.1313 
L 407.770686 17.686686 
L 408.676895 19.430467 
L 409.583103 18.908993 
L 410.489312 20.785633 
L 411.39552 19.108282 
L 412.301729 18.145051 
L 413.207937 19.566647 
L 414.114146 17.455843 
L 415.020354 17.930816 
L 415.926562 17.590363 
L 416.832771 18.03046 
L 417.738979 19.501879 
L 418.645188 18.395824 
L 419.551396 19.88551 
L 420.457605 19.369019 
L 422.270022 18.686454 
L 423.17623 18.872457 
L 424.082438 19.946958 
L 424.988647 18.560237 
L 425.894855 18.028799 
L 426.801064 15.700438 
L 427.707272 17.196767 
L 428.613481 19.525129 
L 429.519689 18.262964 
L 430.425898 18.756205 
L 431.332106 18.540308 
L 432.238314 18.111837 
L 433.144523 18.354305 
L 434.050731 19.222874 
L 434.95694 19.056799 
L 435.863148 17.613614 
L 436.769357 16.628793 
L 437.675565 18.81267 
L 437.675565 18.81267 
" style="fill:none;stroke:#1f77b4;stroke-linecap:square;stroke-width:1.5;"/>
   </g>
   <g id="patch_10">
    <path d="M 178.862433 98.88 
L 178.862433 10.8 
" style="fill:none;stroke:#000000;stroke-linecap:square;stroke-linejoin:miter;stroke-width:0.8;"/>
   </g>
   <g id="patch_11">
    <path d="M 450 98.88 
L 450 10.8 
" style="fill:none;stroke:#000000;stroke-linecap:square;stroke-linejoin:miter;stroke-width:0.8;"/>
   </g>
   <g id="patch_12">
    <path d="M 178.862433 98.88 
L 450 98.88 
" style="fill:none;stroke:#000000;stroke-linecap:square;stroke-linejoin:miter;stroke-width:0.8;"/>
   </g>
   <g id="patch_13">
    <path d="M 178.862433 10.8 
L 450 10.8 
" style="fill:none;stroke:#000000;stroke-linecap:square;stroke-linejoin:miter;stroke-width:0.8;"/>
   </g>
   <g id="text_5">
    <!-- Vibration -->
    <g transform="translate(358.922673 52.000469)scale(0.1 -0.1)">
     <defs>
      <path d="M 1831 0 
L 50 4666 
L 709 4666 
L 2188 738 
L 3669 4666 
L 4325 4666 
L 2547 0 
L 1831 0 
z
" id="DejaVuSans-56" transform="scale(0.015625)"/>
      <path d="M 3116 1747 
Q 3116 2381 2855 2742 
Q 2594 3103 2138 3103 
Q 1681 3103 1420 2742 
Q 1159 2381 1159 1747 
Q 1159 1113 1420 752 
Q 1681 391 2138 391 
Q 2594 391 2855 752 
Q 3116 1113 3116 1747 
z
M 1159 2969 
Q 1341 3281 1617 3432 
Q 1894 3584 2278 3584 
Q 2916 3584 3314 3078 
Q 3713 2572 3713 1747 
Q 3713 922 3314 415 
Q 2916 -91 2278 -91 
Q 1894 -91 1617 61 
Q 1341 213 1159 525 
L 1159 0 
L 581 0 
L 581 4863 
L 1159 4863 
L 1159 2969 
z
" id="DejaVuSans-62" transform="scale(0.015625)"/>
      <path d="M 2631 2963 
Q 2534 3019 2420 3045 
Q 2306 3072 2169 3072 
Q 1681 3072 1420 2755 
Q 1159 2438 1159 1844 
L 1159 0 
L 581 0 
L 581 3500 
L 1159 3500 
L 1159 2956 
Q 1341 3275 1631 3429 
Q 1922 3584 2338 3584 
Q 2397 3584 2469 3576 
Q 2541 3569 2628 3553 
L 2631 2963 
z
" id="DejaVuSans-72" transform="scale(0.015625)"/>
      <path d="M 2194 1759 
Q 1497 1759 1228 1600 
Q 959 1441 959 1056 
Q 959 750 1161 570 
Q 1363 391 1709 391 
Q 2188 391 2477 730 
Q 2766 1069 2766 1631 
L 2766 1759 
L 2194 1759 
z
M 3341 1997 
L 3341 0 
L 2766 0 
L 2766 531 
Q 2569 213 2275 61 
Q 1981 -91 1556 -91 
Q 1019 -91 701 211 
Q 384 513 384 1019 
Q 384 1609 779 1909 
Q 1175 2209 1959 2209 
L 2766 2209 
L 2766 2266 
Q 2766 2663 2505 2880 
Q 2244 3097 1772 3097 
Q 1472 3097 1187 3025 
Q 903 2953 641 2809 
L 641 3341 
Q 956 3463 1253 3523 
Q 1550 3584 1831 3584 
Q 2591 3584 2966 3190 
Q 3341 2797 3341 1997 
z
" id="DejaVuSans-61" transform="scale(0.015625)"/>
      <path d="M 3513 2113 
L 3513 0 
L 2938 0 
L 2938 2094 
Q 2938 2591 2744 2837 
Q 2550 3084 2163 3084 
Q 1697 3084 1428 2787 
Q 1159 2491 1159 1978 
L 1159 0 
L 581 0 
L 581 3500 
L 1159 3500 
L 1159 2956 
Q 1366 3272 1645 3428 
Q 1925 3584 2291 3584 
Q 2894 3584 3203 3211 
Q 3513 2838 3513 2113 
z
" id="DejaVuSans-6e" transform="scale(0.015625)"/>
     </defs>
     <use xlink:href="#DejaVuSans-56"/>
     <use x="66.158203" xlink:href="#DejaVuSans-69"/>
     <use x="93.941406" xlink:href="#DejaVuSans-62"/>
     <use x="157.417969" xlink:href="#DejaVuSans-72"/>
     <use x="198.53125" xlink:href="#DejaVuSans-61"/>
     <use x="259.810547" xlink:href="#DejaVuSans-74"/>
     <use x="299.019531" xlink:href="#DejaVuSans-69"/>
     <use x="326.802734" xlink:href="#DejaVuSans-6f"/>
     <use x="387.984375" xlink:href="#DejaVuSans-6e"/>
    </g>
    <!-- Noise -->
    <g transform="translate(367.620329 63.198281)scale(0.1 -0.1)">
     <defs>
      <path d="M 628 4666 
L 1478 4666 
L 3547 763 
L 3547 4666 
L 4159 4666 
L 4159 0 
L 3309 0 
L 1241 3903 
L 1241 0 
L 628 0 
L 628 4666 
z
" id="DejaVuSans-4e" transform="scale(0.015625)"/>
      <path d="M 2834 3397 
L 2834 2853 
Q 2591 2978 2328 3040 
Q 2066 3103 1784 3103 
Q 1356 3103 1142 2972 
Q 928 2841 928 2578 
Q 928 2378 1081 2264 
Q 1234 2150 1697 2047 
L 1894 2003 
Q 2506 1872 2764 1633 
Q 3022 1394 3022 966 
Q 3022 478 2636 193 
Q 2250 -91 1575 -91 
Q 1294 -91 989 -36 
Q 684 19 347 128 
L 347 722 
Q 666 556 975 473 
Q 1284 391 1588 391 
Q 1994 391 2212 530 
Q 2431 669 2431 922 
Q 2431 1156 2273 1281 
Q 2116 1406 1581 1522 
L 1381 1569 
Q 847 1681 609 1914 
Q 372 2147 372 2553 
Q 372 3047 722 3315 
Q 1072 3584 1716 3584 
Q 2034 3584 2315 3537 
Q 2597 3491 2834 3397 
z
" id="DejaVuSans-73" transform="scale(0.015625)"/>
     </defs>
     <use xlink:href="#DejaVuSans-4e"/>
     <use x="74.804688" xlink:href="#DejaVuSans-6f"/>
     <use x="135.986328" xlink:href="#DejaVuSans-69"/>
     <use x="163.769531" xlink:href="#DejaVuSans-73"/>
     <use x="215.869141" xlink:href="#DejaVuSans-65"/>
    </g>
   </g>
  </g>
  <g id="axes_3">
   <g id="patch_14">
    <path d="M 54.11 201.26 
L 162.366391 201.26 
L 162.366391 113.18 
L 54.11 113.18 
z
" style="fill:#ffffff;"/>
   </g>
   <g id="patch_15">
    <path clip-path="url(#p6e6a9c0633)" d="M 141.954412 201.26 
L 141.954412 113.18 
L 157.445646 113.18 
L 157.445646 201.26 
z
" style="fill:#d62728;opacity:0.5;"/>
   </g>
   <g id="matplotlib.axis_5">
    <g id="xtick_10">
     <g id="line2d_16">
      <g>
       <use style="stroke:#000000;stroke-width:0.8;" x="59.030745" xlink:href="#m6f3567912f" y="201.26"/>
      </g>
     </g>
    </g>
    <g id="xtick_11">
     <g id="line2d_17">
      <g>
       <use style="stroke:#000000;stroke-width:0.8;" x="104.593199" xlink:href="#m6f3567912f" y="201.26"/>
      </g>
     </g>
    </g>
    <g id="xtick_12">
     <g id="line2d_18">
      <g>
       <use style="stroke:#000000;stroke-width:0.8;" x="150.155653" xlink:href="#m6f3567912f" y="201.26"/>
      </g>
     </g>
    </g>
   </g>
   <g id="matplotlib.axis_6">
    <g id="ytick_5">
     <g id="line2d_19">
      <g>
       <use style="stroke:#000000;stroke-width:0.8;" x="54.11" xlink:href="#mba7a169d25" y="197.254529"/>
      </g>
     </g>
     <g id="text_6">
      <!-- 0 -->
      <g transform="translate(40.7475 201.053748)scale(0.1 -0.1)">
       <use xlink:href="#DejaVuSans-30"/>
      </g>
     </g>
    </g>
    <g id="ytick_6">
     <g id="line2d_20">
      <g>
       <use style="stroke:#000000;stroke-width:0.8;" x="54.11" xlink:href="#mba7a169d25" y="160.559185"/>
      </g>
     </g>
     <g id="text_7">
      <!-- 2 -->
      <g transform="translate(40.7475 164.358403)scale(0.1 -0.1)">
       <defs>
        <path d="M 1228 531 
L 3431 531 
L 3431 0 
L 469 0 
L 469 531 
Q 828 903 1448 1529 
Q 2069 2156 2228 2338 
Q 2531 2678 2651 2914 
Q 2772 3150 2772 3378 
Q 2772 3750 2511 3984 
Q 2250 4219 1831 4219 
Q 1534 4219 1204 4116 
Q 875 4013 500 3803 
L 500 4441 
Q 881 4594 1212 4672 
Q 1544 4750 1819 4750 
Q 2544 4750 2975 4387 
Q 3406 4025 3406 3419 
Q 3406 3131 3298 2873 
Q 3191 2616 2906 2266 
Q 2828 2175 2409 1742 
Q 1991 1309 1228 531 
z
" id="DejaVuSans-32" transform="scale(0.015625)"/>
       </defs>
       <use xlink:href="#DejaVuSans-32"/>
      </g>
     </g>
    </g>
    <g id="ytick_7">
     <g id="line2d_21">
      <g>
       <use style="stroke:#000000;stroke-width:0.8;" x="54.11" xlink:href="#mba7a169d25" y="123.86384"/>
      </g>
     </g>
     <g id="text_8">
      <!-- 4 -->
      <g transform="translate(40.7475 127.663059)scale(0.1 -0.1)">
       <use xlink:href="#DejaVuSans-34"/>
      </g>
     </g>
    </g>
    <g id="text_9">
     <!-- Width [MHz] -->
     <g transform="translate(34.667812 187.9325)rotate(-90)scale(0.1 -0.1)">
      <defs>
       <path d="M 213 4666 
L 850 4666 
L 1831 722 
L 2809 4666 
L 3519 4666 
L 4500 722 
L 5478 4666 
L 6119 4666 
L 4947 0 
L 4153 0 
L 3169 4050 
L 2175 0 
L 1381 0 
L 213 4666 
z
" id="DejaVuSans-57" transform="scale(0.015625)"/>
       <path d="M 3513 2113 
L 3513 0 
L 2938 0 
L 2938 2094 
Q 2938 2591 2744 2837 
Q 2550 3084 2163 3084 
Q 1697 3084 1428 2787 
Q 1159 2491 1159 1978 
L 1159 0 
L 581 0 
L 581 4863 
L 1159 4863 
L 1159 2956 
Q 1366 3272 1645 3428 
Q 1925 3584 2291 3584 
Q 2894 3584 3203 3211 
Q 3513 2838 3513 2113 
z
" id="DejaVuSans-68" transform="scale(0.015625)"/>
       <path d="M 353 3500 
L 3084 3500 
L 3084 2975 
L 922 459 
L 3084 459 
L 3084 0 
L 275 0 
L 275 525 
L 2438 3041 
L 353 3041 
L 353 3500 
z
" id="DejaVuSans-7a" transform="scale(0.015625)"/>
      </defs>
      <use xlink:href="#DejaVuSans-57"/>
      <use x="96.626953" xlink:href="#DejaVuSans-69"/>
      <use x="124.410156" xlink:href="#DejaVuSans-64"/>
      <use x="187.886719" xlink:href="#DejaVuSans-74"/>
      <use x="227.095703" xlink:href="#DejaVuSans-68"/>
      <use x="290.474609" xlink:href="#DejaVuSans-20"/>
      <use x="322.261719" xlink:href="#DejaVuSans-5b"/>
      <use x="361.275391" xlink:href="#DejaVuSans-4d"/>
      <use x="447.554688" xlink:href="#DejaVuSans-48"/>
      <use x="522.75" xlink:href="#DejaVuSans-7a"/>
      <use x="575.240234" xlink:href="#DejaVuSans-5d"/>
     </g>
    </g>
   </g>
   <g id="line2d_22">
    <path clip-path="url(#p6e6a9c0633)" d="M 59.030745 151.499728 
L 59.941994 144.636524 
L 60.853243 153.787481 
L 61.764492 149.211993 
L 62.675741 149.211993 
L 63.58699 151.499728 
L 64.49824 151.499728 
L 65.409489 146.924259 
L 66.320738 149.211993 
L 67.231987 162.938437 
L 68.143236 158.36295 
L 69.054485 146.924259 
L 69.965734 158.36295 
L 70.876983 153.787481 
L 71.788232 153.787481 
L 72.699481 162.938437 
L 73.61073 144.636524 
L 74.521979 153.787481 
L 75.433229 146.924259 
L 76.344478 144.636524 
L 77.255727 151.499728 
L 78.166976 156.075215 
L 79.078225 142.348771 
L 79.989474 130.91008 
L 80.900723 149.211993 
L 81.811972 146.924259 
L 82.723221 156.075215 
L 83.63447 146.924259 
L 84.545719 158.36295 
L 85.456968 151.499728 
L 86.368218 146.924259 
L 87.279467 151.499728 
L 88.190716 144.636524 
L 89.101965 153.787481 
L 90.013214 140.061037 
L 90.924463 151.499728 
L 91.835712 153.787481 
L 92.746961 153.787481 
L 93.65821 153.787481 
L 94.569459 158.36295 
L 95.480708 160.650703 
L 96.391957 158.36295 
L 97.303207 144.636524 
L 98.214456 153.787481 
L 99.125705 144.636524 
L 100.036954 167.513906 
L 100.948203 142.348771 
L 101.859452 169.801659 
L 102.770701 153.787481 
L 103.68195 160.650703 
L 104.593199 149.211993 
L 105.504448 146.924259 
L 106.415697 144.636524 
L 107.326946 158.36295 
L 108.238196 160.650703 
L 109.149445 142.348771 
L 110.060694 158.36295 
L 110.971943 160.650703 
L 111.883192 151.499728 
L 112.794441 146.924259 
L 113.70569 158.36295 
L 114.616939 151.499728 
L 115.528188 156.075215 
L 116.439437 156.075215 
L 117.350686 153.787481 
L 118.261935 158.36295 
L 119.173185 149.211993 
L 120.084434 160.650703 
L 120.995683 144.636524 
L 121.906932 151.499728 
L 122.818181 165.226172 
L 123.72943 140.061037 
L 124.640679 135.485549 
L 125.551928 149.211993 
L 126.463177 162.938437 
L 127.374426 149.211993 
L 128.285675 153.787481 
L 129.196924 153.787481 
L 130.108174 156.075215 
L 131.019423 146.924259 
L 131.930672 153.787481 
L 132.841921 149.211993 
L 133.75317 160.650703 
L 134.664419 146.924259 
L 135.575668 144.636524 
L 136.486917 158.36295 
L 137.398166 144.636524 
L 138.309415 151.499728 
L 139.220664 158.36295 
L 140.131913 149.211993 
L 141.043163 160.650703 
L 141.954412 153.787481 
L 142.865661 197.256364 
L 143.77691 197.256364 
L 144.688159 197.256364 
L 145.599408 197.256364 
L 146.510657 197.256364 
L 147.421906 197.256364 
L 148.333155 197.256364 
L 149.244404 197.256364 
L 150.155653 197.256364 
L 151.066902 197.256364 
L 151.978152 197.256364 
L 152.889401 197.256364 
L 153.80065 197.256364 
L 154.711899 197.256364 
L 155.623148 197.256364 
L 156.534397 197.256364 
L 157.445646 197.256364 
" style="fill:none;stroke:#1f77b4;stroke-linecap:square;stroke-width:1.5;"/>
   </g>
   <g id="patch_16">
    <path d="M 54.11 201.26 
L 54.11 113.18 
" style="fill:none;stroke:#000000;stroke-linecap:square;stroke-linejoin:miter;stroke-width:0.8;"/>
   </g>
   <g id="patch_17">
    <path d="M 162.366391 201.26 
L 162.366391 113.18 
" style="fill:none;stroke:#000000;stroke-linecap:square;stroke-linejoin:miter;stroke-width:0.8;"/>
   </g>
   <g id="patch_18">
    <path d="M 54.11 201.26 
L 162.366391 201.26 
" style="fill:none;stroke:#000000;stroke-linecap:square;stroke-linejoin:miter;stroke-width:0.8;"/>
   </g>
   <g id="patch_19">
    <path d="M 54.11 113.18 
L 162.366391 113.18 
" style="fill:none;stroke:#000000;stroke-linecap:square;stroke-linejoin:miter;stroke-width:0.8;"/>
   </g>
  </g>
  <g id="axes_4">
   <g id="patch_20">
    <path d="M 178.862433 201.26 
L 450 201.26 
L 450 113.18 
L 178.862433 113.18 
z
" style="fill:#ffffff;"/>
   </g>
   <g id="patch_21">
    <path clip-path="url(#pc1a8fea812)" d="M 325.305718 201.26 
L 325.305718 113.18 
L 437.675565 113.18 
L 437.675565 201.26 
z
" style="fill:#ff7f0e;opacity:0.5;"/>
   </g>
   <g id="matplotlib.axis_7">
    <g id="xtick_13">
     <g id="line2d_23">
      <g>
       <use style="stroke:#000000;stroke-width:0.8;" x="191.186868" xlink:href="#m6f3567912f" y="201.26"/>
      </g>
     </g>
    </g>
    <g id="xtick_14">
     <g id="line2d_24">
      <g>
       <use style="stroke:#000000;stroke-width:0.8;" x="236.49729" xlink:href="#m6f3567912f" y="201.26"/>
      </g>
     </g>
    </g>
    <g id="xtick_15">
     <g id="line2d_25">
      <g>
       <use style="stroke:#000000;stroke-width:0.8;" x="281.807713" xlink:href="#m6f3567912f" y="201.26"/>
      </g>
     </g>
    </g>
    <g id="xtick_16">
     <g id="line2d_26">
      <g>
       <use style="stroke:#000000;stroke-width:0.8;" x="327.118135" xlink:href="#m6f3567912f" y="201.26"/>
      </g>
     </g>
    </g>
    <g id="xtick_17">
     <g id="line2d_27">
      <g>
       <use style="stroke:#000000;stroke-width:0.8;" x="372.428557" xlink:href="#m6f3567912f" y="201.26"/>
      </g>
     </g>
    </g>
    <g id="xtick_18">
     <g id="line2d_28">
      <g>
       <use style="stroke:#000000;stroke-width:0.8;" x="417.738979" xlink:href="#m6f3567912f" y="201.26"/>
      </g>
     </g>
    </g>
   </g>
   <g id="matplotlib.axis_8">
    <g id="ytick_8">
     <g id="line2d_29">
      <g>
       <use style="stroke:#000000;stroke-width:0.8;" x="178.862433" xlink:href="#mba7a169d25" y="197.254529"/>
      </g>
     </g>
    </g>
    <g id="ytick_9">
     <g id="line2d_30">
      <g>
       <use style="stroke:#000000;stroke-width:0.8;" x="178.862433" xlink:href="#mba7a169d25" y="160.559185"/>
      </g>
     </g>
    </g>
    <g id="ytick_10">
     <g id="line2d_31">
      <g>
       <use style="stroke:#000000;stroke-width:0.8;" x="178.862433" xlink:href="#mba7a169d25" y="123.86384"/>
      </g>
     </g>
    </g>
   </g>
   <g id="line2d_32">
    <path clip-path="url(#pc1a8fea812)" d="M 191.186868 140.061037 
L 192.093077 146.924259 
L 192.999285 149.211993 
L 193.905493 162.938437 
L 194.811702 149.211993 
L 195.71791 142.348771 
L 196.624119 149.211993 
L 197.530327 144.636524 
L 198.436536 153.787481 
L 199.342744 146.924259 
L 200.248953 149.211993 
L 201.155161 149.211993 
L 202.061369 137.773302 
L 202.967578 165.226172 
L 203.873786 149.211993 
L 205.686203 149.211993 
L 206.592412 137.773302 
L 207.49862 128.622346 
L 208.404829 144.636524 
L 210.217245 158.36295 
L 211.123454 153.787481 
L 212.029662 133.197815 
L 213.842079 156.075215 
L 214.748288 149.211993 
L 216.560705 153.787481 
L 217.466913 135.485549 
L 218.373121 142.348771 
L 219.27933 135.485549 
L 220.185538 153.787481 
L 221.997955 144.636524 
L 222.904164 144.636524 
L 223.810372 142.348771 
L 226.528997 142.348771 
L 227.435206 149.211993 
L 228.341414 137.773302 
L 229.247623 146.924259 
L 230.153831 130.91008 
L 231.06004 142.348771 
L 232.872457 151.499728 
L 233.778665 149.211993 
L 234.684873 158.36295 
L 235.591082 144.636524 
L 236.49729 135.485549 
L 237.403499 140.061037 
L 238.309707 149.211993 
L 239.215916 144.636524 
L 240.122124 151.499728 
L 241.028333 142.348771 
L 241.934541 144.636524 
L 242.840749 137.773302 
L 243.746958 156.075215 
L 244.653166 151.499728 
L 245.559375 151.499728 
L 246.465583 144.636524 
L 247.371792 146.924259 
L 248.278 146.924259 
L 249.184209 153.787481 
L 250.090417 149.211993 
L 250.996625 137.773302 
L 251.902834 146.924259 
L 252.809042 135.485549 
L 253.715251 153.787481 
L 254.621459 160.650703 
L 255.527668 144.636524 
L 256.433876 151.499728 
L 257.340085 146.924259 
L 258.246293 146.924259 
L 259.152501 144.636524 
L 260.05871 146.924259 
L 260.964918 156.075215 
L 261.871127 135.485549 
L 262.777335 156.075215 
L 263.683544 146.924259 
L 264.589752 149.211993 
L 265.495961 144.636524 
L 266.402169 146.924259 
L 267.308377 130.91008 
L 268.214586 146.924259 
L 269.120794 124.046858 
L 270.027003 153.787481 
L 270.933211 158.36295 
L 271.83942 144.636524 
L 272.745628 158.36295 
L 273.651837 144.636524 
L 274.558045 146.924259 
L 275.464253 140.061037 
L 276.370462 151.499728 
L 277.27667 151.499728 
L 278.182879 130.91008 
L 279.089087 128.622346 
L 279.995296 149.211993 
L 280.901504 140.061037 
L 281.807713 149.211993 
L 282.713921 156.075215 
L 284.526338 151.499728 
L 285.432546 130.91008 
L 286.338755 135.485549 
L 288.151172 162.938437 
L 289.05738 149.211993 
L 289.963589 181.24035 
L 290.869797 153.787481 
L 291.776005 156.075215 
L 293.588422 142.348771 
L 294.494631 151.499728 
L 295.400839 144.636524 
L 296.307048 151.499728 
L 297.213256 144.636524 
L 298.119465 176.664863 
L 299.025673 137.773302 
L 299.931881 149.211993 
L 300.83809 153.787481 
L 301.744298 149.211993 
L 302.650507 140.061037 
L 303.556715 142.348771 
L 304.462924 149.211993 
L 305.369132 137.773302 
L 306.275341 149.211993 
L 308.087757 158.36295 
L 308.993966 144.636524 
L 309.900174 135.485549 
L 310.806383 144.636524 
L 311.712591 144.636524 
L 312.6188 146.924259 
L 313.525008 135.485549 
L 314.431217 140.061037 
L 315.337425 160.650703 
L 316.243633 160.650703 
L 317.149842 140.061037 
L 318.05605 146.924259 
L 318.962259 158.36295 
L 319.868467 156.075215 
L 320.774676 151.499728 
L 321.680884 162.938437 
L 322.587093 144.636524 
L 323.493301 137.773302 
L 324.39951 142.348771 
L 325.305718 144.636524 
L 326.211926 149.211993 
L 327.118135 190.391307 
L 328.024343 140.061037 
L 328.930552 146.924259 
L 329.83676 165.226172 
L 330.742969 146.924259 
L 331.649177 142.348771 
L 332.555386 190.391307 
L 333.461594 130.91008 
L 334.367802 190.391307 
L 335.274011 140.061037 
L 336.180219 117.183636 
L 337.086428 146.924259 
L 337.992636 158.36295 
L 338.898845 144.636524 
L 339.805053 165.226172 
L 340.711262 190.391307 
L 341.61747 142.348771 
L 342.523678 172.089394 
L 343.429887 144.636524 
L 344.336095 151.499728 
L 345.242304 192.679041 
L 346.148512 144.636524 
L 347.054721 190.391307 
L 347.960929 135.485549 
L 348.867138 185.815838 
L 349.773346 190.391307 
L 350.679554 151.499728 
L 351.585763 144.636524 
L 352.491971 190.391307 
L 353.39818 151.499728 
L 356.116805 151.499728 
L 357.023014 153.787481 
L 357.929222 140.061037 
L 358.83543 151.499728 
L 359.741639 185.815838 
L 360.647847 162.938437 
L 361.554056 190.391307 
L 362.460264 165.226172 
L 363.366473 144.636524 
L 364.272681 192.679041 
L 365.17889 158.36295 
L 366.085098 153.787481 
L 367.897515 190.391307 
L 368.803723 144.636524 
L 369.709932 192.679041 
L 370.61614 190.391307 
L 371.522349 140.061037 
L 372.428557 192.679041 
L 373.334766 185.815838 
L 374.240974 167.513906 
L 375.147182 144.636524 
L 376.053391 192.679041 
L 376.959599 183.528085 
L 377.865808 144.636524 
L 378.772016 190.391307 
L 379.678225 151.499728 
L 380.584433 176.664863 
L 381.490642 190.391307 
L 382.39685 158.36295 
L 383.303058 190.391307 
L 384.209267 140.061037 
L 385.115475 190.391307 
L 386.021684 183.528085 
L 386.927892 190.391307 
L 387.834101 144.636524 
L 388.740309 149.211993 
L 389.646518 172.089394 
L 390.552726 149.211993 
L 391.458934 144.636524 
L 392.365143 144.636524 
L 393.271351 162.938437 
L 394.17756 160.650703 
L 395.083768 117.183636 
L 395.989977 144.636524 
L 396.896185 144.636524 
L 397.802394 165.226172 
L 398.708602 153.787481 
L 399.61481 130.91008 
L 400.521019 185.815838 
L 401.427227 156.075215 
L 402.333436 190.391307 
L 403.239644 156.075215 
L 404.145853 140.061037 
L 405.052061 144.636524 
L 405.95827 183.528085 
L 406.864478 144.636524 
L 407.770686 149.211993 
L 408.676895 151.499728 
L 409.583103 146.924259 
L 410.489312 144.636524 
L 411.39552 144.636524 
L 412.301729 151.499728 
L 413.207937 144.636524 
L 414.114146 135.485549 
L 415.020354 190.391307 
L 415.926562 151.499728 
L 416.832771 151.499728 
L 417.738979 140.061037 
L 418.645188 140.061037 
L 419.551396 156.075215 
L 420.457605 153.787481 
L 421.363813 156.075215 
L 422.270022 151.499728 
L 424.082438 151.499728 
L 424.988647 192.679041 
L 425.894855 151.499728 
L 426.801064 151.499728 
L 427.707272 160.650703 
L 428.613481 146.924259 
L 429.519689 185.815838 
L 430.425898 124.046858 
L 431.332106 174.377128 
L 432.238314 176.664863 
L 433.144523 165.226172 
L 434.050731 176.664863 
L 434.95694 185.815838 
L 435.863148 144.636524 
L 436.769357 160.650703 
L 437.675565 158.36295 
L 437.675565 158.36295 
" style="fill:none;stroke:#1f77b4;stroke-linecap:square;stroke-width:1.5;"/>
   </g>
   <g id="patch_22">
    <path d="M 178.862433 201.26 
L 178.862433 113.18 
" style="fill:none;stroke:#000000;stroke-linecap:square;stroke-linejoin:miter;stroke-width:0.8;"/>
   </g>
   <g id="patch_23">
    <path d="M 450 201.26 
L 450 113.18 
" style="fill:none;stroke:#000000;stroke-linecap:square;stroke-linejoin:miter;stroke-width:0.8;"/>
   </g>
   <g id="patch_24">
    <path d="M 178.862433 201.26 
L 450 201.26 
" style="fill:none;stroke:#000000;stroke-linecap:square;stroke-linejoin:miter;stroke-width:0.8;"/>
   </g>
   <g id="patch_25">
    <path d="M 178.862433 113.18 
L 450 113.18 
" style="fill:none;stroke:#000000;stroke-linecap:square;stroke-linejoin:miter;stroke-width:0.8;"/>
   </g>
  </g>
  <g id="axes_5">
   <g id="patch_26">
    <path d="M 54.11 303.64 
L 162.366391 303.64 
L 162.366391 215.56 
L 54.11 215.56 
z
" style="fill:#ffffff;"/>
   </g>
   <g id="patch_27">
    <path clip-path="url(#p106919e964)" d="M 141.954412 303.64 
L 141.954412 215.56 
L 157.445646 215.56 
L 157.445646 303.64 
z
" style="fill:#d62728;opacity:0.5;"/>
   </g>
   <g id="matplotlib.axis_9">
    <g id="xtick_19">
     <g id="line2d_33">
      <g>
       <use style="stroke:#000000;stroke-width:0.8;" x="59.030745" xlink:href="#m6f3567912f" y="303.64"/>
      </g>
     </g>
     <g id="text_10">
      <!-- 0 -->
      <g transform="translate(55.849495 318.238437)scale(0.1 -0.1)">
       <use xlink:href="#DejaVuSans-30"/>
      </g>
     </g>
    </g>
    <g id="xtick_20">
     <g id="line2d_34">
      <g>
       <use style="stroke:#000000;stroke-width:0.8;" x="104.593199" xlink:href="#m6f3567912f" y="303.64"/>
      </g>
     </g>
     <g id="text_11">
      <!-- 500 -->
      <g transform="translate(95.049449 318.238437)scale(0.1 -0.1)">
       <defs>
        <path d="M 691 4666 
L 3169 4666 
L 3169 4134 
L 1269 4134 
L 1269 2991 
Q 1406 3038 1543 3061 
Q 1681 3084 1819 3084 
Q 2600 3084 3056 2656 
Q 3513 2228 3513 1497 
Q 3513 744 3044 326 
Q 2575 -91 1722 -91 
Q 1428 -91 1123 -41 
Q 819 9 494 109 
L 494 744 
Q 775 591 1075 516 
Q 1375 441 1709 441 
Q 2250 441 2565 725 
Q 2881 1009 2881 1497 
Q 2881 1984 2565 2268 
Q 2250 2553 1709 2553 
Q 1456 2553 1204 2497 
Q 953 2441 691 2322 
L 691 4666 
z
" id="DejaVuSans-35" transform="scale(0.015625)"/>
       </defs>
       <use xlink:href="#DejaVuSans-35"/>
       <use x="63.623047" xlink:href="#DejaVuSans-30"/>
       <use x="127.246094" xlink:href="#DejaVuSans-30"/>
      </g>
     </g>
    </g>
    <g id="xtick_21">
     <g id="line2d_35">
      <g>
       <use style="stroke:#000000;stroke-width:0.8;" x="150.155653" xlink:href="#m6f3567912f" y="303.64"/>
      </g>
     </g>
     <g id="text_12">
      <!-- 1000 -->
      <g transform="translate(137.430653 318.238437)scale(0.1 -0.1)">
       <defs>
        <path d="M 794 531 
L 1825 531 
L 1825 4091 
L 703 3866 
L 703 4441 
L 1819 4666 
L 2450 4666 
L 2450 531 
L 3481 531 
L 3481 0 
L 794 0 
L 794 531 
z
" id="DejaVuSans-31" transform="scale(0.015625)"/>
       </defs>
       <use xlink:href="#DejaVuSans-31"/>
       <use x="63.623047" xlink:href="#DejaVuSans-30"/>
       <use x="127.246094" xlink:href="#DejaVuSans-30"/>
       <use x="190.869141" xlink:href="#DejaVuSans-30"/>
      </g>
     </g>
    </g>
   </g>
   <g id="matplotlib.axis_10">
    <g id="ytick_11">
     <g id="line2d_36">
      <g>
       <use style="stroke:#000000;stroke-width:0.8;" x="54.11" xlink:href="#mba7a169d25" y="290.953779"/>
      </g>
     </g>
     <g id="text_13">
      <!-- 4.98 -->
      <g transform="translate(24.844375 294.752998)scale(0.1 -0.1)">
       <defs>
        <path d="M 684 794 
L 1344 794 
L 1344 0 
L 684 0 
L 684 794 
z
" id="DejaVuSans-2e" transform="scale(0.015625)"/>
        <path d="M 703 97 
L 703 672 
Q 941 559 1184 500 
Q 1428 441 1663 441 
Q 2288 441 2617 861 
Q 2947 1281 2994 2138 
Q 2813 1869 2534 1725 
Q 2256 1581 1919 1581 
Q 1219 1581 811 2004 
Q 403 2428 403 3163 
Q 403 3881 828 4315 
Q 1253 4750 1959 4750 
Q 2769 4750 3195 4129 
Q 3622 3509 3622 2328 
Q 3622 1225 3098 567 
Q 2575 -91 1691 -91 
Q 1453 -91 1209 -44 
Q 966 3 703 97 
z
M 1959 2075 
Q 2384 2075 2632 2365 
Q 2881 2656 2881 3163 
Q 2881 3666 2632 3958 
Q 2384 4250 1959 4250 
Q 1534 4250 1286 3958 
Q 1038 3666 1038 3163 
Q 1038 2656 1286 2365 
Q 1534 2075 1959 2075 
z
" id="DejaVuSans-39" transform="scale(0.015625)"/>
        <path d="M 2034 2216 
Q 1584 2216 1326 1975 
Q 1069 1734 1069 1313 
Q 1069 891 1326 650 
Q 1584 409 2034 409 
Q 2484 409 2743 651 
Q 3003 894 3003 1313 
Q 3003 1734 2745 1975 
Q 2488 2216 2034 2216 
z
M 1403 2484 
Q 997 2584 770 2862 
Q 544 3141 544 3541 
Q 544 4100 942 4425 
Q 1341 4750 2034 4750 
Q 2731 4750 3128 4425 
Q 3525 4100 3525 3541 
Q 3525 3141 3298 2862 
Q 3072 2584 2669 2484 
Q 3125 2378 3379 2068 
Q 3634 1759 3634 1313 
Q 3634 634 3220 271 
Q 2806 -91 2034 -91 
Q 1263 -91 848 271 
Q 434 634 434 1313 
Q 434 1759 690 2068 
Q 947 2378 1403 2484 
z
M 1172 3481 
Q 1172 3119 1398 2916 
Q 1625 2713 2034 2713 
Q 2441 2713 2670 2916 
Q 2900 3119 2900 3481 
Q 2900 3844 2670 4047 
Q 2441 4250 2034 4250 
Q 1625 4250 1398 4047 
Q 1172 3844 1172 3481 
z
" id="DejaVuSans-38" transform="scale(0.015625)"/>
       </defs>
       <use xlink:href="#DejaVuSans-34"/>
       <use x="63.623047" xlink:href="#DejaVuSans-2e"/>
       <use x="95.410156" xlink:href="#DejaVuSans-39"/>
       <use x="159.033203" xlink:href="#DejaVuSans-38"/>
      </g>
     </g>
    </g>
    <g id="ytick_12">
     <g id="line2d_37">
      <g>
       <use style="stroke:#000000;stroke-width:0.8;" x="54.11" xlink:href="#mba7a169d25" y="252.364513"/>
      </g>
     </g>
     <g id="text_14">
      <!-- 5.00 -->
      <g transform="translate(24.844375 256.163731)scale(0.1 -0.1)">
       <use xlink:href="#DejaVuSans-35"/>
       <use x="63.623047" xlink:href="#DejaVuSans-2e"/>
       <use x="95.410156" xlink:href="#DejaVuSans-30"/>
       <use x="159.033203" xlink:href="#DejaVuSans-30"/>
      </g>
     </g>
    </g>
    <g id="text_15">
     <!-- Peak [GHz] -->
     <g transform="translate(18.764688 287.21875)rotate(-90)scale(0.1 -0.1)">
      <defs>
       <path d="M 1259 4147 
L 1259 2394 
L 2053 2394 
Q 2494 2394 2734 2622 
Q 2975 2850 2975 3272 
Q 2975 3691 2734 3919 
Q 2494 4147 2053 4147 
L 1259 4147 
z
M 628 4666 
L 2053 4666 
Q 2838 4666 3239 4311 
Q 3641 3956 3641 3272 
Q 3641 2581 3239 2228 
Q 2838 1875 2053 1875 
L 1259 1875 
L 1259 0 
L 628 0 
L 628 4666 
z
" id="DejaVuSans-50" transform="scale(0.015625)"/>
       <path d="M 581 4863 
L 1159 4863 
L 1159 1991 
L 2875 3500 
L 3609 3500 
L 1753 1863 
L 3688 0 
L 2938 0 
L 1159 1709 
L 1159 0 
L 581 0 
L 581 4863 
z
" id="DejaVuSans-6b" transform="scale(0.015625)"/>
       <path d="M 3809 666 
L 3809 1919 
L 2778 1919 
L 2778 2438 
L 4434 2438 
L 4434 434 
Q 4069 175 3628 42 
Q 3188 -91 2688 -91 
Q 1594 -91 976 548 
Q 359 1188 359 2328 
Q 359 3472 976 4111 
Q 1594 4750 2688 4750 
Q 3144 4750 3555 4637 
Q 3966 4525 4313 4306 
L 4313 3634 
Q 3963 3931 3569 4081 
Q 3175 4231 2741 4231 
Q 1884 4231 1454 3753 
Q 1025 3275 1025 2328 
Q 1025 1384 1454 906 
Q 1884 428 2741 428 
Q 3075 428 3337 486 
Q 3600 544 3809 666 
z
" id="DejaVuSans-47" transform="scale(0.015625)"/>
      </defs>
      <use xlink:href="#DejaVuSans-50"/>
      <use x="56.677734" xlink:href="#DejaVuSans-65"/>
      <use x="118.201172" xlink:href="#DejaVuSans-61"/>
      <use x="179.480469" xlink:href="#DejaVuSans-6b"/>
      <use x="237.390625" xlink:href="#DejaVuSans-20"/>
      <use x="269.177734" xlink:href="#DejaVuSans-5b"/>
      <use x="308.191406" xlink:href="#DejaVuSans-47"/>
      <use x="385.681641" xlink:href="#DejaVuSans-48"/>
      <use x="460.876953" xlink:href="#DejaVuSans-7a"/>
      <use x="513.367188" xlink:href="#DejaVuSans-5d"/>
     </g>
    </g>
   </g>
   <g id="line2d_38">
    <path clip-path="url(#p106919e964)" d="M 59.030745 253.570427 
L 59.941994 252.364513 
L 60.853243 251.399781 
L 61.764492 253.81161 
L 62.675741 252.846878 
L 63.58699 250.917415 
L 64.49824 252.605696 
L 65.409489 251.640964 
L 66.320738 252.12333 
L 67.231987 253.088061 
L 68.143236 252.846878 
L 69.054485 253.570427 
L 69.965734 254.052793 
L 70.876983 252.605696 
L 71.788232 252.605696 
L 72.699481 252.364513 
L 73.61073 250.917415 
L 74.521979 251.399781 
L 75.433229 252.605696 
L 76.344478 251.882147 
L 77.255727 253.329244 
L 78.166976 253.088061 
L 79.078225 251.640964 
L 79.989474 251.640964 
L 80.900723 252.846878 
L 81.811972 252.12333 
L 82.723221 253.81161 
L 83.63447 253.329244 
L 84.545719 253.570427 
L 85.456968 251.399781 
L 86.368218 252.605696 
L 87.279467 251.640964 
L 88.190716 252.364513 
L 89.101965 250.917415 
L 90.013214 254.293976 
L 90.924463 251.640964 
L 91.835712 252.12333 
L 92.746961 252.846878 
L 93.65821 252.605696 
L 94.569459 254.293976 
L 95.480708 251.399781 
L 96.391957 252.364513 
L 97.303207 252.846878 
L 98.214456 254.293976 
L 99.125705 251.399781 
L 100.036954 253.329244 
L 100.948203 253.329244 
L 101.859452 252.364513 
L 102.770701 251.399781 
L 103.68195 253.570427 
L 104.593199 251.399781 
L 105.504448 253.81161 
L 106.415697 251.882147 
L 107.326946 252.605696 
L 108.238196 252.12333 
L 109.149445 254.052793 
L 110.060694 254.293976 
L 110.971943 254.293976 
L 111.883192 251.158598 
L 112.794441 253.329244 
L 113.70569 251.882147 
L 114.616939 253.81161 
L 115.528188 253.570427 
L 116.439437 251.640964 
L 117.350686 251.882147 
L 118.261935 253.088061 
L 119.173185 254.535159 
L 120.084434 253.329244 
L 120.995683 251.158598 
L 121.906932 253.570427 
L 122.818181 253.088061 
L 123.72943 252.846878 
L 124.640679 251.882147 
L 125.551928 252.364513 
L 126.463177 252.12333 
L 127.374426 252.364513 
L 128.285675 251.882147 
L 129.196924 249.952683 
L 130.108174 251.399781 
L 131.019423 252.364513 
L 131.930672 251.399781 
L 132.841921 252.605696 
L 133.75317 250.917415 
L 134.664419 251.640964 
L 135.575668 253.329244 
L 136.486917 253.088061 
L 137.398166 253.088061 
L 138.309415 252.364513 
L 139.220664 251.158598 
L 140.131913 254.052793 
L 141.043163 253.088061 
L 141.954412 252.846878 
L 142.865661 273.588609 
L 143.77691 268.282585 
L 144.688159 280.582913 
L 145.599408 256.223439 
L 146.510657 234.516977 
L 147.421906 293.124425 
L 148.333155 282.271194 
L 149.244404 250.435049 
L 150.155653 246.576123 
L 151.066902 271.900329 
L 151.978152 267.07667 
L 152.889401 258.394085 
L 153.80065 231.381599 
L 154.711899 219.563636 
L 155.623148 253.088061 
L 156.534397 253.329244 
L 157.445646 299.636364 
" style="fill:none;stroke:#1f77b4;stroke-linecap:square;stroke-width:1.5;"/>
   </g>
   <g id="patch_28">
    <path d="M 54.11 303.64 
L 54.11 215.56 
" style="fill:none;stroke:#000000;stroke-linecap:square;stroke-linejoin:miter;stroke-width:0.8;"/>
   </g>
   <g id="patch_29">
    <path d="M 162.366391 303.64 
L 162.366391 215.56 
" style="fill:none;stroke:#000000;stroke-linecap:square;stroke-linejoin:miter;stroke-width:0.8;"/>
   </g>
   <g id="patch_30">
    <path d="M 54.11 303.64 
L 162.366391 303.64 
" style="fill:none;stroke:#000000;stroke-linecap:square;stroke-linejoin:miter;stroke-width:0.8;"/>
   </g>
   <g id="patch_31">
    <path d="M 54.11 215.56 
L 162.366391 215.56 
" style="fill:none;stroke:#000000;stroke-linecap:square;stroke-linejoin:miter;stroke-width:0.8;"/>
   </g>
  </g>
  <g id="axes_6">
   <g id="patch_32">
    <path d="M 178.862433 303.64 
L 450 303.64 
L 450 215.56 
L 178.862433 215.56 
z
" style="fill:#ffffff;"/>
   </g>
   <g id="patch_33">
    <path clip-path="url(#pb93a8d9746)" d="M 325.305718 303.64 
L 325.305718 215.56 
L 437.675565 215.56 
L 437.675565 303.64 
z
" style="fill:#ff7f0e;opacity:0.5;"/>
   </g>
   <g id="matplotlib.axis_11">
    <g id="xtick_22">
     <g id="line2d_39">
      <g>
       <use style="stroke:#000000;stroke-width:0.8;" x="191.186868" xlink:href="#m6f3567912f" y="303.64"/>
      </g>
     </g>
     <g id="text_16">
      <!-- 0 -->
      <g transform="translate(188.005618 318.238437)scale(0.1 -0.1)">
       <use xlink:href="#DejaVuSans-30"/>
      </g>
     </g>
    </g>
    <g id="xtick_23">
     <g id="line2d_40">
      <g>
       <use style="stroke:#000000;stroke-width:0.8;" x="236.49729" xlink:href="#m6f3567912f" y="303.64"/>
      </g>
     </g>
     <g id="text_17">
      <!-- 500 -->
      <g transform="translate(226.95354 318.238437)scale(0.1 -0.1)">
       <use xlink:href="#DejaVuSans-35"/>
       <use x="63.623047" xlink:href="#DejaVuSans-30"/>
       <use x="127.246094" xlink:href="#DejaVuSans-30"/>
      </g>
     </g>
    </g>
    <g id="xtick_24">
     <g id="line2d_41">
      <g>
       <use style="stroke:#000000;stroke-width:0.8;" x="281.807713" xlink:href="#m6f3567912f" y="303.64"/>
      </g>
     </g>
     <g id="text_18">
      <!-- 1000 -->
      <g transform="translate(269.082713 318.238437)scale(0.1 -0.1)">
       <use xlink:href="#DejaVuSans-31"/>
       <use x="63.623047" xlink:href="#DejaVuSans-30"/>
       <use x="127.246094" xlink:href="#DejaVuSans-30"/>
       <use x="190.869141" xlink:href="#DejaVuSans-30"/>
      </g>
     </g>
    </g>
    <g id="xtick_25">
     <g id="line2d_42">
      <g>
       <use style="stroke:#000000;stroke-width:0.8;" x="327.118135" xlink:href="#m6f3567912f" y="303.64"/>
      </g>
     </g>
     <g id="text_19">
      <!-- 1500 -->
      <g transform="translate(314.393135 318.238437)scale(0.1 -0.1)">
       <use xlink:href="#DejaVuSans-31"/>
       <use x="63.623047" xlink:href="#DejaVuSans-35"/>
       <use x="127.246094" xlink:href="#DejaVuSans-30"/>
       <use x="190.869141" xlink:href="#DejaVuSans-30"/>
      </g>
     </g>
    </g>
    <g id="xtick_26">
     <g id="line2d_43">
      <g>
       <use style="stroke:#000000;stroke-width:0.8;" x="372.428557" xlink:href="#m6f3567912f" y="303.64"/>
      </g>
     </g>
     <g id="text_20">
      <!-- 2000 -->
      <g transform="translate(359.703557 318.238437)scale(0.1 -0.1)">
       <use xlink:href="#DejaVuSans-32"/>
       <use x="63.623047" xlink:href="#DejaVuSans-30"/>
       <use x="127.246094" xlink:href="#DejaVuSans-30"/>
       <use x="190.869141" xlink:href="#DejaVuSans-30"/>
      </g>
     </g>
    </g>
    <g id="xtick_27">
     <g id="line2d_44">
      <g>
       <use style="stroke:#000000;stroke-width:0.8;" x="417.738979" xlink:href="#m6f3567912f" y="303.64"/>
      </g>
     </g>
     <g id="text_21">
      <!-- 2500 -->
      <g transform="translate(405.013979 318.238437)scale(0.1 -0.1)">
       <use xlink:href="#DejaVuSans-32"/>
       <use x="63.623047" xlink:href="#DejaVuSans-35"/>
       <use x="127.246094" xlink:href="#DejaVuSans-30"/>
       <use x="190.869141" xlink:href="#DejaVuSans-30"/>
      </g>
     </g>
    </g>
    <g id="text_22">
     <!-- Time [s] -->
     <g transform="translate(226.317919 331.916562)scale(0.1 -0.1)">
      <defs>
       <path d="M -19 4666 
L 3928 4666 
L 3928 4134 
L 2272 4134 
L 2272 0 
L 1638 0 
L 1638 4134 
L -19 4134 
L -19 4666 
z
" id="DejaVuSans-54" transform="scale(0.015625)"/>
      </defs>
      <use xlink:href="#DejaVuSans-54"/>
      <use x="57.958984" xlink:href="#DejaVuSans-69"/>
      <use x="85.742188" xlink:href="#DejaVuSans-6d"/>
      <use x="183.154297" xlink:href="#DejaVuSans-65"/>
      <use x="244.677734" xlink:href="#DejaVuSans-20"/>
      <use x="276.464844" xlink:href="#DejaVuSans-5b"/>
      <use x="315.478516" xlink:href="#DejaVuSans-73"/>
      <use x="367.578125" xlink:href="#DejaVuSans-5d"/>
     </g>
    </g>
   </g>
   <g id="matplotlib.axis_12">
    <g id="ytick_13">
     <g id="line2d_45">
      <g>
       <use style="stroke:#000000;stroke-width:0.8;" x="178.862433" xlink:href="#mba7a169d25" y="290.953779"/>
      </g>
     </g>
    </g>
    <g id="ytick_14">
     <g id="line2d_46">
      <g>
       <use style="stroke:#000000;stroke-width:0.8;" x="178.862433" xlink:href="#mba7a169d25" y="252.364513"/>
      </g>
     </g>
    </g>
   </g>
   <g id="line2d_47">
    <path clip-path="url(#pb93a8d9746)" d="M 191.186868 251.640964 
L 192.093077 253.329244 
L 192.999285 251.882147 
L 193.905493 252.846878 
L 194.811702 252.364513 
L 195.71791 251.158598 
L 196.624119 251.882147 
L 197.530327 252.12333 
L 198.436536 252.605696 
L 199.342744 251.640964 
L 200.248953 252.846878 
L 201.155161 253.329244 
L 202.061369 251.158598 
L 202.967578 251.640964 
L 203.873786 253.088061 
L 204.779995 251.640964 
L 205.686203 254.293976 
L 206.592412 251.640964 
L 207.49862 251.399781 
L 208.404829 250.676232 
L 209.311037 253.329244 
L 210.217245 253.329244 
L 211.123454 253.81161 
L 212.029662 251.640964 
L 212.935871 250.917415 
L 213.842079 251.882147 
L 214.748288 254.535159 
L 215.654496 253.570427 
L 216.560705 251.882147 
L 217.466913 253.088061 
L 218.373121 253.329244 
L 219.27933 252.605696 
L 220.185538 250.917415 
L 221.091747 254.293976 
L 221.997955 252.846878 
L 222.904164 251.158598 
L 223.810372 251.399781 
L 224.716581 253.81161 
L 225.622789 250.193866 
L 226.528997 253.570427 
L 227.435206 252.364513 
L 228.341414 252.846878 
L 230.153831 254.293976 
L 231.06004 252.12333 
L 231.966248 251.399781 
L 232.872457 251.640964 
L 233.778665 251.640964 
L 234.684873 252.12333 
L 235.591082 251.158598 
L 236.49729 252.364513 
L 237.403499 253.088061 
L 238.309707 252.364513 
L 239.215916 252.364513 
L 240.122124 251.640964 
L 241.028333 251.640964 
L 242.840749 251.158598 
L 243.746958 252.846878 
L 244.653166 252.12333 
L 245.559375 253.329244 
L 247.371792 253.81161 
L 248.278 252.846878 
L 249.184209 251.158598 
L 250.090417 252.605696 
L 250.996625 251.158598 
L 251.902834 253.088061 
L 252.809042 253.088061 
L 253.715251 250.676232 
L 254.621459 253.329244 
L 255.527668 252.364513 
L 256.433876 254.293976 
L 257.340085 251.882147 
L 258.246293 253.329244 
L 259.152501 253.81161 
L 260.05871 253.81161 
L 260.964918 253.329244 
L 261.871127 252.364513 
L 262.777335 252.364513 
L 263.683544 253.088061 
L 264.589752 252.846878 
L 265.495961 250.917415 
L 266.402169 249.952683 
L 267.308377 251.640964 
L 268.214586 252.364513 
L 269.120794 251.158598 
L 270.027003 253.329244 
L 270.933211 252.846878 
L 271.83942 253.088061 
L 272.745628 253.088061 
L 273.651837 250.676232 
L 274.558045 253.81161 
L 275.464253 252.12333 
L 276.370462 253.329244 
L 277.27667 252.364513 
L 278.182879 253.81161 
L 279.089087 251.640964 
L 279.995296 251.882147 
L 280.901504 251.399781 
L 281.807713 253.81161 
L 282.713921 251.399781 
L 283.620129 251.882147 
L 284.526338 254.293976 
L 285.432546 252.846878 
L 286.338755 252.605696 
L 287.244963 252.12333 
L 288.151172 253.570427 
L 289.05738 253.329244 
L 289.963589 246.33494 
L 290.869797 252.846878 
L 291.776005 253.088061 
L 292.682214 251.158598 
L 293.588422 250.193866 
L 294.494631 253.088061 
L 295.400839 253.088061 
L 296.307048 253.81161 
L 297.213256 253.329244 
L 298.119465 249.470318 
L 299.025673 250.435049 
L 299.931881 250.917415 
L 300.83809 252.12333 
L 301.744298 252.846878 
L 302.650507 251.399781 
L 303.556715 250.917415 
L 304.462924 253.088061 
L 305.369132 253.81161 
L 306.275341 251.882147 
L 307.181549 253.088061 
L 308.993966 253.570427 
L 309.900174 252.364513 
L 310.806383 250.676232 
L 311.712591 252.605696 
L 312.6188 251.399781 
L 313.525008 251.640964 
L 314.431217 254.293976 
L 315.337425 251.399781 
L 316.243633 251.882147 
L 317.149842 252.12333 
L 318.05605 251.399781 
L 318.962259 251.399781 
L 319.868467 254.052793 
L 320.774676 252.12333 
L 321.680884 254.052793 
L 322.587093 253.088061 
L 323.493301 253.81161 
L 325.305718 250.193866 
L 326.211926 251.882147 
L 327.118135 254.535159 
L 328.024343 251.399781 
L 328.930552 254.052793 
L 329.83676 251.882147 
L 330.742969 251.640964 
L 331.649177 251.882147 
L 332.555386 251.158598 
L 333.461594 253.570427 
L 334.367802 257.188171 
L 335.274011 251.882147 
L 336.180219 256.464622 
L 337.086428 250.917415 
L 337.992636 250.435049 
L 338.898845 250.435049 
L 339.805053 252.364513 
L 340.711262 255.982256 
L 341.61747 254.052793 
L 342.523678 254.776342 
L 343.429887 252.605696 
L 344.336095 251.882147 
L 345.242304 249.711501 
L 346.148512 253.81161 
L 347.054721 256.223439 
L 347.960929 249.711501 
L 348.867138 255.982256 
L 349.773346 249.229135 
L 350.679554 251.158598 
L 351.585763 254.776342 
L 352.491971 254.535159 
L 353.39818 251.640964 
L 354.304388 250.917415 
L 355.210597 250.676232 
L 356.116805 251.640964 
L 357.023014 254.293976 
L 357.929222 254.776342 
L 358.83543 251.882147 
L 359.741639 256.946988 
L 360.647847 253.329244 
L 361.554056 259.6 
L 362.460264 251.640964 
L 363.366473 253.81161 
L 364.272681 239.823001 
L 365.17889 252.12333 
L 366.991306 252.12333 
L 367.897515 247.058488 
L 368.803723 250.917415 
L 369.709932 247.299671 
L 370.61614 262.253012 
L 372.428557 245.611391 
L 373.334766 256.464622 
L 374.240974 247.782037 
L 375.147182 253.088061 
L 376.053391 260.564732 
L 376.959599 253.329244 
L 377.865808 252.605696 
L 378.772016 255.017525 
L 379.678225 251.640964 
L 380.584433 255.258708 
L 381.490642 263.70011 
L 382.39685 253.329244 
L 383.303058 255.982256 
L 384.209267 248.746769 
L 385.115475 257.670537 
L 386.021684 251.640964 
L 386.927892 258.152903 
L 387.834101 250.676232 
L 388.740309 251.399781 
L 389.646518 252.364513 
L 390.552726 252.605696 
L 391.458934 253.570427 
L 392.365143 251.640964 
L 393.271351 252.846878 
L 394.17756 250.917415 
L 395.083768 250.917415 
L 395.989977 254.052793 
L 396.896185 252.12333 
L 397.802394 252.12333 
L 398.708602 252.364513 
L 399.61481 254.052793 
L 400.521019 249.229135 
L 401.427227 253.329244 
L 402.333436 255.741073 
L 403.239644 251.640964 
L 404.145853 251.882147 
L 405.052061 252.364513 
L 405.95827 255.258708 
L 406.864478 251.158598 
L 407.770686 251.399781 
L 408.676895 254.535159 
L 409.583103 252.605696 
L 410.489312 251.158598 
L 411.39552 252.364513 
L 412.301729 251.882147 
L 413.207937 250.917415 
L 414.114146 251.399781 
L 415.020354 248.746769 
L 415.926562 253.81161 
L 416.832771 252.12333 
L 417.738979 252.605696 
L 418.645188 251.640964 
L 419.551396 253.329244 
L 420.457605 252.364513 
L 421.363813 251.158598 
L 422.270022 251.399781 
L 423.17623 248.746769 
L 424.082438 254.535159 
L 424.988647 249.470318 
L 425.894855 252.12333 
L 426.801064 252.364513 
L 427.707272 252.846878 
L 428.613481 252.12333 
L 429.519689 250.435049 
L 430.425898 252.846878 
L 431.332106 250.193866 
L 432.238314 248.987952 
L 433.144523 251.399781 
L 434.050731 255.258708 
L 434.95694 247.540854 
L 435.863148 253.81161 
L 436.769357 252.846878 
L 437.675565 254.535159 
L 437.675565 254.535159 
" style="fill:none;stroke:#1f77b4;stroke-linecap:square;stroke-width:1.5;"/>
   </g>
   <g id="patch_34">
    <path d="M 178.862433 303.64 
L 178.862433 215.56 
" style="fill:none;stroke:#000000;stroke-linecap:square;stroke-linejoin:miter;stroke-width:0.8;"/>
   </g>
   <g id="patch_35">
    <path d="M 450 303.64 
L 450 215.56 
" style="fill:none;stroke:#000000;stroke-linecap:square;stroke-linejoin:miter;stroke-width:0.8;"/>
   </g>
   <g id="patch_36">
    <path d="M 178.862433 303.64 
L 450 303.64 
" style="fill:none;stroke:#000000;stroke-linecap:square;stroke-linejoin:miter;stroke-width:0.8;"/>
   </g>
   <g id="patch_37">
    <path d="M 178.862433 215.56 
L 450 215.56 
" style="fill:none;stroke:#000000;stroke-linecap:square;stroke-linejoin:miter;stroke-width:0.8;"/>
   </g>
  </g>
 </g>
 <defs>
  <clipPath id="p712284480a">
   <rect height="88.08" width="108.256391" x="54.11" y="10.8"/>
  </clipPath>
  <clipPath id="p14cdb2c226">
   <rect height="88.08" width="271.137567" x="178.862433" y="10.8"/>
  </clipPath>
  <clipPath id="p6e6a9c0633">
   <rect height="88.08" width="108.256391" x="54.11" y="113.18"/>
  </clipPath>
  <clipPath id="pc1a8fea812">
   <rect height="88.08" width="271.137567" x="178.862433" y="113.18"/>
  </clipPath>
  <clipPath id="p106919e964">
   <rect height="88.08" width="108.256391" x="54.11" y="215.56"/>
  </clipPath>
  <clipPath id="pb93a8d9746">
   <rect height="88.08" width="271.137567" x="178.862433" y="215.56"/>
  </clipPath>
 </defs>
</svg>
