<?xml version="1.0" encoding="UTF-8" standalone="no"?>
<!-- Created with matplotlib (https://matplotlib.org/) -->

<svg
   xmlns:dc="http://purl.org/dc/elements/1.1/"
   xmlns:cc="http://creativecommons.org/ns#"
   xmlns:rdf="http://www.w3.org/1999/02/22-rdf-syntax-ns#"
   xmlns:svg="http://www.w3.org/2000/svg"
   xmlns="http://www.w3.org/2000/svg"
   xmlns:sodipodi="http://sodipodi.sourceforge.net/DTD/sodipodi-0.dtd"
   xmlns:inkscape="http://www.inkscape.org/namespaces/inkscape"
   height="267.112pt"
   version="1.1"
   viewBox="0 0 415.33583 267.11199"
   width="415.33582pt"
   id="svg339"
   sodipodi:docname="PotentialsFeshbach.svg"
   inkscape:version="0.92.4 (5da689c313, 2019-01-14)">
  <sodipodi:namedview
     pagecolor="#ffffff"
     bordercolor="#666666"
     borderopacity="1"
     objecttolerance="10"
     gridtolerance="10"
     guidetolerance="10"
     inkscape:pageopacity="0"
     inkscape:pageshadow="2"
     inkscape:window-width="1680"
     inkscape:window-height="1021"
     id="namedview341"
     showgrid="false"
     inkscape:zoom="1.819893"
     inkscape:cx="262.55408"
     inkscape:cy="171.72409"
     inkscape:window-x="1920"
     inkscape:window-y="0"
     inkscape:window-maximized="1"
     inkscape:current-layer="axes_1"
     fit-margin-top="0"
     fit-margin-left="0"
     fit-margin-right="0"
     fit-margin-bottom="0" />
  <metadata
     id="metadata2">
    <rdf:RDF>
      <cc:Work>
        <dc:type
           rdf:resource="http://purl.org/dc/dcmitype/StillImage" />
        <dc:date>2021-05-11T15:54:24.740632</dc:date>
        <dc:format>image/svg+xml</dc:format>
        <dc:creator>
          <cc:Agent>
            <dc:title>Matplotlib v3.3.0, https://matplotlib.org/</dc:title>
          </cc:Agent>
        </dc:creator>
        <dc:title />
      </cc:Work>
    </rdf:RDF>
  </metadata>
  <defs
     id="defs6"
     style="stroke-linecap:butt;stroke-linejoin:round">
    <marker
       inkscape:stockid="Arrow1Mstart"
       orient="auto"
       refY="0"
       refX="0"
       id="marker1511"
       style="overflow:visible;stroke-linecap:butt;stroke-linejoin:round"
       inkscape:isstock="true">
      <path
         id="path1033"
         d="M 0,0 5,-5 -12.5,0 5,5 Z"
         style="fill:#f62196;fill-opacity:1;fill-rule:evenodd;stroke:#f62196;stroke-width:1.00000003pt;stroke-linecap:butt;stroke-linejoin:round;stroke-opacity:1"
         transform="matrix(0.4,0,0,0.4,4,0)"
         inkscape:connector-curvature="0" />
    </marker>
    <marker
       inkscape:stockid="Arrow1Lend"
       orient="auto"
       refY="0"
       refX="0"
       id="marker2134"
       style="overflow:visible;stroke-linecap:butt;stroke-linejoin:round"
       inkscape:isstock="true">
      <path
         id="path2132"
         d="M 0,0 5,-5 -12.5,0 5,5 Z"
         style="fill:#d3d7cf;fill-opacity:1;fill-rule:evenodd;stroke:#d3d7cf;stroke-width:1.00000003pt;stroke-linecap:butt;stroke-linejoin:round;stroke-opacity:1"
         transform="matrix(-0.8,0,0,-0.8,-10,0)"
         inkscape:connector-curvature="0" />
    </marker>
    <marker
       inkscape:stockid="Arrow2Mend"
       orient="auto"
       refY="0"
       refX="0"
       id="Arrow2Mend"
       style="overflow:visible;stroke-linecap:butt;stroke-linejoin:round"
       inkscape:isstock="true">
      <path
         id="path1329"
         style="fill:#a267f5;fill-opacity:1;fill-rule:evenodd;stroke:#a267f5;stroke-width:0.625;stroke-linecap:butt;stroke-linejoin:round;stroke-opacity:1"
         d="M 8.7185878,4.0337352 -2.2072895,0.01601326 8.7185884,-4.0017078 c -1.7454984,2.3720609 -1.7354408,5.6174519 -6e-7,8.035443 z"
         transform="scale(-0.6)"
         inkscape:connector-curvature="0" />
    </marker>
    <marker
       inkscape:stockid="Arrow1Mend"
       orient="auto"
       refY="0"
       refX="0"
       id="marker1706"
       style="overflow:visible;stroke-linecap:butt;stroke-linejoin:round"
       inkscape:isstock="true">
      <path
         id="path1704"
         d="M 0,0 5,-5 -12.5,0 5,5 Z"
         style="fill:#000000;fill-opacity:1;fill-rule:evenodd;stroke:#000000;stroke-width:1.00000003pt;stroke-linecap:butt;stroke-linejoin:round;stroke-opacity:1"
         transform="matrix(-0.4,0,0,-0.4,-4,0)"
         inkscape:connector-curvature="0" />
    </marker>
    <marker
       inkscape:stockid="Arrow1Lend"
       orient="auto"
       refY="0"
       refX="0"
       id="Arrow1Lend"
       style="overflow:visible;stroke-linecap:butt;stroke-linejoin:round"
       inkscape:isstock="true">
      <path
         id="path1305"
         d="M 0,0 5,-5 -12.5,0 5,5 Z"
         style="fill:#000000;fill-opacity:1;fill-rule:evenodd;stroke:#000000;stroke-width:1.00000003pt;stroke-linecap:butt;stroke-linejoin:round;stroke-opacity:1"
         transform="matrix(-0.8,0,0,-0.8,-10,0)"
         inkscape:connector-curvature="0" />
    </marker>
    <marker
       inkscape:stockid="Arrow1Mend"
       orient="auto"
       refY="0"
       refX="0"
       id="Arrow1Mend"
       style="overflow:visible;stroke-linecap:butt;stroke-linejoin:round"
       inkscape:isstock="true">
      <path
         id="path1311"
         d="M 0,0 5,-5 -12.5,0 5,5 Z"
         style="fill:#f62196;fill-opacity:1;fill-rule:evenodd;stroke:#f62196;stroke-width:1.00000003pt;stroke-linecap:butt;stroke-linejoin:round;stroke-opacity:1"
         transform="matrix(-0.4,0,0,-0.4,-4,0)"
         inkscape:connector-curvature="0" />
    </marker>
    <marker
       inkscape:stockid="Arrow1Mstart"
       orient="auto"
       refY="0"
       refX="0"
       id="Arrow1Mstart"
       style="overflow:visible;stroke-linecap:butt;stroke-linejoin:round"
       inkscape:isstock="true">
      <path
         id="path1308"
         d="M 0,0 5,-5 -12.5,0 5,5 Z"
         style="fill:#000000;fill-opacity:1;fill-rule:evenodd;stroke:#000000;stroke-width:1.00000003pt;stroke-linecap:butt;stroke-linejoin:round;stroke-opacity:1"
         transform="matrix(0.4,0,0,0.4,4,0)"
         inkscape:connector-curvature="0" />
    </marker>
    <style
       type="text/css"
       id="style4">*{stroke-linecap:butt;stroke-linejoin:round;}</style>
    <clipPath
       clipPathUnits="userSpaceOnUse"
       id="clipPath1268"
       style="stroke-linecap:butt;stroke-linejoin:round">
      <rect
         id="rect1270"
         y="107.472"
         x="57.599998"
         width="357.12"
         height="200.11201"
         style="stroke-width:0.86717016;stroke-linecap:butt;stroke-linejoin:round" />
    </clipPath>
  </defs>
  <g
     id="figure_1"
     style="stroke-linecap:butt;stroke-linejoin:round"
     transform="translate(-27.535496,-40.972)">
    <g
       id="axes_1"
       style="stroke-linecap:butt;stroke-linejoin:round">
      <rect
         style="opacity:1;fill:#191919;fill-opacity:1;fill-rule:nonzero;stroke:none;stroke-width:5.28661442;stroke-linecap:round;stroke-linejoin:miter;stroke-miterlimit:4;stroke-dasharray:none;stroke-dashoffset:0;stroke-opacity:1;paint-order:markers fill stroke"
         id="rect921"
         width="423.12338"
         height="276.83694"
         x="22.87298"
         y="35.326782" />
      <g
         id="patch_2"
         style="stroke-linecap:butt;stroke-linejoin:round" />
      <g
         id="line2d_19"
         style="fill:none;fill-opacity:1;stroke:#d3d7cf;stroke-linecap:butt;stroke-linejoin:round;stroke-opacity:1">
        <path
           clip-path="url(#p95e0666dc2)"
           d="M 57.6,174.528 H 414.72"
           style="fill:none;fill-opacity:1;stroke:#d3d7cf;stroke-width:1;stroke-linecap:square;stroke-linejoin:round;stroke-miterlimit:4;stroke-dasharray:none;stroke-opacity:1;marker-end:url(#marker2134)"
           id="path317"
           inkscape:connector-curvature="0" />
      </g>
      <g
         id="line2d_17"
         style="stroke-linecap:butt;stroke-linejoin:round">
        <path
           clip-path="url(#p95e0666dc2)"
           d="m 79.864895,-1 0.792402,50.426837 0.974939,52.010163 0.974938,42.80342 0.974939,35.06719 0.974939,28.56692 0.974938,23.10654 0.974939,18.52185 0.974938,14.67521 0.974939,11.45104 0.974938,8.7522 0.974939,6.49691 0.974939,4.61626 0.649959,2.19115 0.649959,1.57835 0.649959,1.03827 0.649959,0.56317 0.649959,0.14617 0.649959,-0.21894 0.649959,-0.5377 0.649959,-0.81503 0.974939,-1.66276 0.974938,-2.09604 1.299918,-3.31297 1.949881,-5.73456 2.92481,-9.49436 5.84963,-19.15762 2.92482,-8.81905 2.59984,-7.22304 2.59983,-6.6108 2.59984,-6.00451 2.59983,-5.42487 2.59984,-4.88316 2.59984,-4.38455 2.59983,-3.93048 2.59984,-3.52006 2.59983,-3.15105 2.59984,-2.82053 2.92482,-2.82177 2.92481,-2.49317 2.92482,-2.2047 3.24979,-2.15422 3.2498,-1.88399 3.57477,-1.80369 3.57478,-1.56232 3.89975,-1.47024 4.22474,-1.36006 4.54971,-1.2389 5.19967,-1.18031 5.84963,-1.08558 6.49959,-0.96874 7.47453,-0.87585 8.44947,-0.75949 10.07437,-0.67323 12.02424,-0.5728 14.94906,-0.48123 19.49877,-0.39243 26.64832,-0.29979 40.62244,-0.21336 66.6208,-0.12236 v 0"
           style="fill:none;stroke:#18c0c4;stroke-width:1.5;stroke-linecap:square;stroke-linejoin:round;stroke-opacity:1"
           id="path311"
           inkscape:connector-curvature="0" />
      </g>
      <path
         sodipodi:nodetypes="cccccccccccccccccccccccccccccccccccccccccccccccccccccccccccccccccc"
         id="path1240"
         style="fill:none;stroke:#f62196;stroke-width:1.5;stroke-linecap:square;stroke-linejoin:round;stroke-opacity:1"
         d="m 80.998595,-1 0.775419,45.24241 0.183201,10.689003 0.974939,46.319067 0.974939,37.43079 0.974938,30.00392 0.974939,23.80356 0.974938,18.63321 0.974939,14.32835 0.974938,10.75106 0.974939,7.78554 0.649959,3.80046 0.649959,2.84449 0.649959,2.00584 0.649959,1.27171 0.649959,0.63067 0.32498,0.10122 0.324979,-0.0287 0.649959,-0.41185 0.649959,-0.83055 0.649959,-1.19085 0.974939,-2.34988 1.299918,-3.95652 1.624898,-5.87035 2.27486,-9.19785 6.82457,-28.20057 2.59983,-9.62238 2.27486,-7.66288 2.27486,-6.92789 2.27485,-6.2027 2.27486,-5.50895 2.27486,-4.859 1.94987,-3.68537 1.94988,-3.27743 1.94988,-2.90224 1.94987,-2.5589 2.27486,-2.59191 2.27486,-2.21114 2.27485,-1.87204 2.27486,-1.57099 2.27486,-1.30435 2.27485,-1.06875 2.59984,-0.96847 2.59984,-0.73381 2.92481,-0.58508 3.2498,-0.39787 3.24979,-0.17718 3.89976,0.024 4.22473,0.25661 4.87469,0.52223 5.84964,0.85577 7.47452,1.32779 11.37429,2.27133 26.9733,5.44224 13.64914,2.4884 13.32416,2.19947 13.32416,1.97488 13.97412,1.84648 14.94906,1.74626 15.92399,1.63174 17.22392,1.53689 18.84881,1.45237 20.47371,1.35143 22.74857,1.27523 10.72432,0.53155 v 0"
         clip-path="url(#clipPath1268)"
         inkscape:connector-curvature="0"
         transform="translate(0,-66)" />
      <g
         id="patch_3"
         style="stroke-width:0.5;stroke-linecap:butt;stroke-linejoin:round;stroke-miterlimit:4;stroke-dasharray:none;fill:#d3d7cf;stroke:#d3d7cf">
        <path
           d="M 57.6,307.584 V 41.472"
           style="fill:#d3d7cf;stroke:#d3d7cf;stroke-width:1;stroke-linecap:square;stroke-linejoin:miter;stroke-miterlimit:4;stroke-dasharray:none"
           id="path320"
           inkscape:connector-curvature="0" />
      </g>
      <g
         id="patch_4"
         style="stroke-linecap:butt;stroke-linejoin:round" />
      <path
         style="fill:none;fill-rule:evenodd;stroke:none;stroke-width:0.75px;stroke-linecap:butt;stroke-linejoin:miter;stroke-opacity:1"
         d="m 139.79978,136.72824 c 17.06836,-6.10939 23.15057,-4.70358 46.95475,-1.53756"
         id="path1284"
         inkscape:connector-curvature="0"
         sodipodi:nodetypes="cc" />
      <path
         style="fill:none;fill-rule:evenodd;stroke:none;stroke-width:0.75px;stroke-linecap:butt;stroke-linejoin:miter;stroke-opacity:1"
         d="m 288.82494,86.580106 c 34.81196,4.411141 71.04321,6.75608 105.85517,8.752264"
         id="path1290"
         inkscape:connector-curvature="0"
         sodipodi:nodetypes="cc" />
      <path
         style="fill:none;fill-rule:evenodd;stroke:none;stroke-width:0.75px;stroke-linecap:butt;stroke-linejoin:miter;stroke-opacity:1"
         d="m 113.57266,296.08969 c 3.80688,-9.08468 7.3101,-16.85886 15.22109,-43.65605"
         id="path1295"
         inkscape:connector-curvature="0"
         sodipodi:nodetypes="cc" />
      <path
         style="fill:none;fill-rule:evenodd;stroke:#a267f5;stroke-width:2;stroke-linecap:butt;stroke-linejoin:miter;stroke-miterlimit:4;stroke-dasharray:none;stroke-opacity:1;marker-end:url(#Arrow2Mend)"
         d="M 398.00569,144.21344 H 328.97706"
         id="path1300"
         inkscape:connector-curvature="0"
         sodipodi:nodetypes="cc" />
      <path
         inkscape:connector-curvature="0"
         id="path1944"
         d="M 84.400672,94.52303 H 122.93948"
         style="fill:none;fill-rule:evenodd;stroke:#f62196;stroke-width:1.49483895;stroke-linecap:butt;stroke-linejoin:miter;stroke-miterlimit:4;stroke-dasharray:4.48451678, 1.49483892000000007;stroke-dashoffset:0;stroke-opacity:1" />
      <g
         id="g1971"
         transform="translate(191.13067,278.18028)"
         style="stroke-linecap:butt;stroke-linejoin:round">
        <g
           aria-label="Bound State"
           style="font-style:normal;font-variant:normal;font-weight:normal;font-stretch:normal;font-size:14px;line-height:125%;font-family:'CMU Sans Serif';-inkscape-font-specification:'CMU Sans Serif';letter-spacing:0px;word-spacing:0px;fill:#ffffff;fill-opacity:1;stroke:none;stroke-width:0.75px;stroke-linecap:butt;stroke-linejoin:miter;stroke-opacity:1"
           id="text1948">
          <path
             d="M 112.45075,18.203568 V 8.4875675 h 3.108 q 0.966,0 1.708,0.238 0.756,0.238 1.162,0.616 0.42,0.378 0.616,0.7840005 0.21,0.406 0.21,0.798 0,0.7 -0.602,1.302 -0.602,0.602 -1.75,0.896 1.12,0.182 1.932,0.854 0.812,0.658 0.812,1.596 0,1.022 -0.896,1.75 -0.882,0.728 -2.114,0.854 -0.238,0.028 -0.714,0.028 z m 1.176,-0.784 h 1.988 q 1.428,0 2.156,-0.588 0.728,-0.588 0.728,-1.274 0,-0.77 -0.728,-1.316 -0.728,-0.546 -1.75,-0.644 -0.126,-0.014 -0.714,-0.014 h -1.666 l -0.014,0.518 z m 0,-4.704 h 1.68 q 1.316,0 2.072,-0.546 0.77,-0.546 0.77,-1.232 0,-0.616 -0.728,-1.1340005 -0.714,-0.532 -2.184,-0.532 h -1.596 l -0.014,0.49 z"
             style="fill:#ffffff;stroke-width:0.75px;stroke-linecap:butt;stroke-linejoin:round"
             id="path1009" />
          <path
             d="m 120.87831,15.109568 q 0,-1.414 0.896,-2.38 0.91,-0.98 2.17,-0.98 1.316,0 2.198,1.022 0.882,1.008 0.882,2.352 0,1.386 -0.924,2.31 -0.924,0.924 -2.156,0.924 -1.232,0 -2.156,-0.924 -0.91,-0.938 -0.91,-2.324 z m 1.092,-0.14 q 0,1.232 0.588,1.862 0.602,0.63 1.386,0.63 0.784,0 1.372,-0.63 0.602,-0.644 0.602,-1.862 0,-1.176 -0.602,-1.764 -0.588,-0.588 -1.372,-0.588 -0.77,0 -1.372,0.588 -0.602,0.588 -0.602,1.764 z"
             style="fill:#ffffff;stroke-width:0.75px;stroke-linecap:butt;stroke-linejoin:round"
             id="path1011" />
          <path
             d="m 128.57831,16.495568 v -4.522 h 1.092 v 4.69 q 0.014,0.49 0.224,0.7 0.224,0.21 0.896,0.21 0.728,0 1.162,-0.378 0.448,-0.392 0.504,-0.896 0.014,-0.14 0.014,-0.406 v -3.92 h 1.092 v 6.23 h -1.064 v -0.672 q -0.952,0.826 -2.45,0.826 -0.42,0 -0.714,-0.14 -0.294,-0.126 -0.448,-0.294 -0.14,-0.168 -0.224,-0.462 -0.07,-0.308 -0.084,-0.476 0,-0.182 0,-0.49 z"
             style="fill:#ffffff;stroke-width:0.75px;stroke-linecap:butt;stroke-linejoin:round"
             id="path1013" />
          <path
             d="m 135.82441,18.203568 v -6.3 h 1.022 v 0.98 q 0.812,-1.05 2.044,-1.05 0.518,0 0.882,0.154 0.378,0.154 0.574,0.378 0.196,0.224 0.294,0.574 0.112,0.336 0.14,0.602 0.028,0.266 0.028,0.63 v 4.032 h -1.092 v -3.934 q 0,-0.238 -0.014,-0.378 0,-0.14 -0.084,-0.392 -0.07,-0.266 -0.21,-0.42 -0.126,-0.154 -0.406,-0.266 -0.266,-0.126 -0.658,-0.126 -0.742,0 -1.092,0.63 -0.336,0.63 -0.336,1.526 v 3.36 z"
             style="fill:#ffffff;stroke-width:0.75px;stroke-linecap:butt;stroke-linejoin:round"
             id="path1015" />
          <path
             d="m 142.4405,15.109568 q 0,-1.386 0.728,-2.338 0.728,-0.952 1.764,-0.952 1.064,0 2.03,0.77 V 8.0955675 h 1.064 V 18.203568 h -1.106 v -0.728 q -0.91,0.882 -2.072,0.882 -1.036,0 -1.722,-0.966 -0.686,-0.98 -0.686,-2.282 z m 1.092,-0.014 q 0,1.246 0.588,1.82 0.588,0.574 1.302,0.574 0.588,0 1.036,-0.392 0.462,-0.406 0.462,-0.77 v -2.674 q 0,-0.266 -0.294,-0.546 -0.448,-0.42 -1.036,-0.42 h -0.028 q -0.336,0 -0.672,0.126 -0.322,0.126 -0.644,0.392 -0.322,0.252 -0.518,0.742 -0.196,0.49 -0.196,1.148 z"
             style="fill:#ffffff;stroke-width:0.75px;stroke-linecap:butt;stroke-linejoin:round"
             id="path1017" />
          <path
             d="m 154.48838,17.545568 0.21,-1.162 q 1.47,1.162 2.996,1.162 0.91,0 1.47,-0.56 0.574,-0.56 0.574,-1.288 0,-0.546 -0.336,-0.994 -0.322,-0.462 -0.868,-0.686 -0.028,-0.014 -1.736,-0.462 -0.854,-0.224 -1.512,-0.91 -0.644,-0.7 -0.644,-1.708 0,-1.0780005 0.868,-1.9180005 0.882,-0.84 2.296,-0.84 1.316,0 2.562,0.672 l -0.196,1.1620005 q -0.588,-0.4480005 -1.092,-0.6720005 -0.504,-0.224 -1.288,-0.224 -0.91,0 -1.47,0.504 -0.56,0.4900005 -0.56,1.1480005 0,0.49 0.308,0.896 0.322,0.406 0.812,0.602 0.196,0.084 1.008,0.28 0.826,0.196 1.092,0.308 0.77,0.322 1.316,1.036 0.56,0.7 0.56,1.666 0,1.19 -0.896,2.072 -0.882,0.882 -2.268,0.882 -1.68,0 -3.206,-0.966 z"
             style="fill:#ffffff;stroke-width:0.75px;stroke-linecap:butt;stroke-linejoin:round"
             id="path1019" />
          <path
             d="m 161.89,12.799568 v -0.826 h 1.204 v -1.764 h 0.98 v 1.764 h 1.974 v 0.826 h -1.974 v 3.444 q 0,1.218 0.756,1.218 0.588,0 1.232,-0.462 l 0.224,0.826 q -0.994,0.532 -2.072,0.532 -1.148,0 -1.148,-1.792 v -3.766 z"
             style="fill:#ffffff;stroke-width:0.75px;stroke-linecap:butt;stroke-linejoin:round"
             id="path1021" />
          <path
             d="m 167.31259,16.621568 q 0,-0.518 0.392,-0.896 0.392,-0.392 1.022,-0.574 0.644,-0.196 1.246,-0.28 0.616,-0.098 1.232,-0.098 v -0.476 q -0.028,-0.896 -0.364,-1.288 -0.35,-0.42 -0.882,-0.42 -1.078,0 -2.1,0.714 l -0.084,-0.938 q 1.05,-0.616 2.198,-0.616 0.966,0 1.61,0.644 0.658,0.63 0.714,1.54 v 4.27 h -1.064 v -0.49 q -0.056,0.056 -0.266,0.182 -0.196,0.126 -0.784,0.294 -0.588,0.168 -1.274,0.168 -0.798,0 -1.204,-0.56 -0.392,-0.574 -0.392,-1.176 z m 1.022,-0.014 q 0,0.378 0.364,0.63 0.378,0.252 0.938,0.252 0.602,0 1.078,-0.252 0.49,-0.252 0.49,-0.854 v -0.882 q -0.434,0 -0.882,0.056 -0.448,0.056 -0.924,0.168 -0.476,0.112 -0.77,0.35 -0.294,0.224 -0.294,0.532 z"
             style="fill:#ffffff;stroke-width:0.75px;stroke-linecap:butt;stroke-linejoin:round"
             id="path1023" />
          <path
             d="m 173.67516,12.799568 v -0.826 h 1.204 v -1.764 h 0.98 v 1.764 h 1.974 v 0.826 h -1.974 v 3.444 q 0,1.218 0.756,1.218 0.588,0 1.232,-0.462 l 0.224,0.826 q -0.994,0.532 -2.072,0.532 -1.148,0 -1.148,-1.792 v -3.766 z"
             style="fill:#ffffff;stroke-width:0.75px;stroke-linecap:butt;stroke-linejoin:round"
             id="path1025" />
          <path
             d="m 178.95775,15.039568 q 0,-1.386 0.84,-2.338 0.854,-0.952 1.988,-0.952 0.42,0 0.798,0.14 0.378,0.126 0.756,0.434 0.392,0.308 0.644,0.924 0.252,0.616 0.294,1.47 v 0.406 h -4.34 q 0.042,1.05 0.644,1.708 0.602,0.658 1.428,0.658 1.064,0 2.128,-0.77 l 0.084,0.924 q -1.064,0.714 -2.212,0.714 -1.33,0 -2.198,-0.98 -0.854,-0.994 -0.854,-2.338 z m 1.05,-0.686 h 3.472 q -0.084,-0.546 -0.308,-0.924 -0.21,-0.378 -0.49,-0.532 -0.266,-0.168 -0.49,-0.224 -0.21,-0.056 -0.406,-0.056 -0.714,0 -1.176,0.546 -0.462,0.546 -0.602,1.19 z"
             style="fill:#ffffff;stroke-width:0.75px;stroke-linecap:butt;stroke-linejoin:round"
             id="path1027" />
        </g>
        <path
           sodipodi:nodetypes="cc"
           style="fill:none;fill-rule:evenodd;stroke:#f62196;stroke-width:2;stroke-linecap:butt;stroke-linejoin:miter;stroke-miterlimit:4;stroke-dasharray:6.00000006, 2.00000001999999988;stroke-dashoffset:0;stroke-opacity:1"
           d="m 79.32478,11.429342 h 22.31413"
           id="path1944-7"
           inkscape:connector-curvature="0" />
      </g>
      <g
         aria-label="Energy"
         transform="rotate(-90)"
         style="font-style:normal;font-variant:normal;font-weight:normal;font-stretch:normal;font-size:14px;line-height:125%;font-family:'CMU Sans Serif';-inkscape-font-specification:'CMU Sans Serif';letter-spacing:0px;word-spacing:0px;fill:#eeeeec;fill-opacity:1;stroke:none;stroke-width:0.75px;stroke-linecap:butt;stroke-linejoin:miter;stroke-opacity:1"
         id="text2110">
        <path
           d="m -195.17416,38.591496 h 7.376 v -1.152 h -0.736 l -0.352,0.016 h -3.104 l -0.384,0.016 h -1.36 v -4.144 h 5.28 v -0.976 h -5.28 v -3.792 l 0.56,0.016 h 3.84 l 0.4,0.016 h 0.912 v -1.056 h -7.152 z"
           style="font-size:16px;fill:#eeeeec;stroke-width:0.75px;stroke-linecap:butt;stroke-linejoin:round"
           id="path1337" />
        <path
           d="m -185.83566,38.591496 h 1.248 v -3.84 c 0,-1.184 0.4,-2.464 1.632,-2.464 1.568,0 1.568,1.2 1.568,1.808 v 4.496 h 1.248 v -4.608 c 0,-1.12 -0.144,-2.672 -2.192,-2.672 -1.408,0 -2.112,0.912 -2.336,1.2 v -1.12 h -1.168 z"
           style="font-size:16px;fill:#eeeeec;stroke-width:0.75px;stroke-linecap:butt;stroke-linejoin:round"
           id="path1339" />
        <path
           d="m -178.29041,34.975496 c 0,1.984 1.392,3.792 3.488,3.792 1.008,0 1.84,-0.352 2.528,-0.816 l -0.096,-1.056 c -0.704,0.512 -1.424,0.88 -2.432,0.88 -1.216,0 -2.304,-1.056 -2.368,-2.704 h 4.96 v -0.464 c -0.144,-2.736 -1.712,-3.392 -2.848,-3.392 -1.696,0 -3.232,1.616 -3.232,3.76 z m 1.2,-0.784 c 0.176,-0.784 0.816,-1.984 2.032,-1.984 0.464,0 1.664,0.208 1.936,1.984 z"
           style="font-size:16px;fill:#eeeeec;stroke-width:0.75px;stroke-linecap:butt;stroke-linejoin:round"
           id="path1341" />
        <path
           d="m -170.44466,38.591496 h 1.2 v -3.296 c 0,-2.336 1.776,-2.88 2.72,-2.912 v -1.072 c -1.696,0.032 -2.544,1.12 -2.8,1.52 v -1.44 h -1.12 z"
           style="font-size:16px;fill:#eeeeec;stroke-width:0.75px;stroke-linecap:butt;stroke-linejoin:round"
           id="path1343" />
        <path
           d="m -165.83991,39.727496 c 0,1.232 1.584,2.16 3.552,2.16 1.952,0 3.552,-0.928 3.552,-2.176 0,-0.192 -0.032,-0.4 -0.08,-0.592 -0.448,-1.6 -2.4,-1.632 -3.456,-1.632 h -1.2 c -0.768,0 -0.896,-0.544 -0.896,-0.848 0,-0.112 0.016,-0.272 0.176,-0.592 0.352,0.224 0.752,0.48 1.456,0.48 1.488,0 2.56,-1.248 2.56,-2.608 0,-0.688 -0.208,-1.152 -0.624,-1.712 l 0.144,0.128 c 0.288,-0.016 0.784,-0.064 1.2,-0.064 0.32,0 0.624,0.016 0.944,0.048 l -0.176,-1.008 c -0.864,0 -1.712,0.16 -2.512,0.496 l 0.032,0.032 c -0.528,-0.368 -0.976,-0.528 -1.568,-0.528 -1.312,0 -2.544,1.056 -2.544,2.608 0,0.32 0.048,0.96 0.528,1.584 v 0.016 c -0.288,0.384 -0.464,0.816 -0.464,1.344 0,0.512 0.144,0.848 0.4,1.216 -0.624,0.368 -1.024,0.992 -1.024,1.648 z m 1.12,0 c 0,-0.464 0.352,-1.008 1.008,-1.072 l 0.464,-0.016 h 1.008 c 1.728,0 2.384,0.448 2.384,1.104 0,0.736 -1.152,1.232 -2.448,1.232 -0.88,0 -2.416,-0.352 -2.416,-1.248 z m 0.56,-5.808 c 0,-1.36 0.848,-1.696 1.424,-1.696 0.864,0 1.44,0.64 1.44,1.68 0,1.36 -0.848,1.696 -1.424,1.696 -0.864,0 -1.44,-0.64 -1.44,-1.68 z"
           style="font-size:16px;fill:#eeeeec;stroke-width:0.75px;stroke-linecap:butt;stroke-linejoin:round"
           id="path1345" />
        <path
           d="m -158.04791,31.471496 2.992,6.832 c 0.064,0.128 0.08,0.192 0.08,0.272 0,0.064 -0.016,0.144 -0.064,0.256 -0.688,1.664 -0.816,2.144 -1.488,2.144 -0.272,0 -0.624,-0.096 -1.168,-0.272 l 0.08,1.04 c 0.384,0.096 0.864,0.128 1.168,0.128 0.736,0 1.2,-0.368 1.84,-1.84 l 3.472,-8.56 h -1.2 c -1.056,2.624 -2.096,5.232 -2.128,6.32 -0.144,-0.912 -0.144,-1.344 -2.32,-6.32 z"
           style="font-size:16px;fill:#eeeeec;stroke-width:0.75px;stroke-linecap:butt;stroke-linejoin:round"
           id="path1347" />
      </g>
      <g
         aria-label="Separation"
         style="font-style:normal;font-variant:normal;font-weight:normal;font-stretch:normal;font-size:14px;line-height:125%;font-family:'CMU Sans Serif';-inkscape-font-specification:'CMU Sans Serif';letter-spacing:0px;word-spacing:0px;fill:#ffffff;fill-opacity:1;stroke:none;stroke-width:0.75px;stroke-linecap:butt;stroke-linejoin:miter;stroke-opacity:1"
         id="text2118">
        <path
           d="m 374.34932,193.57024 c 1.008,0.64 2.192,1.104 3.664,1.104 2.192,0 3.616,-1.648 3.616,-3.376 0,-1.6 -1.12,-2.656 -2.144,-3.088 -0.576,-0.24 -1.936,-0.48 -2.4,-0.672 -0.704,-0.288 -1.28,-0.928 -1.28,-1.712 0,-0.944 0.864,-1.888 2.32,-1.888 1.312,0 1.984,0.448 2.72,1.024 l 0.224,-1.328 c -0.832,-0.448 -1.632,-0.768 -2.928,-0.768 -2.256,0 -3.616,1.6 -3.616,3.152 0,1.664 1.328,2.688 2.464,2.992 1.392,0.368 1.6,0.384 1.984,0.528 0.816,0.336 1.376,1.072 1.376,1.92 0,1.04 -0.88,2.112 -2.336,2.112 -1.584,0 -2.656,-0.72 -3.424,-1.328 z"
           style="font-size:16px;fill:#ffffff;stroke-width:0.75px;stroke-linecap:butt;stroke-linejoin:round"
           id="path1446" />
        <path
           d="m 383.06432,190.70624 c 0,1.984 1.392,3.792 3.488,3.792 1.008,0 1.84,-0.352 2.528,-0.816 l -0.096,-1.056 c -0.704,0.512 -1.424,0.88 -2.432,0.88 -1.216,0 -2.304,-1.056 -2.368,-2.704 h 4.96 v -0.464 c -0.144,-2.736 -1.712,-3.392 -2.848,-3.392 -1.696,0 -3.232,1.616 -3.232,3.76 z m 1.2,-0.784 c 0.176,-0.784 0.816,-1.984 2.032,-1.984 0.464,0 1.664,0.208 1.936,1.984 z"
           style="font-size:16px;fill:#ffffff;stroke-width:0.75px;stroke-linecap:butt;stroke-linejoin:round"
           id="path1448" />
        <path
           d="m 390.91007,197.44224 h 1.248 v -3.856 c 0.528,0.496 1.216,0.912 2.16,0.912 1.552,0 2.976,-1.504 2.976,-3.76 0,-1.904 -1.008,-3.696 -2.528,-3.696 -0.544,0 -1.632,0.112 -2.656,0.944 v -0.784 h -1.2 z m 1.248,-5.136 v -3.328 c 0.096,-0.112 0.64,-0.912 1.696,-0.912 1.312,0 2.176,1.296 2.176,2.704 0,1.696 -1.2,2.752 -2.32,2.752 -0.944,0 -1.552,-0.832 -1.552,-1.216 z"
           style="font-size:16px;fill:#ffffff;stroke-width:0.75px;stroke-linecap:butt;stroke-linejoin:round"
           id="path1450" />
        <path
           d="m 398.59932,192.51424 c 0,0.736 0.48,1.984 1.824,1.984 1.76,0 2.64,-0.72 2.656,-0.736 v 0.56 h 1.216 v -4.88 c -0.08,-1.344 -1.136,-2.496 -2.656,-2.496 -1.008,0 -1.744,0.256 -2.512,0.704 l 0.096,1.072 c 0.528,-0.368 1.2,-0.816 2.4,-0.816 0.208,0 0.624,0.016 1.008,0.48 0.4,0.48 0.4,1.024 0.416,1.472 v 0.544 c -1.648,0.016 -4.448,0.416 -4.448,2.112 z m 1.168,-0.016 c 0,-1.008 2.128,-1.248 3.28,-1.264 v 1.008 c 0,1.04 -1.104,1.264 -1.792,1.264 -0.864,0 -1.488,-0.432 -1.488,-1.008 z"
           style="font-size:16px;fill:#ffffff;stroke-width:0.75px;stroke-linecap:butt;stroke-linejoin:round"
           id="path1452" />
        <path
           d="m 406.44132,194.32224 h 1.2 v -3.296 c 0,-2.336 1.776,-2.88 2.72,-2.912 v -1.072 c -1.696,0.032 -2.544,1.12 -2.8,1.52 v -1.44 h -1.12 z"
           style="font-size:16px;fill:#ffffff;stroke-width:0.75px;stroke-linecap:butt;stroke-linejoin:round"
           id="path1454" />
        <path
           d="m 411.31807,192.51424 c 0,0.736 0.48,1.984 1.824,1.984 1.76,0 2.64,-0.72 2.656,-0.736 v 0.56 h 1.216 v -4.88 c -0.08,-1.344 -1.136,-2.496 -2.656,-2.496 -1.008,0 -1.744,0.256 -2.512,0.704 l 0.096,1.072 c 0.528,-0.368 1.2,-0.816 2.4,-0.816 0.208,0 0.624,0.016 1.008,0.48 0.4,0.48 0.4,1.024 0.416,1.472 v 0.544 c -1.648,0.016 -4.448,0.416 -4.448,2.112 z m 1.168,-0.016 c 0,-1.008 2.128,-1.248 3.28,-1.264 v 1.008 c 0,1.04 -1.104,1.264 -1.792,1.264 -0.864,0 -1.488,-0.432 -1.488,-1.008 z"
           style="font-size:16px;fill:#ffffff;stroke-width:0.75px;stroke-linecap:butt;stroke-linejoin:round"
           id="path1456" />
        <path
           d="m 418.58957,188.14624 h 1.344 v 4.304 c 0,1.76 0.784,2.048 1.312,2.048 0.72,0 1.536,-0.16 2.368,-0.608 l -0.256,-0.944 c -0.224,0.16 -0.72,0.528 -1.408,0.528 -0.832,0 -0.864,-0.944 -0.864,-1.392 v -3.936 h 2.256 v -0.944 h -2.256 v -2.016 h -1.12 v 2.016 h -1.376 z"
           style="font-size:16px;fill:#ffffff;stroke-width:0.75px;stroke-linecap:butt;stroke-linejoin:round"
           id="path1458" />
        <path
           d="m 425.37882,194.32224 h 1.2 v -7.12 h -1.2 z m -0.112,-9.44 h 1.44 v -1.424 h -1.44 z"
           style="font-size:16px;fill:#ffffff;stroke-width:0.75px;stroke-linecap:butt;stroke-linejoin:round"
           id="path1460" />
        <path
           d="m 428.37532,190.78624 c 0,2.176 1.68,3.712 3.504,3.712 1.824,0 3.52,-1.52 3.52,-3.696 0,-2 -1.472,-3.856 -3.52,-3.856 -1.888,0 -3.504,1.664 -3.504,3.84 z m 1.248,-0.16 c 0,-1.936 1.232,-2.688 2.256,-2.688 1.024,0 2.256,0.736 2.256,2.688 0,2 -1.184,2.848 -2.256,2.848 -1.056,0 -2.256,-0.832 -2.256,-2.848 z"
           style="font-size:16px;fill:#ffffff;stroke-width:0.75px;stroke-linecap:butt;stroke-linejoin:round"
           id="path1462" />
        <path
           d="m 437.17532,194.32224 h 1.248 v -3.84 c 0,-1.184 0.4,-2.464 1.632,-2.464 1.568,0 1.568,1.2 1.568,1.808 v 4.496 h 1.248 v -4.608 c 0,-1.12 -0.144,-2.672 -2.192,-2.672 -1.408,0 -2.112,0.912 -2.336,1.2 v -1.12 h -1.168 z"
           style="font-size:16px;fill:#ffffff;stroke-width:0.75px;stroke-linecap:butt;stroke-linejoin:round"
           id="path1464" />
      </g>
      <path
         transform="translate(0,-55.5)"
         inkscape:connector-curvature="0"
         clip-path="url(#clipPath1268)"
         d="m 80.998595,-1 0.775419,45.24241 0.183201,10.689003 0.974939,46.319067 0.974939,37.43079 0.974938,30.00392 0.974939,23.80356 0.974938,18.63321 0.974939,14.32835 0.974938,10.75106 0.974939,7.78554 0.649959,3.80046 0.649959,2.84449 0.649959,2.00584 0.649959,1.27171 0.649959,0.63067 0.32498,0.10122 0.324979,-0.0287 0.649959,-0.41185 0.649959,-0.83055 0.649959,-1.19085 0.974939,-2.34988 1.299918,-3.95652 1.624898,-5.87035 2.27486,-9.19785 6.82457,-28.20057 2.59983,-9.62238 2.27486,-7.66288 2.27486,-6.92789 2.27485,-6.2027 2.27486,-5.50895 2.27486,-4.859 1.94987,-3.68537 1.94988,-3.27743 1.94988,-2.90224 1.94987,-2.5589 2.27486,-2.59191 2.27486,-2.21114 2.27485,-1.87204 2.27486,-1.57099 2.27486,-1.30435 2.27485,-1.06875 2.59984,-0.96847 2.59984,-0.73381 2.92481,-0.58508 3.2498,-0.39787 3.24979,-0.17718 3.89976,0.024 4.22473,0.25661 4.87469,0.52223 5.84964,0.85577 7.47452,1.32779 11.37429,2.27133 26.9733,5.44224 13.64914,2.4884 13.32416,2.19947 13.32416,1.97488 13.97412,1.84648 14.94906,1.74626 15.92399,1.63174 17.22392,1.53689 18.84881,1.45237 20.47371,1.35143 22.74857,1.27523 10.72432,0.53155 v 0"
         style="opacity:0.54299999;fill:none;stroke:#f62196;stroke-width:1.5;stroke-linecap:square;stroke-linejoin:round;stroke-opacity:1"
         id="path905"
         sodipodi:nodetypes="cccccccccccccccccccccccccccccccccccccccccccccccccccccccccccccccccc" />
      <path
         sodipodi:nodetypes="cccccccccccccccccccccccccccccccccccccccccccccccccccccccccccccccccc"
         id="path943"
         style="opacity:0.203;fill:none;stroke:#f62196;stroke-width:1.5;stroke-linecap:square;stroke-linejoin:round;stroke-opacity:1"
         d="m 80.998595,-1 0.775419,45.24241 0.183201,10.689003 0.974939,46.319067 0.974939,37.43079 0.974938,30.00392 0.974939,23.80356 0.974938,18.63321 0.974939,14.32835 0.974938,10.75106 0.974939,7.78554 0.649959,3.80046 0.649959,2.84449 0.649959,2.00584 0.649959,1.27171 0.649959,0.63067 0.32498,0.10122 0.324979,-0.0287 0.649959,-0.41185 0.649959,-0.83055 0.649959,-1.19085 0.974939,-2.34988 1.299918,-3.95652 1.624898,-5.87035 2.27486,-9.19785 6.82457,-28.20057 2.59983,-9.62238 2.27486,-7.66288 2.27486,-6.92789 2.27485,-6.2027 2.27486,-5.50895 2.27486,-4.859 1.94987,-3.68537 1.94988,-3.27743 1.94988,-2.90224 1.94987,-2.5589 2.27486,-2.59191 2.27486,-2.21114 2.27485,-1.87204 2.27486,-1.57099 2.27486,-1.30435 2.27485,-1.06875 2.59984,-0.96847 2.59984,-0.73381 2.92481,-0.58508 3.2498,-0.39787 3.24979,-0.17718 3.89976,0.024 4.22473,0.25661 4.87469,0.52223 5.84964,0.85577 7.47452,1.32779 11.37429,2.27133 26.9733,5.44224 13.64914,2.4884 13.32416,2.19947 13.32416,1.97488 13.97412,1.84648 14.94906,1.74626 15.92399,1.63174 17.22392,1.53689 18.84881,1.45237 20.47371,1.35143 22.74857,1.27523 10.72432,0.53155 v 0"
         clip-path="url(#clipPath1268)"
         inkscape:connector-curvature="0"
         transform="translate(0,-46.5)" />
      <path
         style="opacity:0.50899999;fill:none;fill-rule:evenodd;stroke:#f62196;stroke-width:1.49483895;stroke-linecap:butt;stroke-linejoin:miter;stroke-miterlimit:4;stroke-dasharray:4.48451678, 1.49483892000000007;stroke-dashoffset:0;stroke-opacity:1"
         d="M 84.400672,105.02303 H 122.93948"
         id="path945"
         inkscape:connector-curvature="0" />
      <path
         inkscape:connector-curvature="0"
         id="path947"
         d="M 84.400672,115.52303 H 122.93948"
         style="opacity:0.21199999;fill:none;fill-rule:evenodd;stroke:#f62196;stroke-width:1.49483895;stroke-linecap:butt;stroke-linejoin:miter;stroke-miterlimit:4;stroke-dasharray:4.48451678, 1.49483892000000007;stroke-dashoffset:0;stroke-opacity:1" />
      <path
         style="fill:none;fill-rule:evenodd;stroke:#f62196;stroke-width:1.5;stroke-linecap:butt;stroke-linejoin:miter;stroke-miterlimit:4;stroke-dasharray:none;stroke-opacity:1;marker-start:url(#marker1511);marker-end:url(#Arrow1Mend);opacity:0.77"
         d="M 404.19196,88.446795 V 131.61523"
         id="path949"
         inkscape:connector-curvature="0" />
    </g>
  </g>
  <defs
     id="defs337">
    <clipPath
       id="p95e0666dc2"
       style="stroke-linecap:butt;stroke-linejoin:round">
      <rect
         height="266.112"
         width="357.12"
         x="57.599998"
         y="41.472"
         id="rect334"
         style="stroke-linecap:butt;stroke-linejoin:round" />
    </clipPath>
  </defs>
</svg>
